<svg width="60" height="60" viewBox="0 0 60 60" fill="none" xmlns="http://www.w3.org/2000/svg">
<path d="M48.0297 28.3555C47.4972 18.7981 42.1254 11.2627 35.601 11.2627C33.5857 11.2627 31.685 11.9839 30 13.2578C28.315 11.9839 26.4075 11.2627 24.399 11.2627C17.8746 11.2627 12.5095 18.7981 11.9703 28.3555H5.56055V29.7035H11.9232C11.9232 29.7776 11.9232 29.8518 11.9232 29.9259C11.9232 40.218 17.5174 48.5891 24.399 48.5891C26.4143 48.5891 28.315 47.868 30 46.5941C31.685 47.868 33.5925 48.5891 35.601 48.5891C42.4826 48.5891 48.0768 40.218 48.0768 29.9259C48.0768 29.8518 48.0768 29.7776 48.0768 29.7035H54.4394V28.3555H48.0297ZM35.601 12.6107C41.3974 12.6107 46.1694 19.5395 46.6816 28.3555H36.8209C36.4839 22.3703 34.2597 17.1872 31.038 14.1407C32.4332 13.1634 33.9766 12.6107 35.601 12.6107ZM35.5201 29.9259C35.5201 36.2953 33.2959 41.8693 30 44.8754C26.6974 41.8693 24.4799 36.2953 24.4799 29.9259C24.4799 29.8518 24.4799 29.7776 24.4799 29.7035H35.5134C35.5134 29.7776 35.5134 29.8518 35.5134 29.9259H35.5201ZM24.5271 28.3555C24.8573 22.6467 26.9737 17.7332 30 14.9765C33.0263 17.7332 35.1427 22.6467 35.4729 28.3555H24.5271ZM24.399 12.6107C26.0234 12.6107 27.5668 13.1634 28.962 14.1407C25.7403 17.1872 23.5161 22.3703 23.1791 28.3555H13.3184C13.8306 19.5395 18.6026 12.6107 24.399 12.6107ZM24.399 47.2411C18.2656 47.2411 13.2712 39.4766 13.2712 29.9259C13.2712 29.8518 13.2712 29.7776 13.2712 29.7035H23.1319C23.1319 29.7776 23.1319 29.8518 23.1319 29.9259C23.1319 36.5649 25.4639 42.4018 28.962 45.7111C27.5668 46.6884 26.0234 47.2411 24.399 47.2411ZM46.7356 29.9259C46.7356 39.4766 41.7412 47.2411 35.6077 47.2411C33.9834 47.2411 32.4399 46.6884 31.0447 45.7111C34.5428 42.4018 36.8749 36.5649 36.8749 29.9259C36.8749 29.8518 36.8749 29.7776 36.8749 29.7035H46.7356C46.7356 29.7776 46.7356 29.8518 46.7356 29.9259Z" fill="white"/>
<path d="M30 0C13.4599 0 0 13.4599 0 30C0 46.5401 13.4599 60 30 60C46.5401 60 60 46.5401 60 30C60 13.4599 46.5468 0 30 0ZM30 58.652C14.2013 58.652 1.34801 45.7987 1.34801 30C1.34801 14.2013 14.2013 1.34801 30 1.34801C45.7987 1.34801 58.652 14.2013 58.652 30C58.652 45.7987 45.7987 58.652 30 58.652Z" fill="white"/>
</svg>
