<svg width="60" height="60" viewBox="0 0 60 60" fill="none" xmlns="http://www.w3.org/2000/svg">
<g clip-path="url(#clip0_845_43)">
<path d="M30 60C13.4599 60 0 46.5468 0 30C0 13.4532 13.4599 0 30 0C46.5401 0 60 13.4599 60 30C60 46.5401 46.5401 60 30 60ZM30 1.34801C14.2013 1.34801 1.34801 14.2013 1.34801 30C1.34801 45.7987 14.2013 58.652 30 58.652C45.7987 58.652 58.652 45.7987 58.652 30C58.652 14.2013 45.7987 1.34801 30 1.34801Z" fill="white"/>
<path d="M19.7618 14.3564C20.3617 14.3564 20.9683 14.4643 21.5479 14.6934C24.217 15.7516 25.383 18.2117 25.0663 20.5034C24.8034 22.3838 25.3493 24.298 26.6906 25.6393L26.9265 25.8752C27.7892 26.7379 28.9148 27.1693 30.0472 27.1693C31.1795 27.1693 32.3051 26.7379 33.1678 25.8752C34.5967 24.4463 35.264 22.4377 35.0146 20.4292C34.8124 18.852 35.3179 17.2142 36.5311 16.0077V15.9943C37.5758 14.9563 38.9373 14.4373 40.2988 14.4373C41.6603 14.4373 43.0218 14.9563 44.0597 15.9943L44.08 16.0212C46.1559 18.0971 46.1559 21.4604 44.08 23.5364H44.0732C43.0353 24.5811 41.6738 25.1001 40.3123 25.1001C40.0898 25.1001 39.8674 25.0866 39.6517 25.0596C39.3754 25.0259 39.0923 25.0057 38.816 25.0057C37.0973 25.0057 35.4325 25.6662 34.2058 26.8997C32.4803 28.6251 32.4803 31.4155 34.2058 33.141C35.4392 34.3744 37.104 35.0417 38.8227 35.0417C39.0991 35.0417 39.3754 35.0214 39.6517 34.9877C39.8742 34.9608 40.1033 34.9473 40.3258 34.9473C41.6872 34.9473 43.042 35.4663 44.0732 36.5043H44.08C46.1559 38.5869 46.1559 41.957 44.08 44.0329L43.9923 44.1205C42.9678 45.145 41.6333 45.6505 40.2988 45.6505C38.9643 45.6505 37.5691 45.118 36.5446 44.0531V44.0396C35.3246 42.8332 34.8191 41.1886 35.0213 39.6182C35.2707 37.6096 34.6034 35.6011 33.1745 34.1722C32.3118 33.3027 31.1862 32.8781 30.0539 32.8781C28.9216 32.8781 27.796 33.3095 26.9333 34.1722L26.7041 34.4014C25.3628 35.7494 24.8169 37.6568 25.0797 39.544C25.3291 41.3166 24.6821 43.1971 23.1319 44.444C22.1815 45.2124 21.029 45.5764 19.8764 45.5764C18.434 45.5764 16.9917 45.0035 15.9133 43.9318L15.8998 43.9116C14.4844 42.4962 13.9991 40.3798 14.7337 38.5195C15.6774 36.147 17.7331 34.954 19.7955 34.954C20.0449 34.954 20.2943 34.9743 20.5437 35.008C20.8537 35.0484 21.1638 35.0754 21.4671 35.0754C23.0375 35.0754 24.554 34.5092 25.6796 33.3836L25.9088 33.1544C27.6342 31.429 27.6342 28.6386 25.9088 26.9131L25.6729 26.6772C24.581 25.5854 23.1049 24.9585 21.5816 24.9585C21.2783 24.9585 20.975 24.9855 20.6717 25.0327C20.3752 25.0799 20.0786 25.1068 19.7821 25.1068C18.2386 25.1068 16.7018 24.4395 15.6302 23.105C13.9115 20.9684 14.208 17.8343 16.1424 15.8864L16.1626 15.8729C17.1332 14.9024 18.4408 14.3632 19.7618 14.3632M19.7618 13.0151C18.1105 13.0151 16.4862 13.6824 15.2797 14.8417L15.1853 14.9293C12.705 17.4164 12.4421 21.2919 14.572 23.9408C15.8526 25.5314 17.7466 26.4413 19.7753 26.4413C20.146 26.4413 20.5167 26.4076 20.8874 26.347C21.1098 26.3065 21.3457 26.2931 21.5749 26.2931C22.7275 26.2931 23.8665 26.7783 24.709 27.6209L24.9449 27.8568C25.5246 28.4364 25.8414 29.2048 25.8414 30.0271C25.8414 30.8426 25.5246 31.6177 24.9449 32.1906L24.7158 32.4198C23.88 33.2555 22.7207 33.7139 21.4603 33.7139C21.2177 33.7139 20.9683 33.6936 20.7257 33.6599C20.4156 33.6195 20.1056 33.5925 19.7888 33.5925C16.9782 33.5925 14.5585 35.2843 13.4734 38.0073C12.5567 40.3191 13.1094 42.9612 14.8685 44.7743L14.9494 44.8687C16.2503 46.1628 18.0431 46.9109 19.8629 46.9109C21.3794 46.9109 22.7949 46.4189 23.9609 45.482C25.8211 43.9925 26.731 41.6941 26.4008 39.3418C26.1851 37.8118 26.6367 36.3492 27.6477 35.3382L27.8769 35.1091C28.4565 34.5294 29.2249 34.2126 30.0472 34.2126C30.8694 34.2126 31.6378 34.5294 32.2107 35.1091C33.343 36.2414 33.8755 37.8186 33.6733 39.4362C33.4104 41.4919 34.1047 43.5072 35.5673 44.9765C36.8344 46.2773 38.5059 46.985 40.292 46.985C42.0782 46.985 43.6958 46.3043 44.9359 45.0574L45.0236 44.9698C47.6252 42.3681 47.6252 38.1421 45.0236 35.5472C43.7564 34.28 42.0916 33.5858 40.3123 33.5858C40.0292 33.5858 39.7461 33.606 39.463 33.6397C39.2473 33.6667 39.0249 33.6802 38.8025 33.6802C37.4073 33.6802 36.1065 33.1477 35.1426 32.1771C34.563 31.5975 34.2395 30.8224 34.2395 30.0068C34.2395 29.1913 34.5563 28.4162 35.1359 27.8365C36.0997 26.866 37.4006 26.3335 38.7958 26.3335C39.0182 26.3335 39.2406 26.347 39.463 26.3739C39.7394 26.4076 40.0157 26.4279 40.292 26.4279C42.0714 26.4279 43.7497 25.7336 45.0101 24.4732C47.5983 21.8851 47.6185 17.6995 45.0708 15.0978L44.9966 15.0169C43.7362 13.7566 42.0647 13.0623 40.2853 13.0623C38.5059 13.0623 36.8344 13.7566 35.574 15.0169L35.4796 15.1113L35.4662 15.1315C34.0642 16.5874 33.4037 18.569 33.6598 20.5842C33.862 22.2018 33.3296 23.7723 32.1972 24.9046C31.6176 25.4843 30.8492 25.801 30.0269 25.801C29.2047 25.801 28.4363 25.4843 27.8634 24.9046L27.6275 24.6687C26.6232 23.6644 26.1716 22.2086 26.3873 20.6719C26.8254 17.5445 25.073 14.6328 22.0332 13.4195C21.3053 13.1297 20.5369 12.9814 19.7551 12.9814L19.7618 13.0151Z" fill="white"/>
</g>
<defs>
<clipPath id="clip0_845_43">
<rect width="60" height="60" fill="white"/>
</clipPath>
</defs>
</svg>
