<svg width="77" height="53" viewBox="0 0 77 53" fill="none" xmlns="http://www.w3.org/2000/svg">
<path fill-rule="evenodd" clip-rule="evenodd" d="M24.8209 0.407119C24.4349 0.425119 24.0489 0.443119 23.6624 0.460119C21.9134 0.601119 20.3159 0.850619 18.9359 1.33812C17.5639 1.82212 16.3454 2.48062 15.1189 3.04812C13.8635 3.62862 12.6994 4.31462 11.6529 5.07862C11.1324 5.46112 10.6579 5.89712 10.1669 6.31312C9.67745 6.73012 9.16945 7.13312 8.68095 7.54762C7.24545 8.76862 5.86895 10.1801 4.44645 11.4871C3.96445 11.9276 3.47095 12.3211 3.07195 12.8246C2.66195 13.3391 2.27095 13.8501 1.96945 14.4236C1.66345 15.0086 1.42645 15.6381 1.21695 16.3301C0.818949 17.6451 0.423949 19.1096 0.397949 20.7706C0.411449 21.0511 0.423949 21.3316 0.436949 21.6131C0.496949 22.3251 0.651449 23.0336 0.719949 23.7771C0.790449 24.5381 0.744949 25.3181 0.780949 26.0916C0.798449 26.4686 0.848449 26.8441 0.878949 27.2211C0.909449 27.6016 0.928449 27.9546 1.02045 28.3056C1.37745 29.6631 1.39945 31.1031 1.54245 32.6691C1.61295 33.4386 1.67495 34.2151 1.70895 34.9621C1.74245 35.6886 1.63845 36.4131 1.57895 37.1011C1.54745 37.4611 1.53195 37.8111 1.48945 38.1466C1.44845 38.4726 1.29745 38.7351 1.23995 39.0346C1.24295 39.0956 1.24545 39.1576 1.24845 39.2166C1.31995 39.5646 1.53295 39.8481 1.81595 39.9281C2.09145 40.0041 2.47345 39.4346 2.56295 39.2346C2.71995 38.8816 2.71045 38.4846 2.70645 38.0301C2.69795 37.1341 2.72995 36.2281 2.68945 35.3481C2.60345 33.4716 2.61695 31.5821 2.45145 29.8491C2.79545 30.5961 3.08895 31.2921 3.45145 31.9831C3.62945 32.3206 3.85295 32.6331 4.01645 32.9826C4.19995 33.3766 4.16645 33.8281 4.24795 34.3546C4.31445 34.7846 4.43895 35.2196 4.53745 35.6606C4.63445 36.0951 4.71545 36.5366 4.81245 36.9826C4.90345 37.4006 5.03945 37.8561 5.01295 38.3526C4.98695 38.8361 5.11345 39.2871 5.04645 39.7481C4.91795 40.6386 4.88695 41.6141 4.77445 42.4591C4.62795 43.5661 4.39395 45.7426 4.15545 46.7736C4.06895 47.1491 3.33195 47.6416 3.46045 48.1281C3.51295 48.3266 3.59195 48.5076 3.65595 48.7156C3.78645 49.1406 3.75595 49.7061 3.79945 50.1816C3.87295 50.9691 3.84745 51.6911 4.45945 51.9016C4.89045 52.0471 5.45295 52.0926 5.99795 52.1366C7.07095 52.2246 8.21895 52.2806 9.42445 52.2246C10.028 52.1976 10.6504 52.1806 11.1744 52.0656C11.5569 51.9836 11.5659 51.5066 11.5069 50.9931C11.4279 50.3071 11.1775 50.0601 10.8064 49.7211C10.4679 49.4101 10.2109 49.0061 9.94645 48.6246C9.81295 48.4336 9.75145 48.1946 9.66895 47.9156C9.59345 47.6611 10.1364 47.3871 10.1129 47.0811C10.0899 46.7876 10.1179 46.4766 10.1319 46.1761C10.1869 45.0196 10.2129 42.5756 10.2084 41.3516C10.2054 40.7261 10.1974 40.0826 10.2144 39.4951C10.2299 38.9361 10.2824 38.3866 10.6354 38.0336C10.7104 38.3016 10.7969 38.5681 10.8864 38.8331C10.9819 39.1181 11.0289 39.3801 11.0784 39.6856C11.1239 39.9616 11.2314 40.2361 11.3004 40.5191C11.6434 41.9151 11.8064 43.5196 11.9994 45.0731C12.0779 45.7091 12.1259 46.3631 12.2529 46.9326C12.3769 47.4871 12.5964 47.9411 12.8114 48.4396C12.9984 48.8771 13.2799 48.7926 13.3854 49.3281C13.5104 49.9671 13.544 50.5401 13.7839 51.0136C13.9184 51.2806 14.1674 51.4231 14.4644 51.5346C14.7494 51.6411 15.0624 51.7496 15.3924 51.7831C16.1324 51.8561 16.8724 51.6171 17.4859 51.4576C18.0984 51.2976 18.7614 51.0976 19.3204 50.8206C19.5744 50.6931 19.8444 50.5461 20.1259 50.3991C20.5069 50.1991 20.9504 50.0206 20.9874 49.5296C21.0264 49.0211 20.7069 48.4321 20.4094 48.2531C20.2849 48.1786 20.1319 48.1241 19.9879 48.0576C19.7924 47.9701 19.5939 47.9286 19.4559 47.7911C19.2934 47.6276 19.1404 47.3791 18.9674 47.1401C18.8004 46.9066 18.6359 47.3041 18.5374 47.0416C18.3299 46.4926 18.0754 45.9151 17.9239 45.3381C17.7629 44.7216 17.5204 44.1961 17.3104 43.6326C16.9104 42.5541 16.5044 41.3231 16.332 39.9636C16.2845 39.5906 16.2419 39.2431 16.2679 38.9091C16.2914 38.6091 16.3884 38.3211 16.4559 38.0096C16.5974 37.3536 16.6009 36.7156 16.7659 36.1236C16.9249 35.5541 17.1739 35.0516 17.2999 34.4596C18.1244 34.0306 19.2379 33.9626 20.3739 33.8561C21.4914 33.7506 22.6889 33.6461 23.8149 33.5896C24.0104 33.7776 24.1119 34.0656 24.3329 34.2261C24.4469 34.3076 24.6369 34.3106 24.7689 34.4046C24.8874 34.4896 25.0419 34.7741 25.1604 34.9391C25.5449 35.4801 25.9379 36.0376 26.3344 36.5401C26.6139 36.8976 26.9324 37.1916 27.2039 37.5141C27.4849 37.8486 27.6954 38.2456 27.9279 38.6316C28.6329 39.8021 29.3004 40.9461 29.9694 42.1591C30.1924 42.5636 30.4349 42.9711 30.5624 43.4191C30.2069 43.5421 29.8119 43.5161 29.4369 43.5326C29.0589 43.5506 28.6794 43.5586 28.3064 43.5366C27.7364 43.5086 26.8794 43.1906 26.2594 43.5421C25.7684 43.8191 25.5084 44.5551 25.3884 45.1906C25.3169 45.5711 25.3189 45.9941 25.3519 46.3891C25.3844 46.7816 25.5099 47.1161 25.6139 47.4371C25.9899 48.5941 26.4084 49.6286 27.2014 50.3856C27.3324 50.5121 27.4554 50.6556 27.5974 50.6906C27.9409 50.7686 28.4484 50.7356 28.7689 50.5886C29.0729 50.4516 29.5389 50.0771 29.6944 49.7821C29.8999 49.3881 29.8054 48.8621 30.0459 48.4596C30.2209 48.1671 30.5254 47.8886 30.8019 47.6276C31.0894 47.3551 31.4329 47.1421 31.7814 46.9996C31.9869 46.9141 32.1784 46.8556 32.351 46.7571C32.8235 46.4906 33.3064 46.0846 33.741 45.7571C34.065 45.5141 34.3424 45.2896 34.5929 45.0136C34.8489 44.7306 35.053 44.4276 35.2695 44.1081C35.497 43.7686 35.6565 43.4541 35.722 42.9966C35.7845 42.5646 35.757 42.0941 35.729 41.4926C35.716 41.2051 35.728 40.9386 35.6925 40.6976C35.6604 40.4791 35.5705 40.2706 35.5105 40.0616C35.27 39.2256 35.0569 38.3226 34.8839 37.4046C34.7164 36.5201 34.7715 35.2846 34.742 34.3291C34.727 33.8416 34.799 33.3911 34.8764 32.9436C35.0285 32.0601 35.174 31.2346 35.4324 30.4156C35.5234 30.5721 35.553 30.7346 35.623 30.8986C35.686 31.0456 35.7809 31.1701 35.8559 31.3166C36.0135 31.6251 36.068 32.0091 36.1045 32.3931C36.3274 34.7776 36.735 37.0791 37.027 39.4856C37.117 40.2266 37.25 41.0601 37.3644 41.8331C37.4784 42.6056 37.5849 43.3991 37.7879 44.0686C37.8825 44.3776 38.0039 44.7231 38.0509 45.1301C38.1714 46.1666 38.756 47.5616 38.3465 48.5516C38.2485 48.7906 38.0534 48.9941 37.9189 49.2176C37.785 49.4376 37.6665 49.6861 37.554 49.9241C37.3465 50.3636 37.228 51.1216 37.3665 51.8201C37.4475 52.2276 37.9559 52.2286 38.4264 52.2771C39.5065 52.3821 40.8185 52.2866 41.8825 52.3486C42.0605 52.3396 42.2384 52.3321 42.416 52.3246C43.186 52.1336 44.322 52.2231 45.0105 51.9276C45.413 51.7546 45.2125 50.8126 45.0335 50.4386C44.8615 50.0786 44.364 49.7966 44.0465 49.5781C43.4874 49.1936 42.9684 48.8076 42.5369 48.3126C42.049 47.7536 42.352 46.7481 42.526 46.0876C42.7789 45.1291 43.0345 44.1896 43.1845 43.1451C43.335 42.0996 43.2809 40.9521 43.3969 39.7891C43.5019 38.7366 43.7075 37.7096 43.88 36.6856C44.0564 35.6376 44.172 34.5741 44.2994 33.5201C44.4324 32.4206 44.5369 31.3876 44.4795 30.1371C44.452 29.5386 44.4069 28.9371 44.3504 28.3316C44.2959 27.7501 44.1905 27.1591 44.178 26.5766C44.175 26.4411 44.4184 26.0926 44.514 25.9161C44.7524 25.4751 44.9565 25.1101 45.143 24.6436C45.2345 24.4181 45.2635 24.1516 45.3535 23.9136C45.4205 23.7396 45.6535 23.6381 45.839 23.5096C46.104 23.3226 46.3535 23.1156 46.6199 22.8731C46.7064 22.7946 46.8694 22.5066 46.9384 22.4926C47.0325 22.4671 47.285 22.5776 47.402 22.6066C48.4459 22.8766 49.5215 23.2021 50.4415 23.5866C51.2935 23.9426 52.0359 24.2986 52.4515 25.0901C52.5205 25.2221 52.569 25.3621 52.6525 25.4786C52.735 25.5966 52.8344 25.6951 52.8974 25.8221C52.986 26.0006 53.033 26.2086 53.108 26.4111C53.248 26.7851 53.4235 27.1396 53.6015 27.5076C53.7205 27.7516 53.9279 28.2166 54.3019 28.1181C54.5314 28.0591 54.7179 27.3971 54.7939 27.1911C55.0534 26.4896 55.2485 25.7751 55.2055 24.8406C55.1845 24.3876 55.145 23.9136 55.125 23.4321C55.347 23.4181 55.531 23.4476 55.708 23.4821C55.709 23.4971 55.7269 23.4941 55.7389 23.4971C56.0789 24.4001 56.5094 25.2676 57.0364 26.1221C57.3999 26.7096 57.8035 27.2866 58.2605 27.8136C58.406 27.9821 58.677 28.2031 58.714 28.3756C59.0955 30.1596 59.4015 32.0196 59.8385 33.8781C59.942 34.3166 60.049 34.7681 60.1595 35.2136C60.269 35.6526 60.4005 36.1041 60.466 36.5496C60.6064 37.5096 60.6919 38.4651 60.9039 39.4266C61.2959 41.2051 61.7665 42.9711 62.4065 44.5141C62.708 45.2396 63.1015 46.0041 63.4845 46.6891C63.6635 47.0066 63.8484 47.3836 64.0094 47.7991C64.1574 48.1811 64.4024 48.7076 64.4029 49.0391C64.4029 49.3116 64.1659 49.3651 64.1849 49.6181C64.2004 49.8206 64.4184 50.0786 64.5739 50.1056C64.7334 50.1296 64.9169 49.9951 65.1334 49.9721C65.2289 49.9606 65.3514 49.9556 65.4679 49.9421C65.5754 49.9271 65.7174 49.8831 65.7714 49.8966C65.8679 49.9206 65.9474 50.1541 66.0319 50.2391C66.1579 50.3616 66.2439 50.4176 66.4219 50.4191C66.4954 49.5741 66.3689 48.7651 66.2334 47.9886C65.8384 45.7271 65.2874 43.6116 64.7119 41.4926C64.3264 40.0746 64.1124 38.5306 63.9199 36.9111C63.7304 35.3151 63.6035 33.6296 63.629 31.9241C65.5275 32.6386 67.8899 33.1446 70.6364 32.7981C72.4994 32.5611 74.0154 31.9856 75.4244 31.2726C75.8814 31.0411 76.4239 30.7851 76.3359 30.1701C76.0989 29.9731 75.797 30.0901 75.5564 30.1611C74.8049 30.3881 74.0639 30.6771 73.2674 30.8791C72.1935 31.1541 71.0399 31.3966 69.7619 31.3941C67.2584 31.3941 65.2749 30.8911 63.5994 29.9611C63.6094 28.9001 63.7104 27.9211 63.6684 26.8121C65.5265 27.6321 67.938 28.2846 70.8394 27.9256C73.0314 27.6531 75.0454 26.9096 76.4559 25.8096C76.6744 25.6386 76.9439 25.4301 76.9929 25.2006C76.9899 25.1301 76.9865 25.0586 76.9829 24.9876C76.9384 24.7316 76.8634 24.4891 76.6384 24.4666C76.4524 24.4481 76.0934 24.6931 75.9199 24.7906C75.2494 25.1706 74.4449 25.5331 73.7189 25.7656C72.6704 26.1036 71.3975 26.3656 70.035 26.3821C68.7664 26.3961 67.4425 26.2781 66.4409 25.9781C65.9224 25.8251 65.4414 25.6236 64.9639 25.4191C64.5124 25.2241 63.9725 25.0271 63.574 24.7621C63.537 24.7371 63.5254 24.7316 63.5094 24.6876C63.437 24.4906 63.4825 24.1016 63.47 23.8316C63.4295 22.9596 63.2459 22.2296 63.1334 21.4976C62.8969 19.9666 62.5149 18.5536 61.951 17.3951C61.3909 16.2456 60.615 15.1776 60.2155 13.8861C60.0569 13.3736 60.0109 12.8836 59.9329 12.3961C59.8574 11.9236 59.6959 11.4541 59.534 11.0331C59.3825 10.6406 59.1744 10.2496 58.9459 9.87862C58.7295 9.52862 58.5305 9.12762 58.242 8.85312C58.0914 8.71112 57.9235 8.58362 57.7804 8.45962C57.6024 8.30962 57.5015 8.20962 57.4065 7.97062C57.2515 7.58112 57.028 7.22212 56.819 6.81662C56.5219 6.24262 56.2295 5.64462 55.9734 5.04462C55.8825 4.83362 55.834 4.60212 55.7439 4.38262C55.6344 4.11112 55.355 3.92162 55.1635 3.71712C54.977 3.52062 54.8144 3.25862 54.7285 2.89362C54.6414 2.52862 54.6144 2.15162 54.4819 1.86262C54.3549 1.58512 54.1824 1.32162 53.9884 1.10262C53.5864 0.648119 53.0405 0.409619 52.4205 0.222119C51.8045 0.0391191 51.076 -0.0958809 50.289 0.0616191C48.881 0.339619 47.6375 0.773619 46.4184 1.26862C45.792 1.52012 45.2409 1.79862 44.5864 1.96512C43.8859 2.14412 43.1264 2.06512 42.312 2.01112C41.5615 1.95662 40.8235 1.92312 40.0895 1.85012C37.9035 1.63412 35.617 1.59112 33.4215 1.37612C32.0075 1.23512 30.6239 0.978119 29.2089 0.803619C27.7819 0.626119 26.3524 0.473619 24.8209 0.407119Z" fill="#9667E0"/>
</svg>
