<svg width="63" height="46" viewBox="0 0 63 46" fill="none" xmlns="http://www.w3.org/2000/svg">
<path fill-rule="evenodd" clip-rule="evenodd" d="M37.7115 0.460681C39.5405 0.934681 41.216 1.75218 43.108 1.87868C44.625 1.97968 46.1365 2.16818 47.658 2.23468C48.679 2.28068 49.6735 2.50468 50.507 3.13618C51.3735 3.79568 52.2215 4.50468 52.878 5.38268C53.779 6.59168 54.3665 7.99918 55.099 9.31368C55.2245 9.54068 55.3135 9.79068 55.383 10.0417C55.8065 11.5717 56.298 13.0787 56.621 14.6392C57.0035 16.4872 57.518 18.3047 57.823 20.1677C57.857 20.3772 57.8695 20.7807 57.8695 20.7807C57.8695 20.7807 58.4935 21.2497 58.9065 21.4077C59.4125 21.6012 59.825 21.7602 60.365 21.7512C60.7105 21.7457 61.0805 21.7512 61.5025 21.6972C62.8325 21.4762 62.142 21.8847 61.5665 22.1357C61.1815 22.3442 60.903 22.4072 60.61 22.4987C59.917 22.7252 59.216 22.8217 58.497 22.6832C58.2345 22.6307 57.9065 22.4762 57.9065 22.4762C57.9065 22.4762 57.9785 22.8417 57.985 23.1077C58.0035 23.8947 58.2095 24.6612 58.197 25.4552C58.184 26.3337 58.2145 27.2127 58.2045 28.0937C58.164 31.6717 58.0835 35.2477 57.981 38.8247C57.9515 39.8557 57.8245 40.8752 57.5485 41.8757C57.2515 42.9537 56.7345 43.8352 55.67 44.2772C55.568 44.3222 55.471 44.3822 55.3655 44.4072C54.6525 44.5787 53.941 44.7582 53.222 44.8992C52.8045 44.9807 52.651 44.7642 52.771 44.3467C52.8375 44.1122 53.022 43.9777 53.1835 43.8312C53.521 43.5267 53.658 43.2142 53.448 42.7452C53.267 42.3422 53.5495 42.0602 53.9745 42.1602C54.557 42.2977 54.995 42.2827 55.237 41.7132C55.446 41.2197 55.4945 40.8912 55.5485 40.6162C55.6045 40.3372 55.645 39.6602 55.6445 39.4742C55.6405 38.6897 55.6725 37.8977 55.594 37.1187C55.394 35.1452 55.0995 33.1837 54.9565 31.2027C54.8535 29.7712 54.9465 28.3377 54.6295 26.9007C54.349 25.6322 54.1985 24.3282 53.8435 23.0657C53.549 22.0167 53.1895 20.5497 52.6655 20.0502C52.531 19.8042 52.4355 19.5197 52.159 19.3587C52.007 19.6377 52.1655 19.8367 52.2125 20.0467C52.2445 20.1867 52.2285 20.3092 52.1175 20.3997C52.002 20.4957 51.8685 20.4717 51.7585 20.3907C51.624 20.2962 51.497 20.1847 51.381 20.0657C51.247 19.9307 51.0995 19.8312 50.9125 19.7907C50.3435 19.6702 49.858 19.3812 49.3955 19.0287C48.7575 18.5452 47.973 18.5727 47.383 19.0992C47.143 19.3137 46.857 19.4532 46.5805 19.3857C45.9945 19.2407 45.375 19.2122 44.8235 18.9542C44.4085 18.7602 43.99 18.6817 43.545 18.6872C43.252 18.6897 42.958 18.6997 42.6655 18.6857C42.1475 18.6617 41.9135 18.7967 41.783 19.3077C41.606 19.9992 41.204 20.5337 40.6475 20.9087C40.292 21.1497 40.214 21.4167 40.2505 21.8007C40.374 23.0917 40.381 24.3772 40.2705 25.6722C40.19 26.6047 39.984 27.5187 39.899 28.4517C39.708 30.5387 39.392 32.6132 39.0735 34.6867C38.821 36.3307 38.458 37.9607 38.479 39.6402C38.481 39.7882 38.4335 39.9352 38.4075 40.0817C38.1945 41.3077 38.201 42.4677 39.2495 43.3622C39.6055 43.6647 39.7685 44.0722 39.7265 44.5572C39.694 44.9342 39.025 45.1072 38.662 45.1442C38.517 45.1572 38.4445 45.2042 38.2315 45.2042C37.0435 45.1912 35.9855 45.3262 34.8725 45.1182C34.5695 45.0607 34.5735 45.0252 34.2295 44.8837C33.965 44.7762 33.6965 44.6872 33.5555 44.4472C33.2655 43.9562 33.433 43.5847 33.729 43.0687C34.1405 42.3507 34.2745 41.5732 34.342 40.7707C34.3605 40.5467 34.3705 40.3137 34.4415 40.1052C34.6145 39.6002 34.6565 39.0842 34.6525 38.5552C34.649 38.0482 34.6875 37.5467 34.7525 37.0452C34.857 36.2397 34.8375 35.4427 34.6725 34.6422C34.484 33.7247 34.389 32.7907 34.257 31.8652C34.0885 30.6802 34.091 29.4712 33.755 28.3102C33.603 27.7877 33.526 27.2532 33.5365 26.7027C33.542 26.4112 33.516 26.1167 33.3365 25.8522C33.2575 25.8977 33.194 25.9142 33.1695 25.9542C32.7715 26.6047 32.2495 27.1652 31.9025 27.8557C31.508 28.6372 31.065 29.3927 30.557 30.1077C29.9395 30.9737 29.4165 31.8897 29.0775 32.9127C28.778 33.8172 28.4315 34.7052 28.154 35.6152C27.662 37.2277 26.975 38.7502 26.221 40.2482C25.863 40.9567 25.3135 41.5047 24.7905 42.0782C24.3355 42.5802 24.0455 43.1617 24.078 43.8872C24.0945 44.2592 24.0775 44.5267 23.831 44.8102C23.583 45.0942 23.19 44.9072 22.911 44.9097C22.875 44.9097 22.8385 44.8992 22.803 44.8887C21.454 44.5497 20.1815 44.0837 19.197 42.9942C18.475 42.1937 18.572 41.2522 19.517 40.7197C19.74 40.5937 19.9845 40.5047 20.224 40.4117C20.468 40.3192 20.6795 40.1892 20.874 40.0072C22.191 38.7777 22.918 37.2042 23.4545 35.5082C23.6985 34.7382 23.711 33.9152 23.9865 33.1572C24.5625 31.5732 24.6535 29.9052 24.854 28.2522C24.882 28.0242 24.7945 27.9012 24.5645 27.8727C24.0755 27.8087 23.5945 27.6997 23.0915 27.7652C22.526 27.8387 21.958 27.7572 21.39 27.7342C20.5685 27.6997 19.7415 27.7107 19.013 28.2172C18.6415 28.4747 18.2175 28.5822 17.765 28.5992C16.867 28.6332 15.9695 28.7027 15.071 28.6502C14.788 28.6347 14.634 28.7512 14.512 28.9972C14.2255 29.5727 14.0575 30.1817 13.9465 30.8097C13.8095 31.5872 13.7075 32.3827 13.338 33.0792C12.598 34.4707 12.431 35.9927 12.265 37.5182C12.135 38.7137 12.261 39.9157 12.213 41.1127C12.1715 42.1482 12.351 43.7652 12.838 44.6782C12.9685 44.9217 13.182 44.9802 12.916 44.9817C12.379 44.9827 11.709 45.0287 11.166 44.9777C10.911 44.9537 10.651 44.9747 10.3985 44.9342C9.64049 44.8182 9.36749 44.9827 8.39849 44.9827C7.75349 44.9842 7.48299 44.8322 7.69599 44.2197C8.02349 43.2822 8.15399 42.2897 8.19349 41.3177C8.29499 38.8117 8.23249 36.3002 8.18299 33.7927C8.18149 33.7337 8.14599 33.6927 8.07399 33.7087C7.96599 33.9052 7.91649 34.1197 7.87349 34.3422C7.52849 36.1242 7.02349 37.8637 6.44049 39.5802C6.25499 40.1272 6.27849 40.3382 6.08649 40.8847C6.01999 41.0707 5.85299 41.6477 6.02199 41.8102C6.25049 42.4037 6.24799 43.4392 6.45699 43.9382C6.62299 44.3367 6.47249 44.5172 6.04799 44.6072C5.81349 44.6597 5.59449 44.7472 5.36849 44.8207C4.76849 45.0167 3.89999 45.1027 2.51799 44.8037C1.85549 44.6602 2.23549 44.6752 1.55099 44.6247C1.20349 44.5967 1.02399 44.3142 0.96849 43.9657C0.92249 43.6777 0.99199 43.4082 1.09699 43.1442C2.00499 40.8532 2.80999 37.8857 3.43749 35.4947C3.96249 33.4957 4.33599 31.4627 4.43449 29.4127C4.52949 27.4392 4.67649 25.4487 4.37949 23.4687C4.26899 22.7352 3.90499 22.1357 3.57949 21.4577C3.50649 21.5612 3.47199 21.5887 3.46649 21.6202C3.44699 21.7512 3.42699 21.8807 3.42299 22.0102C3.38499 23.3162 3.09049 24.5617 2.63799 25.7817C2.24899 26.8302 1.87399 27.8857 1.55449 28.9612C1.39199 29.5067 1.33649 30.0642 1.33849 30.6252C1.34149 31.2992 1.57199 31.9867 1.60149 32.6612C1.62699 33.2482 1.76549 33.6182 1.51849 34.1427C1.26499 34.6792 1.22699 35.1782 0.84449 36.0492C0.67149 36.4432 0.52149 36.8697 0.17149 37.2247C0.14149 36.9812 0.19899 36.8017 0.23349 36.6197C0.37299 35.8902 0.38299 35.1402 0.17049 34.4472C-0.17001 33.3367 0.00698966 32.3432 0.56649 31.3817C0.69449 31.1627 0.74749 30.9392 0.76099 30.6902C0.85399 29.0392 1.13399 27.4182 1.68299 25.8597C2.44399 23.7022 2.45499 21.4817 2.21799 19.2592C2.10099 18.1592 1.99749 17.0802 2.03299 15.9682C2.06799 14.8477 2.33499 13.8312 2.77099 12.8322C2.91199 12.5077 3.07499 12.1827 3.14749 11.8382C3.45349 10.4022 4.11399 9.13818 4.93999 7.95868C5.40849 7.28818 5.86249 6.57818 6.47899 6.05968C7.11499 5.52318 7.70999 4.94168 8.33349 4.39318C8.90549 3.89168 9.53749 3.45518 10.2835 3.27468C11.246 3.03868 12.1805 2.70768 13.1425 2.47068C14.9135 2.03318 16.7015 2.02918 18.496 2.17368C19.575 2.25768 20.6315 2.51418 21.698 2.69168C23.512 2.99618 25.3525 2.96818 27.186 2.99718C27.481 2.99968 27.773 2.95368 28.0555 2.86968C28.744 2.66718 29.4425 2.52518 30.156 2.44568C30.461 2.41018 31.199 2.25218 31.199 2.25218C31.199 2.25218 31.3315 1.91818 31.4815 1.73568C31.8965 1.23068 32.425 0.849681 33.0505 0.640181C33.468 0.498681 33.874 0.294181 34.311 0.243681C35.157 0.143681 36.886 0.245681 37.7115 0.460681Z" fill="#37A868"/>
</svg>
