<svg width="75" height="65" viewBox="0 0 75 65" fill="none" xmlns="http://www.w3.org/2000/svg">
<path fill-rule="evenodd" clip-rule="evenodd" d="M72.4331 65.0036H65.0176H62.3706H44.4471C42.7126 65.0036 41.3066 63.6146 41.3066 61.9021V39.6746C41.3066 27.4261 42.7491 21.2056 45.6301 15.8151C49.2011 9.20213 54.5491 4.04863 61.6776 0.355632C63.1386 -0.402368 64.9431 0.0726324 65.8156 1.45613L68.6151 5.89713C69.5611 7.39763 69.0446 9.36863 67.4866 10.2391C63.9211 12.2316 61.1596 14.9606 59.2036 18.4271C57.1086 22.1411 55.8016 24.4331 55.2826 30.5011C55.1276 32.3111 56.5731 33.8661 58.4121 33.8661H62.3706H65.0176H72.4331C73.8521 33.8661 75.0026 35.0016 75.0026 36.4036V62.4656C75.0026 63.8676 73.8521 65.0036 72.4331 65.0036ZM30.3471 65.0036H23.7076H20.2846H3.13658C1.40208 65.0036 -0.00341797 63.6146 -0.00341797 61.9021V42.2741C-0.00341797 30.0251 1.43908 21.2056 4.31958 15.8151C7.89108 9.20213 13.2391 4.04863 20.3676 0.355632C21.8286 -0.402368 23.6331 0.0726324 24.5051 1.45613L27.3051 5.89713C28.2511 7.39763 27.7346 9.36863 26.1766 10.2391C22.6106 12.2316 19.8496 14.9606 17.8936 18.4271C15.7986 22.1411 14.4916 24.4331 13.9726 30.5011C13.8176 32.3111 15.2631 33.8661 17.1021 33.8661H20.2846H23.7076H30.3471C31.7661 33.8661 32.9166 35.0016 32.9166 36.4036V62.4656C32.9166 63.8676 31.7661 65.0036 30.3471 65.0036Z" fill="#7DEA13"/>
</svg>
