<svg width="90" height="39" viewBox="0 0 90 39" fill="none" xmlns="http://www.w3.org/2000/svg">
<g clip-path="url(#clip0)">
<path d="M19.3372 0C8.65598 0 0 8.65598 0 19.3372C0 30.0185 8.65598 38.6745 19.3372 38.6745C30.0185 38.6745 38.6745 30.0185 38.6745 19.3372C38.6745 8.65598 30.0185 0 19.3372 0ZM31.8496 12.5956C33.32 12.5956 34.5407 13.8163 34.5407 15.2867C34.5407 16.7293 33.2922 17.9778 31.8496 17.9778C30.3514 17.9778 29.1584 16.7016 29.1584 15.2867C29.1584 13.8163 30.3514 12.5956 31.8496 12.5956ZM14.2324 15.6473C14.2324 16.2577 13.733 16.7571 13.1227 16.7571C13.0672 16.7571 13.0117 16.7571 12.9562 16.7571C11.3194 16.7571 9.82121 17.7281 9.82121 20.4192V26.2731H8.85018C7.13009 26.2731 5.71517 24.8582 5.71517 23.1381V12.8453H8.96116C9.34957 12.8453 9.68249 13.1782 9.68249 13.5666C9.68249 13.8718 10.0432 14.0105 10.2651 13.7885C11.0974 12.9562 12.3181 12.7065 13.1504 12.7065H14.2324V15.6473ZM27.8822 19.6979C27.8822 20.1973 27.4661 20.6134 26.9667 20.6134H18.4494C18.5327 22.1393 19.9199 23.2213 21.5012 23.2213C22.5555 23.2213 23.3046 22.8607 23.7762 22.2781C24.1646 21.8064 24.8027 21.6399 25.3853 21.8064L27.6603 22.4445C27.0222 24.775 24.8859 26.717 21.4735 26.717C17.7836 26.717 14.4821 24.0814 14.4821 19.5592C14.4821 15.2312 17.7004 12.4846 21.1961 12.4846C25.3576 12.4846 27.9377 15.0647 27.9377 19.365L27.8822 19.6979ZM31.8496 26.5228C30.3514 26.5228 29.1584 25.2466 29.1584 23.8317C29.1584 22.3335 30.3792 21.1406 31.8496 21.1406C33.32 21.1406 34.5407 22.3613 34.5407 23.8317C34.5407 25.2466 33.32 26.5228 31.8496 26.5228Z" fill="white"/>
<path d="M21.196 15.6748C19.4759 15.6748 18.5881 16.951 18.5326 17.9498H23.9148C23.8593 16.9233 23.138 15.6748 21.196 15.6748Z" fill="white"/>
<path d="M53.989 12.8457L56.3472 20.0035C56.4304 20.2532 56.7911 20.2532 56.8466 20.0035L58.7331 13.3451C58.8164 13.0677 59.0661 12.8734 59.3712 12.8734H62.8947L58.7331 26.3013H55.1265C54.849 26.3013 54.5994 26.1349 54.5161 25.8574L51.9915 18.3667C51.9082 18.117 51.5753 18.117 51.4921 18.3667L48.8842 26.3013H45.1943C44.9169 26.3013 44.6672 26.1071 44.5839 25.8574L40.7831 13.7335C40.6443 13.3173 40.9773 12.9012 41.3934 12.9012H44.7781L46.7757 20.0313C46.8589 20.281 47.1918 20.281 47.2751 20.0313L49.4945 13.3451C49.5778 13.0677 49.8275 12.9012 50.1049 12.9012H53.989V12.8457Z" fill="white"/>
<path d="M66.3627 6.32593C67.7221 6.32593 68.8041 7.40793 68.8041 8.73961C68.8041 10.0713 67.7221 11.1533 66.3627 11.1533C65.0587 11.1533 63.9767 10.0713 63.9767 8.73961C63.9767 7.40793 65.0587 6.32593 66.3627 6.32593ZM64.3374 23.0553V12.8457H67.4724C67.9995 12.8457 68.4434 13.2896 68.4434 13.8167V26.2735H67.5556C65.7801 26.2735 64.3374 24.8309 64.3374 23.0553Z" fill="white"/>
<path d="M70.2742 23.0541V6.71313H73.548C74.0196 6.71313 74.3803 7.10154 74.3803 7.54544V26.2723H73.4925C71.7169 26.2723 70.2742 24.8297 70.2742 23.0541Z" fill="white"/>
<path d="M89.1957 6.71313H85.9497V10.292V13.0664C85.9497 13.3438 85.6445 13.5103 85.3948 13.3438C84.84 12.9277 83.869 12.5393 82.3153 12.5393C78.5145 12.5393 75.7956 15.5356 75.7956 19.5306C75.7956 23.6644 78.6532 26.5775 82.454 26.5775C83.7857 26.5775 84.8955 26.1336 85.6168 25.4677C85.7278 25.3568 85.9497 25.44 85.9497 25.6065C85.9497 25.9671 86.2549 26.2723 86.6156 26.2723H90.0003V23.8586V10.2643V7.48995C90.0003 7.0738 89.6396 6.71313 89.1957 6.71313ZM82.9812 22.8876C81.3998 22.8876 79.9571 21.7501 79.9571 19.5306C79.9571 17.2834 81.3998 16.2014 82.9812 16.2014C84.5625 16.2014 86.0052 17.2834 86.0052 19.5306C86.0052 21.7501 84.5625 22.8876 82.9812 22.8876Z" fill="white"/>
</g>
<defs>
<clipPath id="clip0">
<rect width="90" height="38.6745" fill="white"/>
</clipPath>
</defs>
</svg>
