<svg width="121" height="181" viewBox="0 0 121 181" fill="none" xmlns="http://www.w3.org/2000/svg">
<path d="M11.1496 121.927L59.7878 170.853L60.497 171.567L61.2062 170.853L109.844 121.927L119.084 131.223L71.0866 179.505H70.7925H50.2015H49.9075L1.90905 131.223L11.1496 121.927ZM61.2062 110.851L109.844 61.9253L119.084 71.2209L71.0866 119.502H70.7925H50.2015H49.9075L1.90907 71.2209L11.1495 61.9253L59.7878 110.851L60.497 111.564L61.2062 110.851ZM61.2062 50.8489L109.844 1.92237L119.085 11.2189L71.0866 59.5004H70.7925H50.2015H49.9075L1.90904 11.2189L11.1496 1.92236L59.7878 50.8489L60.497 51.5623L61.2062 50.8489Z" stroke="white" stroke-width="2"/>
</svg>
