<svg width="168" height="7" viewBox="0 0 168 7" fill="none" xmlns="http://www.w3.org/2000/svg">
<path d="M1.32812 7H0.532227V6.17969C0.532227 6.06738 0.537109 5.98926 0.551758 5.94531C0.566406 5.90137 0.605469 5.84277 0.65918 5.76953L4.45801 0.818359V-0.00195312H5.25879V0.818359C5.25879 0.979492 5.21973 1.11621 5.1416 1.22852L1.32812 6.17969V7ZM7.12891 7H6.33301V6.17969C6.33301 6.06738 6.33789 5.98926 6.35254 5.94531C6.36719 5.90137 6.40625 5.84277 6.45996 5.76953L10.2588 0.818359V-0.00195312H11.0596V0.818359C11.0596 0.979492 11.0205 1.11621 10.9424 1.22852L7.12891 6.17969V7ZM12.9297 7H12.1338V6.17969C12.1338 6.06738 12.1387 5.98926 12.1533 5.94531C12.168 5.90137 12.207 5.84277 12.2607 5.76953L16.0596 0.818359V-0.00195312H16.8604V0.818359C16.8604 0.979492 16.8213 1.11621 16.7432 1.22852L12.9297 6.17969V7ZM18.7305 7H17.9346V6.17969C17.9346 6.06738 17.9395 5.98926 17.9541 5.94531C17.9688 5.90137 18.0078 5.84277 18.0615 5.76953L21.8604 0.818359V-0.00195312H22.6611V0.818359C22.6611 0.979492 22.6221 1.11621 22.5439 1.22852L18.7305 6.17969V7ZM24.5312 7H23.7354V6.17969C23.7354 6.06738 23.7402 5.98926 23.7549 5.94531C23.7695 5.90137 23.8086 5.84277 23.8623 5.76953L27.6611 0.818359V-0.00195312H28.4619V0.818359C28.4619 0.979492 28.4229 1.11621 28.3447 1.22852L24.5312 6.17969V7ZM30.332 7H29.5361V6.17969C29.5361 6.06738 29.541 5.98926 29.5557 5.94531C29.5703 5.90137 29.6094 5.84277 29.6631 5.76953L33.4619 0.818359V-0.00195312H34.2627V0.818359C34.2627 0.979492 34.2236 1.11621 34.1455 1.22852L30.332 6.17969V7ZM36.1328 7H35.3369V6.17969C35.3369 6.06738 35.3418 5.98926 35.3564 5.94531C35.3711 5.90137 35.4102 5.84277 35.4639 5.76953L39.2627 0.818359V-0.00195312H40.0635V0.818359C40.0635 0.979492 40.0244 1.11621 39.9463 1.22852L36.1328 6.17969V7ZM41.9336 7H41.1377V6.17969C41.1377 6.06738 41.1426 5.98926 41.1572 5.94531C41.1719 5.90137 41.2109 5.84277 41.2646 5.76953L45.0635 0.818359V-0.00195312H45.8643V0.818359C45.8643 0.979492 45.8252 1.11621 45.7471 1.22852L41.9336 6.17969V7ZM47.7344 7H46.9385V6.17969C46.9385 6.06738 46.9434 5.98926 46.958 5.94531C46.9727 5.90137 47.0117 5.84277 47.0654 5.76953L50.8643 0.818359V-0.00195312H51.665V0.818359C51.665 0.979492 51.626 1.11621 51.5479 1.22852L47.7344 6.17969V7ZM53.5352 7H52.7393V6.17969C52.7393 6.06738 52.7441 5.98926 52.7588 5.94531C52.7734 5.90137 52.8125 5.84277 52.8662 5.76953L56.665 0.818359V-0.00195312H57.4658V0.818359C57.4658 0.979492 57.4268 1.11621 57.3486 1.22852L53.5352 6.17969V7ZM59.3359 7H58.54V6.17969C58.54 6.06738 58.5449 5.98926 58.5596 5.94531C58.5742 5.90137 58.6133 5.84277 58.667 5.76953L62.4658 0.818359V-0.00195312H63.2666V0.818359C63.2666 0.979492 63.2275 1.11621 63.1494 1.22852L59.3359 6.17969V7ZM65.1367 7H64.3408V6.17969C64.3408 6.06738 64.3457 5.98926 64.3604 5.94531C64.375 5.90137 64.4141 5.84277 64.4678 5.76953L68.2666 0.818359V-0.00195312H69.0674V0.818359C69.0674 0.979492 69.0283 1.11621 68.9502 1.22852L65.1367 6.17969V7ZM70.9375 7H70.1416V6.17969C70.1416 6.06738 70.1465 5.98926 70.1611 5.94531C70.1758 5.90137 70.2148 5.84277 70.2686 5.76953L74.0674 0.818359V-0.00195312H74.8682V0.818359C74.8682 0.979492 74.8291 1.11621 74.751 1.22852L70.9375 6.17969V7ZM76.7383 7H75.9424V6.17969C75.9424 6.06738 75.9473 5.98926 75.9619 5.94531C75.9766 5.90137 76.0156 5.84277 76.0693 5.76953L79.8682 0.818359V-0.00195312H80.6689V0.818359C80.6689 0.979492 80.6299 1.11621 80.5518 1.22852L76.7383 6.17969V7ZM82.5391 7H81.7432V6.17969C81.7432 6.06738 81.748 5.98926 81.7627 5.94531C81.7773 5.90137 81.8164 5.84277 81.8701 5.76953L85.6689 0.818359V-0.00195312H86.4697V0.818359C86.4697 0.979492 86.4307 1.11621 86.3525 1.22852L82.5391 6.17969V7ZM88.3398 7H87.5439V6.17969C87.5439 6.06738 87.5488 5.98926 87.5635 5.94531C87.5781 5.90137 87.6172 5.84277 87.6709 5.76953L91.4697 0.818359V-0.00195312H92.2705V0.818359C92.2705 0.979492 92.2314 1.11621 92.1533 1.22852L88.3398 6.17969V7ZM94.1406 7H93.3447V6.17969C93.3447 6.06738 93.3496 5.98926 93.3643 5.94531C93.3789 5.90137 93.418 5.84277 93.4717 5.76953L97.2705 0.818359V-0.00195312H98.0713V0.818359C98.0713 0.979492 98.0322 1.11621 97.9541 1.22852L94.1406 6.17969V7ZM99.9414 7H99.1455V6.17969C99.1455 6.06738 99.1504 5.98926 99.165 5.94531C99.1797 5.90137 99.2188 5.84277 99.2725 5.76953L103.071 0.818359V-0.00195312H103.872V0.818359C103.872 0.979492 103.833 1.11621 103.755 1.22852L99.9414 6.17969V7ZM105.742 7H104.946V6.17969C104.946 6.06738 104.951 5.98926 104.966 5.94531C104.98 5.90137 105.02 5.84277 105.073 5.76953L108.872 0.818359V-0.00195312H109.673V0.818359C109.673 0.979492 109.634 1.11621 109.556 1.22852L105.742 6.17969V7ZM111.543 7H110.747V6.17969C110.747 6.06738 110.752 5.98926 110.767 5.94531C110.781 5.90137 110.82 5.84277 110.874 5.76953L114.673 0.818359V-0.00195312H115.474V0.818359C115.474 0.979492 115.435 1.11621 115.356 1.22852L111.543 6.17969V7ZM117.344 7H116.548V6.17969C116.548 6.06738 116.553 5.98926 116.567 5.94531C116.582 5.90137 116.621 5.84277 116.675 5.76953L120.474 0.818359V-0.00195312H121.274V0.818359C121.274 0.979492 121.235 1.11621 121.157 1.22852L117.344 6.17969V7ZM123.145 7H122.349V6.17969C122.349 6.06738 122.354 5.98926 122.368 5.94531C122.383 5.90137 122.422 5.84277 122.476 5.76953L126.274 0.818359V-0.00195312H127.075V0.818359C127.075 0.979492 127.036 1.11621 126.958 1.22852L123.145 6.17969V7ZM128.945 7H128.149V6.17969C128.149 6.06738 128.154 5.98926 128.169 5.94531C128.184 5.90137 128.223 5.84277 128.276 5.76953L132.075 0.818359V-0.00195312H132.876V0.818359C132.876 0.979492 132.837 1.11621 132.759 1.22852L128.945 6.17969V7ZM134.746 7H133.95V6.17969C133.95 6.06738 133.955 5.98926 133.97 5.94531C133.984 5.90137 134.023 5.84277 134.077 5.76953L137.876 0.818359V-0.00195312H138.677V0.818359C138.677 0.979492 138.638 1.11621 138.56 1.22852L134.746 6.17969V7ZM140.547 7H139.751V6.17969C139.751 6.06738 139.756 5.98926 139.771 5.94531C139.785 5.90137 139.824 5.84277 139.878 5.76953L143.677 0.818359V-0.00195312H144.478V0.818359C144.478 0.979492 144.438 1.11621 144.36 1.22852L140.547 6.17969V7ZM146.348 7H145.552V6.17969C145.552 6.06738 145.557 5.98926 145.571 5.94531C145.586 5.90137 145.625 5.84277 145.679 5.76953L149.478 0.818359V-0.00195312H150.278V0.818359C150.278 0.979492 150.239 1.11621 150.161 1.22852L146.348 6.17969V7ZM152.148 7H151.353V6.17969C151.353 6.06738 151.357 5.98926 151.372 5.94531C151.387 5.90137 151.426 5.84277 151.479 5.76953L155.278 0.818359V-0.00195312H156.079V0.818359C156.079 0.979492 156.04 1.11621 155.962 1.22852L152.148 6.17969V7ZM157.949 7H157.153V6.17969C157.153 6.06738 157.158 5.98926 157.173 5.94531C157.188 5.90137 157.227 5.84277 157.28 5.76953L161.079 0.818359V-0.00195312H161.88V0.818359C161.88 0.979492 161.841 1.11621 161.763 1.22852L157.949 6.17969V7ZM163.75 7H162.954V6.17969C162.954 6.06738 162.959 5.98926 162.974 5.94531C162.988 5.90137 163.027 5.84277 163.081 5.76953L166.88 0.818359V-0.00195312H167.681V0.818359C167.681 0.979492 167.642 1.11621 167.563 1.22852L163.75 6.17969V7Z" fill="white"/>
</svg>
