<svg width="748" height="7" viewBox="0 0 748 7" fill="none" xmlns="http://www.w3.org/2000/svg">
<path d="M1.32812 7H0.532227V6.17969C0.532227 6.06738 0.537109 5.98926 0.551758 5.94531C0.566406 5.90137 0.605469 5.84277 0.65918 5.76953L4.45801 0.818359V-0.00195312H5.25879V0.818359C5.25879 0.979492 5.21973 1.11621 5.1416 1.22852L1.32812 6.17969V7ZM7.12891 7H6.33301V6.17969C6.33301 6.06738 6.33789 5.98926 6.35254 5.94531C6.36719 5.90137 6.40625 5.84277 6.45996 5.76953L10.2588 0.818359V-0.00195312H11.0596V0.818359C11.0596 0.979492 11.0205 1.11621 10.9424 1.22852L7.12891 6.17969V7ZM12.9297 7H12.1338V6.17969C12.1338 6.06738 12.1387 5.98926 12.1533 5.94531C12.168 5.90137 12.207 5.84277 12.2607 5.76953L16.0596 0.818359V-0.00195312H16.8604V0.818359C16.8604 0.979492 16.8213 1.11621 16.7432 1.22852L12.9297 6.17969V7ZM18.7305 7H17.9346V6.17969C17.9346 6.06738 17.9395 5.98926 17.9541 5.94531C17.9688 5.90137 18.0078 5.84277 18.0615 5.76953L21.8604 0.818359V-0.00195312H22.6611V0.818359C22.6611 0.979492 22.6221 1.11621 22.5439 1.22852L18.7305 6.17969V7ZM24.5312 7H23.7354V6.17969C23.7354 6.06738 23.7402 5.98926 23.7549 5.94531C23.7695 5.90137 23.8086 5.84277 23.8623 5.76953L27.6611 0.818359V-0.00195312H28.4619V0.818359C28.4619 0.979492 28.4229 1.11621 28.3447 1.22852L24.5312 6.17969V7ZM30.332 7H29.5361V6.17969C29.5361 6.06738 29.541 5.98926 29.5557 5.94531C29.5703 5.90137 29.6094 5.84277 29.6631 5.76953L33.4619 0.818359V-0.00195312H34.2627V0.818359C34.2627 0.979492 34.2236 1.11621 34.1455 1.22852L30.332 6.17969V7ZM36.1328 7H35.3369V6.17969C35.3369 6.06738 35.3418 5.98926 35.3564 5.94531C35.3711 5.90137 35.4102 5.84277 35.4639 5.76953L39.2627 0.818359V-0.00195312H40.0635V0.818359C40.0635 0.979492 40.0244 1.11621 39.9463 1.22852L36.1328 6.17969V7ZM41.9336 7H41.1377V6.17969C41.1377 6.06738 41.1426 5.98926 41.1572 5.94531C41.1719 5.90137 41.2109 5.84277 41.2646 5.76953L45.0635 0.818359V-0.00195312H45.8643V0.818359C45.8643 0.979492 45.8252 1.11621 45.7471 1.22852L41.9336 6.17969V7ZM47.7344 7H46.9385V6.17969C46.9385 6.06738 46.9434 5.98926 46.958 5.94531C46.9727 5.90137 47.0117 5.84277 47.0654 5.76953L50.8643 0.818359V-0.00195312H51.665V0.818359C51.665 0.979492 51.626 1.11621 51.5479 1.22852L47.7344 6.17969V7ZM53.5352 7H52.7393V6.17969C52.7393 6.06738 52.7441 5.98926 52.7588 5.94531C52.7734 5.90137 52.8125 5.84277 52.8662 5.76953L56.665 0.818359V-0.00195312H57.4658V0.818359C57.4658 0.979492 57.4268 1.11621 57.3486 1.22852L53.5352 6.17969V7ZM59.3359 7H58.54V6.17969C58.54 6.06738 58.5449 5.98926 58.5596 5.94531C58.5742 5.90137 58.6133 5.84277 58.667 5.76953L62.4658 0.818359V-0.00195312H63.2666V0.818359C63.2666 0.979492 63.2275 1.11621 63.1494 1.22852L59.3359 6.17969V7ZM65.1367 7H64.3408V6.17969C64.3408 6.06738 64.3457 5.98926 64.3604 5.94531C64.375 5.90137 64.4141 5.84277 64.4678 5.76953L68.2666 0.818359V-0.00195312H69.0674V0.818359C69.0674 0.979492 69.0283 1.11621 68.9502 1.22852L65.1367 6.17969V7ZM70.9375 7H70.1416V6.17969C70.1416 6.06738 70.1465 5.98926 70.1611 5.94531C70.1758 5.90137 70.2148 5.84277 70.2686 5.76953L74.0674 0.818359V-0.00195312H74.8682V0.818359C74.8682 0.979492 74.8291 1.11621 74.751 1.22852L70.9375 6.17969V7ZM76.7383 7H75.9424V6.17969C75.9424 6.06738 75.9473 5.98926 75.9619 5.94531C75.9766 5.90137 76.0156 5.84277 76.0693 5.76953L79.8682 0.818359V-0.00195312H80.6689V0.818359C80.6689 0.979492 80.6299 1.11621 80.5518 1.22852L76.7383 6.17969V7ZM82.5391 7H81.7432V6.17969C81.7432 6.06738 81.748 5.98926 81.7627 5.94531C81.7773 5.90137 81.8164 5.84277 81.8701 5.76953L85.6689 0.818359V-0.00195312H86.4697V0.818359C86.4697 0.979492 86.4307 1.11621 86.3525 1.22852L82.5391 6.17969V7ZM88.3398 7H87.5439V6.17969C87.5439 6.06738 87.5488 5.98926 87.5635 5.94531C87.5781 5.90137 87.6172 5.84277 87.6709 5.76953L91.4697 0.818359V-0.00195312H92.2705V0.818359C92.2705 0.979492 92.2314 1.11621 92.1533 1.22852L88.3398 6.17969V7ZM94.1406 7H93.3447V6.17969C93.3447 6.06738 93.3496 5.98926 93.3643 5.94531C93.3789 5.90137 93.418 5.84277 93.4717 5.76953L97.2705 0.818359V-0.00195312H98.0713V0.818359C98.0713 0.979492 98.0322 1.11621 97.9541 1.22852L94.1406 6.17969V7ZM99.9414 7H99.1455V6.17969C99.1455 6.06738 99.1504 5.98926 99.165 5.94531C99.1797 5.90137 99.2188 5.84277 99.2725 5.76953L103.071 0.818359V-0.00195312H103.872V0.818359C103.872 0.979492 103.833 1.11621 103.755 1.22852L99.9414 6.17969V7ZM105.742 7H104.946V6.17969C104.946 6.06738 104.951 5.98926 104.966 5.94531C104.98 5.90137 105.02 5.84277 105.073 5.76953L108.872 0.818359V-0.00195312H109.673V0.818359C109.673 0.979492 109.634 1.11621 109.556 1.22852L105.742 6.17969V7ZM111.543 7H110.747V6.17969C110.747 6.06738 110.752 5.98926 110.767 5.94531C110.781 5.90137 110.82 5.84277 110.874 5.76953L114.673 0.818359V-0.00195312H115.474V0.818359C115.474 0.979492 115.435 1.11621 115.356 1.22852L111.543 6.17969V7ZM117.344 7H116.548V6.17969C116.548 6.06738 116.553 5.98926 116.567 5.94531C116.582 5.90137 116.621 5.84277 116.675 5.76953L120.474 0.818359V-0.00195312H121.274V0.818359C121.274 0.979492 121.235 1.11621 121.157 1.22852L117.344 6.17969V7ZM123.145 7H122.349V6.17969C122.349 6.06738 122.354 5.98926 122.368 5.94531C122.383 5.90137 122.422 5.84277 122.476 5.76953L126.274 0.818359V-0.00195312H127.075V0.818359C127.075 0.979492 127.036 1.11621 126.958 1.22852L123.145 6.17969V7ZM128.945 7H128.149V6.17969C128.149 6.06738 128.154 5.98926 128.169 5.94531C128.184 5.90137 128.223 5.84277 128.276 5.76953L132.075 0.818359V-0.00195312H132.876V0.818359C132.876 0.979492 132.837 1.11621 132.759 1.22852L128.945 6.17969V7ZM134.746 7H133.95V6.17969C133.95 6.06738 133.955 5.98926 133.97 5.94531C133.984 5.90137 134.023 5.84277 134.077 5.76953L137.876 0.818359V-0.00195312H138.677V0.818359C138.677 0.979492 138.638 1.11621 138.56 1.22852L134.746 6.17969V7ZM140.547 7H139.751V6.17969C139.751 6.06738 139.756 5.98926 139.771 5.94531C139.785 5.90137 139.824 5.84277 139.878 5.76953L143.677 0.818359V-0.00195312H144.478V0.818359C144.478 0.979492 144.438 1.11621 144.36 1.22852L140.547 6.17969V7ZM146.348 7H145.552V6.17969C145.552 6.06738 145.557 5.98926 145.571 5.94531C145.586 5.90137 145.625 5.84277 145.679 5.76953L149.478 0.818359V-0.00195312H150.278V0.818359C150.278 0.979492 150.239 1.11621 150.161 1.22852L146.348 6.17969V7ZM152.148 7H151.353V6.17969C151.353 6.06738 151.357 5.98926 151.372 5.94531C151.387 5.90137 151.426 5.84277 151.479 5.76953L155.278 0.818359V-0.00195312H156.079V0.818359C156.079 0.979492 156.04 1.11621 155.962 1.22852L152.148 6.17969V7ZM157.949 7H157.153V6.17969C157.153 6.06738 157.158 5.98926 157.173 5.94531C157.188 5.90137 157.227 5.84277 157.28 5.76953L161.079 0.818359V-0.00195312H161.88V0.818359C161.88 0.979492 161.841 1.11621 161.763 1.22852L157.949 6.17969V7ZM163.75 7H162.954V6.17969C162.954 6.06738 162.959 5.98926 162.974 5.94531C162.988 5.90137 163.027 5.84277 163.081 5.76953L166.88 0.818359V-0.00195312H167.681V0.818359C167.681 0.979492 167.642 1.11621 167.563 1.22852L163.75 6.17969V7ZM169.551 7H168.755V6.17969C168.755 6.06738 168.76 5.98926 168.774 5.94531C168.789 5.90137 168.828 5.84277 168.882 5.76953L172.681 0.818359V-0.00195312H173.481V0.818359C173.481 0.979492 173.442 1.11621 173.364 1.22852L169.551 6.17969V7ZM175.352 7H174.556V6.17969C174.556 6.06738 174.561 5.98926 174.575 5.94531C174.59 5.90137 174.629 5.84277 174.683 5.76953L178.481 0.818359V-0.00195312H179.282V0.818359C179.282 0.979492 179.243 1.11621 179.165 1.22852L175.352 6.17969V7ZM181.152 7H180.356V6.17969C180.356 6.06738 180.361 5.98926 180.376 5.94531C180.391 5.90137 180.43 5.84277 180.483 5.76953L184.282 0.818359V-0.00195312H185.083V0.818359C185.083 0.979492 185.044 1.11621 184.966 1.22852L181.152 6.17969V7ZM186.953 7H186.157V6.17969C186.157 6.06738 186.162 5.98926 186.177 5.94531C186.191 5.90137 186.23 5.84277 186.284 5.76953L190.083 0.818359V-0.00195312H190.884V0.818359C190.884 0.979492 190.845 1.11621 190.767 1.22852L186.953 6.17969V7ZM192.754 7H191.958V6.17969C191.958 6.06738 191.963 5.98926 191.978 5.94531C191.992 5.90137 192.031 5.84277 192.085 5.76953L195.884 0.818359V-0.00195312H196.685V0.818359C196.685 0.979492 196.646 1.11621 196.567 1.22852L192.754 6.17969V7ZM198.555 7H197.759V6.17969C197.759 6.06738 197.764 5.98926 197.778 5.94531C197.793 5.90137 197.832 5.84277 197.886 5.76953L201.685 0.818359V-0.00195312H202.485V0.818359C202.485 0.979492 202.446 1.11621 202.368 1.22852L198.555 6.17969V7ZM204.355 7H203.56V6.17969C203.56 6.06738 203.564 5.98926 203.579 5.94531C203.594 5.90137 203.633 5.84277 203.687 5.76953L207.485 0.818359V-0.00195312H208.286V0.818359C208.286 0.979492 208.247 1.11621 208.169 1.22852L204.355 6.17969V7ZM210.156 7H209.36V6.17969C209.36 6.06738 209.365 5.98926 209.38 5.94531C209.395 5.90137 209.434 5.84277 209.487 5.76953L213.286 0.818359V-0.00195312H214.087V0.818359C214.087 0.979492 214.048 1.11621 213.97 1.22852L210.156 6.17969V7ZM215.957 7H215.161V6.17969C215.161 6.06738 215.166 5.98926 215.181 5.94531C215.195 5.90137 215.234 5.84277 215.288 5.76953L219.087 0.818359V-0.00195312H219.888V0.818359C219.888 0.979492 219.849 1.11621 219.771 1.22852L215.957 6.17969V7ZM221.758 7H220.962V6.17969C220.962 6.06738 220.967 5.98926 220.981 5.94531C220.996 5.90137 221.035 5.84277 221.089 5.76953L224.888 0.818359V-0.00195312H225.688V0.818359C225.688 0.979492 225.649 1.11621 225.571 1.22852L221.758 6.17969V7ZM227.559 7H226.763V6.17969C226.763 6.06738 226.768 5.98926 226.782 5.94531C226.797 5.90137 226.836 5.84277 226.89 5.76953L230.688 0.818359V-0.00195312H231.489V0.818359C231.489 0.979492 231.45 1.11621 231.372 1.22852L227.559 6.17969V7ZM233.359 7H232.563V6.17969C232.563 6.06738 232.568 5.98926 232.583 5.94531C232.598 5.90137 232.637 5.84277 232.69 5.76953L236.489 0.818359V-0.00195312H237.29V0.818359C237.29 0.979492 237.251 1.11621 237.173 1.22852L233.359 6.17969V7ZM239.16 7H238.364V6.17969C238.364 6.06738 238.369 5.98926 238.384 5.94531C238.398 5.90137 238.438 5.84277 238.491 5.76953L242.29 0.818359V-0.00195312H243.091V0.818359C243.091 0.979492 243.052 1.11621 242.974 1.22852L239.16 6.17969V7ZM244.961 7H244.165V6.17969C244.165 6.06738 244.17 5.98926 244.185 5.94531C244.199 5.90137 244.238 5.84277 244.292 5.76953L248.091 0.818359V-0.00195312H248.892V0.818359C248.892 0.979492 248.853 1.11621 248.774 1.22852L244.961 6.17969V7ZM250.762 7H249.966V6.17969C249.966 6.06738 249.971 5.98926 249.985 5.94531C250 5.90137 250.039 5.84277 250.093 5.76953L253.892 0.818359V-0.00195312H254.692V0.818359C254.692 0.979492 254.653 1.11621 254.575 1.22852L250.762 6.17969V7ZM256.562 7H255.767V6.17969C255.767 6.06738 255.771 5.98926 255.786 5.94531C255.801 5.90137 255.84 5.84277 255.894 5.76953L259.692 0.818359V-0.00195312H260.493V0.818359C260.493 0.979492 260.454 1.11621 260.376 1.22852L256.562 6.17969V7ZM262.363 7H261.567V6.17969C261.567 6.06738 261.572 5.98926 261.587 5.94531C261.602 5.90137 261.641 5.84277 261.694 5.76953L265.493 0.818359V-0.00195312H266.294V0.818359C266.294 0.979492 266.255 1.11621 266.177 1.22852L262.363 6.17969V7ZM268.164 7H267.368V6.17969C267.368 6.06738 267.373 5.98926 267.388 5.94531C267.402 5.90137 267.441 5.84277 267.495 5.76953L271.294 0.818359V-0.00195312H272.095V0.818359C272.095 0.979492 272.056 1.11621 271.978 1.22852L268.164 6.17969V7ZM273.965 7H273.169V6.17969C273.169 6.06738 273.174 5.98926 273.188 5.94531C273.203 5.90137 273.242 5.84277 273.296 5.76953L277.095 0.818359V-0.00195312H277.896V0.818359C277.896 0.979492 277.856 1.11621 277.778 1.22852L273.965 6.17969V7ZM279.766 7H278.97V6.17969C278.97 6.06738 278.975 5.98926 278.989 5.94531C279.004 5.90137 279.043 5.84277 279.097 5.76953L282.896 0.818359V-0.00195312H283.696V0.818359C283.696 0.979492 283.657 1.11621 283.579 1.22852L279.766 6.17969V7ZM285.566 7H284.771V6.17969C284.771 6.06738 284.775 5.98926 284.79 5.94531C284.805 5.90137 284.844 5.84277 284.897 5.76953L288.696 0.818359V-0.00195312H289.497V0.818359C289.497 0.979492 289.458 1.11621 289.38 1.22852L285.566 6.17969V7ZM291.367 7H290.571V6.17969C290.571 6.06738 290.576 5.98926 290.591 5.94531C290.605 5.90137 290.645 5.84277 290.698 5.76953L294.497 0.818359V-0.00195312H295.298V0.818359C295.298 0.979492 295.259 1.11621 295.181 1.22852L291.367 6.17969V7ZM297.168 7H296.372V6.17969C296.372 6.06738 296.377 5.98926 296.392 5.94531C296.406 5.90137 296.445 5.84277 296.499 5.76953L300.298 0.818359V-0.00195312H301.099V0.818359C301.099 0.979492 301.06 1.11621 300.981 1.22852L297.168 6.17969V7ZM302.969 7H302.173V6.17969C302.173 6.06738 302.178 5.98926 302.192 5.94531C302.207 5.90137 302.246 5.84277 302.3 5.76953L306.099 0.818359V-0.00195312H306.899V0.818359C306.899 0.979492 306.86 1.11621 306.782 1.22852L302.969 6.17969V7ZM308.77 7H307.974V6.17969C307.974 6.06738 307.979 5.98926 307.993 5.94531C308.008 5.90137 308.047 5.84277 308.101 5.76953L311.899 0.818359V-0.00195312H312.7V0.818359C312.7 0.979492 312.661 1.11621 312.583 1.22852L308.77 6.17969V7ZM314.57 7H313.774V6.17969C313.774 6.06738 313.779 5.98926 313.794 5.94531C313.809 5.90137 313.848 5.84277 313.901 5.76953L317.7 0.818359V-0.00195312H318.501V0.818359C318.501 0.979492 318.462 1.11621 318.384 1.22852L314.57 6.17969V7ZM320.371 7H319.575V6.17969C319.575 6.06738 319.58 5.98926 319.595 5.94531C319.609 5.90137 319.648 5.84277 319.702 5.76953L323.501 0.818359V-0.00195312H324.302V0.818359C324.302 0.979492 324.263 1.11621 324.185 1.22852L320.371 6.17969V7ZM326.172 7H325.376V6.17969C325.376 6.06738 325.381 5.98926 325.396 5.94531C325.41 5.90137 325.449 5.84277 325.503 5.76953L329.302 0.818359V-0.00195312H330.103V0.818359C330.103 0.979492 330.063 1.11621 329.985 1.22852L326.172 6.17969V7ZM331.973 7H331.177V6.17969C331.177 6.06738 331.182 5.98926 331.196 5.94531C331.211 5.90137 331.25 5.84277 331.304 5.76953L335.103 0.818359V-0.00195312H335.903V0.818359C335.903 0.979492 335.864 1.11621 335.786 1.22852L331.973 6.17969V7ZM337.773 7H336.978V6.17969C336.978 6.06738 336.982 5.98926 336.997 5.94531C337.012 5.90137 337.051 5.84277 337.104 5.76953L340.903 0.818359V-0.00195312H341.704V0.818359C341.704 0.979492 341.665 1.11621 341.587 1.22852L337.773 6.17969V7ZM343.574 7H342.778V6.17969C342.778 6.06738 342.783 5.98926 342.798 5.94531C342.812 5.90137 342.852 5.84277 342.905 5.76953L346.704 0.818359V-0.00195312H347.505V0.818359C347.505 0.979492 347.466 1.11621 347.388 1.22852L343.574 6.17969V7ZM349.375 7H348.579V6.17969C348.579 6.06738 348.584 5.98926 348.599 5.94531C348.613 5.90137 348.652 5.84277 348.706 5.76953L352.505 0.818359V-0.00195312H353.306V0.818359C353.306 0.979492 353.267 1.11621 353.188 1.22852L349.375 6.17969V7ZM355.176 7H354.38V6.17969C354.38 6.06738 354.385 5.98926 354.399 5.94531C354.414 5.90137 354.453 5.84277 354.507 5.76953L358.306 0.818359V-0.00195312H359.106V0.818359C359.106 0.979492 359.067 1.11621 358.989 1.22852L355.176 6.17969V7ZM360.977 7H360.181V6.17969C360.181 6.06738 360.186 5.98926 360.2 5.94531C360.215 5.90137 360.254 5.84277 360.308 5.76953L364.106 0.818359V-0.00195312H364.907V0.818359C364.907 0.979492 364.868 1.11621 364.79 1.22852L360.977 6.17969V7ZM366.777 7H365.981V6.17969C365.981 6.06738 365.986 5.98926 366.001 5.94531C366.016 5.90137 366.055 5.84277 366.108 5.76953L369.907 0.818359V-0.00195312H370.708V0.818359C370.708 0.979492 370.669 1.11621 370.591 1.22852L366.777 6.17969V7ZM372.578 7H371.782V6.17969C371.782 6.06738 371.787 5.98926 371.802 5.94531C371.816 5.90137 371.855 5.84277 371.909 5.76953L375.708 0.818359V-0.00195312H376.509V0.818359C376.509 0.979492 376.47 1.11621 376.392 1.22852L372.578 6.17969V7ZM378.379 7H377.583V6.17969C377.583 6.06738 377.588 5.98926 377.603 5.94531C377.617 5.90137 377.656 5.84277 377.71 5.76953L381.509 0.818359V-0.00195312H382.31V0.818359C382.31 0.979492 382.271 1.11621 382.192 1.22852L378.379 6.17969V7ZM384.18 7H383.384V6.17969C383.384 6.06738 383.389 5.98926 383.403 5.94531C383.418 5.90137 383.457 5.84277 383.511 5.76953L387.31 0.818359V-0.00195312H388.11V0.818359C388.11 0.979492 388.071 1.11621 387.993 1.22852L384.18 6.17969V7ZM389.98 7H389.185V6.17969C389.185 6.06738 389.189 5.98926 389.204 5.94531C389.219 5.90137 389.258 5.84277 389.312 5.76953L393.11 0.818359V-0.00195312H393.911V0.818359C393.911 0.979492 393.872 1.11621 393.794 1.22852L389.98 6.17969V7ZM395.781 7H394.985V6.17969C394.985 6.06738 394.99 5.98926 395.005 5.94531C395.02 5.90137 395.059 5.84277 395.112 5.76953L398.911 0.818359V-0.00195312H399.712V0.818359C399.712 0.979492 399.673 1.11621 399.595 1.22852L395.781 6.17969V7ZM401.582 7H400.786V6.17969C400.786 6.06738 400.791 5.98926 400.806 5.94531C400.82 5.90137 400.859 5.84277 400.913 5.76953L404.712 0.818359V-0.00195312H405.513V0.818359C405.513 0.979492 405.474 1.11621 405.396 1.22852L401.582 6.17969V7ZM407.383 7H406.587V6.17969C406.587 6.06738 406.592 5.98926 406.606 5.94531C406.621 5.90137 406.66 5.84277 406.714 5.76953L410.513 0.818359V-0.00195312H411.313V0.818359C411.313 0.979492 411.274 1.11621 411.196 1.22852L407.383 6.17969V7ZM413.184 7H412.388V6.17969C412.388 6.06738 412.393 5.98926 412.407 5.94531C412.422 5.90137 412.461 5.84277 412.515 5.76953L416.313 0.818359V-0.00195312H417.114V0.818359C417.114 0.979492 417.075 1.11621 416.997 1.22852L413.184 6.17969V7ZM418.984 7H418.188V6.17969C418.188 6.06738 418.193 5.98926 418.208 5.94531C418.223 5.90137 418.262 5.84277 418.315 5.76953L422.114 0.818359V-0.00195312H422.915V0.818359C422.915 0.979492 422.876 1.11621 422.798 1.22852L418.984 6.17969V7ZM424.785 7H423.989V6.17969C423.989 6.06738 423.994 5.98926 424.009 5.94531C424.023 5.90137 424.062 5.84277 424.116 5.76953L427.915 0.818359V-0.00195312H428.716V0.818359C428.716 0.979492 428.677 1.11621 428.599 1.22852L424.785 6.17969V7ZM430.586 7H429.79V6.17969C429.79 6.06738 429.795 5.98926 429.81 5.94531C429.824 5.90137 429.863 5.84277 429.917 5.76953L433.716 0.818359V-0.00195312H434.517V0.818359C434.517 0.979492 434.478 1.11621 434.399 1.22852L430.586 6.17969V7ZM436.387 7H435.591V6.17969C435.591 6.06738 435.596 5.98926 435.61 5.94531C435.625 5.90137 435.664 5.84277 435.718 5.76953L439.517 0.818359V-0.00195312H440.317V0.818359C440.317 0.979492 440.278 1.11621 440.2 1.22852L436.387 6.17969V7ZM442.188 7H441.392V6.17969C441.392 6.06738 441.396 5.98926 441.411 5.94531C441.426 5.90137 441.465 5.84277 441.519 5.76953L445.317 0.818359V-0.00195312H446.118V0.818359C446.118 0.979492 446.079 1.11621 446.001 1.22852L442.188 6.17969V7ZM447.988 7H447.192V6.17969C447.192 6.06738 447.197 5.98926 447.212 5.94531C447.227 5.90137 447.266 5.84277 447.319 5.76953L451.118 0.818359V-0.00195312H451.919V0.818359C451.919 0.979492 451.88 1.11621 451.802 1.22852L447.988 6.17969V7ZM453.789 7H452.993V6.17969C452.993 6.06738 452.998 5.98926 453.013 5.94531C453.027 5.90137 453.066 5.84277 453.12 5.76953L456.919 0.818359V-0.00195312H457.72V0.818359C457.72 0.979492 457.681 1.11621 457.603 1.22852L453.789 6.17969V7ZM459.59 7H458.794V6.17969C458.794 6.06738 458.799 5.98926 458.813 5.94531C458.828 5.90137 458.867 5.84277 458.921 5.76953L462.72 0.818359V-0.00195312H463.521V0.818359C463.521 0.979492 463.481 1.11621 463.403 1.22852L459.59 6.17969V7ZM465.391 7H464.595V6.17969C464.595 6.06738 464.6 5.98926 464.614 5.94531C464.629 5.90137 464.668 5.84277 464.722 5.76953L468.521 0.818359V-0.00195312H469.321V0.818359C469.321 0.979492 469.282 1.11621 469.204 1.22852L465.391 6.17969V7ZM471.191 7H470.396V6.17969C470.396 6.06738 470.4 5.98926 470.415 5.94531C470.43 5.90137 470.469 5.84277 470.522 5.76953L474.321 0.818359V-0.00195312H475.122V0.818359C475.122 0.979492 475.083 1.11621 475.005 1.22852L471.191 6.17969V7ZM476.992 7H476.196V6.17969C476.196 6.06738 476.201 5.98926 476.216 5.94531C476.23 5.90137 476.27 5.84277 476.323 5.76953L480.122 0.818359V-0.00195312H480.923V0.818359C480.923 0.979492 480.884 1.11621 480.806 1.22852L476.992 6.17969V7ZM482.793 7H481.997V6.17969C481.997 6.06738 482.002 5.98926 482.017 5.94531C482.031 5.90137 482.07 5.84277 482.124 5.76953L485.923 0.818359V-0.00195312H486.724V0.818359C486.724 0.979492 486.685 1.11621 486.606 1.22852L482.793 6.17969V7ZM488.594 7H487.798V6.17969C487.798 6.06738 487.803 5.98926 487.817 5.94531C487.832 5.90137 487.871 5.84277 487.925 5.76953L491.724 0.818359V-0.00195312H492.524V0.818359C492.524 0.979492 492.485 1.11621 492.407 1.22852L488.594 6.17969V7ZM494.395 7H493.599V6.17969C493.599 6.06738 493.604 5.98926 493.618 5.94531C493.633 5.90137 493.672 5.84277 493.726 5.76953L497.524 0.818359V-0.00195312H498.325V0.818359C498.325 0.979492 498.286 1.11621 498.208 1.22852L494.395 6.17969V7ZM500.195 7H499.399V6.17969C499.399 6.06738 499.404 5.98926 499.419 5.94531C499.434 5.90137 499.473 5.84277 499.526 5.76953L503.325 0.818359V-0.00195312H504.126V0.818359C504.126 0.979492 504.087 1.11621 504.009 1.22852L500.195 6.17969V7ZM505.996 7H505.2V6.17969C505.2 6.06738 505.205 5.98926 505.22 5.94531C505.234 5.90137 505.273 5.84277 505.327 5.76953L509.126 0.818359V-0.00195312H509.927V0.818359C509.927 0.979492 509.888 1.11621 509.81 1.22852L505.996 6.17969V7ZM511.797 7H511.001V6.17969C511.001 6.06738 511.006 5.98926 511.021 5.94531C511.035 5.90137 511.074 5.84277 511.128 5.76953L514.927 0.818359V-0.00195312H515.728V0.818359C515.728 0.979492 515.688 1.11621 515.61 1.22852L511.797 6.17969V7ZM517.598 7H516.802V6.17969C516.802 6.06738 516.807 5.98926 516.821 5.94531C516.836 5.90137 516.875 5.84277 516.929 5.76953L520.728 0.818359V-0.00195312H521.528V0.818359C521.528 0.979492 521.489 1.11621 521.411 1.22852L517.598 6.17969V7ZM523.398 7H522.603V6.17969C522.603 6.06738 522.607 5.98926 522.622 5.94531C522.637 5.90137 522.676 5.84277 522.729 5.76953L526.528 0.818359V-0.00195312H527.329V0.818359C527.329 0.979492 527.29 1.11621 527.212 1.22852L523.398 6.17969V7ZM529.199 7H528.403V6.17969C528.403 6.06738 528.408 5.98926 528.423 5.94531C528.438 5.90137 528.477 5.84277 528.53 5.76953L532.329 0.818359V-0.00195312H533.13V0.818359C533.13 0.979492 533.091 1.11621 533.013 1.22852L529.199 6.17969V7ZM535 7H534.204V6.17969C534.204 6.06738 534.209 5.98926 534.224 5.94531C534.238 5.90137 534.277 5.84277 534.331 5.76953L538.13 0.818359V-0.00195312H538.931V0.818359C538.931 0.979492 538.892 1.11621 538.813 1.22852L535 6.17969V7ZM540.801 7H540.005V6.17969C540.005 6.06738 540.01 5.98926 540.024 5.94531C540.039 5.90137 540.078 5.84277 540.132 5.76953L543.931 0.818359V-0.00195312H544.731V0.818359C544.731 0.979492 544.692 1.11621 544.614 1.22852L540.801 6.17969V7ZM546.602 7H545.806V6.17969C545.806 6.06738 545.811 5.98926 545.825 5.94531C545.84 5.90137 545.879 5.84277 545.933 5.76953L549.731 0.818359V-0.00195312H550.532V0.818359C550.532 0.979492 550.493 1.11621 550.415 1.22852L546.602 6.17969V7ZM552.402 7H551.606V6.17969C551.606 6.06738 551.611 5.98926 551.626 5.94531C551.641 5.90137 551.68 5.84277 551.733 5.76953L555.532 0.818359V-0.00195312H556.333V0.818359C556.333 0.979492 556.294 1.11621 556.216 1.22852L552.402 6.17969V7ZM558.203 7H557.407V6.17969C557.407 6.06738 557.412 5.98926 557.427 5.94531C557.441 5.90137 557.48 5.84277 557.534 5.76953L561.333 0.818359V-0.00195312H562.134V0.818359C562.134 0.979492 562.095 1.11621 562.017 1.22852L558.203 6.17969V7ZM564.004 7H563.208V6.17969C563.208 6.06738 563.213 5.98926 563.228 5.94531C563.242 5.90137 563.281 5.84277 563.335 5.76953L567.134 0.818359V-0.00195312H567.935V0.818359C567.935 0.979492 567.896 1.11621 567.817 1.22852L564.004 6.17969V7ZM569.805 7H569.009V6.17969C569.009 6.06738 569.014 5.98926 569.028 5.94531C569.043 5.90137 569.082 5.84277 569.136 5.76953L572.935 0.818359V-0.00195312H573.735V0.818359C573.735 0.979492 573.696 1.11621 573.618 1.22852L569.805 6.17969V7ZM575.605 7H574.81V6.17969C574.81 6.06738 574.814 5.98926 574.829 5.94531C574.844 5.90137 574.883 5.84277 574.937 5.76953L578.735 0.818359V-0.00195312H579.536V0.818359C579.536 0.979492 579.497 1.11621 579.419 1.22852L575.605 6.17969V7ZM581.406 7H580.61V6.17969C580.61 6.06738 580.615 5.98926 580.63 5.94531C580.645 5.90137 580.684 5.84277 580.737 5.76953L584.536 0.818359V-0.00195312H585.337V0.818359C585.337 0.979492 585.298 1.11621 585.22 1.22852L581.406 6.17969V7ZM587.207 7H586.411V6.17969C586.411 6.06738 586.416 5.98926 586.431 5.94531C586.445 5.90137 586.484 5.84277 586.538 5.76953L590.337 0.818359V-0.00195312H591.138V0.818359C591.138 0.979492 591.099 1.11621 591.021 1.22852L587.207 6.17969V7ZM593.008 7H592.212V6.17969C592.212 6.06738 592.217 5.98926 592.231 5.94531C592.246 5.90137 592.285 5.84277 592.339 5.76953L596.138 0.818359V-0.00195312H596.938V0.818359C596.938 0.979492 596.899 1.11621 596.821 1.22852L593.008 6.17969V7ZM598.809 7H598.013V6.17969C598.013 6.06738 598.018 5.98926 598.032 5.94531C598.047 5.90137 598.086 5.84277 598.14 5.76953L601.938 0.818359V-0.00195312H602.739V0.818359C602.739 0.979492 602.7 1.11621 602.622 1.22852L598.809 6.17969V7ZM604.609 7H603.813V6.17969C603.813 6.06738 603.818 5.98926 603.833 5.94531C603.848 5.90137 603.887 5.84277 603.94 5.76953L607.739 0.818359V-0.00195312H608.54V0.818359C608.54 0.979492 608.501 1.11621 608.423 1.22852L604.609 6.17969V7ZM610.41 7H609.614V6.17969C609.614 6.06738 609.619 5.98926 609.634 5.94531C609.648 5.90137 609.688 5.84277 609.741 5.76953L613.54 0.818359V-0.00195312H614.341V0.818359C614.341 0.979492 614.302 1.11621 614.224 1.22852L610.41 6.17969V7ZM616.211 7H615.415V6.17969C615.415 6.06738 615.42 5.98926 615.435 5.94531C615.449 5.90137 615.488 5.84277 615.542 5.76953L619.341 0.818359V-0.00195312H620.142V0.818359C620.142 0.979492 620.103 1.11621 620.024 1.22852L616.211 6.17969V7ZM622.012 7H621.216V6.17969C621.216 6.06738 621.221 5.98926 621.235 5.94531C621.25 5.90137 621.289 5.84277 621.343 5.76953L625.142 0.818359V-0.00195312H625.942V0.818359C625.942 0.979492 625.903 1.11621 625.825 1.22852L622.012 6.17969V7ZM627.812 7H627.017V6.17969C627.017 6.06738 627.021 5.98926 627.036 5.94531C627.051 5.90137 627.09 5.84277 627.144 5.76953L630.942 0.818359V-0.00195312H631.743V0.818359C631.743 0.979492 631.704 1.11621 631.626 1.22852L627.812 6.17969V7ZM633.613 7H632.817V6.17969C632.817 6.06738 632.822 5.98926 632.837 5.94531C632.852 5.90137 632.891 5.84277 632.944 5.76953L636.743 0.818359V-0.00195312H637.544V0.818359C637.544 0.979492 637.505 1.11621 637.427 1.22852L633.613 6.17969V7ZM639.414 7H638.618V6.17969C638.618 6.06738 638.623 5.98926 638.638 5.94531C638.652 5.90137 638.691 5.84277 638.745 5.76953L642.544 0.818359V-0.00195312H643.345V0.818359C643.345 0.979492 643.306 1.11621 643.228 1.22852L639.414 6.17969V7ZM645.215 7H644.419V6.17969C644.419 6.06738 644.424 5.98926 644.438 5.94531C644.453 5.90137 644.492 5.84277 644.546 5.76953L648.345 0.818359V-0.00195312H649.146V0.818359C649.146 0.979492 649.106 1.11621 649.028 1.22852L645.215 6.17969V7ZM651.016 7H650.22V6.17969C650.22 6.06738 650.225 5.98926 650.239 5.94531C650.254 5.90137 650.293 5.84277 650.347 5.76953L654.146 0.818359V-0.00195312H654.946V0.818359C654.946 0.979492 654.907 1.11621 654.829 1.22852L651.016 6.17969V7ZM656.816 7H656.021V6.17969C656.021 6.06738 656.025 5.98926 656.04 5.94531C656.055 5.90137 656.094 5.84277 656.147 5.76953L659.946 0.818359V-0.00195312H660.747V0.818359C660.747 0.979492 660.708 1.11621 660.63 1.22852L656.816 6.17969V7ZM662.617 7H661.821V6.17969C661.821 6.06738 661.826 5.98926 661.841 5.94531C661.855 5.90137 661.895 5.84277 661.948 5.76953L665.747 0.818359V-0.00195312H666.548V0.818359C666.548 0.979492 666.509 1.11621 666.431 1.22852L662.617 6.17969V7ZM668.418 7H667.622V6.17969C667.622 6.06738 667.627 5.98926 667.642 5.94531C667.656 5.90137 667.695 5.84277 667.749 5.76953L671.548 0.818359V-0.00195312H672.349V0.818359C672.349 0.979492 672.31 1.11621 672.231 1.22852L668.418 6.17969V7ZM674.219 7H673.423V6.17969C673.423 6.06738 673.428 5.98926 673.442 5.94531C673.457 5.90137 673.496 5.84277 673.55 5.76953L677.349 0.818359V-0.00195312H678.149V0.818359C678.149 0.979492 678.11 1.11621 678.032 1.22852L674.219 6.17969V7ZM680.02 7H679.224V6.17969C679.224 6.06738 679.229 5.98926 679.243 5.94531C679.258 5.90137 679.297 5.84277 679.351 5.76953L683.149 0.818359V-0.00195312H683.95V0.818359C683.95 0.979492 683.911 1.11621 683.833 1.22852L680.02 6.17969V7ZM685.82 7H685.024V6.17969C685.024 6.06738 685.029 5.98926 685.044 5.94531C685.059 5.90137 685.098 5.84277 685.151 5.76953L688.95 0.818359V-0.00195312H689.751V0.818359C689.751 0.979492 689.712 1.11621 689.634 1.22852L685.82 6.17969V7ZM691.621 7H690.825V6.17969C690.825 6.06738 690.83 5.98926 690.845 5.94531C690.859 5.90137 690.898 5.84277 690.952 5.76953L694.751 0.818359V-0.00195312H695.552V0.818359C695.552 0.979492 695.513 1.11621 695.435 1.22852L691.621 6.17969V7ZM697.422 7H696.626V6.17969C696.626 6.06738 696.631 5.98926 696.646 5.94531C696.66 5.90137 696.699 5.84277 696.753 5.76953L700.552 0.818359V-0.00195312H701.353V0.818359C701.353 0.979492 701.313 1.11621 701.235 1.22852L697.422 6.17969V7ZM703.223 7H702.427V6.17969C702.427 6.06738 702.432 5.98926 702.446 5.94531C702.461 5.90137 702.5 5.84277 702.554 5.76953L706.353 0.818359V-0.00195312H707.153V0.818359C707.153 0.979492 707.114 1.11621 707.036 1.22852L703.223 6.17969V7ZM709.023 7H708.228V6.17969C708.228 6.06738 708.232 5.98926 708.247 5.94531C708.262 5.90137 708.301 5.84277 708.354 5.76953L712.153 0.818359V-0.00195312H712.954V0.818359C712.954 0.979492 712.915 1.11621 712.837 1.22852L709.023 6.17969V7ZM714.824 7H714.028V6.17969C714.028 6.06738 714.033 5.98926 714.048 5.94531C714.062 5.90137 714.102 5.84277 714.155 5.76953L717.954 0.818359V-0.00195312H718.755V0.818359C718.755 0.979492 718.716 1.11621 718.638 1.22852L714.824 6.17969V7ZM720.625 7H719.829V6.17969C719.829 6.06738 719.834 5.98926 719.849 5.94531C719.863 5.90137 719.902 5.84277 719.956 5.76953L723.755 0.818359V-0.00195312H724.556V0.818359C724.556 0.979492 724.517 1.11621 724.438 1.22852L720.625 6.17969V7ZM726.426 7H725.63V6.17969C725.63 6.06738 725.635 5.98926 725.649 5.94531C725.664 5.90137 725.703 5.84277 725.757 5.76953L729.556 0.818359V-0.00195312H730.356V0.818359C730.356 0.979492 730.317 1.11621 730.239 1.22852L726.426 6.17969V7ZM732.227 7H731.431V6.17969C731.431 6.06738 731.436 5.98926 731.45 5.94531C731.465 5.90137 731.504 5.84277 731.558 5.76953L735.356 0.818359V-0.00195312H736.157V0.818359C736.157 0.979492 736.118 1.11621 736.04 1.22852L732.227 6.17969V7ZM738.027 7H737.231V6.17969C737.231 6.06738 737.236 5.98926 737.251 5.94531C737.266 5.90137 737.305 5.84277 737.358 5.76953L741.157 0.818359V-0.00195312H741.958V0.818359C741.958 0.979492 741.919 1.11621 741.841 1.22852L738.027 6.17969V7ZM743.828 7H743.032V6.17969C743.032 6.06738 743.037 5.98926 743.052 5.94531C743.066 5.90137 743.105 5.84277 743.159 5.76953L746.958 0.818359V-0.00195312H747.759V0.818359C747.759 0.979492 747.72 1.11621 747.642 1.22852L743.828 6.17969V7Z" fill="#A5A5B1"/>
</svg>
