<svg width="1134" height="143" viewBox="0 0 1134 143" xmlns="http://www.w3.org/2000/svg" xmlns:xlink="http://www.w3.org/1999/xlink"><title>Group Copy 6</title><defs><path id="path-1" d="M.666666667.0H45.6666667V48H.666666667z"/></defs><g id="Company" stroke="none" stroke-width="1" fill="none" fill-rule="evenodd"><g id="Colossal_BetterWorld" transform="translate(-306.000000, -27937.000000)"><g id="Group" transform="translate(307.000000, 27938.000000)"><g id="Group-Copy-6"><circle id="Oval" stroke="#979797" stroke-width=".75" cx="32" cy="32" r="32"/><circle id="Oval" fill="#91ed0d" transform="translate(33.000000, 33.000000) scale(-1, 1) translate(-33.000000, -33.000000)" cx="33" cy="33" r="8"/></g><g id="Group-3" transform="translate(470.333333, 71.000000)"><mask id="mask-2" fill="#fff"><use xlink:href="#path-1"/></mask><g id="Clip-2"/><path d="M10.0724624 24.0526132C11.6780544 20.6690923 12.8055518 17.5950709 11.2290709 14.2665343 9.44097435 10.4884866 9.86588521 6.84988373 11.650063 3.24869287 12.02179 2.49818497 12.5782609 2.71245385 13.0076503 3.19881017 15.2200979 5.70484902 15.7687312 11.6919068 13.9050576 14.6026757 12.9225562 16.1365687 12.9673426 17.7027721 13.0110093 19.766102 14.4346566 16.9012478 16.7148436 16.0810175 19.2564712 15.6978277 19.681382 15.6332069 20.1471605 15.4659865 20.4399515 15.8571122 20.7176271 16.2278314 20.5899859 16.7073855 20.3570967 17.076971 18.7990902 19.5524 16.9488525 21.6344359 13.7695788 21.7580089 12.8811288 21.7925867 12.160068 21.9172935 11.7676272 22.9030436 10.7784079 25.3909433 9.14314487 27.5648087 8.33698988 30.2652767 9.82277831 28.3124824 11.9411745 28.1991126 14.055092 28.1441283 14.463208 28.1327913 15.0185592 27.8669392 15.3236665 28.4445582 15.6321327 29.0278457 15.292316 29.4524155 14.9513796 29.848076 13.2410994 31.832047 11.2458658 33.1323983 8.47470803 32.8478402 6.92174001 32.6885556 6.50298728 33.2389659 6.09207217 35.230306 5.67555876 37.2454537 5.75281528 39.2492644 6.0758371 41.4594082 6.8803126 40.5377119 7.566664 39.6698663 8.33531039 38.8836469 12.4634957 34.6628903 16.9460534 30.8360935 21.4487649 27.0444415 22.4374244 26.2123073 22.6104118 25.4799386 22.3848004 24.3706154 21.9705263 22.3361948 21.5540129 20.3091432 22.103206 18.2078345 22.5947366 16.3275968 23.781016 14.8271478 24.6851413 13.1815856 25.0132016 12.5846937 25.7353821 12.763818 26.0242543 13.59992 26.9524522 16.2850831 27.2676364 19.0076582 26.5650499 22.0119572 28.6750486 19.8755038 30.6534873 17.8688589 32.6364047 15.8678824 33.0607557 15.4387778 32.951029 15.1219092 32.6033747 14.6531252 31.6701383 13.3947207 30.7525772 12.1125086 29.9693752 10.7560393 28.9213738 8.9421229 28.9723183 6.91053656 29.13131 4.89085404 29.1537031 4.6119644 29.3003786 4.33250791 29.2757461 4.0632547 29.2220024 3.46522914 28.8900233 2.74929902 29.6698663 2.4579387 30.4116408 2.18074961 30.9334023 2.7850105 31.3387191 3.29177339 33.5315726 6.02455178 35.4954557 8.86049666 34.5980485 12.8369415 36.0082599 11.8948386 36.1885251 11.9033414 36.3234441 9.09857318 36.5132264 5.13289851 38.6265841 2.49478388 41.561772.281239053 42.4362263-.378006179 42.8784918.236457993 42.900885.946152775 42.9926971 3.88923209 42.6439231 6.76882434 40.6610058 9.11331125 39.6225214 10.3416727 38.4955839 11.5224189 37.0198724 12.2615899 36.7707481 12.3857298 36.4919529 12.5076023 36.544017 12.9950923 38.2134297 13.0965582 39.929868 13.1271681 41.5046694 13.8975157 43.177441 14.7166123 44.1957715 16.2703451 45.4492305 17.545755 45.9928253 18.0984327 45.4162006 18.5156334 44.8255801 18.5513449 41.5281822 18.7463409 38.3953744 18.3438782 36.231632 15.4314087 35.5396823 14.5012097 35.1595578 14.5318196 34.4670483 15.3696222 33.2897261 16.7946803 32.0183525 18.1415132 30.7240259 19.5920794 31.904707 19.9344561 32.9935761 19.5779082 34.0645306 19.5739403 36.9342185 19.5614696 38.9809564 21.1129349 40.9347626 22.9041773 41.4833958 23.4069723 41.1726903 23.9874255 40.5529586 24.0429767 37.9822199 24.2742511 35.4473104 25.3104508 32.8155502 24.4193644 31.6477451 24.0242707 30.5941454 23.4500528 29.6261995 22.6893416 29.0131859 22.2080869 28.4248047 21.7676454 27.6740728 22.5805066 23.6628919 26.9282375 19.0286204 30.5708083 14.5544602 34.3942039 14.2739855 34.633981 14.0304595 34.9191059 13.6693692 35.2841566 14.8511701 35.4768852 15.7379405 34.8068699 16.7165231 34.6362484 18.7397482 34.2842352 20.7853665 34.4327496 22.8097113 34.1606622 24.6789831 33.9095481 25.8215959 33.1182271 26.285135 31.1331224 27.0269095 27.957635 29.5119943 26.322276 32.2361263 25.1137542 33.382098 24.6058576 33.3664228 25.8036093 33.2315038 26.3914316 32.6828705 28.7824001 31.825771 31.0412928 29.7863109 32.6029615 29.6026867 32.74354 29.4151437 32.8790169 28.8771472 33.2780785 31.7445957 33.2026876 33.336192 34.9587854 35.125968 36.3572015 35.5094515 36.6564977 35.8856571 36.929152 35.7020329 37.5266107 35.5391225 38.058315 35.0632671 38.1172672 34.6814631 38.1473102 31.5273817 38.4001248 28.4897449 38.2141984 26.2465067 35.4904896 25.7605744 34.9015336 25.2164198 34.4985041 24.4186622 34.8267096 23.2407802 35.3107985 21.9985178 35.4802863 20.7170673 35.5879876 20.731063 36.2030186 21.2069184 36.4308919 21.5456154 36.6842733 23.3460283 38.0328068 24.0581318 39.8966058 24.2462347 42.0778403 24.3251707 42.9853653 24.0581318 43.1718586 23.3169171 42.7591926 20.9034906 41.4146271 18.796291 39.7996747 18.3461878 36.7789371 18.2006321 35.8016896 17.7992341 35.590255 16.7473138 35.773914 13.6436171 36.3135542 11.0079381 37.4563215 8.90129837 39.9907028 6.74483378 42.5846032 4.29109953 44.9262558 1.95436972 47.3654065 1.65486075 47.6783071 1.3200825 48.301274.822953591 47.8290889.389085454 47.4181235.970748672 47.0462706 1.213155 46.7770174 2.19845554 45.679598 3.19439285 44.5838791 4.27486447 43.5850914 5.03567324 42.8821988 5.24392994 42.1067496 4.99480566 41.1618125 3.85835106 36.8611302 5.29879327 33.084783 7.29346704 29.4133029 7.81354897 28.456462 8.57659706 27.5222951 8.72999044 26.5008334 8.94216595 25.0854118 7.31753972 25.1177222 6.53657707 24.5021243 3.30523916 21.9547055 1.82504903 18.5881901 1.64478382 14.5306859 1.6257496 14.0942123 1.75730962 13.7784774 2.08089127 13.5421015 2.45597727 13.2677466 2.66591347 13.6129576 2.92455486 13.8034188 3.80404756 14.4501933 4.67962145 15.1015027 5.58094751 15.7165337 7.9904552 17.3609623 9.33292719 19.642529 9.65426953 22.5612338 9.69513711 22.9325198 9.85412878 23.2913351 10.0724624 24.0526132" id="Fill-1" fill="#c265f6" mask="url(#mask-2)"/></g><circle id="Oval" stroke="#979797" cx="493" cy="95" r="46"/><path d="M31.5 94.5h416z" id="Line" stroke="#979797" stroke-width=".75" stroke-linecap="square"/><path d="M576.5 121.5h568z" id="Line-Copy" stroke="#ff7b31" stroke-width=".75" stroke-linecap="square"/><path d="M31.5 94.5v-30z" id="Line" stroke="#979797" stroke-width=".75" stroke-linecap="square"/><g id="Group-19" transform="translate(579.000000, 37.000000)" stroke="#ff7b31" stroke-width=".679"><path id="Stroke-1" d="M0 70H11V50H0z"/><path id="Stroke-3" d="M16 70H27V0H16z"/><path id="Stroke-4" d="M32 70H43V45H32z"/><path id="Stroke-5" d="M49 70H60V10H49z"/><path id="Stroke-6" d="M65 70H76V0H65z"/><path id="Stroke-7" d="M81 70H92V25H81z"/><path id="Stroke-8" d="M97 70h11V18H97z"/><path id="Stroke-9" d="M113 70h11V45H113z"/><path id="Stroke-10" d="M130 70h11V50H130z"/><path id="Stroke-11" d="M146 70h11V45H146z"/><path id="Stroke-12" d="M162 70h11V35H162z"/><path id="Stroke-13" d="M178 70h11V55H178z"/><path id="Stroke-14" d="M194 70h11V50H194z"/><path id="Stroke-15" d="M210 70h11V55H210z"/><path id="Stroke-16" d="M227 70h11V60H227z"/><path id="Stroke-17" d="M243 70h11V45H243z"/><path id="Stroke-18" d="M259 70h11V65H259z"/></g><g id="Group-19-Copy" transform="translate(856.000000, 37.000000)" stroke="#ff7b31" stroke-width=".679"><path id="Stroke-1" d="M0 70H11V50H0z"/><path id="Stroke-3" d="M16 70H27V0H16z"/><path id="Stroke-4" d="M32 70H43V45H32z"/><path id="Stroke-5" d="M49 70H60V10H49z"/><path id="Stroke-6" d="M65 70H76V0H65z"/><path id="Stroke-7" d="M81 70H92V25H81z"/><path id="Stroke-8" d="M97 70h11V18H97z"/><path id="Stroke-9" d="M113 70h11V45H113z"/><path id="Stroke-10" d="M130 70h11V50H130z"/><path id="Stroke-11" d="M146 70h11V45H146z"/><path id="Stroke-12" d="M162 70h11V35H162z"/><path id="Stroke-13" d="M178 70h11V55H178z"/><path id="Stroke-14" d="M194 70h11V50H194z"/><path id="Stroke-15" d="M210 70h11V55H210z"/><path id="Stroke-16" d="M227 70h11V60H227z"/><path id="Stroke-17" d="M243 70h11V45H243z"/><path id="Stroke-18" d="M259 70h11V65H259z"/></g></g></g></g></svg>