<?xml version="1.0" encoding="utf-8"?>
<!-- Generator: Adobe Illustrator 26.5.0, SVG Export Plug-In . SVG Version: 6.00 Build 0)  -->
<svg version="1.1" xmlns="http://www.w3.org/2000/svg" xmlns:xlink="http://www.w3.org/1999/xlink" x="0px" y="0px"
	 viewBox="0 0 1552.19 411.89" style="enable-background:new 0 0 1552.19 411.89;" xml:space="preserve">
<style type="text/css">
	.st0{fill:#FFFFFF;}
	.st1{fill:#ED1B23;}
	.st2{fill:#C28B53;}
</style>
<g id="Layer_2">
</g>
<g id="Layer_1">
	<path class="st0" d="M883.72,221.51c-3.51-2.46-6.03-6.35-7.94-10.33c-2.29-4.78-4.36-9.67-6.87-14.34
		c-13.26-24.72-26.68-45.4-41.48-72.61c-0.33-0.61-1.06-0.93-1.75-0.96c-1.81-0.07-2.24,2.11-2.24,3.76
		c0.03,26.27,0.05,52.54,0.08,78.8c0.01,5.91-0.64,12.98-5.84,15.78c-1.74,0.94-3.77,1.22-5.74,1.16
		c-4.05-0.12-8.25-1.82-10.44-5.23c-1.95-3.05-2.01-6.9-2.01-10.52c0-34.85,0.16-69.71,0-104.56c-0.02-4.67-1.18-10.03,1.92-14.03
		c2.29-2.95,6.16-4.09,9.78-5.06c4.09-1.09,8.69-2.13,12.36-0.03c2.6,1.48,4.16,4.24,5.6,6.87c15.72,28.7,30.96,58.06,46.49,87
		c1.14,2.12,2.27,4.23,3.41,6.35c0-7.55,0-13.39-0.21-19.26c-0.41-11.71,0-23.36,0-35.08c0-13.66,0-21.44,0-34.87
		c0-3.08,2.94-6.54,5.33-9.09c1.84-1.95,5.52-3.37,8.19-3.16c3.44,0.27,7.1,1.39,9.25,4.12c2.25,2.87,2.35,6.82,2.35,10.46
		c0,34.89-0.02,69.77-0.02,104.66c0,5.64,1.39,14.25-4.03,18.05c-1.27,0.89-2.77,1.35-4.18,1.98c-2.2,0.98-3.41,1.37-5.81,1.6
		C887.34,223.25,885.33,222.64,883.72,221.51z"/>
	<path class="st0" d="M565.8,221.01c-1.62-0.65-3.04-1.61-4.1-3.06c-1.96-2.68-2.03-6.24-2.03-9.56c0.01-23.4,0.02-46.8,0.03-70.21
		c0-11.41,0.17-22.84,0.02-34.25c-0.06-4.79-0.31-7.89,0.38-12.7c0.65-4.46,6.43-9.18,13.07-9.22c8.15-0.05,16.29,0.05,24.44,0
		c9.75-0.07,19.79-0.08,28.82,3.61c11.74,4.79,20.74,16.31,21.49,28.98c0.75,12.66-7.42,25.62-19.51,29.46
		c6.24,3.15,11.96,7.33,16.86,12.32c9.73,9.9,9.12,27.76,5.71,40.26c-3.31,12.15-22.21,25.44-34.76,25.49
		c-13.64,0.05-27.28,0.1-40.93,0.16C572.14,222.29,568.66,222.15,565.8,221.01z M580.22,179.58c0,5.73,0.21,11.48-0.07,17.2
		c-0.19,3.85,0.88,5.37,5.01,5.2c7.64-0.32,15.31,0.07,22.95-0.17c15.84-0.48,29.42-16.64,21.44-32.21
		c-8.42-16.44-30.43-11.48-45.51-11.72c-2.86-0.04-3.93,1.15-3.86,4.01C580.33,167.79,580.22,173.68,580.22,179.58z M622.25,109.14
		c-0.72-1.1-1.53-2.09-2.41-2.89c-0.34-0.31-0.7-0.61-1.08-0.88c-5.15-3.65-13.13-2.99-19.12-2.88c-4.68,0.08-9.36,0.16-14.04,0.25
		c-1.28,0.02-4.12-0.17-5.07,0.69c-2.64,2.4,0.02,26.52,0,31.79c0,0.48,0.03,0.96,0.35,1.32c0.33,0.38,0.53,0.5,1.03,0.54
		c10.78,0.93,22.85,1.05,33.06-3.02c4.39-1.75,8.66-4.67,10.13-9.39C626.56,119.98,625.14,113.58,622.25,109.14z"/>
	<path class="st0" d="M1149.88,215.64c-0.37,0.9-0.65,1.88-1.44,2.78c-4.15,4.7-13.53,5.29-15.97,3.6
		c-6.79-8.7-13.04-18.79-19.45-27.77c-6.37-8.93-11.53-16.36-17.75-26.23c-0.52-0.82-1.54-1.38-2.41-1.93
		c-0.36-0.22-0.94-0.12-1.41-0.12c-14.35,0.14-11.96-2.44-12.17,11.35c-0.14,8.82,0.3,17.49,0.3,26.3c0,9.01-0.57,13.28-2.9,16.45
		c-0.93,1.26-4.4,1.89-5.9,2.13c-2.18,0.36-4.45,0.35-6.62-0.06c-4.3-0.81-8.25-3.46-8.73-8.12c-0.02-0.16-0.03-0.32-0.03-0.48
		c0.03-39.23-0.06-78.46,0.3-117.68c0.04-4.02-0.28-8.64,1.36-10.9c1.89-2.59,6.27-2.66,7.89-2.67c8.04-0.04,14.21-0.27,22.25-0.32
		c7.75-0.05,17.53-0.52,25.22,0.66c9.94,1.52,20.13,6.37,27.07,13.74c6.73,7.15,8.59,16,8.62,25.52c0.02,9-1.66,18.27-6.82,25.82
		c-1.21,1.77-2.58,3.41-4.1,4.92c-2.69,2.65-5.87,4.77-9.19,6.56c-3.27,1.76-5.99,1.93-9.38,3.01c-0.92,0.29-1.14,2.09-0.98,2.3
		c2.07,2.82,2.71,4.61,5.09,8.41c6.56,10.49,13.58,20.08,20.29,30.01C1145.48,206.54,1150.77,213.47,1149.88,215.64z M1079.22,124.4
		c0,5.58,0.27,11.17-0.08,16.72c-0.33,5.22,3.49,5.32,7.64,5.35c5.25,0.04,10.5,0.07,15.75,0.11c1.71,0.01,3.43,0.02,5.12-0.25
		c8.03-1.32,15.37-8.5,18.06-15.98c2.9-8.08-0.43-17.9-7.3-22.95c-9.93-7.29-23.52-4.48-34.91-4.75c-3.46-0.08-4.4,1.36-4.3,4.56
		C1079.37,112.92,1079.24,118.66,1079.22,124.4z"/>
	<path class="st0" d="M954.51,219.48c-2.83-1.53-5.51-3.35-7.97-5.46c-9.37-8.04-15.36-19.5-18.5-31.45
		c-4-15.26-4.24-31.47-1.89-46.98c2.08-13.7,5.55-27.85,14.23-38.98c0.77-0.99,1.58-1.95,2.42-2.88
		c7.7-8.44,18.55-13.94,29.92-15.13c11.36-1.2,23.13,1.92,32.41,8.57c8.71,6.24,15.09,15.36,19.19,25.26
		c4.1,9.9,6.02,20.58,6.95,31.25c1.22,14.04,0.74,28.42-3.55,41.84c-4.3,13.42-12.69,25.85-24.74,33.15
		C988.5,227.45,969.35,227.47,954.51,219.48z M1008.24,153.85c0.05-13.81-1.3-28.21-6.59-40.87c-2.91-6.96-8-10.91-15.11-13.06
		c-9.42-2.85-17.63-1.24-24.78,5.59c-8.57,8.18-13.13,19.45-13.32,31.2c-0.24,14.22-0.81,28.44,2.81,42.34
		c2.35,9.01,6.81,18.11,14.86,22.79c4.28,2.49,9.37,3.55,14.28,2.97c9.45-1.12,17.45-8.15,21.83-16.6s5.61-18.17,5.91-27.68
		C1008.19,158.32,1008.24,156.09,1008.24,153.85z"/>
	<path class="st0" d="M680.73,200.52c-3.74-6.62-6.33-14-7.81-21.43c-4.6-23.24-3.79-54.62,8.02-75.76
		c7.34-13.14,21.15-22.46,36.09-24.35c14.94-1.89,30.63,3.7,41.01,14.61c15.67,16.46,17.77,41.32,17.83,64.05
		c0.02,7.33-0.09,14.71-1.44,21.92c-3.02,16.14-12.68,31.19-26.81,39.55c-14.13,8.36-32.64,9.42-47.08,1.61
		C692.07,216.14,685.48,208.93,680.73,200.52z M751.44,153.04c0.02-2.22,0.03-4.44,0.05-6.65c0.06-8.08,0.11-16.25-1.83-24.09
		s-6.1-15.44-12.85-19.87c-7.26-4.77-17.15-5.21-24.8-1.11c-24.22,12.97-19.39,46.16-17.53,68.13c0.45,5.31,0.92,10.7,2.76,15.7
		c2.48,6.73,7.48,12.49,13.79,15.9c8.53,4.6,19.7,4.55,27.54-1.15c11.54-8.39,12.71-24.85,12.82-39.12
		C751.41,158.21,751.42,155.63,751.44,153.04z"/>
	<path class="st0" d="M1180.14,200.52c-3.74-6.62-6.33-14-7.81-21.43c-4.6-23.24-3.79-54.62,8.02-75.76
		c7.34-13.14,21.15-22.46,36.09-24.35s30.63,3.7,41.01,14.61c15.67,16.46,17.77,41.32,17.83,64.05c0.02,7.33-0.09,14.71-1.44,21.92
		c-3.02,16.14-12.68,31.19-26.81,39.55c-14.13,8.36-32.64,9.42-47.08,1.61C1191.48,216.14,1184.88,208.93,1180.14,200.52z
		 M1250.85,153.04c0.02-2.22,0.03-4.44,0.05-6.65c0.06-8.08,0.11-16.25-1.83-24.09s-6.1-15.44-12.85-19.87
		c-7.26-4.77-17.15-5.21-24.8-1.11c-24.22,12.97-19.39,46.16-17.53,68.13c0.45,5.31,0.92,10.7,2.76,15.7
		c2.48,6.73,7.48,12.49,13.79,15.9c8.53,4.6,19.7,4.55,27.54-1.15c11.54-8.39,12.71-24.85,12.82-39.12
		C1250.82,158.21,1250.83,155.63,1250.85,153.04z"/>
	<path class="st0" d="M1497.75,199.33c9.21-7.57,8.73-21.83,9.01-33.35c-6.45-0.04-12.9-0.07-19.35-0.11
		c-1.6-0.01-3.25-0.03-4.72-0.66c-3.23-1.39-4.83-5.46-6-8.51c-0.67-1.75-0.98-3.75-0.25-5.48c1.52-3.56,6.28-4.27,9.69-4.46
		c11.09-0.63,22.22-0.65,33.32-0.03c2.26,0.12,3.6,0.95,4.41,3.22c2.98,8.29,3.19,17.26,3.38,25.98c0.19,8.84,0.19,17.63-0.46,26.46
		c-0.07,0.93-0.17,1.92-0.77,2.63c-0.62,0.73-1.65,0.97-2.61,0.96c-0.96-0.01-1.73-4.09-2.69-4.09c-1.99,0-3.32,3.16-4.3,4.51
		c-6.38,8.77-16.43,15.13-26.89,17.68c-4.35,1.06-8.85,1.52-13.33,1.4c-8.81-0.24-20.41-2.72-27.9-7.38
		c-15.05-9.37-20.86-27.81-24.17-44.66c-2.86-14.55-2.78-30.54-0.01-45.12c2.33-12.28,7.19-24.85,16.28-33.71
		c15.42-15.02,44.96-18.21,63.85-8.27c6.48,3.41,11.97,9.15,13.88,16.22c0.94,3.48,0.71,7.78-2.18,9.93
		c-2.33,1.72-5.64,1.42-8.26,0.21c-2.62-1.22-4.79-3.21-7.16-4.87c-9.68-6.79-22.77-7.46-33.22-2.01
		c-11.72,6.11-17.2,19.6-19.52,32.03c-3.26,17.38-1.9,36.21,5.67,52.31c6.87,14.63,24.17,18,38.55,12.48
		C1494.25,201.77,1496.14,200.65,1497.75,199.33z"/>
	<path class="st0" d="M410.7,316.72c-4.03,3.48-8.77,6.13-13.87,7.67c-11.74,3.54-24.34,5.37-36.4,3.25
		c-16.22-2.86-37.31-7.68-36.2-29.63c0.18-3.58,1.98-7.5,5.43-8.48c4.77-1.36,9.39,2.6,13.1,5.9c10.88,9.69,33.12,1.99,18.11-10.51
		c-3.55-2.96-8.29-3.96-12.84-4.74c-4.55-0.79-9.28-1.52-13.11-4.1c-1.08-0.73-2.15-1.76-2.17-3.06c-0.02-1.22,0.88-2.23,1.72-3.1
		c11.07-11.51,27.31-11.57,43.08-11.54c10.77,0.02,21.47,1.66,32.12,3.3c3.75,0.58,8.14,1.63,9.56,5.16
		c1.11,2.76-0.2,5.98-2.26,8.12c-2.06,2.14-4.29,3.81-7.22,4.33c-16.33,2.91-13,20.69-3.49,13.35c3.41-4.79,11.71-5.99,14.18-0.65
		c2.47,5.33,0.48,11.73-2.71,16.67C415.8,311.65,413.41,314.38,410.7,316.72z"/>
	<path class="st0" d="M403.58,369.27c-1.37-0.1-2.97-0.49-4.43-0.86c-9.35-2.38-19.04-3.88-28.65-3.06
		c-16.52,1.41-31.66,9.5-47.76,13.48c-41.46,10.25-84.97-3.61-121.86-22.41c-9.58-4.88-19.07-10.38-26.35-18.43
		c-0.88-0.97-1.79-2.26-1.34-3.5c1.53-4.21,8.03,1.68,9.73,2.75c9.96,6.27,20.6,10.99,31.8,14.6c19.43,6.26,39.46,12.65,59.98,15.02
		c10.26,1.19,20.67,1.34,30.9-0.17c10.65-1.57,19.72-5.5,29.51-9.64c0.91-0.38,1.88-0.68,2.81-1.02c17.63-6.47,34.85-8.3,53.28-3.96
		c3.29,0.77,6.63,1.76,9.28,3.86c2.55,2.02,4.99,5.89,6.05,8.92C407.83,368.62,406.09,369.44,403.58,369.27z"/>
	<path class="st0" d="M188.4,198.21c0.08,0,0.16-0.01,0.24,0c1.82,5.4,3.67,10.85,6.66,15.7c7.24,11.73,19.33,13.77,32.13,11.46
		c6.58-1.19,17.83-2.5,20.26-10.04c1.41-4.36-2.65-8.62-4.41-12.28c-2.31-4.8-6.59-8.41-10.93-11.33c-4.45-3-11.56-5.6-16.96-5.6
		c-4.5,0.06-8.55,2.71-12.93,3.52c-1.64,0.3-5.85,0.66-6.99-1.03c-1.38-2.04,2.91-3.93,4.59-4.85c11.8-6.46,23.54-6.59,35.48-0.6
		c2.12,1.06,3.84,2.76,5.52,4.43c4.7,4.66,9.49,9.41,12.88,15.15c1.63,2.75,2.44,5.7,3.77,8.54c1.35,2.91,3.73,5.39,3.77,8.79
		c0.09,8.63-15.69,11.67-21.85,13.64c-4.69,1.5-9.45,3.01-14.37,3.2c-5.55,0.22-11.01-1.24-16.35-2.76
		c-6.97-1.97-14.37-4.37-18.78-10.11c-4.24-5.52-5.27-13.57-5.03-20.35C185.19,201.34,186.15,198.35,188.4,198.21z"/>
	<path class="st0" d="M428.51,198.21c-1.34,0.17-0.78,0.07-4.99-8.84c-2.08-4.41-7.21-2.92-9.68,0.29c-0.77,1-1.32,2.11-1.91,3.22
		c-0.31,0.59-0.72,1.3-0.73,1.96c1.62,0.2,2.96-0.1,4.3,1.14c0.88,0.82,1.41,2,1.6,3.18c0.45,2.8-1.37,6.11-4.27,6.22
		c-1.41,0.05-2.76-0.6-3.89-1.44c-0.3-0.22-0.67-0.48-1.02-0.33c-0.18,0.08-0.29,0.25-0.4,0.41c-5.92,8.54-1.03,17.8,8.22,18.26
		c3.64,0,6.86-0.31,9.22-3.41c1.37-1.8,2.14-3.99,2.67-6.19c0.84-3.49,1.16-7.1,0.94-10.68c-0.05-0.85,0.1-2.2,1.22-2.11
		c1.12,0.09,2.02,2.14,2.3,3.03c1.77,5.51-0.42,11.17-2.73,16.15c-1.93,4.17-4,8.48-8.38,10.54c-6.13,2.89-13.9,0.05-18.91-3.99
		c-10.71-8.66-3.58-23.47,2.3-32.86c3.09-4.95,8.85-10.94,15.32-10.52c3.94,0.25,7.52,3.07,8.66,6.85c0.55,1.82,0.73,3.79,0.76,5.68
		c0.01,0.69,0.25,3.06-0.49,3.52C428.58,198.26,428.56,198.2,428.51,198.21z"/>
	<path class="st0" d="M220.23,195.68c0.03,0.03,0.06,0.07,0.09,0.1c2.16,2.54,2.09,6.33-0.22,8.73c-1.7,1.76-3.72,2.58-6.63,0.84
		c-2.09-1.25-6.22-3.73-4.37-7.79c0.14-0.31,0.3-0.62,0.47-0.92C211.75,192.67,217.3,192.22,220.23,195.68z"/>
	<path class="st0" d="M1378.83,221.51c-3.51-2.46-6.03-6.35-7.94-10.33c-2.29-4.78-4.36-9.67-6.87-14.34
		c-13.26-24.72-26.68-45.4-41.48-72.61c-0.33-0.61-1.06-0.93-1.75-0.96c-1.81-0.07-2.24,2.11-2.24,3.76
		c0.03,26.27,0.05,52.54,0.08,78.8c0.01,5.91-0.64,12.98-5.84,15.78c-1.74,0.94-3.77,1.22-5.74,1.16
		c-4.05-0.12-8.25-1.82-10.44-5.23c-1.95-3.05-2.01-6.9-2.01-10.52c0-34.85,0.16-69.71,0-104.56c-0.02-4.67-1.18-10.03,1.92-14.03
		c2.29-2.95,6.16-4.09,9.78-5.06c4.09-1.09,8.69-2.13,12.36-0.03c2.6,1.48,4.16,4.24,5.6,6.87c15.72,28.7,30.96,58.06,46.49,87
		c1.14,2.12,2.27,4.23,3.41,6.35c0-7.55,0-13.39-0.21-19.26c-0.41-11.71,0-23.36,0-35.08c0-13.66,0-21.44,0-34.87
		c0-3.08,2.94-6.54,5.33-9.09c1.84-1.95,5.52-3.37,8.19-3.16c3.44,0.27,7.1,1.39,9.25,4.12c2.25,2.87,2.35,6.82,2.35,10.46
		c0,34.89-0.02,69.77-0.02,104.66c0,5.64,1.39,14.25-4.03,18.05c-1.27,0.89-2.77,1.35-4.18,1.98c-2.2,0.98-3.41,1.37-5.81,1.6
		C1382.45,223.25,1380.44,222.64,1378.83,221.51z"/>
	<g>
		<path class="st1" d="M45.67,183.22c-2.38,1.38-4.93,2.01-7.98,0.55c-2.85-1.36-4.95-3.89-6.73-6.48
			c-12.71-18.46-13.58-42.47-12-64.83c2.27-32.11,8.99-64.73,26.3-91.87c0.74-1.16,1.55-2.35,2.77-2.97
			c1.62-0.81,3.55-0.43,5.3,0.02c15.55,4.05,29.84,12.81,40.49,24.84c4.43,5,8.79,10.89,15.31,12.31c1.78,0.39,3.77,0.47,5.1,1.71
			c0.98,0.92,1.38,2.29,1.73,3.59c0.94,3.5,1.82,7.02,2.64,10.55c0.81,3.5,1.35,7.74-1.29,10.17c-4.08-2.44-8.54-4.27-13.16-5.39
			c4.89,4.33,8.51,10.07,10.32,16.35c-7.02,1.22-12.39,6.73-17.24,11.94c-1.29,1.39-2.58,2.77-3.87,4.16
			c-6.65-2.03-13.3-4.06-19.96-6.1c-1.46-0.45-2.99-0.9-4.49-0.6c-1.5,0.3-2.91,1.61-2.76,3.13c0.08,0.8,0.57,1.5,1.03,2.16
			c5.23,7.32,11.77,12.43,17,19.75c1.43,2,4.21,4.21,4.3,6.63c0,0.12-8.75,4.51-9.67,5.03c-1.03,0.57-7.21,2.96-6.41,4.55
			c0.58,1.15,4.19,0.9,5.24,1.06c1.93,0.31,4.95,1.02,6.05,2.72c-0.72-0.85-13.1,4.62-14.6,5.14c-8.52,2.94-17.73,4.83-24.39,11.39
			c-0.46,0.46-0.94,1.04-0.83,1.68c0.16,0.95,1.39,1.22,2.35,1.27c7.63,0.39,15.27,0.78,22.9,1.18c-5.64,3.87-11.29,7.74-16.93,11.6
			C50,179.95,47.92,181.92,45.67,183.22z"/>
		<path class="st1" d="M431.92,61.94c-1.11-1.21-4.88,2.29-5.53,1.27c-0.65-1.02-0.69-2.3-0.7-3.51c-0.03-3.24-0.06-6.48-0.1-9.71
			c-0.02-1.54-0.03-3.11,0.36-4.61c1.26-4.91,6.46-9.67,9.5-13.64c3.87-5.04,7.89-9.97,12.32-14.52c2.27-2.33,4.76-4.63,7.85-5.67
			c6.37-2.14,11.52,2.88,13.83,8.37c2.91,6.91,1.57,14.64,2.05,21.91c0.79,12.11,2.45,24.14,3.14,36.26
			c0.92,16.19,2.14,32.41,1.44,48.63c-0.35,8.07-1.17,16.14-2.8,24.06c-0.63,3.05-4.2,16.24-9.77,10.26
			c-0.12-0.13-0.75-0.8-0.71-0.99c0,0,1.07-3.3,0.13-5.56c-0.96-2.32-3.02-3.96-4.99-5.52c-1.97-1.55-4.01-3.23-4.91-5.57
			s-0.15-5.51,2.19-6.4c1.29-0.49,3.2-0.63,3.91-1.51c0.33-0.4,0.12-1.02-0.35-1.23l-11.49-5.08c-0.9-0.4-1.13-1.53-0.52-2.31
			c1.56-1.99,1.73-5.13,0.65-7.54c-1.13-2.53-3.23-4.44-5.44-6.16c-0.61-0.48-0.7-1.38-0.16-1.94c3.94-4.09,10.45-21.67,9.34-22.74
			c-1.1-1.06-8.79,2.43-11.93,5.79c-0.48,0.51-1.34,0.3-1.54-0.37c-1.32-4.37,0.04-10.87,0.47-15.41c1.79-5.68-7.22,2.64-9.64,1.41
			c-1.19-0.61-2.14-1.64-2.55-2.91c-0.82-2.49,0.77-3.77,1.88-5.29C429.38,69.62,433.04,63.15,431.92,61.94z"/>
	</g>
	<g>
		<path class="st2" d="M843.29,290.09c0,0,10.38,0.1,16.29-3.74c7.4-7.7-10.98-1.39-16.3-2.89l13.57-31.04
			c1.56-1.02,6.23-9.26,4.3,6.28c-0.23,1.85-1.02,4.2-0.42,5.96c0.21,0.62,0.72,1.11,1.29,1.43c1.99,1.12,2.88-0.84,4.42-2.53
			s2.24-3.96,2.83-6.17c1.06-3.96-0.29-8.28-2.11-12.09c-0.92-1.92-2.6-3.43-4.65-4.01c-3.27-0.92-5.38,0.98-7.21,2.9
			c-6.12,6.43-10.82,14.19-13.68,22.6c-2.43,7.14-6.77,16.09-6.77,16.09c-3.46,2.12-13.47-0.16-16.2,5.1
			c-3.58,5.54,12.84,2.95,12.84,2.95c-0.41,3.82-7.95,27.01-8.68,29.01c-0.81,2.21-2.64,3.86-4.4,5.42
			c-3.57,3.15-7.14,6.29-10.71,9.44c-1.25,1.1-2.62,2.26-4.61,1.51c-0.93-0.35-1.69-1.06-2.17-1.93c-1.13-2.05-0.83-4.41-0.44-6.63
			c1.75-10.1,4.93-19.95,9.42-29.17c1.34-2.76,2.72-6.35,0.19-8.48c-1.79-1.51-4.49-1.37-6.24,0.19
			c-7.44,6.65-7.64,16.97-9.13,26.34c-1.32,8.32-5.32,22.51-13,20.11c-4.95-3.49-1.43-10.88-0.11-16.29
			c5.77-23.52,11.73-47.5,24.6-68.01c0.78-1.24,1.61-2.59,0.87-4.15c-0.51-1.08-1.61-1.78-2.8-1.92c-2.3-0.28-4.28,1.09-5.9,2.6
			c-11.08,10.28-23.05,61.83-23.82,65.42c-1.71,8.01-7.8,14.93-15.52,17.66c-1.57,0.55-3.39,0.92-4.83,0.08
			c-1.33-0.78-1.94-2.38-2.28-3.89c-2.45-10.77,2.31-24.57,6.73-34.69c5-11.44,11.08-37.04,10.74-39.12
			c-0.44-2.7,0.21-7.26-4.59-3.74c-8.5,13.31-14.81,28.02-18.59,43.36c-2.65-4.87-9.87-5.48-14.66-2.7
			c-8.18,4.75-13.03,16.53-15.81,25.07c-1.53,4.72-1.55,11.92-4.99,15.74c-2.1,2.32-6.81,4.77-9.92,2.86
			c-2.81-1.73-2.16-5.55-2.23-8.35c-0.1-3.93,0.59-7.86,1.55-11.66c1.81-7.18,5.27-19.1,7.78-26.05c5.03-13.94,9.6-22.75,14.63-36.7
			c0.72-1.99,1.32-4.58-0.66-5.82c-1.77-1.11-4.15-0.33-5.14,1.51c-9.73,17.89-16.96,37.13-21.42,57c-1.3,5.8-2.43,11.8-5.63,16.82
			c-4.22,6.63-10.81,13.82-18.53,14.05c-1.05,0.03-2.07-0.12-2.24-1.15c-0.98-6.19,0.1-12.25,1.58-18.34
			c1.6-6.56,5.19-12.34,7.04-18.8c1.07-2.6,2.04-5.89-0.03-7.91c-1.3-1.27-3.29-1.44-4.95-0.71c-2.77,1.22-4.1,3.96-5.2,6.61
			c-4.6,11.08-7.09,23.03-7.31,35.03c-0.09,5.26,0.63,11.35,6.3,13.44c2.33,0.86,4.9,0.69,7.23-0.18
			c7.15-2.66,12.23-6.77,16.87-13.53c0.55,7.47,4.16,13.16,7.91,13.14c6.82-0.04,14.91-7.45,15.03-6.36
			c0.84,7.79,14.74,10.53,22.6,1.85c1.61-1.78,8.13-8.79,8.13-8.79c4.42,6.74,4.84,8.63,9.4,8.86c6.27,0.32,12.03-1.49,16.83-5.54
			c-0.24,4.82,3.38,9.54,8.09,10.56s12.33-2.45,14.1-6.94c1.94,5.37,6.35,8.41,11.89,7.05c4.35-1.07,8.01-3.87,11.12-7.17
			c0.85-0.9,1.66-1.84,2.43-2.79c-4.05,10.41-6.17,21.57-6.24,32.74c-0.01,2.08,0.25,4.55,2.25,5.44c1.58,0.7,3.38,0.01,4.43-1.36
			c1.79-2.35,1.44-5.26,1.39-8.02C819.55,346.99,837.63,295.49,843.29,290.09z M743.26,317.44c-0.11,3.93-0.11,2.3-2.52,5.41
			c-3.1,4.01-6.66,7.9-10.51,11.19c-1.67,1.42-3.65,2.86-5.93,2.98c-3.66,0.2-4.44-2.9-3.82-5.84c1.45-6.91,3.91-13.56,6.45-20.13
			c1.81-4.69,4.52-11.39,10.08-12.54c4.94-1.02,7.82,1.53,7.96,5.08C745.02,304.74,743.3,316.25,743.26,317.44z"/>
		<path class="st2" d="M1311.36,297.81c-0.03-0.01-0.05-0.01-0.08-0.01c0,0.04-0.01,0.07-0.01,0.1L1311.36,297.81z"/>
		<path class="st2" d="M1283.02,318.11c1.15-2.33,1.95-4.24,3.77-6.18c6.82-7.28,13.22-16.17,24.5-14.14
			c0.9-8.93-2.74-9.58-9.39-7.91c-3.76,0.94-10.48,7.82-13.13,10.89c-6.44,7.46-0.09-4.97-1.5-7.53c-1.45-2.62-7.22-0.3-8.34,2.01
			c-4.82,9.95-6.91,20.91-9.76,31.5c-1.02,0.85-2.28,1.55-3.34,2.06c-4.96,2.43-6.56-0.41-6.76-0.82
			c-3.88-8.02-1.31-8.73,0.49-14.03c0.77-2.26,5.23-10.93,5.78-13.11c0.76-3.01,2.53-6.45,1.08-9.21c-2-3.8-5.63,0.27-7.05,1.11
			c0,0-0.3-4.49-0.95-5.44c-1.98-2.91-6.3-2.03-9.13-0.71c-1.61,0.75-2.99,1.95-4.53,2.88c-9.78,5.95-17.89,14.09-23.03,23.63
			c-0.09,0.16-0.17,0.32-0.26,0.49c-1.7,3.23-3.46,7.85-4.04,12.43c-0.01,0-0.02,0-0.04,0c-0.13,0.16-0.26,0.32-0.39,0.48
			c-3.45,3.9-10.8,7.39-12.03-0.42c-0.66-4.22,1.39-10.39,3.42-14.07c1.59-2.88,4.17-5.08,5.83-7.92c1.41-2.42,2.76-7.62-0.08-9.61
			c-6.03-4.21-9.77,7.19-11.02,10.68c-2.51,6.99-6.94,13.02-11.86,18.5c-2.62,2.92-5.37,5.72-8.11,8.53
			c-2.03,2.08-4.16,4.56-7.21,4.98c-8.49,1.18-3.87-14.96-2.72-18.55c1.49-4.66,2.4-9.5,4.14-14.04c0.87-2.27,1.87-4.83,1.63-7.32
			c-0.34-3.52-3.85-1.79-5.74-0.59c-0.62,0.39-1.12,0.85-1.54,1.35c-2.07,2.44-2.64,6.25-3.54,9.25
			c-1.69,5.65-2.87,11.32-4.12,17.04c-0.29,1.34-0.6,2.72-1.31,3.89c-0.91,1.49-2.41,2.53-3.91,3.42c-2.76,1.65-5.7,3-8.75,4.03
			c-3.05,1.03-6.89,1.54-9.05-0.84c-1.67-1.84-1.58-4.64-1.23-7.1c1.39-9.8,5.44-19.2,11.59-26.95c0.54-0.68,1.12-1.37,1.9-1.77
			c3.17-1.61,7.33-1.14,10.78-1.55c2.09-0.25,5.01-0.05,6.84-1.1c3.27-1.87,2.41-5.26-1.19-5.59c-2.26-0.2-12.99,0.4-12.99,0.4
			c1.89-3.37,6.71-22,6.83-26.84c0.02-0.79-2.78-2.52-3.07-2.29c-1.91,1.5-4.12,3.14-5.06,5.26c-2.97,6.67-6.13,17.55-9.64,23.87
			c-1.87,3.36-23.79,2.47-21.06,9.29c1.73,4.31,3.55,5.81,6.54,2.28c1.17-1.39,4.15-1.93,5.82-2.2c0.42-0.07,4.36-0.32,4.07,0.26
			c-6.15,12.17-12.26,23.34-8.7,37.54c1.68,6.68,6.79,8.12,13.08,6.95c4.64-0.86,13.03-6.12,13.12-6.24
			c2.36-3.1,4.43-0.71,6.15,1.57c3.42,4.54,6.84,5.88,12.41,3.9c3.42-1.22,6.69-3.13,9.57-5.33c1.22-0.94,11.16-9.01,10.64-10.19
			c1.23,2.81,2.05,7.04,5.24,8.46c4.19,1.87,9.99-1.02,14.13-1.86c0.52-0.27,1-0.56,1.43-0.89c1.05,2.6,3.01,4.74,6.26,5.99
			c1.16,0.45,2.43,0.72,3.68,0.59c3.12-0.34,6.06-2.34,8.6-3.86c2.64-1.58,6.8-4.56,8.71-6.83c0.8-0.95,3.44-2.6,3.44-2.6
			c1.25,0.1,1.92,2.67,2.6,3.47c3.02,3.58,4.4,8.08,10.98,6.02c1.41-0.44,2.72-1.15,3.93-1.85c-0.43,1.81-0.55,3.48,0.21,4.29
			c0.51,0.54,1.23,0.82,1.92,1.07c1.42,0.51,4.4,1.4,5.69-0.02c0.68-0.76,0.52-2.43,0.73-3.46c0.66-3.23,2.1-6.39,3.39-9.4
			C1279.83,324.74,1281.39,321.41,1283.02,318.11z M1256.25,302.74c-2.67,8.2-7.13,15.19-13.38,21.62
			c-2.18,2.25-4.45,4.44-6.93,6.42c-1.04,0.83-2.14,1.64-3.46,2.03c-1.32,0.4-2.9,0.31-3.94-0.52c-1.21-0.97-1.35-2.59-1.31-4.04
			c0.38-12.69,8.12-22.59,19.21-30.01c0.95-0.63,1.94-0.8,2.98-0.77c0.27,0.01,0.31,0.01,0.54,0.18c0.27,0.19,0.35,0.39,0.34,0.69
			c-0.04,1.42,1.06,1.46,1.33,1.22c0.43-0.37,1.65-1.95,2.13-2.27C1257.94,294.45,1256.9,300.74,1256.25,302.74z"/>
		<path class="st2" d="M670.91,261.38c1.93-3.17,4.47-5.97,6.1-9.3c0.87-1.79,1.47-3.71,1.77-5.68c0.24-1.61,0.2-3.45-0.95-4.59
			c-1.39-1.37-3.84-1.02-5.34,0.24s-2.28,3.15-3.01,4.96c-1.95,4.86-3.9,9.71-5.85,14.57c-3.06,7.62-6.12,15.24-9.18,22.85
			c-5.06,12.6-10.13,25.21-15.19,37.81c-0.68,1.7-1.37,3.42-2.36,4.97c-0.64,1.01-1.75,2.05-2.88,1.65
			c-0.79-0.28-1.19-1.15-1.49-1.93c-5.94-15.41-8.83-31.99-8.45-48.5c0.07-2.91-0.04-6.38-2.49-7.95c-2.09-1.34-5.02-0.49-6.78,1.26
			c-1.77,1.75-2.65,4.17-3.5,6.51c-6.44,17.66-13.9,35.02-23.42,51.23c-0.95,1.61-7.29,9.93-7.38,4.31c-0.02-1.4-0.04-2.8-0.06-4.19
			c-0.04-2.97-0.09-5.95-0.13-8.92c-0.08-5.77-0.17-11.55-0.25-17.32c-0.17-11.54-0.5-23.1-0.5-34.64
			c-0.13-8.88-0.29-17.93-3.1-26.35c-0.53-1.59-1.24-3.26-2.64-4.18c-8.42-5.53-4.82,23.48-4.4,26.56
			c1.84,13.27,2.77,26.66,2.8,40.05c0.02,12.43-0.7,25.13,2.97,37c0.97,3.15,2.61,6.55,5.75,7.55c2.68,0.85,5.67-0.43,7.62-2.46
			c1.95-2.03,3.07-4.69,4.15-7.29c6.83-16.44,13.65-32.88,20.48-49.33c0.42-1.02,0.85-2.04,1.39-2.99c0.26-0.45,0.54-0.88,0.86-1.29
			c1.83,20.08,4.15,41.33,16.4,57.34c0.55,0.72,1.17,1.46,2.02,1.74c1.72,0.57,3.4-0.92,4.54-2.33
			c6.81-8.45,10.41-18.96,13.89-29.24c4.55-13.45,9.11-26.9,13.66-40.35C667.31,269.09,668.69,265.02,670.91,261.38z"/>
		<path class="st2" d="M1071.64,301.44c-2.78,1.91-5.4,4.08-7.86,6.39c-2.95,2.77-6.07,7.83-8.39,11.19
			c-3.72,5.4-3.38,1.54-3.29-3.18c0.13-6.21,3.99-11.68,3.19-18.18c-0.21-1.68-1.21-3.44-3.09-3.4c-1.35,0.03-3.49,0.81-3.87,1.81
			c-1.69,4.47-3.16,9.07-4.13,13.74c-0.63,3.03-3.59,13.83-4.97,18.01c-0.25,0.75-0.44,1.29-0.56,1.53
			c-0.8,1.59-2.76,2.87-4.25,3.69c-4.41,2.43-5.84-0.41-6.02-0.82c-3.46-8.02-1.16-8.73,0.44-14.03c0.68-2.26,4.66-10.93,5.15-13.11
			c0.67-3.01,2.25-6.45,0.96-9.21c-1.78-3.8-5.01,0.27-6.27,1.11c0,0-0.27-4.49-0.84-5.44c-1.76-2.91-5.61-2.03-8.13-0.71
			c-1.44,0.75-2.67,1.95-4.03,2.88c-8.71,5.95-15.93,14.09-20.51,23.63c-0.08,0.16-0.15,0.32-0.23,0.49
			c-3.54,7.56-7.39,22.73,2.7,27.1c1.03,0.45,2.16,0.72,3.27,0.59c2.78-0.34,5.4-2.34,7.66-3.86c2.35-1.58,6.06-4.56,7.76-6.83
			c0.72-0.95,3.06-2.6,3.06-2.6c1.12,0.1,1.71,2.67,2.32,3.47c2.69,3.58,3.91,8.08,9.78,6.02c2.03-0.71,3.81-2.11,5.38-3.09
			c0.12-0.07,0.23-0.15,0.35-0.22c1.85,1.03,4.22,3.24,5.23,2.74c3.33-1.66,6.51-3.97,9.12-6.64c3.93-4.03,7.33-8.58,10.97-12.9
			c1.82-2.16,3.61-4.33,5.45-6.47c1.08-1.26,3.16-4.71,4.85-4.86c3.9-0.36,2.02,5.19,1.69,7.07c-0.58,3.33-1.2,6.67-1.32,10.06
			c-0.13,3.91,1.21,11.19,4.01,14.17c1.21,1.3,3.89,4.31,5.63,2.6c1.2-1.19,0.43-4.15,0.45-5.57c0.11-7.88-0.95-16.12,0.7-23.88
			c0.95-4.46,3.74-10.1,1.95-14.65C1082.94,294.04,1075.48,298.8,1071.64,301.44z M1025.91,306.95c-2.38,8.2-6.35,15.19-11.91,21.62
			c-1.94,2.25-3.96,4.44-6.17,6.42c-0.92,0.83-1.91,1.64-3.08,2.03s-2.59,0.31-3.51-0.52c-1.08-0.97-1.21-2.59-1.17-4.04
			c0.34-12.69,7.23-22.59,17.1-30.01c0.84-0.63,1.73-0.8,2.66-0.77c0.24,0.01,0.28,0.01,0.48,0.18c0.24,0.19,0.31,0.39,0.3,0.69
			c-0.04,1.42,0.94,1.46,1.18,1.22c0.38-0.37,1.47-1.95,1.9-2.27C1027.41,298.66,1026.49,304.95,1025.91,306.95z"/>
		<path class="st2" d="M1342.35,292.04c-2.86,7.08-5.01,14.47-7.73,21.62c-1.94,5.09-3.6,10.74-6.49,15.39
			c-1.33,2.13-3.35,4.2-5.87,4.18c-7.59-0.07-7.74-11.94-6.68-16.93c1.4-6.59,4.69-12.58,6.3-19.09c0.58-2.32,0.78-5.15-1.02-6.72
			c-1.85-1.62-4.93-0.84-6.59,0.98c-1.6,1.76-2.22,4.17-2.75,6.5c-0.02,0.08-0.03,0.15-0.05,0.23c-1.37,6.04-2.61,12.07-3.58,18.19
			c-0.82,5.18-1.75,10.45-0.23,15.6c1.5,5.11,9.32,10.19,12.84,8.42c3.08-1.55,2.21,2.13,1.7,3.86c-1.04,3.53-2.71,6.93-4.05,10.35
			c-3.11,7.92-6.6,15.77-11.52,22.76c-1.95,2.77-4.2,5.4-6.9,7.47c-4.31,3.32-7.41,6.05-12.26,2.2c-2.21-1.76-4.78-3.08-7.5-3.85
			c-0.85-0.24-1.74-0.43-2.62-0.3c-3.78,0.54-1.76,4.88-0.42,6.81c3.98,5.75,12.52,9.16,19.23,6.65
			c7.09-2.66,12.69-9.12,16.61-15.35c4.06-6.46,7.14-13.6,9.87-20.72c2.6-6.77,6.09-13.24,9.11-19.88
			c6.22-13.69,11.84-27.86,17.3-41.74c0.36-0.92,0.73-1.87,0.73-2.87C1349.77,292.51,1344.37,287.15,1342.35,292.04z"/>
		<path class="st2" d="M977.3,300.92c-5.47-3.8-11.83-6.38-16.71-10.92c-5.63-5.24-6.4-11.75-2.62-18.41
			c5.11-9,13.5-17.17,23.82-17.9c3.04-0.21,6.1,0.23,9.13-0.13c3.02-0.37,6.19-1.78,7.46-4.55c0.24-0.52,0.41-1.09,0.32-1.65
			c-0.1-0.64-0.51-1.18-0.94-1.66c-7.16-8.01-17.08-3.07-24.75,1.29c-10.39,5.9-17.74,13.64-25.12,22.82
			c-1.97,2.45-3.72,5.25-3.99,8.38c-0.33,3.94,1.77,7.72,4.44,10.64c6.52,7.12,13.89,10.97,22.19,15.54c3.2,1.76,6.28,3.99,8.21,7.1
			c1.93,3.11,2.5,7.25,0.69,10.43c-1.1,1.93-2.92,3.33-4.75,4.6c-4.21,2.93-8.66,5.49-13.24,7.79c-7.91,3.97-16.45,7.2-25.29,7.17
			c-3.47-0.01-7.07-0.52-10.33,0.68c-0.37,0.13-0.74,0.3-0.97,0.62c-0.43,0.61-0.09,1.52,0.52,1.95c0.61,0.43,1.39,0.51,2.14,0.58
			c9.2,0.84,18.57,1.51,27.6-0.45c10.7-2.32,20.32-8.22,28.73-15.23c2.77-2.31,5.67-5.09,6.79-8.28c0.77-2.2,0.7-4.59-0.86-7.16
			C986.59,308.95,982.31,304.4,977.3,300.92z"/>
		<path class="st2" d="M882.74,330.07c-1.19-0.64-2.66-0.55-3.93-0.1c-1.27,0.45-2.39,1.24-3.53,1.97
			c-6.05,3.95-13.12,6.91-20.32,6.33c-2.34-0.19-4.8-0.84-6.35-2.6c-1.54-1.75-1.88-4.27-1.77-6.6c0.13-2.86,0.84-5.69,2.06-8.28
			c4.34,1.15,9.02-0.3,12.78-2.76s6.79-5.85,9.93-9.06c3.4-3.46,7.16-7.02,8.28-11.75c0.41-1.71,0.43-3.59-0.37-5.16
			c-1.24-2.45-4.23-3.62-6.97-3.43s-5.27,1.49-7.61,2.91c-4.51,2.73-8.68,6.03-12.39,9.78c-7.03,7.1-12.62,15.34-13.38,25.55
			c-0.27,3.55,0.22,7.22,1.89,10.37c3.04,5.73,9.87,8.96,16.33,8.4c4.3-0.37,8.35-2.2,12.1-4.33c4.44-2.52,8.61-5.49,12.76-8.45
			c0.33-0.23,0.68-0.53,0.93-0.87c0.3-0.4,0.45-0.85,0.25-1.29C883.3,330.43,883.03,330.22,882.74,330.07z M856.24,307.45
			c2.49-2.84,5.26-5.41,8.03-7.97c0.97-0.9,5.01-4.28,5.63-1.38c0.31,1.41-1,3.55-1.86,4.59c-1.39,1.67-2.92,3.28-4.58,4.76
			c-2.17,1.94-4.56,3.66-7.09,5c-0.39,0.21-0.81,0.41-1.25,0.45C852.21,313.16,855.65,308.13,856.24,307.45z"/>
		<path class="st2" d="M1124.28,329.22c-1.11,0.09-2.12,0.67-3.11,1.19c-4.46,2.32-17.81,6.5-21.32,0.81
			c-2.31-3.75-0.41-10.29,0.8-14.15c1.83-5.84,5.26-11.15,9.59-15.45c1.04-1.03,2.2-2.04,3.63-2.36c1.52-0.33,2.64,0.58,3.42,0.46
			c0.49-0.08,0.84-0.55,1.07-1.99c0.33-2.02-0.29-4.36-1.47-6.02c-0.72-1.01-1.75-1.9-2.98-2.03c-1.32-0.13-2.55,0.62-3.63,1.39
			c-5.86,4.16-10.78,9.63-14.34,15.87c-2.63,4.6-5.29,9.76-6.47,14.96c-1.67,7.3,1.55,14.22,7.88,18.12
			c3.19,1.96,7.15,2.06,10.89,2.07c3.73,0,7.64-0.07,10.9-1.87c2.82-1.55,4.84-4.2,6.77-6.78c0.58-0.77,1.19-1.67,0.99-2.62
			C1126.66,329.75,1125.4,329.14,1124.28,329.22z"/>
		<path class="st2" d="M681.03,278.17c0.02,0.01,0.05,0.03,0.07,0.04c1.19,0.65,2.64,0.57,3.75-0.19c1.53-1.04,2.99-1.97,3.27-3.17
			c0.67-2.84-1.49-5.33-4.52-4.31c-1.03,0.34-1.98,0.89-2.91,1.54C678.51,273.6,678.68,276.9,681.03,278.17z"/>
		<path class="st2" d="M811.38,277.27c1.54,0.33,2.89,0.58,4.24,0.57c1.39-0.01,3.66-1.04,3.95-2.06c0.37-1.33-0.38-3.84-1.47-4.49
			c-1.29-0.77-3.68-0.63-5.16,0.06c-0.94,0.44-1.74,1.19-2.7,2.19C809.03,274.8,809.67,276.9,811.38,277.27z"/>
	</g>
</g>
</svg>
