<svg width="113" height="22" viewBox="0 0 113 22" fill="none" xmlns="http://www.w3.org/2000/svg">
<mask id="mask0_366_506" style="mask-type:alpha" maskUnits="userSpaceOnUse" x="91" y="1" width="22" height="21">
<path fill-rule="evenodd" clip-rule="evenodd" d="M91.207 1.82129H113V21.1927H91.207V1.82129Z" fill="white"/>
</mask>
<g mask="url(#mask0_366_506)">
<path fill-rule="evenodd" clip-rule="evenodd" d="M96.4397 8.35828C96.5657 8.37829 96.6913 8.31504 96.7489 8.20094C100.12 1.51466 110.597 3.91437 110.57 11.507C110.595 19.0997 100.119 21.4994 96.7481 14.8119C96.6905 14.6982 96.5653 14.635 96.4389 14.655L94.9976 14.8796C94.5905 14.9429 94.2008 14.6978 94.08 14.3063C93.7998 13.4035 93.6585 12.4647 93.6585 11.5066C93.6585 10.549 93.8002 9.61018 94.08 8.70698C94.2008 8.31624 94.5905 8.07042 94.9972 8.13368L96.4397 8.35828ZM92.1101 15.4697L93.611 15.2355C93.9705 15.179 94.3208 15.368 94.4786 15.6943C95.2122 17.2128 96.3278 18.5128 97.7353 19.48C99.3654 20.6002 101.276 21.1927 103.259 21.1927C108.63 21.1927 113 16.8473 113 11.5066C113 6.16591 108.63 1.82129 103.259 1.82129C101.276 1.82129 99.365 2.41301 97.7353 3.53319C96.3274 4.50084 95.2118 5.80039 94.479 7.31852C94.3212 7.64521 93.9709 7.83337 93.6114 7.77773L92.1113 7.54352C91.9857 7.5239 91.8621 7.59637 91.8215 7.71647C91.0058 10.131 90.9989 12.8762 91.8207 15.2967C91.8613 15.4168 91.9845 15.4893 92.1101 15.4697Z" fill="black"/>
</g>
<mask id="mask1_366_506" style="mask-type:alpha" maskUnits="userSpaceOnUse" x="61" y="0" width="20" height="22">
<path fill-rule="evenodd" clip-rule="evenodd" d="M61.3428 0.207031H80.7142V21.9999H61.3428V0.207031Z" fill="white"/>
</mask>
<g mask="url(#mask1_366_506)">
<path fill-rule="evenodd" clip-rule="evenodd" d="M67.88 16.7671C67.8996 16.6411 67.8367 16.5159 67.7226 16.4583C61.0358 13.0869 63.436 2.61032 71.0288 2.63729C78.6216 2.61233 81.0214 13.0877 74.3334 16.4591C74.2201 16.5163 74.1568 16.6415 74.1768 16.7679L74.4014 18.2097C74.4647 18.6167 74.2193 19.006 73.8277 19.1272C72.9249 19.407 71.9865 19.5483 71.0284 19.5483C70.0707 19.5483 69.1319 19.407 68.2287 19.1272C67.8375 19.006 67.5917 18.6167 67.6554 18.2097L67.88 16.7671ZM74.9915 21.0966L74.7572 19.5961C74.7008 19.2366 74.8898 18.8859 75.2161 18.7281C76.7342 17.9949 78.0342 16.8793 79.0019 15.4714C80.1221 13.8417 80.7142 11.9313 80.7142 9.94726C80.7142 4.57651 76.3691 0.207031 71.0283 0.207031C65.6875 0.207031 61.3428 4.57651 61.3428 9.94726C61.3428 11.9313 61.9345 13.8417 63.0547 15.4718C64.0224 16.8793 65.322 17.9949 66.8401 18.7281C67.1668 18.8859 67.355 19.2362 67.2993 19.5953L67.0651 21.0958C67.0455 21.2214 67.118 21.3446 67.2381 21.3857C69.6527 22.201 72.3979 22.2082 74.8185 21.3865C74.9386 21.3454 75.0111 21.2222 74.9915 21.0966Z" fill="black"/>
</g>
<path fill-rule="evenodd" clip-rule="evenodd" d="M45.6169 14.6553C45.4909 14.6357 45.3653 14.6985 45.3077 14.8126C41.9363 21.4993 31.4598 19.0992 31.4868 11.5069C31.4618 3.91386 41.9371 1.51415 45.3085 8.20203C45.3661 8.31573 45.4913 8.37859 45.6177 8.35897L47.059 8.13397C47.466 8.07072 47.8558 8.31613 47.9765 8.70768C48.2567 9.61047 48.3981 10.5489 48.3981 11.5069C48.3981 12.4646 48.2567 13.4034 47.9765 14.3066C47.8558 14.6977 47.466 14.9436 47.0594 14.8803L45.6169 14.6553ZM49.9464 7.54432L48.4455 7.77813C48.086 7.83458 47.7357 7.64561 47.5779 7.31932C46.8448 5.80119 45.7288 4.50125 44.3213 3.53359C42.6911 2.41341 40.7808 1.82129 38.7972 1.82129C33.4265 1.82129 29.0566 6.16631 29.0566 11.507C29.0566 16.8477 33.4265 21.1927 38.7972 21.1927C40.7812 21.1927 42.6915 20.6006 44.3213 19.4804C45.7292 18.5132 46.8448 17.2132 47.5775 15.6951C47.7353 15.3688 48.0856 15.1802 48.4451 15.2363L49.9452 15.4701C50.0708 15.4897 50.1944 15.4172 50.2351 15.2975C51.0507 12.8826 51.0576 10.1374 50.2359 7.71687C50.1952 7.59677 50.072 7.5247 49.9464 7.54432Z" fill="black"/>
<mask id="mask2_366_506" style="mask-type:alpha" maskUnits="userSpaceOnUse" x="0" y="0" width="20" height="22">
<path fill-rule="evenodd" clip-rule="evenodd" d="M0 0.207031H19.3714V21.9999H0V0.207031Z" fill="white"/>
</mask>
<g mask="url(#mask2_366_506)">
<path fill-rule="evenodd" clip-rule="evenodd" d="M12.8341 5.43972C12.8145 5.56574 12.8777 5.69135 12.9914 5.74852C19.6781 9.11994 17.278 19.5969 9.68569 19.57C2.09257 19.5949 -0.307153 9.11954 6.38077 5.74812C6.49447 5.69055 6.55732 5.56534 6.53771 5.43892L6.31311 3.99759C6.24945 3.59056 6.49487 3.20083 6.88642 3.08005C7.78921 2.79984 8.72764 2.65852 9.68569 2.65852C10.6437 2.65852 11.5822 2.79984 12.4854 3.08005C12.8765 3.20083 13.1223 3.59056 13.0591 3.99719L12.8341 5.43972ZM5.72307 1.11013L5.95727 2.61104C6.01332 2.97057 5.82436 3.32084 5.49807 3.47866C3.97992 4.2118 2.67997 5.32783 1.71232 6.73534C0.592124 8.36549 0 10.2759 0 12.2595C0 17.6302 4.34505 22.0001 9.68577 22.0001C15.0265 22.0001 19.3715 17.6302 19.3715 12.2595C19.3715 10.2754 18.7794 8.36508 17.6592 6.73534C16.692 5.32742 15.392 4.2118 13.8743 3.47866C13.5476 3.32124 13.359 2.97097 13.4151 2.61145L13.6489 1.11134C13.6685 0.985724 13.596 0.862124 13.4763 0.821461C11.0618 0.00578208 8.31616 -0.00106221 5.89562 0.820656C5.77551 0.861319 5.70345 0.984517 5.72307 1.11013Z" fill="black"/>
</g>
</svg>
