<svg width="492" height="471" viewBox="0 0 492 471" xmlns="http://www.w3.org/2000/svg" xmlns:xlink="http://www.w3.org/1999/xlink"><title>Stroke 9</title><g id="Mammoth-Page" stroke="none" stroke-width="1" fill="none" fill-rule="evenodd"><g id="Colossal_Mammoth_8-03-21" transform="translate(-52.000000, -777.000000)"><g id="Group" transform="translate(53.000000, 778.000000)"><path d="M488 257.257467C485.291066 376.134051 390.441027 470.754923 275.28971 468.975303 246.486153 468.52989 219.123562 462.09275 194.298875 450.831314 190.496932 449.106608 175.37762 443.212507 167.071926 455.871198 158.764267 468.531924 155.184464 464.445916 159.114187 446.792085 163.043911 429.138255 159.30684 422.729589 150.810459 432.551057 142.312113 442.370492 134.183345 446.674122 132.742381 442.116261 131.303383 437.556366 125.824574 435.158455 120.565939 436.783502 115.305339 438.408549 108.310864 438.314992 105.022005 436.576049 101.729216 434.837106 101.613231 425.760027 104.76448 416.40431 107.913763 407.048594 103.525998 402.84869 95.0119244 407.066898 86.4978511 411.28714 74.9721039 414.826042 69.4009001 414.927734 63.8296963 415.033495 66.7352147 404.711698 75.8606657 391.989957 84.9821849 379.27025 87.0699119 369.668438 80.4980932 370.652822 73.9262745 371.637206 73.0691662 366.109198 78.589258 358.364291 84.1132816 350.619385 79.6508142 346.669645 68.6735376 349.586188 57.6982268 352.502731 50.7371708 350.592945 53.2062717 345.34154 55.6773385 340.088102 60.9536655 331.415759 64.9325352 326.070798 68.9114048 320.72787 60.3678438 318.051321 45.9424757 320.123816 31.5171075 322.198344 16.0636026 321.720389 11.5972035 319.066213 7.13473611 316.410003 9.63529052 309.383046 17.1566122 303.448268 24.6779339 297.513489 27.6797787 290.285181 23.8247573 287.384909 19.9677701 284.488704 22.9185029 278.33427 30.3788834 273.713359 37.8412298 269.090415 31.953525 263.359021 17.2961872 260.973314 2.63884936 258.58964-4.01553484 253.285355 2.50517192 249.187144 9.02784452 245.088934 24.6936607 239.266017 37.3222468 236.247781 49.9488671 233.23158 53.8373079 227.583574 45.9680317 223.698918 38.0948238 219.816295 30.2786254 213.541864 28.599794 209.756866 26.917031 205.971868 23.8739034 199.492018 21.8353225 195.35313 19.7967416 191.216276 28.8455246 187.811609 41.9419818 187.789236 55.0404048 187.76483 51.696503 180.103312 34.5130548 170.763866 17.3315724 161.42442 10.4688087 153.211727 19.2659635 152.514116 28.0611526 151.814472 34.3086069 147.468131 33.1467927 142.849254 31.9849785 138.234445 36.5870209 134.058948 43.3731167 133.572858 50.1592125 133.088801 52.7207081 127.402152 49.064237 120.936539 45.4077659 114.470925 50.481611 111.233033 60.340322 113.742806 70.199033 116.254612 80.9246815 117.060018 84.1761886 115.536663 87.4296615 114.013308 82.8964237 102.652214 74.1032005 90.2904646 65.3080115 77.9287154 69.9827901 75.3945365 84.4907237 84.6587299 98.9966915 93.9208895 107.434097 93.8110615 103.238984 84.4106 99.0458377 75.0101386 97.7031657 65.3025655 100.256798 62.8395714 102.812396 60.3745434 111.753058 63.1995631 120.129522 69.1140032 128.505986 75.0284432 133.910093 72.8278159 132.138867 64.2225904 130.367641 55.6173648 126.485098 38.1506484 123.504877 25.4024674 120.526622 12.6563203 121.342448 1.25861665 125.319352.0749151006 129.29429-1.10878645 141.751847 11.8773552 153.004342 28.9291659 157.38621 35.5737586 164.836761 43.660352 170.985923 49.9022422 176.775336 55.7739714 185.450608 57.4783389 192.848082 54.053333 218.950567 41.9620861 247.854381 35.2361393 278.230613 35.2178346" id="Stroke-9" stroke="#7dea13" stroke-width=".807486027"/><path d="M281.999675 35.0442616C281.973512 36.700046 280.613042 38.0218569 278.954718 37.9997261 277.298407 37.9735716 275.976175 36.6115229 276.000326 34.9557384 276.024476 33.299954 277.388971 31.9781431 279.04327 32.0002739 280.699581 32.0264284 282.023825 33.3884771 281.999675 35.0442616" id="Fill-13" fill="#7dea13"/><path d="M490.999619 254.045282C490.975461 255.701593 489.612547 257.023825 487.953697 256.999674 486.296861 256.975524 484.974211 255.611029 485.000382 253.954718 485.022527 252.298407 486.387454 250.976175 488.04429 251.000326 489.701126 251.026489 491.02579 252.388971 490.999619 254.045282" id="Fill-15" fill="#7dea13"/></g></g></g></svg>