<svg width="111" height="66" viewBox="0 0 111 66" xmlns="http://www.w3.org/2000/svg" xmlns:xlink="http://www.w3.org/1999/xlink"><title>noun_buffalo_27077 copy</title><g id="Company" stroke="none" stroke-width="1" fill="none" fill-rule="evenodd"><g id="Colossal_BetterWorld" transform="translate(-878.000000, -5929.000000)" fill="#fff" fill-rule="nonzero"><g id="Group-24" transform="translate(823.000000, 5929.000000)"><g id="noun_buffalo_27077-copy" transform="translate(110.500000, 33.000000) scale(-1, 1) translate(-110.500000, -33.000000) translate(55.000000, 0.000000)"><path d="M108.463533 31.8076305C108.859552 32.1626783 109.282297 32.3603338 110.456992 32.5360276 110.098631 32.2981089 109.391627 31.7014822 109.23492 31.1719607 109.652806 31.4879655 110.207962 31.661219 111 31.9003578 110.307574 31.1719607 109.892118 31.0377502 109.550764 30.7180852 109.429286 30.6058364 109.214269 30.3557168 109.102509 30.2349273 108.895996 30.01409 108.4526 29.6016977 108.281316 29.3540183 108.110031 29.1038987 108.110031 29.1038987 107.740737 28.2620328 108.580152 28.9831093 108.397935 28.647583 109.640658 29.809114 109.194833 28.5023916 108.373639 27.7166501 107.557305 26.988253 106.743401 26.2610761 106.563613 25.2605977 106.563613 25.2605977 106.563613 25.2605977 106.200393 21.3501915 105.386488 20.0764117 104.570154 18.803852 103.026165 16.722369 98.5934216 15.4388285 98.2472085 15.3375605 97.3166847 15.1216036 96.1492783 14.8934458 94.0659255 14.4859338 92.3385041 13.8270822 89.1764241 12.4361733 87.0784939 11.5137811 84.3221514 11.4600968 82.8389014 10.8903122 82.1549786 10.6292118 80.8454425 9.70803962 80.8454425 9.70803962L79.7582118 9.07114974 78.9394481 8.76734595 77.9481852 8.52576702C77.9481852 8.52576702 76.1381586 7.4337815 75.7749385 7.4337815 75.4117184 7.4337815 73.4206891 6.70660454 73.1485777 6.61631747 72.8776811 6.52481031 71.6993416 5.97942759 71.1551189 5.61583911 70.6108961 5.25225064 68.4412937 4.52385359 68.4412937 4.52385359c0 0-1.9023501000000067-.72717696-2.265570199999999-.72717696C65.814933 3.79667663 63.8214741 3.15978675 63.2784661 3.06827958 62.7378877 2.97799251 61.107649 2.4313897 61.107649 2.4313897L58.9574831 1.79571992 57.0684956 1.52973908C57.0684956 1.52973908 55.3058456 1.53339937 54.7664819 1.34184437 54.3388783 1.18933242 52.980751.707394675 52.3466343.707394675 51.7125175.707394675 50.4199885.985576463 50.0579832.712275058 49.6959778.438973652 47.5227311.0753851752 47.2506197.0753851752c-.2721114.0-1.721347399999999.0-2.0821380000000005.0C44.8064764.0753851752 43.8103544-.0149018963 43.4471343.0753851752 43.085129.166892342 40.8596466.0753851752 40.8596466.0753851752 40.8596466.0753851752 39.7906376-.113729637 39.16138.10710766 38.5284781.327944956 36.2045983.886748723 35.9324869.886748723 35.6603755.886748723 35.1173675 1.15883003 34.6654682 1.34184437 34.2123542 1.52363861 32.4922215 1.97873425 32.4922215 1.97873425L30.4999775 2.88892554C30.4999775 2.88892554 29.008224 3.33548051 28.5551099 3.42698768 28.1032107 3.51727475 27.0682156 4.47748996 26.8872129 4.75079136 26.7062103 5.02409277 26.4863346 5.29861427 25.9433266 5.48040851 25.4003186 5.66220275 24.8099341 6.13559982 24.8099341 6.13559982 24.8099341 6.13559982 24.6131392 6.70782464 23.9790225 6.70782464 23.3461206 6.70782464 23.1639032 6.79811171 22.8917918 6.88961888 22.6208952 6.98112605 22.4398925 7.25320736 21.8956698 7.34471452 21.3526618 7.43500159 20.8096538 8.07189148 20.8096538 8.07189148 20.8096538 8.07189148 20.2775788 8.87471436 20.2775788 9.14801576 20.2775788 9.42009707 19.4600299 9.58969035 19.4600299 9.58969035L18.8623567 10.032585C18.8623567 10.032585 18.5088549 10.6231113 18.3655105 10.8012452 18.2051591 11.0013409 17.8953895 11.4966997 17.6414998 11.5284222 17.3791067 11.5601447 16.9903762 11.053805 16.7352717 10.9830395 16.5384769 10.9281352 16.1242359 10.9830395 15.9201524 10.9830395 15.7172836 10.9830395 15.3018278 11.0355036 15.1062478 10.9830395 14.802552 10.900073 14.3931702 10.2778242 14.119844 10.4352166 13.9922918 10.5096424 14.1404953 10.8537094 14.019017 10.9378959 13.2974359 11.4332547 13.2136159 10.2753841 12.8746915 10.5108625 12.6329497 10.6792357 12.765361 11.4552165 12.479887 11.5272021 12.15554 11.6101686 11.9623895 10.4986615 11.6283242 10.5084223 11.3051919 10.5181831 11.1970762 11.2099773 11.0901753 11.5174413 10.8411448 12.2250968 10.9601935 12.9315321 10.5787517 13.1645703 10.4050377 13.2707187 10.196095 13.300001 10.0515359 13.4451923 9.85838538 13.6391875 9.76241753 13.9710535 9.5789853 14.1723693 8.90478076 14.9141874 9.15259648 14.5335176 9.01289644 14.7092113 8.8161016 14.9581108 8.29981884 14.1211253 8.00584137 14.2358142 7.43975251 14.4566515 7.15184895 14.5200965 6.9842089 14.7628955 6.63678097 15.2643548 6.21282172 14.7421539 6.32458175 14.8983261 6.40232786 15.0081347 5.93099207 15.088661 5.83502422 15.1838285 5.62729633 15.3924648 5.31023798 15.2631347 5.01747528 15.278996 4.19871157 15.3241395 4.66883257 16.109881 4.51334035 16.3844025 4.10274371 17.1152398 3.4261096 16.4990915 3.28883913 16.9005029 3.07746689 17.5215316 3.00822426 17.6508617 2.97178077 17.9022014 2.85030248 18.7318664 2.06069355 18.5622731 1.90155698 18.7879908 1.79101174 18.944163 2.14208401 19.5359094 2.06798225 19.7128232 1.82381088 20.3082298 1.8505361 20.8157896 2.06798225 21.0768901 2.21375621 21.2513637 2.66929982 21.4319379 2.79320768 21.6222728 2.90618249 21.7991866 2.75919376 22.2091387 2.65715199 22.390933 2.23440752 23.1425118 2.54417717 23.3377271 2.4992302 23.6561721 2.45549802 23.9624161 1.99388049 24.2515787 1.86632828 24.5334208 1.76428651 24.7615786 1.87847611 25.2849996 1.86632828 25.5338991 1.83109957 26.2635163 1.12045154 26.5868416 1.16175416 26.988253 1.25650723 27.8935639 1.28323246 27.9021046 1.16175416 28.1705256 1.06821587 28.3779419 1.22127853 28.8598796 1.16175416 29.0807169 1.07914892 29.3857408.487549617 29.8579178.528852238 30.1714824.611457479 30.8095923.213008668 31.2049033.0757381932 31.5367693.00528078144 31.7039224-.0518140178 32.1346161.0757381932 32.2651663.251881723 32.4420802.805822753 32.4738027 1.01962455 32.6006926 1.33789769 32.7922476 1.97687353 33.4474389 2.24898491 33.4474389 2.5210963 33.4474389 2.47250498 33.8793528 2.5210963 34.0831087 2.60005719 34.4137546 2.61220502 35.4459555 2.61220502 35.4459555V36.7209553C2.61220502 36.7209553 2.30365015 37.5506203 2.43120236 37.993515 2.90982684 39.6491847 4.16834199 40.533754 5.59814154 40.3617205c0 0 1.28281081 1.1249281000000053 1.65574917 1.2774400000000057C7.70578998 41.8197347 8.49661368 41.7196868 8.85983379 42.3565767 9.22183911 42.9971269 10.2592638 45.9290165 10.9213205 46.3218873 11.6283242 46.7416002 12.2381452 49.3221023 12.8443219 49.8150209 13.593843 50.4250687 15.1426913 50.5129155 15.2884652 50.4506907 15.407514 50.4031069 15.2605252 50.1151644 15.3747148 50.0578199 15.5168444 49.9858343 16.218989 50.1456668 16.2845873 49.995595 16.3854142 49.7710974 15.9225819 49.3904276 16.0562081 49.1854516 16.1959081 48.9707147 16.6696735 49.4258104 16.8518909 49.2501166 16.9672953 49.1378678 16.6210821 48.7620784 16.7134056 48.6303081 16.7790039 48.5351406 17.0231753 48.7205952 17.0997066 48.6327483 17.3086493 48.3948296 17.0316788 47.4297341 17.3232267 47.3004039 17.455638 47.2430594 17.5965529 47.5456431 17.7265346 47.4809781 17.9913573 47.3540881 17.5552502 46.6415523 17.7484007 46.4182748 17.8528721 46.2962653 18.0678886 46.6927963 18.17236 46.573227 18.2768313 46.4487772 18.0520965 46.0876289 18.2768313 45.8131074 18.4651227 45.5825094 18.7445227 45.8509304 18.8611419 45.7679639 19.0263524 45.6459543 18.6436958 45.2799257 18.8198393 45.1774377 19.3847134 44.8467918 19.6434621 45.0847104 20.3249554 44.9529401 20.7792842 44.8650932 21.0404625 44.4783229 21.2651974 44.4502607 21.4401261 44.4258588 21.7401775 44.7955477 22.0280811 44.6125334 22.1811437 44.5124856 22.3171994 45.0981314 22.4994169 45.0847104 22.8201196 45.0590884 22.9974779 44.5649497 23.1541849 44.8467918 23.2841667 45.0847104 23.729992 45.3116482 23.9134243 45.1371745 24.1199374 44.9419592 24.30094 45.0176051 24.5681923 45.2677247 24.6617306 45.3555716 25.0261654 45.3506912 25.1452142 45.3982749 25.2703368 45.4507391 25.4829238 45.9326768 25.5898247 45.84605 25.8254926 45.6630357 25.9287492 45.0334664 25.9566892 45.1615764 26.0356501 45.5312654 26.2190823 46.0571266 26.6977068 46.1766959 26.9005756 46.2267198 27.3136018 46.4219351 27.5128262 46.3572701 27.7412054 46.2828442 27.9209932 45.5446864 28.1457281 45.6300931 28.3996177 45.7252606 27.8991272 46.8355475 28.1457281 46.7220786 28.4980152 46.5549255 28.6024865 46.3719112 28.8709535 46.7220786 28.9790692 46.8623896 29.1418501 47.1771743 29.4139615 47.1771743 29.6860729 47.1771743 30.1914226 47.2601408 30.1391869 47.4492556 29.8610016 48.4497339 30.0444339 50.7117911 29.965473 50.9497097 29.6787842 51.8123173 29.6678511 52.1844465 29.5949642 52.6346617 29.5378694 52.9897095 29.2839797 53.6668626 29.1418501 53.9975085 28.9900022 54.3501161 28.5429621 54.9955466 28.4178395 55.3603552 28.2902873 55.7324843 28.1165733 58.2251396 28.0181759 58.7204984 27.9574367 59.0279625 27.4751679 59.5501634 27.2747287 59.7929624 26.9661738 60.1724121 26.2555258 60.3786082 25.8813727 60.6909527 25.3529421 61.1314072 24.6471532 61.9183688 24.9059019 62.1831296 25.2241751 62.5101152 27.4545166 63.0079142 27.8007297 63.005474 28.2732803 63.005474 30.6336036 62.8175793 31.1608194 62.3429621 31.515536 62.0257372 32.1739484 61.7524358 32.4266232 61.3424837 32.6537877 60.975235 32.685372 60.0601633 32.741252 59.6319098 32.8214277 59.0267424 33.4543296 57.8713119 33.3705096 57.2661445 33.3340661 57.0038239 33.1433452 56.5682498 33.2393131 56.3181302 33.3243479 56.098513 33.3984496 56.2437044 33.5794523 56.0887522 33.928095 55.7959293 33.9414576 54.5014079 34.3945716 54.4538242 34.6824752 54.4233218 34.9472979 55.128537 35.1185823 55.3615753 35.3178067 55.6336566 35.8280155 56.0936326 36.1147043 56.2717666 36.3831714 56.4389197 37.0318655 56.9062163 37.291829 56.7268622 37.4606838 56.6097331 37.1399811 56.0448288 37.291829 55.9093982 37.4448917 55.7690872 37.9271605 56.0972929 38.1069484 55.9972451 38.3292537 55.8752355 38.3304684 55.1944222 38.5600624 55.0870538 38.6450972 55.051671 38.8333886 55.1517189 38.9220677 55.1822212 39.1188626 55.2395657 39.5294592 55.5702116 39.6970993 55.4518624 39.7894228 55.3871973 39.5877688 55.0272691 39.6970993 54.9967667 39.9254785 54.9321017 40.0129428 55.5946135 40.2328186 55.5043265 40.3640151 55.446982 40.4672717 54.6441591 40.7041544 54.4245419 40.8450692 54.2915515 41.310331 54.489207 41.456105 54.362317 41.6699068 54.1744223 41.724572 53.289853 41.999113 53.3618387 42.1521756 53.3996616 42.0987252 53.8022932 42.1691826 53.6619822 42.9442141 52.0868388 43.7192457 50.9045662 44.2634684 50.7239921 44.8064764 50.5409777 44.8441347 50.2139921 45.3506992 50.5409777 45.5268427 50.6556667 45.575434 49.9138486 45.7807323 49.956552 45.9799568 49.9943749 46.1864699 50.3067194 46.2326316 50.5043749 46.2800081 50.7020303 46.3492508 50.9899729 46.5411865 51.0570782 46.7853579 51.1376045 46.8400231 50.5665997 47.0975571 50.5800208 47.361165 50.5995423 47.4547033 51.3779633 47.5251607 51.6329633 47.5919737 51.8733221 47.6721494 52.3454991 47.7535399 52.5785373 47.9199651 53.0714559 48.4313888 53.8157142 48.5212827 54.451384 48.6111766 55.0858337 48.5480079 56.4889436 48.5212827 56.8159292 48.486054 57.2380823 48.6925671 57.8737521 48.5407192 58.5435845 48.3925157 59.1938954 47.9734156 60.043082 47.7972721 60.5433211 47.6903712 60.8532254 46.3383177 61.6877708 46.163389 61.9610722 46.0504142 62.137986 45.2134287 62.9859524 45.2389391 63.1958089 45.26202 63.388584 46.71733 63.6008806 47.2530493 63.7009284 47.9454756 63.8278184 49.2501525 63.7631533 49.7712944 63.7631533 50.1102188 63.7631533 51.6007575 63.0384166 51.7671828 62.7407132 52.1741351 62.0110961 52.2433777 61.1484885 52.3514934 60.8556656 52.5883761 60.2126752 53.3306085 58.8827711 53.4217172 58.5179625 53.5128259 58.1531539 53.635519 57.4576995 54.1141435 57.1258335 54.8211471 56.6353551 54.8928193 56.8183694 55.0422376 56.9977234 55.1953003 57.183178 55.314349 57.4296373 55.5402987 57.3430105 55.7941883 57.247843 55.4139612 56.7073407 55.6775691 56.6329149 55.9314588 56.5633694 56.0007014 57.1355942 56.254591 57.0648287 56.6348181 56.9574603 56.0626553 56.4718623 56.2193623 56.3620537 56.4234459 56.226623 56.8814191 56.6316948 57.0527034 56.4547809 57.2069809 56.2949484 56.6141668 56.072891 56.7660147 55.9093982 56.9081443 55.7471255 57.615148 56.1314556 57.743915 55.9569819 57.9103402 55.7349245 57.0697104 55.29447 57.0964356 55.0199485 57.1158722 54.795451 57.5568384 54.6868624 57.7390558 54.5550921 57.9030515 54.4355228 58.197029 54.4428433 58.3039299 54.27203 58.398683 54.1170778 58.2784195 53.89014 58.4436299 53.8193745 58.6550022 53.7290874 59.0413032 54.0572931 58.963557 53.8449965 58.8615153 53.5753554 58.2213247 53.2276282 58.124142 52.9055229 58.0597585 52.6932263 58.482503 53.2874128 58.6100552 53.1080588 58.7898431 52.8530588 58.0427516 52.4406665 58.214036 52.178346 58.3209369 52.0160733 58.8117092 52.4784895 58.963557 52.3589201 59.1603519 52.2015278 58.8311457 51.7818149 58.963557 51.6341834 59.0801762 51.5011929 59.3474285 51.948968 59.4664772 51.8171977 59.6377616 51.6268628 59.4215302 51.0119346 59.5162833 50.774016 59.5758077 50.633705 59.5162833 50.774016 59.5733781 50.6312648 59.6559833 50.4092074 58.9757049 50.3238007 59.0583101 50.1017433 59.1506336 49.8467434 59.7057894 49.8943271 60.0240626 49.7198534 60.2876705 49.5771022 59.1178345 49.4319109 58.963557 49.1744707 58.8809518 49.0390401 59.193151 48.6815521 59.098398 48.552222 59.0109336 48.4326526 58.3889647 48.5070784 58.3938238 48.3545665 58.4035421 48.0751646 59.4713363 48.3643273 59.4810546 48.0824852 59.4932024 47.7969828 58.398683 48.0056192 58.3938238 47.7201168 58.3913943 47.4529159 58.085269 47.4773178 58.1047055 47.212557 58.1290012 46.8770308 58.4703552 46.9331552 58.214036 46.7196384 58.1022759 46.6269112 57.5046027 46.3841122 57.424427 46.2645428 57.3199557 46.1120309 57.172967 45.935117 57.26772 45.6849974 57.3369627 45.4946625 57.0332669 45.4897821 57.083073 45.2896864 57.1656783 44.965141 57.2993044 45.2799257 57.12802 44.9919831 57.0004678 44.7723659 57.1656783 44.2172224 57.23978 43.9744234 57.2871566 43.8219115 57.3321035 43.4363613 57.4912401 43.444902 58.0816246 43.4802847 57.469374 42.7494475 57.5556236 42.6323183 57.7329819 42.3919595 58.5468865 42.3419356 58.7874135 42.1577011 59.2684676 41.797773 59.7555955 41.5354524 61.1149377 41.4427251 62.4718502 41.3524381 62.9249643 41.7148065 63.7388689 41.8050935 64.555203 41.900261 66.1830122 41.900261 67.0892403 42.079615 67.9954684 42.2626294 71.0470032 43.3192321 71.98846 43.2374857 72.8072237 43.1703805 72.6553758 43.7230837 73.2457603 43.9744234 73.8252118 44.2221028 74.6925668 44.1513373 75.419007 43.9744234 77.507219 43.4693039 79.0560672 42.5615528 79.6901839 42.1064571 80.3243006 41.6513615 83.0162597 39.2868163 83.5689859 39.4442086 84.3282253 39.6613856 84.3537357 44.096433 84.537168 45.0273659 84.7060228 45.8826529 85.3729386 51.1925088 85.191936 51.9209058 85.0121481 52.6480828 83.6588799 55.5409293 83.3891981 56.1765991 83.1158719 56.8122689 81.1236278 59.7221968 80.5794051 60.1772925 80.0351823 60.6323881 78.5883758 61.8171009 78.1352618 62.4503305 77.6845773 63.0860003 77.3189276 63.4508089 78.2251557 63.6326031 79.1313838 63.8143973 79.6743918 64.0876987 81.0349487 64.0876987 82.3918612 64.0876987 83.2057658 64.1779858 84.1119939 63.6326031 85.0157924 63.0872204 85.6523387 62.6321247 85.8321266 61.8171009 86.0119145 60.9971967 86.2852406 59.9967183 86.6460312 59.2695414 87.0092513 58.5399242 88.8289962 55.3762164 89.6186051 54.3391352 90.4373688 53.2666712 91.0824186 51.9013843 91.6254265 51.5365757 92.1708641 51.1742073 92.3518668 50.7191117 92.4417607 50.173729 92.5316546 49.6307864 92.0554597 48.6437291 92.0554597 47.735978 92.0554597 46.8282269 92.1720789 44.505165 92.1720789 43.9732033 92.1720789 43.4436819 93.3492036 42.0783949 93.3492036 42.0783949 93.3492036 42.0783949 97.0603655 46.1718155 97.6932674 46.8989925 98.3261694 47.6286096 100.409522 48.9011693 100.862636 49.4441118 101.31575 49.9894945 103.309209 52.0843986 103.488997 53.1763841 103.668785 54.2683697 105.029342 58.8144457 105.119236 59.5416227 105.20913 60.2712398 104.571369 61.7597564 104.497267 62.1294454 104.392795 62.6540865 103.742887 64.2841341 103.578891 64.5440145 103.44162 64.7636317 103.175583 65.3212154 103.307994 65.5444928 103.592253 66.0239904 105.222492 65.9997967 105.4861 65.9997967 105.752138 65.9997967 107.228099 65.814134 107.878008 65.4676268 108.363921 65.2126268 108.886278 64.4525073 109.002897 64.1023399 109.169322 63.6069811 108.793954 62.2343736 108.84619 61.7072923 108.893566 61.2192541 108.713778 59.162173 108.713778 58.7070773 108.713778 58.2519817 108.920292 57.9994219 109.09522 57.8920535 109.20698 57.822508 108.808532 57.8639913 108.793954 57.732221 108.763585 57.4699004 108.836472 57.3320296 108.741718 57.0843502 108.672476 56.9147569 109.249498 56.5572689 109.102509 56.4486804 107.902303 55.5506901 108.348129 55.523848 109.012615 55.3566949 109.159604 55.3213121 108.507265 55.2322452 108.469607 55.0821734 108.441667 54.9699246 108.671261 54.7942309 108.738074 54.6990634 108.827968 54.5685132 108.247302 54.5514318 108.218147 54.3940395 108.141616 53.9889678 107.981264 53.6009774 107.745596 53.2666712 107.546372 52.9860492 107.563379 52.5370541 107.563379 51.9013843 107.563379 51.2657145 107.110265 49.9907146 107.110265 49.1732506 107.110265 48.3533464 106.65958 47.0832269 106.65958 46.7184183 106.65958 46.3536098 106.759193 45.3433706 106.29636 44.990763 104.892071 43.9207392 101.807737 40.725309 101.406859 38.1679887 101.067935 36.002319 102.246274 32.7910275 102.534178 31.239066 102.775919 29.937224 102.310657 26.0988034 102.218334 25.3716264 102.12844 24.6444495 102.49409 22.0712679 101.859973 20.7974882 101.225856 19.5237084 100.410737 18.3414358 100.410737 18.3414358 100.410737 18.3414358 102.223193 18.52323 103.037098 19.3419142 103.853432 20.1605983 104.937018 21.5246651 105.12045 22.7984449 105.300238 24.0710046 105.844461 25.7986599 105.753352 26.1622483 105.663458 26.5258368 104.486334 28.6183007 104.486334 28.890382 104.486334 29.1624633 104.197215 30.3935397 104.213008 30.9828459 104.220296 31.1866019 104.395225 31.5050468 104.519133 31.8466736 104.643041 32.1883003 106.0449 33.0533481 106.515021 33.2644246 106.01939 32.5006448 105.551698 32.1163147 105.12045 31.1646401 106.3571 32.4725826 106.437275 32.8081089 107.64234 33.4901423 108.137971 33.7707643 109.469373 33.8256686 110.026959 33.8683719 109.549549 33.6682762 109.140167 33.498683 108.560716 33.1643768 108.22908 32.9740419 108.017708 32.3042094 107.853712 31.9735635 107.732234 31.7295444 107.632622 30.9474631 107.564594 30.4740661 107.858571 30.843755 108.197496 31.5721521 108.463533 31.8076305zM21.0392478 20.9548805C20.8351642 22.3823923 19.4843256 23.7916027 17.813999 23.986818 16.4437238 24.1478706 14.7782564 22.1944976 15.1026034 20.9841628 15.250807 20.4290193 16.4012064 20.859713 17.3973284 19.9495218 18.3922357 19.0405506 17.1956745 12.6265082 17.5431024 12.6069215 17.8674495 12.5911254 19.6738317 15.4729911 20.4379302 17.3787804 20.9687904 18.7038042 21.2166061 19.7140433 21.0392478 20.9548805z" id="Shape"/></g></g></g></g></svg>