<svg width="53" height="52" viewBox="0 0 53 52" xmlns="http://www.w3.org/2000/svg" xmlns:xlink="http://www.w3.org/1999/xlink"><title>Group 3</title><defs><path id="path-1" d="M0 0H53V52H0z"/></defs><g id="Homepage" stroke="none" stroke-width="1" fill="none" fill-rule="evenodd"><g id="Colossal_Home_A" transform="translate(-864.000000, -8459.000000)"><g id="Group-16" transform="translate(729.000000, 8453.000000)"><g id="Group-3" transform="translate(135.000000, 6.000000)"><mask id="mask-2" fill="#fff"><use xlink:href="#path-1"/></mask><g id="Clip-2"/><path d="M13.578797 37.4823574C15.1509236 35.9536382 16.8872081 34.8265495 18.9244486 34.0884746 20.4839477 33.5207247 21.731968 32.4756443 22.5738029 31.0478585 22.9694653 30.381278 23.9986084 29.5401671 22.9926157 28.8378394 22.420168 28.4362089 20.7638578 28.4509284 20.5975954 28.7810644 18.8823568 32.1917694 15.0372759 33.8403469 13.578797 37.4823574M11.4868372 41.3262345C8.16369396 47.4327002 4.09131762 44.3521313.0 42.8822898 7.75750862 45.0754867 10.6492115 40.1928375 13.3009914 34.4648718 15.5844686 29.5401671 19.7452376 26.2240871 24.3605975 23.5346347 25.6949058 22.7587099 26.8440104 21.9996072 27.3827848 20.414113 30.1881996 12.1607116 36.1357631 6.23298204 42.5484405.803610725 44.213169-.605250152 46.8838902.0697414023 48.904294 1.06435513 49.9565876 1.58374115 49.2957472 2.76760484 48.6706848 3.28068254 46.7050003 4.89982115 46.4840187 7.45890128 45.1476058 9.37032597 43.1777121 12.1880477 44.7498388 12.7978532 47.19116 12.9997198 48.1887343 13.0838309 49.2010408 13.0459809 50.1901968 13.1700448 51.7623235 13.3698086 52.728329 14.4758696 52.9598336 15.8679082 53.222907 17.4407857 52.1790318 18.3428773 50.2596482 18.8475438 51.1814574 15.1361417 49.5293564 14.4632529 46.5576792 15.2391778 45.8715838 15.4179139 44.8234993 15.4725861 44.3646993 15.085675 41.2667469 12.4614088 40.062923 14.6735306 38.7117779 17.0391552 38.1035522 18.1073662 37.2995999 19.2407632 36.2915026 19.8736992 31.1794602 23.0657154 27.2649279 27.2502424 24.4973956 32.6249415 23.5545405 34.4606662 21.3783973 35.00108 19.5263605 35.7980327 15.1803879 37.6674018 13.2483768 40.8194652 13.4167437 45.5507144 13.6461438 52.07353 12.9937217 52.6644104 6.65680948 51.5499384 5.85075256 51.4090523 4.69112499 51.4384912 4.71638003 50.2672442 4.73742591 49.371461 5.76867366 49.3840776 6.45055993 49.1317444 11.2869014 47.3380752 11.8172574 46.5894864 11.4868372 41.3262345" id="Fill-1" fill="#fff" mask="url(#mask-2)"/></g></g></g></g></svg>