<svg width="170" height="90" viewBox="0 0 170 90" xmlns="http://www.w3.org/2000/svg" xmlns:xlink="http://www.w3.org/1999/xlink"><title>noun_Elephant_647644 Copy</title><g id="Company" stroke="none" stroke-width="1" fill="none" fill-rule="evenodd"><g id="Colossal_BetterWorld" transform="translate(-1202.000000, -5903.000000)" fill="#fff" fill-rule="nonzero"><g id="Group-19" transform="translate(1158.000000, 5903.000000)"><g id="noun_Elephant_647644-Copy" transform="translate(44.000000, 0.000000)"><path d="M170 41.5196786C170 41.5196786 166.796816 48.3380666 158.385979 48.3380666 143.918475 48.3380666 139.298463 37.6987201 139.298463 37.6987201L136.947899 37.8155965C136.947899 37.8155965 141.631001 51.8713294 155.431551 51.8713294 162.567964 51.8713294 166.059561 49.665063 166.059561 49.665063 166.059561 49.665063 162.366075 55.2733311 153.663221 55.2571482 138.171851 55.2319748 132.875872 37.8120003 132.875872 37.8120003 132.875872 37.8120003 131.298615 37.9234823 129.04539 36.8014691 127.282467 35.9221991 126.680406 34.1043219 126.680406 34.1043219L124.874221 36.3861084C124.874221 36.3861084 126.127014 37.4793521 127.693455 40.7339097 129.047193 43.5443371 129.158953 45.9034418 129.158953 45.9034418 127.725902 45.7092472 126.793968 45.5653993 125.328471 43.7726955 124.200056 42.3899581 123.702544 42.499642 119.125794 42.499642 114.55265 42.499642 105.613657 43.7690993 105.613657 43.7690993 105.613657 43.7690993 106.740269 47.2538135 108.205767 51.0729739 109.206198 53.6820142 112.202086 58.9702208 113.087152 61.9155055 113.970416 64.8589921 114.84647 67.183933 115.877546 70.5697517 116.908621 73.9555705 119.127597 80.286674 119.127597 80.286674 119.127597 80.286674 121.784599 81.6118723 122.813872 82.7878285 123.853961 83.9673808 123.111298 85.8823553 117.06184 86.9144636 110.075042 88.1012084 107.881302 85.4651965 107.881302 85.4651965 107.881302 85.4651965 107.731688 81.2001078 106.404989 77.3683607 105.076488 73.5402098 100.658366 67.1407786 100.658366 67.1407786 100.658366 67.1407786 97.6318343 60.2091104 96.1519164 58.1502881 94.6810114 56.0878695 93.2227244 55.564623 93.2227244 55.564623 93.2227244 55.564623 91.8707897 57.7007635 90.0501842 63.5014281 88.9614261 66.9753536 88.2836561 70.1292177 88.2836561 70.1292177 88.2836561 70.1292177 84.8803857 78.2224573 84.0007268 80.2848759 83.1156602 82.3454963 82.7226979 83.7156471 82.7226979 83.7156471 82.7226979 83.7156471 83.5608974 84.1885469 84.5180672 85.510149 85.2895713 86.5764212 85.475237 88.038275 85.475237 88.038275 85.475237 88.038275 84.4405563 90 77.3564182 90 70.2722801 90 68.5436062 87.2219384 68.5436062 87.2219384 68.5436062 87.2219384 69.4647244 84.1957393 70.5787187 81.97329 71.2546861 80.6247164 74.3731489 73.6804615 75.144653 70.8592455 76.4731542 65.9971882 77.8845741 62.1744316 77.7890373 59.6085456 77.7115264 57.5299442 76.9995074 57.1361607 76.9995074 57.1361607L63.6297741 57.1667284 53.1495759 54.2214437C53.1495759 54.2214437 48.2826108 62.0287857 48.2826108 68.9460691 48.2826108 75.8669488 49.9013274 80.8117186 51.0874248 82.7824342 51.5290568 83.5178563 52.3960976 84.2406917 53.7462298 85.4328308 55.0711258 86.6141812 55.1738729 88.0364769 55.1738729 88.0364769 55.1738729 88.0364769 53.5984182 89.9982019 46.8117058 89.9982019 37.7068759 89.9982019 37.5085922 87.4952493 37.5085922 87.4952493L38.5396677 83.2247663C38.5396677 83.2247663 37.2526259 80.3298283 37.0687627 77.8304719 36.4450702 69.3848051 40.275552 52.1895928 40.275552 52.1895928L39.3418157 51.9936001C39.3418157 51.9936001 32.0792222 63.6039196 27.2194675 67.9858848 24.1514769 70.7495616 19.6342122 75.4048376 19.2917221 77.0447031 18.9510345 78.6899628 19.1330951 81.6280552 18.8951546 82.6781445 18.666227 83.7246376 17.9578131 84.2101241 17.9578131 84.2101241c0 0-3.0896215 1.0249158999999963-8.45049341-2.776263499999999C5.76696689 78.7816658 5.37941226 76.8702876 6.16173183 75.1944601 6.94765657 73.524027 8.07426886 72.5692369 9.45504488 71.0102858 10.8394261 69.4513347 10.9692118 66.7901495 10.9692118 66.7901495L21.3628861 58.7059004C21.3628861 58.7059004 24.9680455 53.8816031 24.9680455 49.168788 24.9680455 43.0318791 23.6395442 39.3547684 23.6395442 39.3547684 23.6395442 39.3547684 20.8347303 33.9083292 20.8347303 30.9612464 20.8347303 26.8903523 23.1961096 22.670216 23.1961096 22.670216 23.1961096 22.670216 17.1340342 27.3920217 12.319344 27.3920217 3.08292577 27.3920217 1.33802865 19.0866065 1.33802865 19.0866065c0 0-1.041891041-2.6971472-1.3140805704-3.781400399999999C-.248241449 14.2173568 1.88961803 10.7865856 1.88961803 10.7865856L3.8958892 15.2566575 3.32627402 19.0380578C3.32627402 19.0380578 4.43846567 24.3478416 11.7767675 24.3478416 19.3584175 24.3478416 34.1233476 5.93351874 37.8150307 3.8746964 41.5013061 1.81047976 47.4047545.0483436044 54.1968747.193989552 60.9853897.339635499 84.3017577 1.36994572 84.3017577 1.36994572 84.3017577 1.36994572 91.0920752 4.16419019 97.8805903 4.31523044 104.670908 4.46267448 108.214779-.541432578 114.855483.0483436044 121.497989.63452359 122.237047 6.67073897 122.237047 6.67073897 122.237047 6.67073897 126.000833 10.1320778 127.17972 11.088666 128.362212 12.0434561 130.649686 11.6784422 132.124196 13.4423765 133.600509 15.2099069 136.949702 26.2538256 146.366378 26.2538256 152.098581 26.2538256 155.307173 21.3971625 155.307173 17.1320738 155.307173 10.8243456 151.381155 7.6920587 146.068952 7.6920587 141.935637 7.6920587 139.507562 8.09842887 137.957344 7.80354078 136.650474 7.55000895 134.436906 6.3542737 133.917763 5.3976855 133.404028 4.43750111 136.134936 5.58109151 136.134936 4.43750111 136.134936 3.04037887 134.802829 1.27105032 136.724379 1.27105032 137.681549 1.27105032 138.195284 3.55463493 140.927995 3.55463493 142.993751 3.55463493 144.765687 2.96485875 148.677285 2.96485875 154.802451 2.96485875 162.430968 8.92375591 162.430968 18.4950322 162.430968 27.3308863 158.741087 31.9933547 151.898495 35.4528955 147.21359 37.8173945 142.800875 37.2473974 142.800875 37.2473974 142.800875 37.2473974 148.459173 44.533291 159.501776 44.533291 165.763938 44.5368872 170 41.5196786 170 41.5196786z" id="Path"/></g></g></g></g></svg>