<svg width="22" height="22" viewBox="0 0 22 22" xmlns="http://www.w3.org/2000/svg" xmlns:xlink="http://www.w3.org/1999/xlink"><title>Group 15</title><g id="Mammoth-Page" stroke="none" stroke-width="1" fill="none" fill-rule="evenodd" stroke-linecap="round"><g id="Colossal_Mammoth_8-03-21" transform="translate(-1348.000000, -13155.000000)" stroke="#231f20" stroke-width=".5"><g id="Group-15" transform="translate(1349.000000, 13156.000000)"><path d="M20.553 10.2767C20.553 15.9527 15.952 20.5527 10.277 20.5527 4.601 20.5527.0 15.9527.0 10.2767.0 4.6007 4.601 7e-4 10.277 7e-4 15.952 7e-4 20.553 4.6007 20.553 10.2767z" id="Stroke-1"/><path d="M15.4143 10.2767C15.4143 15.9527 13.1143 20.5527 10.2763 20.5527 7.4383 20.5527 5.1393 15.9527 5.1393 10.2767 5.1393 4.6007 7.4383 7e-4 10.2763 7e-4c2.837999999999999.0 5.138 4.6 5.138 10.276z" id="Stroke-3"/><path d="M10.2766 20.553V0z" id="Stroke-5"/><path d="M10.2766 3e-4C15.9526 3e-4 20.5526 4.6013 20.5526 10.2763 20.5526 15.9523 15.9526 20.5533 10.2766 20.5533 4.6006 20.5533 6e-4 15.9523 6e-4 10.2763 6e-4 4.6013 4.6006 3e-4 10.2766 3e-4z" id="Stroke-7"/><path d="M20.553 10.2767H0z" id="Stroke-9"/><path d="M1.3752 5.139h17.803z" id="Stroke-11"/><path d="M1.3752 15.4144h17.803z" id="Stroke-13"/></g></g></g></svg>