<svg width="44" height="58" viewBox="0 0 44 58" xmlns="http://www.w3.org/2000/svg" xmlns:xlink="http://www.w3.org/1999/xlink"><title>Group 3</title><defs><path id="path-1" d="M0 0H44V58H0z"/></defs><g id="Homepage" stroke="none" stroke-width="1" fill="none" fill-rule="evenodd"><g id="Colossal_Home_A" transform="translate(-1130.000000, -8459.000000)"><g id="Group-17" transform="translate(990.000000, 8453.000000)"><g id="Group-3" transform="translate(140.000000, 6.000000)"><mask id="mask-2" fill="#fff"><use xlink:href="#path-1"/></mask><g id="Clip-2"/><path d="M18.7844468 37.1758269C18.8407172 39.0213664 19.7321577 40.2477952 21.5831554 40.3067581 23.4311915 40.3627729 24.5240206 39.1363441 24.5802909 37.3763009 24.6365612 35.7960945 23.4608075 34.7229693 22.0214716 34.5224954 20.2000899 34.2660066 19.1428 35.4216799 18.7844468 37.1758269M24.7046779 28.9239658C27.9535491 28.4817439 29.9970506 26.709908 29.8874715 23.4345176 29.7778925 20.1620754 27.7106982 18.2723137 24.3789023 18.4374099 21.3462277 18.5877653 19.4922684 20.4038234 19.4922684 23.4993768 19.4952299 26.8278339 21.4824611 28.5230179 24.7046779 28.9239658M18.9710274.00265190073C22.9366049.388859049 25.4835778 2.40833917 26.3187479 6.37064762 27.0917246 10.0440377 28.856836 11.1024222 32.2626718 8.89426074 35.2568457 6.95143242 38.2332501 7.38775805 39.9480143 10.5186893 41.6835098 13.6938427 40.2234428 16.2292484 37.0841507 17.8418844 35.8758194 18.460995 34.1225543 18.8589948 34.528293 20.6662084 34.9606861 22.5766071 36.7672599 21.9427557 38.0674007 21.9339112 40.8720324 21.9132742 42.8711099 23.0925327 43.7299729 25.7311235 44.3726393 27.7063814 43.8662063 29.6020394 42.2314051 30.9788237 40.258982 32.6445263 38.0970166 32.7093855 35.8669346 31.4416826 34.7237584 30.7901423 33.5835438 29.2600545 32.2093631 30.7577127 30.8914527 32.196408 31.0188013 33.9859328 31.9132034 35.6693242 33.1333811 37.9747745 35.3486552 39.0891738 37.5106205 40.2861211 39.3941958 41.3238686 41.4199277 42.5178678 40.8335317 45.0650661 40.3182139 47.3321905 38.079247 47.8097901 36.1927102 47.7655679 32.1353232 47.6682791 29.9911274 49.5875223 29.1144949 53.3316679 28.2941327 56.8311174 25.8004686 58.2845535 22.4657111 57.9543611 18.7844468 57.588791 15.8909672 55.5368812 15.7813881 51.6895505 15.6303467 46.2973912 13.808965 43.4642227 7.91538822 43.9801483 5.68530617 44.1747259 3.99127305 42.5679863 3.20348843 40.3775137 2.34758708 37.9895153 2.94582954 35.8609537 4.70205618 34.112703 5.818578 33.0012519 7.33787693 32.2376821 8.27077978 31.0112533 10.1365855 28.5701883 10.2580109 26.2824268 6.44347483 25.8637901 2.61413075 25.4451533-.30600325 23.8678951.0256955412 19.790609.389971892 15.3153231 3.76323014 14.5429088 7.78803958 14.8465678 11.62923 15.132538 12.4140531 12.9656506 11.8483882 9.41018632 10.9747172 3.90599743 14.2443196-.118222092 18.9710274.00265190073" id="Fill-1" fill="#fff" mask="url(#mask-2)"/></g></g></g></g></svg>