<svg width="182" height="121" viewBox="0 0 182 121" xmlns="http://www.w3.org/2000/svg" xmlns:xlink="http://www.w3.org/1999/xlink"><title>Fill 1</title><g id="Company" stroke="none" stroke-width="1" fill="none" fill-rule="evenodd"><g id="Colossal_BetterWorld" transform="translate(-1071.000000, -11462.000000)" fill="#ff7b31"><path d="M1123.54357 11579.0379C1120.23259 11579.6812 1116.88979 11579.5525 1113.68491 11578.6268 1112.65309 11578.3284 1111.98865 11576.8171 1111.10802 11575.908 1110.69887 11575.4856 1110.07885 11574.7873 1109.71546 11574.8762 1107.41044 11575.4365 1106.71483 11573.8231 1106.10807 11572.2734 1104.84415 11569.0433 1103.78913 11565.7317 1102.51924 11562.5036 1101.25069 11559.2808 1099.77391 11556.141 1098.48613 11552.9248 1097.58097 11550.6642 1096.74941 11548.3645 1096.04782 11546.0336 1095.4225 11543.9541 1095.827 11542.1583 1097.80775 11540.8109 1099.57498 11539.608 1100.43107 11537.7578 1100.93968 11535.3275 1100.256 11535.6378 1099.882 11535.7758 1099.53917 11535.9668 1094.1115 11538.9879 1089.62746 11542.9839 1086.34965 11548.3333 1085.24555 11550.1357 1084.37288 11551.9208 1084.28866 11554.0442 1084.15404 11557.4473 1084.10298 11560.8571 1083.85166 11564.2516 1083.69583 11566.3418 1083.40538 11568.4558 1082.86626 11570.477 1082.11494 11573.2986 1081.3371 11576.0512 1082.23165 11578.9889 1082.50154 11579.8755 1081.22569 11581.4961 1080.13154 11581.4782 1078.67002 11581.4537 1077.15942 11581.2687 1075.77084 11580.8317 1074.40812 11580.4033 1073.44792 11578.1507 1073.72179 11576.7342 1073.98969 11575.3463 1074.17338 11573.9352 1074.54141 11572.5745 1074.99499 11570.8954 1074.96515 11569.4916 1073.33187 11568.3935 1072.997 11568.1687 1072.8657 11567.2755 1073.00097 11566.7901 1073.29209 11565.747 1073.76158 11564.7403 1074.25627 11563.7702 1076.90876 11558.5653 1077.72241 11552.8963 1078.34774 11547.206 1078.53275 11545.5144 1078.3053 11543.7266 1077.97108 11542.041 1077.48037 11539.5602 1078.23302 11537.6842 1080.32186 11536.429 1085.33308 11533.419 1087.32377 11528.6591 1087.7674 11523.2043 1088.22628 11517.5684 1088.24684 11511.8974 1088.50546 11506.2442 1088.60493 11504.0626 1088.8158 11501.8849 1089.00678 11499.7085 1089.1089 11498.5387 1088.60891 11497.934 1087.46237 11498.1734 1086.29063 11498.4174 1084.81982 11498.5175 1084.07712 11499.2702 1082.21176 11501.1621 1080.49626 11503.2721 1079.10967 11505.5334 1078.54535 11506.4551 1078.8411 11508.0141 1079.0102 11509.2475 1079.19123 11510.5711 1079.70581 11511.847 1080.03605 11513.1533 1081.38617 11518.4994 1079.8139 11523.0286 1076.14285 11526.9615 1074.67868 11528.5305 1073.21052 11530.0961 1071.41346 11532.0172 1070.93932 11530.0643 1071.09449 11528.8693 1071.77619 11527.6114 1072.4161 11526.4291 1073.0401 11525.136 1071.78149 11523.8256 1071.54476 11523.5789 1071.85443 11522.8608 1071.79741 11522.3741 1071.7165 11521.6818 1072.71782 11520.5637 1071.08521 11520.386 1071.02487 11520.3794 1070.96121 11519.6811 1071.02951 11519.331 1071.89091 11514.9086 1072.80403 11510.5028 1075.39087 11506.6713 1076.68529 11504.7535 1078.03209 11502.863 1079.20582 11500.8716 1081.40076 11497.1469 1084.6547 11494.9247 1088.78861 11493.9944 1091.44509 11493.3969 1093.66854 11492.2716 1095.95366 11490.6708 1100.92775 11487.1861 1106.08552 11483.342 1112.37591 11483.0953 1118.11392 11482.8711 1122.97991 11480.966 1128.06076 11478.6145 1133.31801 11476.1815 1139.16079 11475.0436 1144.66935 11473.1192 1149.87752 11471.3003 1155.06779 11469.3845 1160.11615 11467.1704 1167.06435 11464.122 1174.37529 11462.9423 1181.82415 11462.2725 1186.82808 11461.8223 1191.80482 11461.929 1196.81273 11462.5995 1200.87104 11463.1432 1204.01623 11464.7851 1206.60838 11467.9595 1208.03609 11469.7088 1210.0122 11471.0125 1211.75289 11472.5039 1212.57981 11473.2127 1213.6733 11473.7393 1214.22634 11474.6139 1215.95511 11477.3486 1218.47365 11479.3725 1220.43782 11481.8393 1222.27732 11484.1496 1223.62678 11487.0011 1224.5903 11489.8207 1225.96893 11493.8525 1228.76599 11496.501 1232.11078 11499.0792 1232.77324 11497.7815 1233.29843 11496.4711 1234.06699 11495.3246 1234.87667 11494.117 1235.88262 11493.0335 1236.88659 11491.9745 1237.11869 11491.7291 1237.69096 11491.8047 1238.10608 11491.7331 1238.12663 11492.1549 1238.24865 11492.6018 1238.15051 11492.9944 1237.74534 11494.625 1237.27319 11496.2397 1236.75596 11498.1117 1238.92835 11497.3889 1240.61998 11496.8259 1242.50258 11496.1999 1242.39118 11496.6336 1242.32155 11496.9041 1242.19224 11497.4101 1243.049 11497.1628 1243.80098 11496.9459 1244.54302 11496.7317 1244.64779 11496.8431 1244.75057 11496.9161 1244.80429 11497.0156 1245.16038 11497.6787 1245.50653 11498.3464 1245.856 11499.0135 1246.65904 11498.556 1247.79431 11498.2888 1248.18953 11497.5978 1248.8321 11496.4744 1248.93289 11495.054 1249.38183 11493.8007 1249.56684 11493.2828 1250.06153 11492.8757 1250.41564 11492.4181 1250.76974 11492.8186 1251.32942 11493.1681 1251.44679 11493.629 1252.32278 11497.0799 1251.45409 11500.2775 1249.66034 11503.2131 1248.94483 11504.3835 1249.00517 11505.2184 1249.41896 11506.5247 1250.51776 11509.9988 1251.28831 11513.585 1252.0257 11517.1599 1252.22198 11518.1095 1251.99387 11519.2342 1251.67888 11520.1851 1250.7598 11522.9622 1250.7777 11525.7566 1251.30422 11528.5696 1251.77437 11531.0795 1251.52902 11533.4907 1251.06218 11536.0046 1250.40967 11539.5138 1250.13845 11543.1119 1249.95543 11546.6855 1249.75649 11550.5628 1247.8268 11553.5289 1244.41768 11554.3532 1243.25125 11554.6357 1241.97408 11554.7205 1240.78244 11554.5853 1238.32027 11554.3048 1236.60609 11555.1635 1235.27321 11557.2523 1234.74205 11558.0859 1233.66381 11558.564 1232.85679 11559.2304 1232.46621 11559.5514 1232.11012 11559.9181 1231.76529 11560.2901 1230.30642 11561.8664 1228.8575 11563.4532 1227.1042 11565.363 1226.35354 11561.686 1225.70633 11558.5196 1225.00409 11555.08 1224.87677 11555.379 1224.71828 11555.751 1224.55383 11556.1363 1223.29787 11553.8313 1222.19642 11551.6887 1220.96633 11549.6231 1220.54392 11548.9129 1220.51209 11547.4315 1218.89871 11548.1125 1218.75216 11548.1742 1218.13546 11547.1928 1217.77671 11546.6676 1216.83706 11545.2876 1216.27075 11543.6848 1213.8477 11544.4256 1212.44188 11544.8546 1210.71046 11544.2372 1209.12825 11544.0622 1208.09776 11543.9481 1207.73039 11544.3685 1207.88887 11545.3805 1208.18728 11547.283 1208.36168 11549.2093 1208.74231 11551.0939 1209.28939 11553.8008 1209.97373 11556.4798 1210.59906 11559.1708 1211.37292 11562.4996 1213.10235 11565.3292 1215.1209 11568.0334 1216.42062 11569.7734 1217.43851 11571.7389 1218.84699 11573.3755 1219.8231 11574.5101 1221.37349 11575.1355 1222.43913 11576.2144 1223.32837 11577.1162 1224.0167 11578.2906 1224.50807 11579.4637 1224.65329 11579.8092 1223.94773 11580.8701 1223.42386 11581.0784 1220.33504 11582.3071 1217.22499 11581.6062 1214.13947 11580.9066 1213.95778 11580.8662 1213.66136 11580.77 1213.64081 11580.6586 1213.25818 11578.6182 1211.41337 11578.3204 1210.01684 11577.41 1209.31923 11576.9551 1208.99165 11575.8642 1208.61234 11575.0101 1208.36433 11574.4518 1208.32455 11573.8019 1208.1959 11573.2131 1207.91275 11573.227 1207.76222 11573.1899 1207.66872 11573.2469 1207.06925 11573.6123 1206.48239 11573.9989 1205.89155 11574.3788 1205.61701 11573.6302 1205.18068 11572.8987 1205.09779 11572.1295 1204.86304 11569.9598 1204.76424 11567.7748 1204.62697 11565.5951 1204.39753 11561.9433 1202.68004 11558.9334 1200.84717 11555.9712 1200.67542 11556.0004 1200.50433 11556.0295 1200.33258 11556.0581 1200.11972 11557.5342 1199.9062 11559.011 1199.63763 11560.871 1197.65953 11558.5925 1195.87706 11556.5402 1194.00307 11554.3817 1193.29751 11555.1655 1192.71131 11555.8173 1191.9759 11556.6343 1191.62047 11555.9102 1191.32936 11555.3167 1190.96995 11554.5839 1190.21067 11555.761 1189.47925 11556.8943 1188.57143 11558.3001 1186.26243 11555.1038 1184.12121 11552.1165 1181.95081 11549.151 1181.16699 11548.0794 1180.29167 11547.1875 1179.04699 11548.8002 1177.50722 11547.1311 1176.07819 11545.5814 1174.52913 11543.9017 1172.26059 11546.1775 1171.45091 11548.9646 1171.27386 11551.8181 1171.04574 11555.4831 1169.77653 11558.5136 1167.75864 11561.5938 1164.61345 11566.3968 1164.4596 11569.3888 1168.08556 11574.6772 1169.02985 11576.0545 1170.11273 11577.3364 1171.12532 11578.6666 1172.24865 11580.1434 1171.20755 11582.833 1169.36539 11582.9252 1167.12337 11583.0379 1164.8535 11583.0392 1162.62341 11582.8177 1160.06177 11582.5624 1159.17915 11581.0313 1159.85355 11578.5499 1159.93644 11578.2442 1159.97424 11577.9192 1159.98684 11577.6023 1159.99347 11577.4279 1159.90328 11577.2502 1159.90395 11577.2508 1158.95502 11577.4166 1158.05383 11577.5744 1157.15265 11577.7322 1157.13607 11576.8085 1156.91459 11575.8311 1157.13938 11574.9697 1158.22359 11570.8132 1159.49414 11566.7045 1160.56243 11562.5441 1161.12741 11560.3432 1161.4152 11558.0706 1161.82767 11555.8306 1161.6221 11555.7285 1161.41653 11555.625 1161.21096 11555.5229 1160.49413 11556.0746 1159.77729 11556.6264 1158.9338 11557.2756 1158.9338 11556.8041 1158.9517 11556.5063 1158.92915 11556.2119 1158.89732 11555.8074 1158.83499 11555.4042 1158.78592 11555.0004 1158.30317 11555.0839 1157.74017 11555.0382 1157.35689 11555.2789 1156.61618 11555.7424 1155.97693 11556.3677 1154.94246 11557.2159 1155.28397 11555.0886 1155.28662 11553.4367 1154.00679 11552.1045 1153.97828 11552.0747 1153.98491 11551.9712 1154.01475 11551.9314 1155.65929 11549.7179 1153.25216 11547.8519 1153.48359 11545.7478 1153.59764 11544.7087 1152.91463 11544.5031 1152.00018 11544.5423 1150.58706 11544.6033 1149.15074 11544.4143 1147.75884 11544.5933 1141.29273 11545.4242 1135.91811 11542.8009 1130.93474 11539.2028 1127.34658 11536.6113 1123.98985 11533.7015 1120.41893 11530.8455 1120.1139 11531.1664 1119.7505 11531.4966 1119.44812 11531.8746 1115.75386 11536.4966 1112.03904 11541.102 1108.41176 11545.7757 1107.87264 11546.4706 1107.57357 11547.4719 1107.47278 11548.3665 1106.70488 11555.1628 1109.89649 11560.993 1112.23002 11567.0082 1112.54766 11567.8258 1113.60534 11568.5705 1114.48862 11568.9107 1116.71008 11569.7675 1118.39707 11571.0433 1119.31549 11573.3046 1119.53631 11573.8483 1120.11986 11574.2449 1120.53829 11574.7084 1121.67555 11575.9683 1122.81347 11577.2276 1123.95139 11578.4875 1123.81545 11578.6706 1123.67951 11578.8549 1123.54357 11579.0379" id="Fill-1"/></g></g></svg>