<?xml version="1.0" encoding="utf-8"?>
<!-- Generator: Adobe Illustrator 26.4.1, SVG Export Plug-In . SVG Version: 6.00 Build 0)  -->
<svg version="1.1" id="Layer_1" xmlns="http://www.w3.org/2000/svg" xmlns:xlink="http://www.w3.org/1999/xlink" x="0px" y="0px"
	 viewBox="0 0 660 141.5" style="enable-background:new 0 0 660 141.5;" xml:space="preserve">
<style type="text/css">
	.st0{opacity:0.9;}
	.st1{opacity:0.7;enable-background:new    ;}
	.st2{opacity:0.9;enable-background:new    ;}
</style>
<path d="M265,110.6c-3.4,2.3-7.2,3.9-11.2,4.8c-13.7,2.6-25.8-0.8-35.8-10.7C205,92,202.3,72,211.6,56.4
	c8.3-13.8,20.9-20.6,37.2-19.7c7.1,0.3,13.9,3.1,19.2,7.8c0.2,0.2,0.4,0.3,0.6,0.5c0.4-0.4,0.7-0.7,1-1.1c3.8-4,8.6-5.1,13.9-4.7
	c0.4,0,0.9,0.7,1.1,1.1s0,0.8,0,1.2v97.6c0,2.3-0.1,2.4-2.3,2.4c-5.1,0-10.2,0-15.4,0c-1.8,0-2-0.2-2-2L265,110.6L265,110.6z
	 M246,96.5c11.1-0.2,19.9-9.5,19.7-20.6c-0.2-10.8-8.9-19.4-19.7-19.7c-11.1-0.2-20.3,8.6-20.6,19.7s8.6,20.3,19.7,20.6
	C245.4,96.5,245.7,96.5,246,96.5z"/>
<path d="M320.7,58.7v1.7c0,9.1,0,18.1,0,27.2c0,6,2.4,8.6,8.5,8.8c2.9,0.1,5.8,0,8.4-1.6c1.1-0.7,1.9-0.1,1.9,1.2
	c0,5.9,0,11.8,0,17.7c-0.1,0.6-0.5,1.2-1,1.5c-11.6,2.1-22.2,0.6-30.7-8.4c-4.8-5.1-6.6-11.3-6.7-18.2c-0.1-10.2,0-20.5,0-30.7V20.8
	c0-2.2,0.1-2.3,2.4-2.4c6.9-0.2,12.1,2.6,15.5,8.7c1.4,2.7,2,5.7,1.8,8.6c0,1,0,2,0,3.3h17c1.6,0,1.8,0.2,1.8,1.9
	c0,3.9,0,7.7,0,11.6s-2.4,6.2-6.2,6.2c-3.6,0-7.3,0-10.9,0H320.7z"/>
<path d="M193.7,76.4v35.2c0,2-0.1,2.1-2.2,2.1H176c-1.8,0-2-0.2-2-1.9V40.9c0-1.6,0.2-1.8,1.9-1.8h15.9c1.6,0,1.8,0.2,1.8,1.9
	L193.7,76.4z"/>
<path d="M171.8,20.9c0-6.7,5.4-12.2,12.1-12.2c6.7,0,12.2,5.4,12.2,12.1S190.7,33,184,33c0,0,0,0-0.1,0
	C177.2,33,171.8,27.6,171.8,20.9L171.8,20.9z"/>
<g class="st0">
	<path d="M367.1,74.2h4.7v38h-4.7V74.2z"/>
	<path d="M411.2,112.1L394.1,85c-0.5-0.8-1-1.7-1.5-2.7c0,0.8,0.1,1.8,0.1,2.7v27.1H388v-38h4.8l16.8,27c0.5,0.9,1,1.8,1.6,2.8
		c-0.1-1-0.1-1.9-0.1-2.8v-27h4.7v38H411.2z"/>
	<path d="M431,93.7h12.7v4.6H431V93.7z"/>
	<path d="M457.2,93.2c0-9.4,4.2-19.6,16.1-19.6s16.2,10.2,16.2,19.6c0,5.9-1.6,12-5.8,15.9l2.9,4.2l-3.5,2.4l-2.9-4.3
		c-2.1,1-4.5,1.5-6.8,1.4C461.4,112.8,457.2,102.5,457.2,93.2z M477.5,107.5l-2.7-4.1l3.6-2.4l2.6,3.9c2.5-3,3.6-7.6,3.6-11.7
		c0-7.4-2.9-15.2-11.2-15.2s-11.2,8.4-11.2,15.2c0,7.4,2.9,15.2,11.2,15.2C474.8,108.4,476.2,108.1,477.5,107.5L477.5,107.5z"/>
	<path d="M503,93.7h12.7v4.6H503V93.7z"/>
	<path d="M543.7,112.1H539V78.7h-10.6v-4.5h25.9v4.5h-10.6L543.7,112.1L543.7,112.1z"/>
	<path d="M567.9,74.2h22.6v4.4h-17.8v11.7h11.8v4.4h-11.8v12.9h19v4.5H568L567.9,74.2L567.9,74.2z"/>
	<path d="M605.8,74.2h4.7v33.4h18.7v4.6h-23.4V74.2z"/>
</g>
<path class="st1" d="M125.5,35.4c0,12.1-3.9,24-9.9,34.5s-14.3,19.6-23.3,27.7c-10.2,9.1-21.9,17.1-35.1,20.6
	c-10.2,2.7-21,2.6-31.6,2.4c5.9,5.4,14.2,7.6,22.2,7.1c8-0.4,15.6-3.3,22.8-6.8c23.1-11.4,41.9-29.7,53.9-52.5
	c7.1-13.6,13.8-35.1,1.2-47.7"/>
<path class="st1" d="M131.2,96.8c-9.1,4.3-18.9,7-29,7.8c-14.9,1.2-30.1-1.4-44.1-6.6c-22-8.2-42.2-23.8-50.5-45.6
	c-2.1,7.2-0.1,15.1,3.9,21.5c7.4,11.7,20,19.7,32.2,25.6c12.7,6.2,26.3,10.2,40.3,11.8c8.6,1,17.4,0.9,26-0.2
	c7.1-0.9,14.2-2.5,20.4-6.1s11.5-9.1,13.4-16C139.8,92,135.6,94.6,131.2,96.8z"/>
<path class="st1" d="M57.2,2.4C36.7,7.9,28.3,43,38.4,80.7c3.4,13.2,9.1,25.8,16.9,37c7,9.8,16.2,19.5,28.6,21.8
	c3.3,0.7,6.7,0.5,10-0.3c-8.6-6.1-19-10.2-26.3-18C57.9,111,50,96,45.4,78.8s-5.3-34.1-2-47.7c1.4-6.1,5.6-15.6,8.4-19.4"/>
<path class="st1" d="M94.3,139c24.2-6.6,43.1-25.6,49.6-49.9h0.1c0.1-0.2,0.1-0.5,0.1-0.8c9.7-37.8-13-76.3-50.8-86.1
	c-11.6-3-23.7-3-35.3,0c-0.2,0.1-0.5,0.1-0.8,0.1l0,0C32.9,8.8,13.9,27.7,7.3,52c0,0.2-0.1,0.3-0.2,0.4l0,0
	C-3,90.1,19.3,128.9,57,139.1c12,3.2,24.7,3.2,36.8,0l0,0C94,139.1,94.2,139,94.3,139z M110.5,123.8c7.4-14.9,8.8-38.3,2.1-63
	c-0.9-3.4-2-6.6-3.1-9.8c5.9,3.2,11.5,7.1,16.4,11.7c4.1,3.7,7.5,8.2,9.8,13.3c1.5,3.3,1.9,7.1,1.2,10.7c-2.8,11-8.5,21-16.5,29
	C117.4,118.7,114.1,121.4,110.5,123.8L110.5,123.8z M138.9,66.9c-6.6-9.8-18.3-19.1-33.4-26.1c-2.9-6.3-6.4-12.4-10.5-18
	c4.9-1.5,10.1-2,15.2-1.6c3.8,0.3,7.5,1.9,10.3,4.6C131.5,36.8,138,51.4,138.9,66.9L138.9,66.9z M79.4,7.4C88,7.9,96.3,10.1,104,14
	c-4.8,0.3-9.5,1.2-14,2.8C86.9,13.2,83.3,10.1,79.4,7.4z M87.7,25.2c2.8,3.6,5.3,7.5,7.5,11.5c-3.2-1.1-6.4-2.2-9.8-3.1
	s-6.7-1.6-10-2.2C79.4,29,83.5,27,87.7,25.2z M59.6,9.2C63.2,8.5,67,9,70.3,10.5c4.7,2.2,8.9,5.2,12.4,9
	c-6.4,2.8-12.4,6.3-18.1,10.4c-16.6-1.6-31.5,0.7-42.1,5.9c2.4-3.6,5.1-6.9,8.1-10C38.6,17.8,48.7,12.1,59.6,9.2L59.6,9.2z M14.3,54
	c1.2-3.5,3.4-6.6,6.5-8.8c4.6-3.2,9.7-5.4,15.1-6.6c6.6-1.5,13.3-2.2,20-2c-2.6,2.2-5.1,4.5-7.6,6.9c-18,18-28.6,39-29.7,55.6
	C11.7,85.1,10.1,69.1,14.3,54z M75.6,134.3c-16.9,0-33-6.7-44.9-18.6c-2.7-2.8-4.3-6.4-4.6-10.3C25.6,99.9,26.3,94.3,28,89
	c4-13.4,13.1-27.7,25.6-40.3c4.1-4.1,8.5-7.9,13.1-11.3c11.5,1.4,22.7,4.4,33.4,8.9c2.3,5.3,4.2,10.8,5.7,16.4
	c4.6,17.1,5.3,34.1,2,47.7c-1.2,5.4-3.4,10.6-6.6,15.1c-2.1,3.1-5.2,5.3-8.8,6.5C86.9,133.5,81.2,134.3,75.6,134.3L75.6,134.3z"/>
<path class="st2" d="M639.8,101.2h-3.2v-1.5h8v1.5h-3.2v10.4h-1.6V101.2z M653.7,111.6v-7l-0.5,1.1l-2.7,6.1l-2.8-6.1l-0.5-1.1v7
	h-1.6V99.8h1.3l3.2,7.4l0.3,0.8l0.3-0.8l3.2-7.4h1.3v11.8L653.7,111.6z"/>
</svg>
