<?xml version="1.0" encoding="UTF-8"?>
<svg version="1.1" xmlns="http://www.w3.org/2000/svg" width="890" height="148">
<path d="M0 0 C5.61 0 11.22 0 17 0 C17 31.35 17 62.7 17 95 C6 95 6 95 3.4140625 93.2265625 C2.82367188 92.36804688 2.23328125 91.50953125 1.625 90.625 C0.53251953 89.1090625 0.53251953 89.1090625 -0.58203125 87.5625 C-0.96697754 86.99402344 -1.35192383 86.42554687 -1.74853516 85.83984375 C-3.09171138 83.86517031 -4.48253209 81.93173402 -5.88671875 80 C-7.49722861 77.78428916 -9.10419772 75.5666755 -10.69726562 73.33837891 C-15.76566144 66.25287875 -21.0352793 59.32974021 -26.35571289 52.43212891 C-26.98856201 51.60890137 -27.62141113 50.78567383 -28.2734375 49.9375 C-28.82435059 49.22464844 -29.37526367 48.51179688 -29.94287109 47.77734375 C-33.05015804 43.58217447 -36.00618176 39.27688319 -39 35 C-39.33 54.8 -39.66 74.6 -40 95 C-45.94 95 -51.88 95 -58 95 C-58.15844334 84.96827306 -58.28673824 74.93738336 -58.3626852 64.90468597 C-58.39914489 60.24555298 -58.44855985 55.5873238 -58.52807617 50.92871094 C-58.60439905 46.42878909 -58.64604489 41.92973386 -58.6641407 37.42921448 C-58.67702809 35.71637841 -58.70219544 34.0035873 -58.7401104 32.29112244 C-59.06098648 17.19144681 -59.06098648 17.19144681 -54.59570312 12.04296875 C-53.42492323 10.99669443 -52.22919474 9.97698303 -51 9 C-50.26910156 8.1646875 -49.53820312 7.329375 -48.78515625 6.46875 C-47.19010417 4.64583333 -45.59505208 2.82291667 -44 1 C-40.77582501 2.37196174 -39.1326783 3.76919734 -37.109375 6.61328125 C-36.57272217 7.35634521 -36.03606934 8.09940918 -35.4831543 8.86499023 C-34.62524292 10.07650757 -34.62524292 10.07650757 -33.75 11.3125 C-32.5029705 13.04026792 -31.25420543 14.76678421 -30.00390625 16.4921875 C-29.35180176 17.39420898 -28.69969727 18.29623047 -28.02783203 19.22558594 C-24.64918332 23.8481436 -21.16928011 28.39239451 -17.6875 32.9375 C-12.08023099 40.25937075 -6.53395826 47.62138899 -1 55 C-0.67 36.85 -0.34 18.7 0 0 Z " fill="#000000" transform="translate(340,31)"/>
<path d="M0 0 C0.89976562 -0.020625 1.79953125 -0.04125 2.7265625 -0.0625 C12.90422962 -0.12099234 22.15985436 2.37249874 29.875 9.25 C32.14321383 12.11215848 34.07565735 15.07468945 35.875 18.25 C32.91772325 21.54525123 30.18229258 23.26116032 26.125 25 C25.14015625 25.42796875 24.1553125 25.8559375 23.140625 26.296875 C22.39296875 26.61140625 21.6453125 26.9259375 20.875 27.25 C20.38 26.5075 19.885 25.765 19.375 25 C14.98017335 20.16569069 9.0739499 17.62133571 2.578125 17.046875 C-4.08532436 16.91954794 -9.82039577 17.46174018 -15.125 21.9375 C-16.63884338 25.43826282 -17.01025032 28.51655299 -16.125 32.25 C-11.53487392 37.2451372 -4.57809121 37.62105346 1.83203125 38.85253906 C26.62931734 43.67686767 26.62931734 43.67686767 34.68359375 53.40625 C39.22734267 60.43788767 39.72508474 69.89547342 38.3125 78 C35.96651022 86.35663028 31.23044194 91.65550826 23.828125 95.9609375 C15.8311235 99.45169212 8.57779133 100.73469905 -0.125 100.625 C-1.04539062 100.63660156 -1.96578125 100.64820313 -2.9140625 100.66015625 C-13.69847874 100.61458829 -23.55031986 97.77525921 -31.328125 90.06640625 C-39.17179826 81.47504471 -39.17179826 81.47504471 -39.08203125 77.20703125 C-37.65529152 74.28949408 -35.64347139 73.44860128 -32.8125 71.9375 C-31.84699219 71.40511719 -30.88148438 70.87273437 -29.88671875 70.32421875 C-27.125 69.25 -27.125 69.25 -24.88671875 69.40625 C-22.01566155 70.78130179 -20.86356942 73.64214587 -19.125 76.25 C-10.58515114 82.93335997 -1.47441628 83.08547256 8.875 82.25 C13.43149537 81.09612491 16.11385873 79.28791991 18.9375 75.4375 C20.35081363 70.63223366 19.42997339 66.91492017 17.875 62.25 C14.39870012 60.51185006 10.77803938 59.66327986 7 58.8125 C5.85917969 58.55210938 4.71835937 58.29171875 3.54296875 58.0234375 C1.07571587 57.50318609 -1.40185912 57.0298976 -3.88671875 56.6015625 C-13.29904605 54.95706544 -23.50428182 52.72948397 -30.1875 45.3125 C-35.21528862 37.36535024 -36.26746095 30.72570551 -35.125 21.25 C-33.08821063 16.5752855 -29.61945947 13.82925707 -25.75 10.6875 C-24.90308594 9.98463867 -24.90308594 9.98463867 -24.0390625 9.26757812 C-22.92820484 8.34829199 -21.81273557 7.43454563 -20.69238281 6.52685547 C-19.26426057 5.36344748 -17.86109902 4.16956852 -16.4609375 2.97265625 C-11.56476707 -0.63806476 -5.85024651 0.03268294 0 0 Z " fill="#000000" transform="translate(521.125,27.75)"/>
<path d="M0 0 C3.84447938 3.13016066 6.26523362 6.89844734 8.5625 11.25 C5.60522325 14.54525123 2.86979258 16.26116032 -1.1875 18 C-2.17234375 18.42796875 -3.1571875 18.8559375 -4.171875 19.296875 C-4.91953125 19.61140625 -5.6671875 19.9259375 -6.4375 20.25 C-6.9325 19.5075 -7.4275 18.765 -7.9375 18 C-12.26255737 13.24243689 -18.08522737 10.68273074 -24.48046875 10.046875 C-30.9762519 9.90489067 -37.33075167 10.708115 -42.5 14.9375 C-43.86661093 18.30847364 -44.48645522 21.71667715 -43.4375 25.25 C-39.07348626 30.40222768 -32.6104704 30.68067247 -26.3125 31.75 C-0.96295237 36.14675168 -0.96295237 36.14675168 6.87109375 45.875 C11.95150711 53.91433543 12.36468463 63.1077919 10.5625 72.25 C7.69655629 81.27193938 2.28481849 86.16452587 -5.87890625 90.56640625 C-18.33060868 95.76820916 -36.19267144 95.32503728 -48.77734375 90.56640625 C-56.88606166 86.55372206 -63.12069374 80.85927537 -66.4375 72.25 C-66.41796875 70.15625 -66.41796875 70.15625 -65.4375 68.25 C-63.07421875 66.51171875 -63.07421875 66.51171875 -60.125 64.9375 C-59.15949219 64.40511719 -58.19398438 63.87273437 -57.19921875 63.32421875 C-54.4375 62.25 -54.4375 62.25 -52.2265625 62.375 C-50.02487958 63.45180562 -49.36090805 64.46370343 -48.125 66.5625 C-44.75911734 71.4950848 -41.14527616 73.5668617 -35.44921875 75.00390625 C-26.802577 76.61943626 -19.81170205 76.51521177 -11.9375 72.4375 C-9.18089612 70.02547161 -8.18464079 68.81967268 -7.4375 65.25 C-7.4375 60.93246405 -7.92470889 58.89465168 -10.625 55.5 C-15.70770749 51.78804656 -22.39552694 51.32426654 -28.4375 50.25 C-52.58773291 45.64389657 -52.58773291 45.64389657 -59.7578125 35.35546875 C-63.23096566 28.80991086 -63.40872327 21.49480062 -62.4375 14.25 C-60.51579707 10.01223817 -57.81696909 7.65626 -54.1875 4.8125 C-50.34638472 1.77710679 -46.63287122 -1.29886482 -43.0703125 -4.65625 C-32.11411581 -11.99532913 -9.84873388 -6.66291423 0 0 Z " fill="#000000" transform="translate(700.4375,34.75)"/>
<path d="M0 0 C1.24112549 0.01571045 1.24112549 0.01571045 2.50732422 0.03173828 C3.40322266 0.03818359 4.29912109 0.04462891 5.22216797 0.05126953 C6.62789062 0.07640625 6.62789062 0.07640625 8.06201172 0.10205078 C9.00689453 0.11107422 9.95177734 0.12009766 10.92529297 0.12939453 C13.26278464 0.15300556 15.59977295 0.18593562 17.93701172 0.22705078 C17.32451292 3.45736495 16.2385683 5.48841305 14.26904297 8.10595703 C13.43336792 9.22732056 13.43336792 9.22732056 12.58081055 10.37133789 C11.97648193 11.16934814 11.37215332 11.9673584 10.74951172 12.78955078 C9.47848711 14.48992866 8.20765975 16.19045399 6.93701172 17.89111328 C6.27958984 18.76670898 5.62216797 19.64230469 4.94482422 20.54443359 C1.68630186 24.89811108 -1.53031807 29.28247667 -4.75048828 33.66455078 C-5.89986929 35.22601271 -7.04958488 36.78722843 -8.19970703 38.34814453 C-8.68141357 39.00226318 -9.16312012 39.65638184 -9.65942383 40.33032227 C-11.06298828 42.22705078 -11.06298828 42.22705078 -12.80444336 44.15698242 C-14.30342571 46.18080655 -14.30342571 46.18080655 -13.91723633 48.72851562 C-13.03416836 51.3113443 -12.0398506 53.03509643 -10.39501953 55.20361328 C-9.83790283 55.94796631 -9.28078613 56.69231934 -8.70678711 57.45922852 C-7.80029419 58.64367554 -7.80029419 58.64367554 -6.87548828 59.85205078 C-5.60439331 61.54326042 -4.33356817 63.23467288 -3.06298828 64.92626953 C-2.07685547 66.23023682 -2.07685547 66.23023682 -1.07080078 67.56054688 C2.19778888 71.9014438 5.40866299 76.2845265 8.62451172 80.66455078 C9.77381747 82.2260681 10.92352798 83.78728762 12.07373047 85.34814453 C12.55543701 86.00226318 13.03714355 86.65638184 13.53344727 87.33032227 C14.52717353 88.67320961 15.55897971 89.98829908 16.6159668 91.28198242 C17.93701172 93.22705078 17.93701172 93.22705078 17.93701172 96.22705078 C0.63485902 97.83367925 0.63485902 97.83367925 -4.68017578 94.66845703 C-6.32127524 92.56420284 -7.66682666 90.43209508 -8.95019531 88.09521484 C-11.42421984 83.9418064 -14.48353835 80.15704987 -17.37548828 76.28955078 C-19.10649157 73.91175645 -20.83713417 71.53372556 -22.56420898 69.15307617 C-23.95888537 67.36082955 -25.41935073 65.79030135 -27.06298828 64.22705078 C-27.47025146 64.77006836 -27.87751465 65.31308594 -28.29711914 65.87255859 C-28.86825439 66.63407227 -29.43938965 67.39558594 -30.02783203 68.18017578 C-30.6577002 69.02225586 -31.28756836 69.86433594 -31.93652344 70.73193359 C-33.31940937 72.57120133 -34.71112868 74.40385868 -36.11132812 76.22998047 C-40.54339174 82.01399997 -40.54339174 82.01399997 -44.32470703 88.22705078 C-46.3548639 91.76812104 -47.68338445 93.90960816 -51.06298828 96.22705078 C-57.97797079 97.59917072 -65.10101929 96.96981317 -72.06298828 96.22705078 C-70.31394297 92.60548105 -68.16680226 89.41481136 -65.81298828 86.16455078 C-65.37825195 85.56022217 -64.94351563 84.95589355 -64.49560547 84.33325195 C-59.01612307 76.7393003 -53.44421605 69.21264738 -47.87744141 61.68261719 C-44.93504143 57.70055866 -41.99928388 53.7136114 -39.06298828 49.72705078 C-37.89635494 48.14369289 -36.72968824 46.56035958 -35.56298828 44.97705078 C-34.98548828 44.19330078 -34.40798828 43.40955078 -33.81298828 42.60205078 C-32.06298828 40.22705078 -30.31298828 37.85205078 -28.56298828 35.47705078 C-27.98452148 34.69193115 -27.40605469 33.90681152 -26.81005859 33.09790039 C-25.65338 31.52823775 -24.49648204 29.95873673 -23.33935547 28.3894043 C-20.26797301 24.22326736 -17.20140499 20.05368679 -14.14111328 15.87939453 C-13.50044922 15.00669922 -12.85978516 14.13400391 -12.19970703 13.23486328 C-10.96654051 11.5548973 -9.73471185 9.87394823 -8.50439453 8.19189453 C-7.95138672 7.43908203 -7.39837891 6.68626953 -6.82861328 5.91064453 C-6.34166992 5.24605225 -5.85472656 4.58145996 -5.35302734 3.89672852 C-2.55999606 0.28175105 -2.55999606 0.28175105 0 0 Z " fill="#000000" transform="translate(804.06298828125,29.77294921875)"/>
<path d="M0 0 C5.94 0 11.88 0 18 0 C17.9071875 2.59875 17.9071875 2.59875 17.8125 5.25 C17.84860468 15.46762578 19.80513293 25.35055527 27 33 C34.84760701 39.02979974 43.60770703 40.66877531 53.28125 39.5546875 C56.83615256 38.82940566 59.88976786 37.55511607 63.125 35.9375 C65 35 65 35 68 34 C68 28.39 68 22.78 68 17 C65.36 17 62.72 17 60 17 C60 11.39 60 5.78 60 0 C68.25 0 76.5 0 85 0 C85.16116616 5.8557037 85.30033288 11.7036554 85.38452148 17.55981445 C85.41962406 19.54933807 85.46731998 21.53868239 85.52807617 23.52758789 C85.61345001 26.39514447 85.65278867 29.26030637 85.68359375 32.12890625 C85.71972275 33.01147598 85.75585175 33.89404572 85.79307556 34.80335999 C85.79621518 39.79346412 85.17816523 42.38338971 81.61694336 45.9987793 C78.94270772 48.34542858 76.19958999 50.44872506 73.125 52.25 C71.98417969 52.93835938 71.98417969 52.93835938 70.8203125 53.640625 C63.08607911 57.36848264 56.25882144 58.52682891 47.6875 58.4375 C46.67220215 58.42992676 45.6569043 58.42235352 44.61083984 58.41455078 C31.2072268 58.12003675 21.25327754 53.79565408 11.3125 44.875 C2.07416133 35.18548665 -0.35552593 22.85625359 -0.125 10 C-0.11597656 9.03449219 -0.10695313 8.06898437 -0.09765625 7.07421875 C-0.07430791 4.71603674 -0.03844539 2.3579842 0 0 Z " fill="#000000" transform="translate(69,70)"/>
<path d="M0 0 C5.94 0 11.88 0 18 0 C18 31.35 18 62.7 18 95 C12.06 95 6.12 95 0 95 C0 63.65 0 32.3 0 0 Z " fill="#000000" transform="translate(588,31)"/>
<path d="M0 0 C22.77 0 45.54 0 69 0 C69 6.27 69 12.54 69 19 C46.23 19 23.46 19 0 19 C0 12.73 0 6.46 0 0 Z " fill="#000000" transform="translate(181,107)"/>
<path d="M0 0 C22.44 0 44.88 0 68 0 C68 6.27 68 12.54 68 19 C45.56 19 23.12 19 0 19 C0 12.73 0 6.46 0 0 Z " fill="#000000" transform="translate(388,107)"/>
<path d="M0 0 C1.33376735 0.00934257 2.66755203 0.01645185 4.00134277 0.0214386 C7.48698529 0.04039585 10.97156162 0.08939432 14.45678711 0.1449585 C18.02312808 0.19639807 21.58964382 0.21900488 25.15625 0.24414062 C32.1358949 0.29752826 39.11466127 0.38536819 46.09375 0.48828125 C46.09375 6.42828125 46.09375 12.36828125 46.09375 18.48828125 C20.68375 18.48828125 -4.72625 18.48828125 -30.90625 18.48828125 C-29.30551064 14.48643284 -28.4441617 12.55991893 -25.78125 9.48828125 C-25.24242188 8.84890625 -24.70359375 8.20953125 -24.1484375 7.55078125 C-16.46698155 0.48491236 -10.34517642 -0.21002626 0 0 Z " fill="#000000" transform="translate(107.90625,30.51171875)"/>
<path d="M0 0 C22.11 0 44.22 0 67 0 C67 5.61 67 11.22 67 17 C44.89 17 22.78 17 0 17 C0 11.39 0 5.78 0 0 Z " fill="#000000" transform="translate(181,70)"/>
<path d="M0 0 C21.78 0 43.56 0 66 0 C66 5.61 66 11.22 66 17 C44.22 17 22.44 17 0 17 C0 11.39 0 5.78 0 0 Z " fill="#000000" transform="translate(388,70)"/>
<path d="M0 0 C1.04077698 0.00022659 2.08155396 0.00045319 3.15386963 0.00068665 C4.27066101 0.0161705 5.38745239 0.03165436 6.53808594 0.04760742 C8.26088776 0.05397469 8.26088776 0.05397469 10.01849365 0.06047058 C13.68672124 0.07726284 17.3543994 0.1149172 21.02246094 0.15307617 C23.50943217 0.16812225 25.99641201 0.18181079 28.48339844 0.1940918 C34.57996429 0.22716835 40.67611946 0.27895547 46.77246094 0.34057617 C46.77246094 6.28057617 46.77246094 12.22057617 46.77246094 18.34057617 C24.00246094 18.34057617 1.23246094 18.34057617 -22.22753906 18.34057617 C-20.24753906 16.03057617 -18.26753906 13.72057617 -16.22753906 11.34057617 C-15.57527344 10.57229492 -14.92300781 9.80401367 -14.25097656 9.01245117 C-13.70699219 8.37823242 -13.16300781 7.74401367 -12.60253906 7.09057617 C-12.05339844 6.44604492 -11.50425781 5.80151367 -10.93847656 5.13745117 C-7.43042879 1.45320009 -5.17116305 -0.0376541 0 0 Z " fill="#000000" transform="translate(203.2275390625,30.659423828125)"/>
<path d="M0 0 C1.02090729 0.00007553 2.04181458 0.00015106 3.09365845 0.00022888 C4.75151871 0.00797081 4.75151871 0.00797081 6.44287109 0.01586914 C7.57203949 0.01728409 8.70120789 0.01869904 9.86459351 0.02015686 C13.48185848 0.02576796 17.09906223 0.03832237 20.71630859 0.05102539 C23.16422437 0.05603896 25.61214111 0.06060211 28.06005859 0.06469727 C34.07049896 0.075741 40.08089339 0.09301311 46.09130859 0.11352539 C46.09130859 6.05352539 46.09130859 11.99352539 46.09130859 18.11352539 C23.65130859 18.11352539 1.21130859 18.11352539 -21.90869141 18.11352539 C-20.28105162 14.85824581 -19.38213994 13.33726041 -16.93994141 10.91430664 C-16.36888672 10.34518555 -15.79783203 9.77606445 -15.20947266 9.18969727 C-14.61521484 8.60768555 -14.02095703 8.02567383 -13.40869141 7.42602539 C-12.81443359 6.83241211 -12.22017578 6.23879883 -11.60791016 5.62719727 C-7.62809935 1.68781343 -5.76473663 -0.01419886 0 0 Z " fill="#000000" transform="translate(409.90869140625,30.886474609375)"/>
<path d="M0 0 C4.90025583 2.08539784 7.63183467 5.27053359 10 10 C10.91469792 15.59490229 11.07496122 21.23570406 7.8125 26.0625 C4.97701587 29.60010401 1.62054595 31.73506061 -2.8671875 32.46875 C-8.76234082 32.52999835 -12.91027142 32.33909543 -17.59765625 28.58203125 C-22.03474417 23.57640282 -22.58635791 19.46828479 -22.41796875 12.94921875 C-21.81040874 8.66222989 -20.22620183 5.85976903 -17 3 C-11.57528041 -0.88266732 -6.4705304 -0.91701557 0 0 Z M-9 5 C-9 5.33 -9 5.66 -9 6 C-7.02 6 -5.04 6 -3 6 C-3 5.67 -3 5.34 -3 5 C-4.98 5 -6.96 5 -9 5 Z M-3 6 C-2.505 6.556875 -2.01 7.11375 -1.5 7.6875 C0.2666573 10.41109668 0.33531397 11.81451733 0 15 C-0.33 15.66 -0.66 16.32 -1 17 C-0.39239518 19.3494053 0.27129528 21.68529088 1 24 C4.1105542 22.38144216 4.1105542 22.38144216 4.6171875 20.01171875 C5.0488366 16.12033671 5.31489306 13.70476066 3.6875 10.0625 C2.01554746 7.94921164 2.01554746 7.94921164 0 6 C-0.99 6 -1.98 6 -3 6 Z M-13 7 C-15.42202052 9.7782 -16.88888651 11.57967973 -17.1796875 15.296875 C-16.9973429 17.72285099 -16.83734002 19.71039838 -16 22 C-14.68 22.99 -13.36 23.98 -12 25 C-12 19.06 -12 13.12 -12 7 C-12.33 7 -12.66 7 -13 7 Z M-7 11 C-7 11.99 -7 12.98 -7 14 C-6.01 13.67 -5.02 13.34 -4 13 C-4 12.34 -4 11.68 -4 11 C-4.99 11 -5.98 11 -7 11 Z M-7 19 C-7.66 21.64 -8.32 24.28 -9 27 C-7.02 27 -5.04 27 -3 27 C-3.66 24.36 -4.32 21.72 -5 19 C-5.66 19 -6.32 19 -7 19 Z " fill="#000000" transform="translate(855,30)"/>
<path d="M0 0 C17.20035483 -2.69555979 17.20035483 -2.69555979 23.23828125 1.58789062 C27.68577823 6.12749554 31.0102321 11.41987905 34 17 C34.5259375 17.8765625 35.051875 18.753125 35.59375 19.65625 C36 22 36 22 34.33203125 25.11328125 C33.51102197 26.19425469 32.67025165 27.26044395 31.8125 28.3125 C31.39935547 28.86228516 30.98621094 29.41207031 30.56054688 29.97851562 C29.33203125 31.55078125 29.33203125 31.55078125 27 34 C24 34 24 34 22.62475586 32.66162109 C22.15948486 32.03852051 21.69421387 31.41541992 21.21484375 30.7734375 C20.68858398 30.07750488 20.16232422 29.38157227 19.62011719 28.66455078 C18.78722168 27.53122314 18.78722168 27.53122314 17.9375 26.375 C17.36547852 25.6104248 16.79345703 24.84584961 16.20410156 24.05810547 C14.45735028 21.71403718 12.72652031 19.35899811 11 17 C10.48260254 16.29681641 9.96520508 15.59363281 9.43212891 14.86914062 C8.03065491 12.95968449 6.63752856 11.04460776 5.25 9.125 C4.83226318 8.54927246 4.41452637 7.97354492 3.98413086 7.38037109 C2.23066605 4.91922492 0.96283506 2.88850518 0 0 Z " fill="#000000" transform="translate(732,30)"/>
</svg>
