<svg width="463" height="147" viewBox="0 0 463 147" xmlns="http://www.w3.org/2000/svg" xmlns:xlink="http://www.w3.org/1999/xlink"><title>Group 113</title><defs><path id="path-1" d="M0 0H30V30H0z"/><path id="path-3" d="M0 0H30V30H0z"/><path id="path-5" d="M0 0H30V30H0z"/><path id="path-7" d="M0 0H30V30H0z"/><path id="path-9" d="M0 0H30V30H0z"/><path id="path-11" d="M0 0H30V30H0z"/><path id="path-13" d="M0 0H30V30H0z"/><path id="path-15" d="M0 0H30V30H0z"/><path id="path-17" d="M0 0H30V30H0z"/><path id="path-19" d="M0 0H30V30H0z"/><path id="path-21" d="M0 0H30V30H0z"/><path id="path-23" d="M0 0H34V30H0z"/><path id="path-25" d="M0 0H30V30H0z"/><path id="path-27" d="M0 0H30V30H0z"/><path id="path-29" d="M0 0H30V30H0z"/><path id="path-31" d="M0 0H30V30H0z"/></defs><g id="Company" stroke="none" stroke-width="1" fill="none" fill-rule="evenodd"><g id="Colossal_BetterWorld" transform="translate(-231.000000, -9902.000000)"><g id="Group-113" transform="translate(231.000000, 9902.000000)"><path d="M172 120.906671C165.883527 120.906671 160.907107 125.88324 160.907107 132.000271 160.907107 138.11676 165.883527 143.093329 172 143.093329 178.116473 143.093329 183.092893 138.11676 183.092893 132.000271 183.092893 125.88324 178.116473 120.906671 172 120.906671M172 147C163.728998 147 157 140.271211 157 132.000271 157 123.728789 163.728998 117 172 117 180.271002 117 187 123.728789 187 132.000271 187 140.271211 180.271002 147 172 147" id="Fill-1" fill="#fff"/><path d="M210 120.906671C203.883527 120.906671 198.907107 125.88324 198.907107 132.000271 198.907107 138.11676 203.883527 143.093329 210 143.093329 216.116473 143.093329 221.092893 138.11676 221.092893 132.000271 221.092893 125.88324 216.116473 120.906671 210 120.906671M210 147C201.728998 147 195 140.271211 195 132.000271 195 123.728789 201.728998 117 210 117 218.270454 117 225 123.728789 225 132.000271 225 140.271211 218.270454 147 210 147" id="Fill-3" fill="#fff"/><path d="M249 120.906671C242.883527 120.906671 237.907107 125.88324 237.907107 132.000271 237.907107 138.11676 242.883527 143.093329 249 143.093329 255.116473 143.093329 260.092893 138.11676 260.092893 132.000271 260.092893 125.88324 255.116473 120.906671 249 120.906671M249 147C240.728998 147 234 140.271211 234 132.000271 234 123.728789 240.728998 117 249 117 257.271002 117 264 123.728789 264 132.000271 264 140.271211 257.271002 147 249 147" id="Fill-5" fill="#fff"/><path d="M172 81.9066713C165.883527 81.9066713 160.907107 86.8832395 160.907107 93.0002714 160.907107 99.1167605 165.883527 104.093329 172 104.093329 178.116473 104.093329 183.092893 99.1167605 183.092893 93.0002714 183.092893 86.8832395 178.116473 81.9066713 172 81.9066713M172 108C163.728998 108 157 101.271211 157 93.0002714 157 84.7287893 163.728998 78 172 78 180.271002 78 187 84.7287893 187 93.0002714 187 101.271211 180.271002 108 172 108" id="Fill-7" fill="#fff"/><path d="M210 81.9066713C203.883527 81.9066713 198.907107 86.8832395 198.907107 93.0002714 198.907107 99.1167605 203.883527 104.093329 210 104.093329 216.116473 104.093329 221.092893 99.1167605 221.092893 93.0002714 221.092893 86.8832395 216.116473 81.9066713 210 81.9066713M210 108C201.728998 108 195 101.271211 195 93.0002714 195 84.7287893 201.728998 78 210 78 218.270454 78 225 84.7287893 225 93.0002714 225 101.271211 218.270454 108 210 108" id="Fill-9" fill="#fff"/><path d="M287.999726 81.9066713C281.883141 81.9066713 276.90663 86.8832395 276.90663 93.0002714 276.90663 99.1167605 281.883141 104.093329 287.999726 104.093329 294.116311 104.093329 299.092822 99.1167605 299.092822 93.0002714 299.092822 86.8832395 294.116311 81.9066713 287.999726 81.9066713m0 26.0933287C279.728572 108 273 101.271211 273 93.0002714 273 84.7287893 279.728572 78 287.999726 78 296.270331 78 303 84.7287893 303 93.0002714 303 101.271211 296.270331 108 287.999726 108" id="Fill-11" fill="#fff"/><path d="M287.999726 120.907143C281.883141 120.907143 276.90663 125.883079 276.90663 132 276.90663 138.116921 281.883141 143.092857 287.999726 143.092857 294.116311 143.092857 299.092822 138.116921 299.092822 132 299.092822 125.883079 294.116311 120.907143 287.999726 120.907143M287.999726 147C279.728572 147 273 140.271332 273 132 273 123.728668 279.728572 117 287.999726 117 296.270331 117 303 123.728668 303 132 303 140.271332 296.270331 147 287.999726 147" id="Fill-13" fill="#fff"/><path d="M249 81.9066713C242.883527 81.9066713 237.907107 86.8832395 237.907107 93.0002714 237.907107 99.1167605 242.883527 104.093329 249 104.093329 255.116473 104.093329 260.092893 99.1167605 260.092893 93.0002714 260.092893 86.8832395 255.116473 81.9066713 249 81.9066713M249 108C240.728998 108 234 101.271211 234 93.0002714 234 84.7287893 240.728998 78 249 78 257.271002 78 264 84.7287893 264 93.0002714 264 101.271211 257.271002 108 249 108" id="Fill-15" fill="#fff"/><path d="M172 42.9066713C165.883527 42.9066713 160.907107 47.8832395 160.907107 54.0002714 160.907107 60.1167605 165.883527 65.0933287 172 65.0933287 178.116473 65.0933287 183.092893 60.1167605 183.092893 54.0002714 183.092893 47.8832395 178.116473 42.9066713 172 42.9066713M172 69C163.728998 69 157 62.2712107 157 54.0002714 157 45.7287893 163.728998 39 172 39 180.271002 39 187 45.7287893 187 54.0002714 187 62.2712107 180.271002 69 172 69" id="Fill-17" fill="#fff"/><path d="M210 42.9066713C203.883527 42.9066713 198.907107 47.8832395 198.907107 54.0002714 198.907107 60.1167605 203.883527 65.0933287 210 65.0933287 216.116473 65.0933287 221.092893 60.1167605 221.092893 54.0002714 221.092893 47.8832395 216.116473 42.9066713 210 42.9066713M210 69C201.728998 69 195 62.2712107 195 54.0002714 195 45.7287893 201.728998 39 210 39 218.270454 39 225 45.7287893 225 54.0002714 225 62.2712107 218.270454 69 210 69" id="Fill-19" fill="#fff"/><path d="M249 42.9066713C242.883527 42.9066713 237.907107 47.8832395 237.907107 54.0002714 237.907107 60.1167605 242.883527 65.0933287 249 65.0933287 255.116473 65.0933287 260.092893 60.1167605 260.092893 54.0002714 260.092893 47.8832395 255.116473 42.9066713 249 42.9066713M249 69C240.728998 69 234 62.2712107 234 54.0002714 234 45.7287893 240.728998 39 249 39 257.271002 39 264 45.7287893 264 54.0002714 264 62.2712107 257.271002 69 249 69" id="Fill-21" fill="#fff"/><path d="M287.999726 42.9066713C281.883141 42.9066713 276.90663 47.8832395 276.90663 54.0002714 276.90663 60.1167605 281.883141 65.0933287 287.999726 65.0933287 294.116311 65.0933287 299.092822 60.1167605 299.092822 54.0002714 299.092822 47.8832395 294.116311 42.9066713 287.999726 42.9066713m0 26.0933287C279.728572 69 273 62.2712107 273 54.0002714 273 45.7287893 279.728572 39 287.999726 39 296.270331 39 303 45.7287893 303 54.0002714 303 62.2712107 296.270331 69 287.999726 69" id="Fill-23" fill="#fff"/><g id="Group-27" transform="translate(157.000000, 0.000000)"><mask id="mask-2" fill="#fff"><use xlink:href="#path-1"/></mask><g id="Clip-26"/><path d="M15 3.90657682C8.88352709 3.90657682 3.90710682 8.88316313 3.90710682 15.0002171 3.90710682 21.1167283 8.88352709 26.0933146 15 26.0933146 21.1164729 26.0933146 26.0928932 21.1167283 26.0928932 15.0002171 26.0928932 8.88316313 21.1164729 3.90657682 15 3.90657682M15 30C6.72899759 30 0 23.2711863.0 15.0002171.0 6.72870512 6.72899759-.000108564274 15-.000108564274c8.2710024.0 15 6.728813684274 15 15.000325664274001C30 23.2711863 23.2710024 30 15 30" id="Fill-25" fill="#fff" mask="url(#mask-2)"/></g><g id="Group-30" transform="translate(195.000000, 0.000000)"><mask id="mask-4" fill="#fff"><use xlink:href="#path-3"/></mask><g id="Clip-29"/><path d="M15 3.90657682C8.88352709 3.90657682 3.90710682 8.88316313 3.90710682 15.0002171 3.90710682 21.1167283 8.88352709 26.0933146 15 26.0933146 21.1164729 26.0933146 26.0928932 21.1167283 26.0928932 15.0002171 26.0928932 8.88316313 21.1164729 3.90657682 15 3.90657682M15 30C6.72899759 30 0 23.2711863.0 15.0002171.0 6.72870512 6.72899759-.000108564274 15-.000108564274c8.270454.0 15 6.728813684274 15 15.000325664274001C30 23.2711863 23.270454 30 15 30" id="Fill-28" fill="#fff" mask="url(#mask-4)"/></g><g id="Group-33" transform="translate(234.000000, 0.000000)"><mask id="mask-6" fill="#fff"><use xlink:href="#path-5"/></mask><g id="Clip-32"/><path d="M15 3.90657682C8.88352709 3.90657682 3.90710682 8.88316313 3.90710682 15.0002171 3.90710682 21.1167283 8.88352709 26.0933146 15 26.0933146 21.1164729 26.0933146 26.0928932 21.1167283 26.0928932 15.0002171 26.0928932 8.88316313 21.1164729 3.90657682 15 3.90657682M15 30C6.72899759 30 0 23.2711863.0 15.0002171.0 6.72870512 6.72899759-.000108564274 15-.000108564274c8.2710024.0 15 6.728813684274 15 15.000325664274001C30 23.2711863 23.2710024 30 15 30" id="Fill-31" fill="#fff" mask="url(#mask-6)"/></g><g id="Group-36" transform="translate(273.000000, 0.000000)"><mask id="mask-8" fill="#fff"><use xlink:href="#path-7"/></mask><g id="Clip-35"/><path d="M14.9997258 3.90657682C8.8831411 3.90657682 3.90662986 8.88316313 3.90662986 15.0002171 3.90662986 21.1167283 8.8831411 26.0933146 14.9997258 26.0933146 21.1163105 26.0933146 26.0928218 21.1167283 26.0928218 15.0002171 26.0928218 8.88316313 21.1163105 3.90657682 14.9997258 3.90657682M14.9997258 30C6.72857221 30 0 23.2711863.0 15.0002171.0 6.72870512 6.72857221-.000108564274 14.9997258-.000108564274 23.270331-.000108564274 30 6.72870512 30 15.0002171 30 23.2711863 23.270331 30 14.9997258 30" id="Fill-34" fill="#fff" mask="url(#mask-8)"/></g><g id="Group-39" transform="translate(0.000000, 117.000000)"><mask id="mask-10" fill="#fff"><use xlink:href="#path-9"/></mask><g id="Clip-38"/><path d="M14.9997258 3.90667125C8.8831411 3.90667125 3.90662986 8.88323955 3.90662986 15.0002714 3.90662986 21.1167605 8.8831411 26.0933287 14.9997258 26.0933287 21.1163105 26.0933287 26.0928218 21.1167605 26.0928218 15.0002714 26.0928218 8.88323955 21.1163105 3.90667125 14.9997258 3.90667125M14.9997258 30C6.72912059 30-.000548375894 23.2712107-.000548375894 15.0002714-.000548375894 6.72878933 6.72912059.0 14.9997258.0 23.2708794.0 30 6.72878933 30 15.0002714 30 23.2712107 23.2708794 30 14.9997258 30" id="Fill-37" fill="#fff" mask="url(#mask-10)"/></g><path d="M54 120.906671C47.8835271 120.906671 42.9071068 125.88324 42.9071068 132.000271 42.9071068 138.11676 47.8835271 143.093329 54 143.093329 60.1164729 143.093329 65.0928932 138.11676 65.0928932 132.000271 65.0928932 125.88324 60.1164729 120.906671 54 120.906671M54 147C45.7289976 147 39 140.271211 39 132.000271 39 123.728789 45.7289976 117 54 117 62.2710024 117 69 123.728789 69 132.000271 69 140.271211 62.2710024 147 54 147" id="Fill-40" fill="#fff"/><path d="M93 120.906671C86.8835271 120.906671 81.9071068 125.88324 81.9071068 132.000271 81.9071068 138.11676 86.8835271 143.093329 93 143.093329 99.1164729 143.093329 104.092893 138.11676 104.092893 132.000271 104.092893 125.88324 99.1164729 120.906671 93 120.906671M93 147C84.729546 147 78 140.271211 78 132.000271 78 123.728789 84.729546 117 93 117 101.271002 117 108 123.728789 108 132.000271 108 140.271211 101.271002 147 93 147" id="Fill-42" fill="#fff"/><g id="Group-46" transform="translate(0.000000, 78.000000)"><mask id="mask-12" fill="#fff"><use xlink:href="#path-11"/></mask><g id="Clip-45"/><path d="M14.9997258 3.90667125C8.8831411 3.90667125 3.90662986 8.88323955 3.90662986 15.0002714 3.90662986 21.1167605 8.8831411 26.0933287 14.9997258 26.0933287 21.1163105 26.0933287 26.0928218 21.1167605 26.0928218 15.0002714 26.0928218 8.88323955 21.1163105 3.90667125 14.9997258 3.90667125M14.9997258 30C6.72912059 30-.000548375894 23.2712107-.000548375894 15.0002714-.000548375894 6.72878933 6.72912059.0 14.9997258.0 23.2708794.0 30 6.72878933 30 15.0002714 30 23.2712107 23.2708794 30 14.9997258 30" id="Fill-44" fill="#fff" mask="url(#mask-12)"/></g><path d="M54 81.9066713C47.8835271 81.9066713 42.9071068 86.8832395 42.9071068 93.0002714 42.9071068 99.1167605 47.8835271 104.093329 54 104.093329 60.1164729 104.093329 65.0928932 99.1167605 65.0928932 93.0002714 65.0928932 86.8832395 60.1164729 81.9066713 54 81.9066713M54 108C45.7289976 108 39 101.271211 39 93.0002714 39 84.7287893 45.7289976 78 54 78 62.2710024 78 69 84.7287893 69 93.0002714 69 101.271211 62.2710024 108 54 108" id="Fill-47" fill="#fff"/><path d="M132 81.9066713C125.883527 81.9066713 120.907107 86.8832395 120.907107 93.0002714 120.907107 99.1167605 125.883527 104.093329 132 104.093329 138.116473 104.093329 143.092893 99.1167605 143.092893 93.0002714 143.092893 86.8832395 138.116473 81.9066713 132 81.9066713M132 108C123.728998 108 117 101.271211 117 93.0002714 117 84.7287893 123.728998 78 132 78 140.271002 78 147 84.7287893 147 93.0002714 147 101.271211 140.271002 108 132 108" id="Fill-49" fill="#fff"/><path d="M132 120.907143C125.883527 120.907143 120.907107 125.883079 120.907107 132 120.907107 138.116921 125.883527 143.092857 132 143.092857 138.116473 143.092857 143.092893 138.116921 143.092893 132 143.092893 125.883079 138.116473 120.907143 132 120.907143M132 147C123.728998 147 117 140.271332 117 132 117 123.728668 123.728998 117 132 117 140.271002 117 147 123.728668 147 132 147 140.271332 140.271002 147 132 147" id="Fill-51" fill="#fff"/><path d="M93 81.9066713C86.8835271 81.9066713 81.9071068 86.8832395 81.9071068 93.0002714 81.9071068 99.1167605 86.8835271 104.093329 93 104.093329 99.1164729 104.093329 104.092893 99.1167605 104.092893 93.0002714 104.092893 86.8832395 99.1164729 81.9066713 93 81.9066713M93 108C84.729546 108 78 101.271211 78 93.0002714 78 84.7287893 84.729546 78 93 78 101.271002 78 108 84.7287893 108 93.0002714 108 101.271211 101.271002 108 93 108" id="Fill-53" fill="#fff"/><g id="Group-57" transform="translate(0.000000, 39.000000)"><mask id="mask-14" fill="#fff"><use xlink:href="#path-13"/></mask><g id="Clip-56"/><path d="M14.9997258 3.90667125C8.8831411 3.90667125 3.90662986 8.88323955 3.90662986 15.0002714 3.90662986 21.1167605 8.8831411 26.0933287 14.9997258 26.0933287 21.1163105 26.0933287 26.0928218 21.1167605 26.0928218 15.0002714 26.0928218 8.88323955 21.1163105 3.90667125 14.9997258 3.90667125M14.9997258 30C6.72912059 30-.000548375894 23.2712107-.000548375894 15.0002714-.000548375894 6.72878933 6.72912059.0 14.9997258.0 23.2708794.0 30 6.72878933 30 15.0002714 30 23.2712107 23.2708794 30 14.9997258 30" id="Fill-55" fill="#fff" mask="url(#mask-14)"/></g><path d="M54 42.9066713C47.8835271 42.9066713 42.9071068 47.8832395 42.9071068 54.0002714 42.9071068 60.1167605 47.8835271 65.0933287 54 65.0933287 60.1164729 65.0933287 65.0928932 60.1167605 65.0928932 54.0002714 65.0928932 47.8832395 60.1164729 42.9066713 54 42.9066713M54 69C45.7289976 69 39 62.2712107 39 54.0002714 39 45.7287893 45.7289976 39 54 39 62.2710024 39 69 45.7287893 69 54.0002714 69 62.2712107 62.2710024 69 54 69" id="Fill-58" fill="#fff"/><path d="M93 42.9066713C86.8835271 42.9066713 81.9071068 47.8832395 81.9071068 54.0002714 81.9071068 60.1167605 86.8835271 65.0933287 93 65.0933287 99.1164729 65.0933287 104.092893 60.1167605 104.092893 54.0002714 104.092893 47.8832395 99.1164729 42.9066713 93 42.9066713M93 69C84.729546 69 78 62.2712107 78 54.0002714 78 45.7287893 84.729546 39 93 39 101.271002 39 108 45.7287893 108 54.0002714 108 62.2712107 101.271002 69 93 69" id="Fill-60" fill="#fff"/><path d="M132 42.9066713C125.883527 42.9066713 120.907107 47.8832395 120.907107 54.0002714 120.907107 60.1167605 125.883527 65.0933287 132 65.0933287 138.116473 65.0933287 143.092893 60.1167605 143.092893 54.0002714 143.092893 47.8832395 138.116473 42.9066713 132 42.9066713M132 69C123.728998 69 117 62.2712107 117 54.0002714 117 45.7287893 123.728998 39 132 39 140.271002 39 147 45.7287893 147 54.0002714 147 62.2712107 140.271002 69 132 69" id="Fill-62" fill="#fff"/><g id="Group-66"><mask id="mask-16" fill="#fff"><use xlink:href="#path-15"/></mask><g id="Clip-65"/><path d="M14.9997258 3.90657682C8.8831411 3.90657682 3.90662986 8.88316313 3.90662986 15.0002171 3.90662986 21.1167283 8.8831411 26.0933146 14.9997258 26.0933146 21.1163105 26.0933146 26.0928218 21.1167283 26.0928218 15.0002171 26.0928218 8.88316313 21.1163105 3.90657682 14.9997258 3.90657682M14.9997258 30C6.72912059 30-.000548375894 23.2711863-.000548375894 15.0002171-.000548375894 6.72870512 6.72912059-.000108564274 14.9997258-.000108564274 23.2708794-.000108564274 30 6.72870512 30 15.0002171 30 23.2711863 23.2708794 30 14.9997258 30" id="Fill-64" fill="#fff" mask="url(#mask-16)"/></g><g id="Group-69" transform="translate(39.000000, 0.000000)"><mask id="mask-18" fill="#fff"><use xlink:href="#path-17"/></mask><g id="Clip-68"/><path d="M15 3.90657682C8.88352709 3.90657682 3.90710682 8.88316313 3.90710682 15.0002171 3.90710682 21.1167283 8.88352709 26.0933146 15 26.0933146 21.1164729 26.0933146 26.0928932 21.1167283 26.0928932 15.0002171 26.0928932 8.88316313 21.1164729 3.90657682 15 3.90657682M15 30C6.72899759 30 0 23.2711863.0 15.0002171.0 6.72870512 6.72899759-.000108564274 15-.000108564274c8.2710024.0 15 6.728813684274 15 15.000325664274001C30 23.2711863 23.2710024 30 15 30" id="Fill-67" fill="#fff" mask="url(#mask-18)"/></g><g id="Group-72" transform="translate(78.000000, 0.000000)"><mask id="mask-20" fill="#fff"><use xlink:href="#path-19"/></mask><g id="Clip-71"/><path d="M15 3.90657682C8.88352709 3.90657682 3.90710682 8.88316313 3.90710682 15.0002171 3.90710682 21.1167283 8.88352709 26.0933146 15 26.0933146 21.1164729 26.0933146 26.0928932 21.1167283 26.0928932 15.0002171 26.0928932 8.88316313 21.1164729 3.90657682 15 3.90657682M15 30C6.72954595 30 0 23.2711863.0 15.0002171.0 6.72870512 6.72954595-.000108564274 15-.000108564274c8.2710024.0 15 6.728813684274 15 15.000325664274001C30 23.2711863 23.2710024 30 15 30" id="Fill-70" fill="#fff" mask="url(#mask-20)"/></g><g id="Group-75" transform="translate(117.000000, 0.000000)"><mask id="mask-22" fill="#fff"><use xlink:href="#path-21"/></mask><g id="Clip-74"/><path d="M15 3.90657682C8.88352709 3.90657682 3.90710682 8.88316313 3.90710682 15.0002171 3.90710682 21.1167283 8.88352709 26.0933146 15 26.0933146 21.1164729 26.0933146 26.0928932 21.1167283 26.0928932 15.0002171 26.0928932 8.88316313 21.1164729 3.90657682 15 3.90657682M15 30C6.72899759 30 0 23.2711863.0 15.0002171.0 6.72870512 6.72899759-.000108564274 15-.000108564274c8.2710024.0 15 6.728813684274 15 15.000325664274001C30 23.2711863 23.2710024 30 15 30" id="Fill-73" fill="#fff" mask="url(#mask-22)"/></g><g id="Group-78" transform="translate(429.000000, 117.000000)"><mask id="mask-24" fill="#fff"><use xlink:href="#path-23"/></mask><g id="Clip-77"/><path d="M26.2091876 18.8990089C26.0146672 18.8748743 25.8282971 18.9848209 25.7554878 19.165026 24.941545 21.1692713 23.5701221 22.8876555 21.7721671 24.1507001 19.7883853 25.5440716 17.4411004 26.2622104 14.9987288 26.2209134 8.75994979 26.1168664 3.80674398 21.122611 3.82678706 14.9629221 3.8469521 8.79143408 8.93979963 3.77733469 15.1965093 3.77733469 17.1933315 3.77733469 19.1586392 4.29756962 20.8805248 5.28279805 22.4720057 6.19347735 23.825498 7.4790476 24.8100536 9.01186352 24.8997069 9.15238059 25.0648862 9.22746604 25.2311522 9.20494041L27.9196628 8.84345757C28.3950966 8.76622682 28.8618368 9.02366266 29.0438601 9.46398522 29.7692363 11.2193759 30.1370863 13.0772046 30.1370863 14.9993922 30.1370863 16.1578535 30.0007047 17.3023704 29.7312016 18.4163167 29.6051437 18.937088 29.0943919 19.2744362 28.5586459 19.1880879L26.2091876 18.8990089zM32.6962788 8.20898548C32.6310765 8.04647911 32.4631804 7.94725904 32.287134 7.96978468L29.5969934 8.31571409C29.1666579 8.38489998 28.7368656 8.18216925 28.5276747 7.80459668 27.3051305 5.60459286 25.5414067 3.73657401 23.3902723 2.37216404 20.9440971.820040429 18.1110547.0 15.1965093.0 6.81094263.0-.0108540944 6.73945587 262900813e-20 15.0197725.0108800251 23.3762473 6.87777505 30.0776241 15.3432146 29.9993207 18.5794249 29.9698229 21.6591497 28.9459791 24.2569203 27.0350542 25.5256495 26.1023856 26.6357197 24.9857577 27.556703 23.7162771 28.3049 22.6859974 28.9139987 21.5731237 29.3736753 20.3996454 29.5502651 19.9491326 30.0218955 19.6820429 30.5043929 19.75981L32.9494813 20.0547886C33.1412849 20.0778506 33.3200481 19.9582501 33.3700365 19.7742908 33.787875 18.2216308 34.000326 16.6174837 34.000326 14.9993922 34.000326 12.655117 33.5612968 10.3725192 32.6962788 8.20898548v0z" id="Fill-76" fill="#000" mask="url(#mask-24)"/></g><path d="M327 120.906671C320.883527 120.906671 315.907107 125.88324 315.907107 132.000271 315.907107 138.11676 320.883527 143.093329 327 143.093329 333.116473 143.093329 338.092893 138.11676 338.092893 132.000271 338.092893 125.88324 333.116473 120.906671 327 120.906671M327 147C318.729546 147 312 140.271211 312 132.000271 312 123.728789 318.729546 117 327 117 335.271002 117 342 123.728789 342 132.000271 342 140.271211 335.271002 147 327 147" id="Fill-79" fill="#fff"/><path d="M366 120.906671C359.883527 120.906671 354.907107 125.88324 354.907107 132.000271 354.907107 138.11676 359.883527 143.093329 366 143.093329 372.116473 143.093329 377.092893 138.11676 377.092893 132.000271 377.092893 125.88324 372.116473 120.906671 366 120.906671M366 147C357.728998 147 351 140.271211 351 132.000271 351 123.728789 357.728998 117 366 117 374.271002 117 381 123.728789 381 132.000271 381 140.271211 374.271002 147 366 147" id="Fill-81" fill="#fff"/><path d="M405 120.906671C398.883527 120.906671 393.907107 125.88324 393.907107 132.000271 393.907107 138.11676 398.883527 143.093329 405 143.093329 411.116473 143.093329 416.092893 138.11676 416.092893 132.000271 416.092893 125.88324 411.116473 120.906671 405 120.906671M405 147C396.729546 147 390 140.271211 390 132.000271 390 123.728789 396.729546 117 405 117 413.271002 117 420 123.728789 420 132.000271 420 140.271211 413.271002 147 405 147" id="Fill-83" fill="#fff"/><path d="M327 81.9066713C320.883527 81.9066713 315.907107 86.8832395 315.907107 93.0002714 315.907107 99.1167605 320.883527 104.093329 327 104.093329 333.116473 104.093329 338.092893 99.1167605 338.092893 93.0002714 338.092893 86.8832395 333.116473 81.9066713 327 81.9066713M327 108C318.729546 108 312 101.271211 312 93.0002714 312 84.7287893 318.729546 78 327 78 335.271002 78 342 84.7287893 342 93.0002714 342 101.271211 335.271002 108 327 108" id="Fill-85" fill="#fff"/><path d="M366 81.9066713C359.883527 81.9066713 354.907107 86.8832395 354.907107 93.0002714 354.907107 99.1167605 359.883527 104.093329 366 104.093329 372.116473 104.093329 377.092893 99.1167605 377.092893 93.0002714 377.092893 86.8832395 372.116473 81.9066713 366 81.9066713M366 108C357.728998 108 351 101.271211 351 93.0002714 351 84.7287893 357.728998 78 366 78 374.271002 78 381 84.7287893 381 93.0002714 381 101.271211 374.271002 108 366 108" id="Fill-87" fill="#fff"/><path d="M444 81.9066713C437.883527 81.9066713 432.907107 86.8832395 432.907107 93.0002714 432.907107 99.1167605 437.883527 104.093329 444 104.093329 450.116473 104.093329 455.092893 99.1167605 455.092893 93.0002714 455.092893 86.8832395 450.116473 81.9066713 444 81.9066713M444 108C435.728998 108 429 101.271211 429 93.0002714 429 84.7287893 435.728998 78 444 78 452.271002 78 459 84.7287893 459 93.0002714 459 101.271211 452.271002 108 444 108" id="Fill-89" fill="#fff"/><path d="M405 81.9066713C398.883527 81.9066713 393.907107 86.8832395 393.907107 93.0002714 393.907107 99.1167605 398.883527 104.093329 405 104.093329 411.116473 104.093329 416.092893 99.1167605 416.092893 93.0002714 416.092893 86.8832395 411.116473 81.9066713 405 81.9066713M405 108C396.729546 108 390 101.271211 390 93.0002714 390 84.7287893 396.729546 78 405 78 413.271002 78 420 84.7287893 420 93.0002714 420 101.271211 413.271002 108 405 108" id="Fill-91" fill="#fff"/><path d="M327 42.9066713C320.883527 42.9066713 315.907107 47.8832395 315.907107 54.0002714 315.907107 60.1167605 320.883527 65.0933287 327 65.0933287 333.116473 65.0933287 338.092893 60.1167605 338.092893 54.0002714 338.092893 47.8832395 333.116473 42.9066713 327 42.9066713M327 69C318.729546 69 312 62.2712107 312 54.0002714 312 45.7287893 318.729546 39 327 39 335.271002 39 342 45.7287893 342 54.0002714 342 62.2712107 335.271002 69 327 69" id="Fill-93" fill="#fff"/><path d="M366 42.9066713C359.883527 42.9066713 354.907107 47.8832395 354.907107 54.0002714 354.907107 60.1167605 359.883527 65.0933287 366 65.0933287 372.116473 65.0933287 377.092893 60.1167605 377.092893 54.0002714 377.092893 47.8832395 372.116473 42.9066713 366 42.9066713M366 69C357.728998 69 351 62.2712107 351 54.0002714 351 45.7287893 357.728998 39 366 39 374.271002 39 381 45.7287893 381 54.0002714 381 62.2712107 374.271002 69 366 69" id="Fill-95" fill="#fff"/><path d="M405 42.9066713C398.883527 42.9066713 393.907107 47.8832395 393.907107 54.0002714 393.907107 60.1167605 398.883527 65.0933287 405 65.0933287 411.116473 65.0933287 416.092893 60.1167605 416.092893 54.0002714 416.092893 47.8832395 411.116473 42.9066713 405 42.9066713M405 69C396.729546 69 390 62.2712107 390 54.0002714 390 45.7287893 396.729546 39 405 39 413.271002 39 420 45.7287893 420 54.0002714 420 62.2712107 413.271002 69 405 69" id="Fill-97" fill="#fff"/><path d="M444 42.9066713C437.883527 42.9066713 432.907107 47.8832395 432.907107 54.0002714 432.907107 60.1167605 437.883527 65.0933287 444 65.0933287 450.116473 65.0933287 455.092893 60.1167605 455.092893 54.0002714 455.092893 47.8832395 450.116473 42.9066713 444 42.9066713M444 69C435.728998 69 429 62.2712107 429 54.0002714 429 45.7287893 435.728998 39 444 39 452.271002 39 459 45.7287893 459 54.0002714 459 62.2712107 452.271002 69 444 69" id="Fill-99" fill="#fff"/><g id="Group-103" transform="translate(312.000000, 0.000000)"><mask id="mask-26" fill="#fff"><use xlink:href="#path-25"/></mask><g id="Clip-102"/><path d="M15 3.90657682C8.88352709 3.90657682 3.90710682 8.88316313 3.90710682 15.0002171 3.90710682 21.1167283 8.88352709 26.0933146 15 26.0933146 21.1164729 26.0933146 26.0928932 21.1167283 26.0928932 15.0002171 26.0928932 8.88316313 21.1164729 3.90657682 15 3.90657682M15 30C6.72954595 30 0 23.2711863.0 15.0002171.0 6.72870512 6.72954595-.000108564274 15-.000108564274c8.2710024.0 15 6.728813684274 15 15.000325664274001C30 23.2711863 23.2710024 30 15 30" id="Fill-101" fill="#fff" mask="url(#mask-26)"/></g><g id="Group-106" transform="translate(351.000000, 0.000000)"><mask id="mask-28" fill="#fff"><use xlink:href="#path-27"/></mask><g id="Clip-105"/><path d="M15 3.90657682C8.88352709 3.90657682 3.90710682 8.88316313 3.90710682 15.0002171 3.90710682 21.1167283 8.88352709 26.0933146 15 26.0933146 21.1164729 26.0933146 26.0928932 21.1167283 26.0928932 15.0002171 26.0928932 8.88316313 21.1164729 3.90657682 15 3.90657682M15 30C6.72899759 30 0 23.2711863.0 15.0002171.0 6.72870512 6.72899759-.000108564274 15-.000108564274c8.2710024.0 15 6.728813684274 15 15.000325664274001C30 23.2711863 23.2710024 30 15 30" id="Fill-104" fill="#fff" mask="url(#mask-28)"/></g><g id="Group-109" transform="translate(390.000000, 0.000000)"><mask id="mask-30" fill="#fff"><use xlink:href="#path-29"/></mask><g id="Clip-108"/><path d="M15 3.90657682C8.88352709 3.90657682 3.90710682 8.88316313 3.90710682 15.0002171 3.90710682 21.1167283 8.88352709 26.0933146 15 26.0933146 21.1164729 26.0933146 26.0928932 21.1167283 26.0928932 15.0002171 26.0928932 8.88316313 21.1164729 3.90657682 15 3.90657682M15 30C6.72954595 30 0 23.2711863.0 15.0002171.0 6.72870512 6.72954595-.000108564274 15-.000108564274c8.2710024.0 15 6.728813684274 15 15.000325664274001C30 23.2711863 23.2710024 30 15 30" id="Fill-107" fill="#fff" mask="url(#mask-30)"/></g><g id="Group-112" transform="translate(429.000000, 0.000000)"><mask id="mask-32" fill="#fff"><use xlink:href="#path-31"/></mask><g id="Clip-111"/><path d="M15 3.90657682C8.88352709 3.90657682 3.90710682 8.88316313 3.90710682 15.0002171 3.90710682 21.1167283 8.88352709 26.0933146 15 26.0933146 21.1164729 26.0933146 26.0928932 21.1167283 26.0928932 15.0002171 26.0928932 8.88316313 21.1164729 3.90657682 15 3.90657682M15 30C6.72899759 30 0 23.2711863.0 15.0002171.0 6.72870512 6.72899759-.000108564274 15-.000108564274c8.2710024.0 15 6.728813684274 15 15.000325664274001C30 23.2711863 23.2710024 30 15 30" id="Fill-110" fill="#fff" mask="url(#mask-32)"/></g></g></g></g></svg>