<svg width="90" height="23" viewBox="0 0 90 23" xmlns="http://www.w3.org/2000/svg" xmlns:xlink="http://www.w3.org/1999/xlink"><title>Group 5</title><defs><path id="path-1" d="M0 0H22V22H0z"/><path id="path-3" d="M.303030303.0H22.3030303V22H.303030303z"/><path id="path-5" d="M0 0H10V10H0z"/><path id="path-7" d="M0 0H10V10H0z"/><path id="path-9" d="M0 0H10V10H0z"/></defs><g id="Company" stroke="none" stroke-width="1" fill="none" fill-rule="evenodd"><g id="Colossal_De-Extinction" transform="translate(-443.000000, -5121.000000)"><g id="Group" transform="translate(443.090909, 5121.000000)"><g id="Group-5" transform="translate(34.151515, 0.696970)"><path id="Fill-1" fill="#fff" d="M16.4489424 8.2715803 11.5661782 11.2401303V5.3030303H10.9489116V11.2401303L6.06620907 8.2715803 5.75757576 8.8344803 10.6402783 11.8030303 5.75757576 14.7715803 6.06620907 15.3344803 10.9489116 12.3659303V18.3030303H11.5661782V12.3659303L16.4489424 15.3344803 16.7575758 14.7715803 11.8748115 11.8030303 16.7575758 8.8344803z"/><g id="Group-4" transform="translate(-0.242424, 0.303030)"><mask id="mask-2" fill="#fff"><use xlink:href="#path-1"/></mask><g id="Clip-3"/><path d="M11 21.3592227C5.28791873 21.3592227.640745282 16.7121133.640745282 10.999968.640745282 5.28788669 5.28791873.640777321 11 .640777321 16.7120813.640777321 21.3592547 5.28788669 21.3592547 10.999968 21.3592547 16.7121133 16.7120813 21.3592227 11 21.3592227M11 0C4.93459411.0-32038866e-12 4.93456207-32038866e-12 10.999968-32038866e-12 17.0654379 4.93459411 22 11 22 17.0654059 22 22.000032 17.0654379 22.000032 10.999968 22.000032 4.93456207 17.0654059.0 11 0" id="Fill-2" fill="#fff" mask="url(#mask-2)"/></g></g><g id="Group-3" transform="translate(67.606061, 0.000000)"><mask id="mask-4" fill="#fff"><use xlink:href="#path-3"/></mask><g id="Clip-2"/><path d="M13.559816 21.1109215C14.2312225 20.5518433 14.8435493 19.7385046 15.3653983 18.6949347 15.762488 17.9006271 16.090566 17.0062301 16.3441216 16.0411554 17.3093245 15.7875357 18.2037215 15.4595218 18.997965 15.062368 20.0415349 14.540583 20.8549376 13.9281922 21.4139518 13.2567857 20.5431995 17.1604652 17.4634955 20.2401692 13.559816 21.1109215v0zM1.19210884 13.2567857C1.75118705 13.9281922 2.5645257 14.540583 3.60809565 15.062368 4.40233914 15.4595218 5.29673612 15.7875357 6.26181085 16.0411554 6.51543051 17.0062301 6.8435085 17.9006271 7.2405982 18.6949347 7.76238318 19.7385046 8.37477406 20.5518433 9.04624462 21.1109215 5.1425651 20.2401692 2.06286114 17.1604011 1.19210884 13.2567857v0zM9.04624462.889078533C8.37477406 1.44815675 7.76238318 2.2614954 7.2405982 3.30506534 6.8435085 4.09930883 6.51543051 4.9937699 6.26181085 5.95884462 5.29673612 6.21246428 4.40233914 6.54047819 3.60809565 6.93763198 2.5645257 7.45941695 1.75118705 8.07180784 1.19210884 8.74321431 2.06286114 4.8395348 5.1425651 1.75983083 9.04624462.889078533v0zM21.4139518 8.74321431C20.8549376 8.07180784 20.0415349 7.45941695 18.997965 6.93763198 18.2037215 6.54047819 17.3093245 6.21246428 16.3441216 5.95884462 16.090566 4.99370582 15.762488 4.09930883 15.3653983 3.30506534 14.8435493 2.26143132 14.2312225 1.44809267 13.559816.889078533 17.4634955 1.75976676 20.5431995 4.8395348 21.4139518 8.74321431v0zM16.9606135 11.3203566H21.6402743C21.4826431 12.5013092 20.4571431 13.6163899 18.7114093 14.4892568 18.0474359 14.8211794 17.30894 15.102737 16.5145684 15.3305333 16.7877317 14.0759554 16.940429 12.7202628 16.9606135 11.3203566v0zM11.6233869 16.0167418V11.3203566H16.3197721C16.2978575 12.7954901 16.1252961 14.2170546 15.8165696 15.5135393 14.5200208 15.8222658 13.0985204 15.9948913 11.6233869 16.0167418v0zm0 5.3204381000000005V16.6576472C13.0232291 16.6373987 14.3789216 16.4847014 15.6334996 16.2116021 15.4057673 17.0058456 15.1242097 17.7444697 14.792223 18.408315 13.9193561 20.1540487 12.8043395 21.1795487 11.6233869 21.3371799v0zM10.9826096 16.6576472V21.3371799C9.80172108 21.1796128 8.68664038 20.1540487 7.81377352 18.408315 7.48178679 17.7444697 7.20029331 17.0058456 6.97243289 16.2116021 8.22707489 16.4847014 9.58276747 16.6373987 10.9826096 16.6576472v0zM6.28622446 11.3203566H10.9826096V16.0167418C9.50754021 15.9948913 8.08597572 15.8222658 6.78949097 15.5135393 6.48070038 14.2170546 6.30807497 12.7954901 6.28622446 11.3203566v0zm-.6408413999999993.0C5.66556755 12.7202628 5.81832886 14.0758913 6.09136408 15.3305333 5.29712059 15.102737 4.55856065 14.8211794 3.89471534 14.4892568 2.14898161 13.6163899 1.12341751 12.5013092.965850364 11.3203566H5.64538306zm0-.6407772999999999H.965850364C1.12341751 9.49869078 2.14898161 8.38361008 3.89471534 7.51074321 4.55856065 7.17882056 5.29712059 6.89726301 6.09136408 6.66946667 5.81832886 7.92404459 5.66556755 9.27973716 5.64538306 10.6795793v0zM10.9826096 5.98319416V10.6795793H6.28622446C6.30807497 9.20450991 6.48070038 7.78294542 6.78949097 6.48646067 8.08597572 6.17773415 9.50754021 6.00510874 10.9826096 5.98319416v0zm0-5.320374099V5.34235276C9.58276747 5.36260132 8.22707489 5.51529856 6.97243289 5.78839785 7.20022923 4.99409029 7.48178679 4.25553035 7.81377352 3.59162096 8.68664038 1.84588723 9.80172108.820387204 10.9826096.662820061v0zM11.6233869 5.34235276V.662820061C12.8043395.820387204 13.9193561 1.84588723 14.792223 3.59162096 15.1242097 4.25553035 15.4057673 4.99409029 15.6334996 5.78839785 14.3789216 5.51529856 13.0232291 5.36260132 11.6233869 5.34235276v0zM16.3197721 10.6795793H11.6233869V5.98319416C13.0985204 6.00510874 14.5200208 6.17767008 15.8165696 6.48646067 16.1252961 7.78294542 16.2978575 9.20450991 16.3197721 10.6795793v0zm.6408413999999993.0C16.940429 9.27973716 16.7877317 7.92404459 16.5145684 6.66946667 17.30894 6.89726301 18.0474359 7.17875648 18.7114093 7.51074321 20.4571431 8.38361008 21.4826431 9.49869078 21.6402743 10.6795793H16.9606135zM11.3029983.0C5.23759238.0.303030303 4.93456207.303030303 10.999968.303030303 17.0654379 5.23759238 22 11.3029983 22 17.3684682 22 22.3030303 17.0654379 22.3030303 10.999968 22.3030303 4.93456207 17.3684682.0 11.3029983.0V0z" id="Fill-1" fill="#fff" mask="url(#mask-4)"/></g><g id="Group-14" transform="translate(0.000000, 0.696970)"><path d="M10.9090909 16.6287442C7.97250752 16.6287442 5.58337701 14.2396137 5.58337701 11.3030303 5.58337701 8.36637948 7.97250752 5.9773164 10.9090909 5.9773164 13.8457417 5.9773164 16.2348048 8.36637948 16.2348048 11.3030303 16.2348048 14.2396137 13.8457417 16.6287442 10.9090909 16.6287442M16.9090909 11.3030303c0-3.30845217-2.6916151999999993-6-5.999999999999998-6C7.60070616 5.3030303 4.90909091 7.99457813 4.90909091 11.3030303c0 3.3083848000000007 2.69161525 6 5.999999990000001 6C14.2174757 17.3030303 16.9090909 14.6114151 16.9090909 11.3030303" id="Fill-1" fill="#fff"/><g id="Group-5" transform="translate(-0.090909, 12.303030)"><mask id="mask-6" fill="#fff"><use xlink:href="#path-5"/></mask><g id="Clip-4"/><path d="M.6560556.0-661153081e-14.0817845832C.311991532 2.5839168 1.4701334 4.94813257 3.26093266 6.73899677 5.05186415 8.52986096 7.41608149 9.68800206 9.91821536 10L9.99999339 9.34393822C7.64312146 9.05005587 5.41582893 7.95888953 3.72850013 6.27149573 2.04110521 4.58410192.949938149 2.35687698.6560556.0" id="Fill-3" fill="#fff" mask="url(#mask-6)"/></g><g id="Group-8" transform="translate(12.909091, 12.303030)"><mask id="mask-8" fill="#fff"><use xlink:href="#path-7"/></mask><g id="Clip-7"/><path d="M6.2714667 6.27149573C4.58414682 7.95888953 2.35686607 9.05005587.0 9.34393822L.0818503197 10C2.58390484 9.68800206 4.94810967 8.52986096 6.73896558 6.73899677 8.52982148 4.94813257 9.68795723 2.5839168 10.0000198.0817845832L9.34389498.0C9.04994787 2.35687698 7.95885269 4.58410192 6.2714667 6.27149573" id="Fill-6" fill="#fff" mask="url(#mask-8)"/></g><path d="M22.2529674 10.3030303 22.9090909 10.2212457C22.5970289 7.7191135 21.4388955 5.35489773 19.6481092 3.56403354 17.8572569 1.77316934 15.4929906.61502824 12.9909411.303030303L12.9090909.959092081C15.2659523 1.25297444 17.4932286 2.34414078 19.1805452 4.03153458 20.8679939 5.71892838 21.9590869 7.94615332 22.2529674 10.3030303" id="Fill-9" fill="#fff"/><g id="Group-13" transform="translate(-0.090909, 0.303030)"><mask id="mask-10" fill="#fff"><use xlink:href="#path-9"/></mask><g id="Clip-12"/><path d="M3.72848769 3.72850427C5.41581984 2.04111047 7.64311679.949944133 10 .656061778L9.9182152.0C7.41607637.311997937 5.05185434 1.47013904 3.26098541 3.26100323 1.47011648 5.05186743.311972316 7.4160832-264461762e-13 9.91821542L.656037067 10C.949986314 7.64312302 2.04108942 5.41589808 3.72848769 3.72850427" id="Fill-11" fill="#fff" mask="url(#mask-10)"/></g></g></g></g></g></svg>