<?xml version="1.0" encoding="utf-8"?>
<!-- Generator: Adobe Illustrator 28.0.0, SVG Export Plug-In . SVG Version: 6.00 Build 0)  -->
<svg version="1.1" id="Layer_1" xmlns="http://www.w3.org/2000/svg" xmlns:xlink="http://www.w3.org/1999/xlink" x="0px" y="0px"
	 viewBox="0 0 719.13 677" style="enable-background:new 0 0 719.13 677;" xml:space="preserve">
<g>
	<path d="M7.44,195.03c0-2.94,0-5.88,0-8.81c0.31-0.7,0.81-1.39,0.91-2.12c0.45-3.38,0.6-6.81,1.21-10.15
		c1.14-6.26,2.93-12.26,6.68-17.64c9.44-13.54,20.35-25.74,32.2-37.2c8.21-7.93,16.73-15.46,25.65-22.58
		c13.14-10.48,27.03-19.85,41.48-28.39c12.63-7.46,25.65-14.18,39.07-20.14c13.4-5.96,27.03-11.33,40.95-15.9
		c17-5.58,34.24-10.38,51.83-13.71c13.07-2.47,26.24-4.46,39.4-6.4c6.74-0.99,13.55-1.53,20.35-2.07c9.39-0.75,18.8-1.31,28.2-1.92
		c1.62-0.11,3.27,0.02,4.89-0.13c0.73-0.07,1.42-0.57,2.12-0.87c11.75,0,23.5,0,35.26,0c0.71,0.3,1.41,0.87,2.12,0.87
		c11.57,0.08,23.09,0.85,34.59,2.09c7.27,0.78,14.59,1.23,21.82,2.25c9.16,1.3,18.26,3.03,27.39,4.56
		c18.33,3.08,36.27,7.75,53.98,13.27c14.62,4.56,29,9.82,43.06,15.95c17.51,7.64,34.38,16.46,50.68,26.41
		c18.14,11.07,35.17,23.65,50.9,37.87c14.76,13.35,28.61,27.66,40.09,44.03c2.04,2.91,3.84,6.1,5.14,9.4
		c4.65,11.81,4.65,24.2,3.95,36.62c-0.04,0.64-0.27,1.27-0.44,1.9c-2.4,8.79-4.73,17.59-7.22,26.35
		c-4.84,17.07-9.78,34.11-14.65,51.17c-6.22,21.75-12.4,43.52-18.61,65.27c-4.87,17.06-9.79,34.11-14.67,51.17
		c-6.17,21.6-12.29,43.21-18.47,64.8c-5.55,19.41-11.15,38.8-16.7,58.2c-6.67,23.31-13.33,46.63-19.98,69.96
		c-4.24,14.87-8.45,29.74-12.69,44.61c-1.43,5.01-2.6,10.12-4.47,14.96c-3.98,10.29-11.95,16.39-22.17,19.88
		c-1.18,0.4-2.32,0.93-3.48,1.4c-131.88,0-263.76,0-395.65,0c-1.01-0.42-1.99-0.91-3.02-1.23c-11.99-3.81-20.39-11.28-23.97-23.61
		c-2.68-9.22-5.3-18.45-7.93-27.68c-7.77-27.22-15.53-54.45-23.32-81.67c-5.6-19.56-11.27-39.09-16.85-58.65
		c-8.8-30.82-17.55-61.66-26.35-92.49c-6.84-23.94-13.75-47.86-20.6-71.8c-9.08-31.76-18.17-63.52-27.16-95.31
		c-1.98-7.02-4.63-13.93-4.73-21.39C8.23,195.79,7.71,195.41,7.44,195.03z M359.92,646.72c62.83,0,125.65,0,188.48,0
		c1.47,0,2.94-0.02,4.41,0c4.9,0.08,7.88-2.6,9.74-6.81c0.52-1.18,0.79-2.48,1.15-3.74c6.16-21.6,12.31-43.21,18.48-64.81
		c5.55-19.41,11.14-38.81,16.68-58.22c6.34-22.23,12.63-44.47,18.98-66.7c4.74-16.59,9.56-33.16,14.3-49.76
		c6.22-21.76,12.39-43.53,18.6-65.29c5.54-19.41,11.14-38.81,16.68-58.22c6.34-22.23,12.49-44.52,19.07-66.68
		c2.12-7.16,3.28-14.3,2.54-21.66c-0.69-6.82-1.81-13.59-6.41-19.16c-6.22-7.53-12.12-15.35-18.69-22.56
		c-8.23-9.04-17.28-17.27-26.69-25.12c-9.15-7.64-18.68-14.75-28.62-21.25c-16.39-10.72-33.53-20.1-51.46-28.08
		c-22.24-9.9-45.13-17.87-68.77-23.61c-11.84-2.88-23.81-5.25-35.78-7.58c-6.69-1.31-13.47-2.23-20.24-3.04
		c-7.59-0.9-15.2-1.56-22.82-2.17c-8.59-0.69-17.18-1.46-25.79-1.76c-9.78-0.33-19.58-0.35-29.37-0.18
		c-12.87,0.22-25.74,0.51-38.59,1.24c-8.59,0.49-17.14,1.64-25.68,2.76c-9.83,1.28-19.66,2.59-29.41,4.35
		c-14.57,2.63-28.93,6.24-43.2,10.21c-21.89,6.09-43.05,14.09-63.47,23.97c-10.7,5.17-21.08,11.05-31.35,17.05
		c-19.63,11.46-37.53,25.31-54.21,40.73c-10.55,9.75-19.94,20.6-28.92,31.81c-5.96,7.44-8.8,15.75-8.87,25.27
		c-0.05,6.61,0.98,12.88,2.84,19.21c7.01,23.9,13.71,47.89,20.55,71.84c5.55,19.41,11.17,38.8,16.71,58.21
		c6.22,21.75,12.37,43.53,18.59,65.28c5.54,19.41,11.16,38.8,16.7,58.21c6.35,22.23,12.63,44.47,18.97,66.7
		c4.78,16.75,9.63,33.48,14.42,50.22c5.59,19.56,11.26,39.11,16.68,58.72c2.43,8.8,6.37,10.72,14.32,10.7
		C233.62,646.65,296.77,646.72,359.92,646.72z"/>
	<path d="M545.58,626.87c-123.79,0-247.43,0-371.4,0c-1.01-3.32-2.06-6.56-2.99-9.82c-10.3-36.06-20.57-72.12-30.86-108.18
		c-12.7-44.52-25.41-89.05-38.13-133.56c-9.45-33.08-18.92-66.14-28.39-99.21c-7.36-25.7-14.68-51.42-22.14-77.09
		c-1.45-5-1.42-9.98-0.93-15.02c0.27-2.79,1.38-5.28,3.07-7.61c8.75-12.08,18.78-23,29.72-33.08
		c13.11-12.07,27.23-22.85,42.26-32.45c21.4-13.67,44.1-24.67,67.87-33.55c22.52-8.41,45.64-14.65,69.25-18.96
		c12.49-2.28,25.12-3.81,37.73-5.38c28.25-3.52,56.64-3.63,85.02-2.62c13.82,0.49,27.62,2.06,41.39,3.5
		c22.58,2.36,44.77,6.86,66.65,12.86c20.49,5.61,40.4,12.82,59.71,21.71c23.96,11.04,46.41,24.57,67.04,41.03
		c17.16,13.7,32.7,29,45.59,46.86c1.37,1.89,2.34,3.83,2.77,6.16c1.04,5.54,1.04,10.98-0.54,16.44
		c-7.15,24.75-14.26,49.5-21.35,74.27c-11.47,40.13-22.9,80.26-34.37,120.39c-8.11,28.37-16.26,56.73-24.36,85.11
		c-11.47,40.13-22.91,80.27-34.37,120.4c-2.19,7.68-4.41,15.36-6.63,23.03C546.71,623.64,546.15,625.15,545.58,626.87z
		 M580.01,323.78c-0.41,0.81-0.52,1.38-0.86,1.65c-1.02,0.79-2.1,1.53-3.22,2.18c-8.4,4.93-15.57,11.32-21.74,18.8
		c-11.04,13.4-20.13,28.1-28.07,43.51c-11.27,21.84-18.86,45.09-26.13,68.47c-4.98,16.04-9.75,32.16-16.61,47.55
		c-4.61,10.35-10.16,20.17-17.91,28.46c-16.66,17.82-37.11,25.87-61.61,23.14c-9.85-1.1-19.14-3.93-28.07-8.08
		c-5.37-2.49-10.26-5.71-14.13-10.31c-2.5-2.97-3.86-6.08-1.31-9.75c0.36-0.52,0.57-1.17,0.78-1.79c1.32-3.78,0.02-7.21-3.39-9.19
		c-2.95-1.71-5.87-1.64-8.86-0.12c-5.41,2.76-9.26,7.13-12.56,12.07c-5.33,7.99-8.44,16.89-10.55,26.17
		c-1.67,7.34-2.54,14.77-2.08,22.33c0.3,5.01,1.49,9.85,4.69,13.68c5.36,6.42,11.41,12.22,19.66,14.81
		c7.93,2.49,15.94,4.73,23.94,6.95c2.01,0.56,4.17,0.87,6.25,0.87c51.58,0.05,103.15,0.04,154.73,0.02c1.25,0,2.5-0.23,3.75-0.35
		c0.84-2.77,1.62-5.25,2.33-7.75c12.09-42.32,24.17-84.65,36.26-126.98c10.08-35.27,20.19-70.53,30.27-105.8
		c12.27-42.95,24.51-85.92,36.76-128.87c4.87-17.09,9.73-34.18,14.6-51.27c1.38-4.84,0.8-9.19-2.36-13.35
		c-9.21-12.13-19.54-23.16-30.91-33.3c-17.27-15.4-36.22-28.33-56.54-39.28C540,93.62,511.28,83.02,481.38,75.63
		c-21.22-5.25-42.7-9.12-64.51-10.98c-11.85-1.01-23.7-2.23-35.58-2.59c-22.83-0.69-45.67-0.75-68.43,1.66
		c-12.31,1.3-24.66,2.44-36.88,4.35c-19.18,2.99-38.07,7.35-56.67,12.98c-35.56,10.77-68.88,26.15-99.23,47.71
		c-17.49,12.43-33.55,26.47-47.43,42.89c-3.57,4.22-6.84,8.7-10.48,13.36c0.26,3.17,0.02,6.52,0.87,9.57
		c6.39,22.93,13,45.8,19.55,68.68c10.13,35.43,20.28,70.85,30.4,106.28c12.85,44.99,25.68,89.99,38.52,134.98
		c8.81,30.88,17.63,61.77,26.45,92.65c1.69,5.93,3.45,11.84,5.26,18.06c1.86,0,3.47,0,5.07,0c7.83,0,15.67,0,23.5,0
		c29.87,0,59.74,0.01,89.6-0.03c1.87,0,3.89,0.57,5.37-0.52c-0.28-7.78-0.72-15.26-0.79-22.74c-0.08-9.61-0.39-19.22,0.88-28.83
		c3.08-23.24,10.67-45.03,21.19-65.8c12.57-24.83,29.82-46.31,49.17-66.12c15.22-15.58,32.17-29.13,50.28-41.17
		c12.49-8.3,25.39-16,38.1-23.98c1.29-0.81,2.88-1.32,3.77-3.6c-3.19,0.95-5.84,1.62-8.42,2.53c-16.07,5.68-31.23,13.28-45.75,22.11
		c-23.99,14.59-45.44,32.31-64.03,53.41c-8.2,9.31-15.95,19-22.26,29.73c-2.23,3.79-4.28,7.7-6.42,11.54
		c-0.84,1.49-1.43,3.27-3.45,3.65c-0.48-0.57-0.9-0.88-1.08-1.31c-0.43-1.05-0.82-2.13-1.11-3.23c-3.59-13.31-5.03-26.79-4.19-40.62
		c1.01-16.61,6.59-31.51,15.59-45.25c8.16-12.45,18.9-22.4,31.15-30.73c19.66-13.36,41.51-21.82,64.23-28.23
		c22.48-6.34,45.39-10.43,68.61-12.96c14.76-1.6,29.53-2.83,44.38-2.96c0.98-0.01,1.97,0.04,2.94-0.07
		c10.6-1.25,21.18-0.2,31.74,0.46C574.29,320.71,577.52,321.02,580.01,323.78z"/>
	<path d="M177.48,362.29c3.27,0.79,5.44,1.3,7.6,1.85c20.51,5.24,38.9,14.7,55.73,27.48c9.54,7.24,18.08,15.54,26.01,24.39
		c15.02,16.78,25.63,36.08,30.86,58.09c2.76,11.61,4.07,23.44,3.3,35.36c-0.69,10.56-2.5,20.99-5.58,31.14
		c-1.84,6.07-3.99,12.05-6.11,18.02c-0.52,1.46-1.49,2.75-2.38,4.33c-1.63-1.62-1.21-3.32-1.22-4.87
		c-0.05-5.22,0.1-10.45-0.07-15.66c-0.18-5.59-1.53-10.91-4.07-15.96c-3.1-6.16-7.78-10.38-14.44-12.3
		c-4.54-1.31-9.07-2.62-13.64-3.8c-6.9-1.79-13.17-4.85-18.55-9.48c-2.31-1.99-4.23-4.52-6.02-7.02c-5.22-7.29-8.4-15.53-9.66-24.32
		c-1.44-9.97-2.45-20.02-3.13-30.06c-1.36-19.93-6.99-38.36-18.34-54.9c-4.9-7.14-10.14-13.99-17.25-19.16
		C179.68,364.8,179.03,363.9,177.48,362.29z"/>
	<path d="M346.19,178.08c-4.22,0-7.91,0-11.71,0c-0.02-0.02-0.15-0.11-0.26-0.23c-0.11-0.12-0.27-0.26-0.27-0.39
		c-0.08-26.73-0.15-53.46-0.2-80.19c0-1.12,0.12-2.24,0.21-3.64c3.92-0.85,7.76-0.6,11.82-0.53c2.81,5.95,4.05,12.38,6.21,18.49
		c2.14,6.06,3.52,12.39,6.8,18.2c0-6.13-0.03-12.26,0.01-18.39c0.04-6.15-0.18-12.31,0.15-18.67c4.06-0.34,7.72-0.71,11.59,0.35
		c0,28.27,0,56.41,0,84.79c-3.85,0.56-7.5,0.44-11.66-0.07c-0.03-3.53-0.2-6.92-0.05-10.28c0.18-4.14-0.55-8.06-1.91-11.96
		c-2.95-8.46-5.7-16.99-8.55-25.48c-0.45-1.35-0.96-2.67-2.14-3.92c0,8.61,0,17.22,0,25.83
		C346.2,160.55,346.22,169.15,346.19,178.08z"/>
	<path d="M429.37,182.96c-0.82-4.95-0.76-80.59,0.08-84.89c2.82,0.39,5.68,0.73,8.52,1.2c3.54,0.58,7.06,1.24,10.57,1.94
		c1.43,0.29,2.86,0.69,4.24,1.18c7.85,2.82,11.85,8.24,12.05,16.58c0.14,5.71,0.08,11.42,0.02,17.13c-0.05,4.82-0.9,5.95-5.32,7.61
		c-0.6,0.22-1.22,0.38-2.34,0.73c1.58,1.09,2.87,1.92,4.09,2.85c3.03,2.3,4.76,5.21,4.7,9.18c-0.11,7.34-0.02,14.69-0.04,22.03
		c0,0.98-0.03,1.97-0.2,2.93c-0.6,3.39-2.52,5.67-5.96,6.28c-1.74,0.31-3.61,0.47-5.33,0.17c-7.54-1.31-15.05-2.81-22.57-4.25
		C431.09,183.47,430.32,183.22,429.37,182.96z M453.99,175.76c0-7.72,0.1-15.03-0.06-22.33c-0.05-2.47-1.76-4.18-4.07-5.03
		c-2.71-0.99-5.48-1.76-8.5-1.53c0,9.28,0,18.35,0,27.91C445.44,175.1,449.14,177.14,453.99,175.76z M441.3,135.72
		c2.23,0.49,3.95,0.96,5.7,1.22c3.7,0.55,5.79-0.96,5.93-4.6c0.18-4.88,0.22-9.79-0.08-14.66c-0.1-1.59-1.08-3.66-2.33-4.55
		c-2.63-1.86-5.77-2.71-9.21-1.85C441.3,119.45,441.3,127.4,441.3,135.72z"/>
	<path d="M300.26,181.61c-3.9,0.55-7.4,1.04-11.29,1.59c-0.16-1.46-0.41-2.7-0.41-3.94c-0.04-7.34-0.01-14.69-0.03-22.03
		c-0.01-1.59-0.14-3.17-0.23-5.08c-4.35,0.74-8.31,1.42-12.67,2.17c0,10.31,0,20.37,0,30.55c-3.99,1.58-7.72,2.3-11.91,2.4
		c-0.18-1.22-0.49-2.29-0.49-3.36c-0.03-22.2-0.09-44.39,0.06-66.59c0.02-3.01,0.85-6.14,1.91-8.99c1.52-4.06,4.83-6.75,8.95-7.71
		c5.21-1.21,10.56-2.15,15.89-2.47c5.94-0.35,9.41,3.03,10.22,8.92c0.18,1.29,0.21,2.6,0.21,3.91c0.01,22.36,0.01,44.72,0,67.08
		C300.47,179.03,300.36,179.99,300.26,181.61z M288.06,141.57c0.2-0.98,0.44-1.6,0.44-2.21c0.03-8.46,0.03-16.92,0.02-25.38
		c0-0.65-0.02-1.31-0.16-1.94c-0.39-1.82-1.64-3.08-3.39-2.91c-3.16,0.31-6.57,0.31-8.79,3.08c-0.92,4.45-0.89,26.68,0.05,30.84
		C280.29,143.47,284.08,141.93,288.06,141.57z"/>
	<path d="M418.5,181.65c-4.02-0.46-7.53-0.87-11.24-1.3c-0.99-5.26-0.34-10.29-0.46-15.28c-0.12-5.03-0.03-10.07-0.03-15.31
		c-4.43-1.17-8.58-1.35-13.25-1.78c-0.61,10.41,0.05,20.47-0.39,30.66c-3.83,1.4-7.4-0.88-11.29-0.03
		c-0.23-1.51-0.55-2.58-0.55-3.65c-0.03-22.52-0.02-45.04,0-67.56c0-1.46,0.06-2.95,0.31-4.39c0.85-4.94,4.72-8.78,9.7-8.78
		c5.52,0,11.11,0.32,16.54,1.24c6.04,1.02,9.99,6.03,10.76,12.43c0.14,1.13,0.11,2.28,0.11,3.42c0.01,21.87,0.01,43.74,0,65.6
		C418.71,178.2,418.6,179.48,418.5,181.65z M393.28,137c4.71,0.97,8.8,1.68,12.88,1.05c0.24-0.54,0.49-0.82,0.49-1.11
		c0.05-8.61,0.14-17.21,0.06-25.82c-0.01-1.53-0.75-3.05-1.06-4.23c-3.5-2.4-6.85-2.22-10.7-1.62c-0.49,0.96-1.09,2.05-1.58,3.19
		c-0.18,0.42-0.08,0.96-0.08,1.45C393.28,118.82,393.28,127.73,393.28,137z"/>
	<path d="M138.92,147.92c3.2-1.64,6.36-3.27,9.69-4.98c1.46,1.76,0.91,3.61,0.91,5.26c0.05,20.22,0.02,40.45,0.05,60.67
		c0,2.22-0.5,4.63,1.81,6.53c3.48-0.48,6.75-1.92,9.42-4.3c1.2-1.07,1.81-3.02,2.23-4.69c0.38-1.54,0.16-3.24,0.16-4.87
		c0.01-20.06,0-40.12,0-60.18c0-1.78,0-3.55,0-5.38c3.61-2.01,7.03-3.72,11.28-4.71c0.08,1.94,0.2,3.53,0.21,5.12
		c0.01,20.55,0.05,41.1-0.03,61.65c-0.01,3.08-0.25,6.22-0.94,9.21c-1.39,6-4.91,10.66-10.31,13.63c-4.28,2.36-8.75,4.36-13.15,6.51
		c-0.58,0.29-1.2,0.53-1.82,0.7c-5.01,1.34-7.84-0.24-9.16-5.25c-0.37-1.4-0.58-2.89-0.58-4.34c-0.04-22.83-0.04-45.67-0.04-68.5
		C138.63,149.53,138.76,149.05,138.92,147.92z"/>
	<path d="M183.73,192.12c3.97-1.51,7.2-3.41,11.11-3.9c0.38,2.55,0.72,4.87,1.05,7.05c6.94,0.73,10.39-2.03,10.48-8.02
		c0.08-5.19,0.02-10.39,0.02-15.91c-1.99-0.65-3.62-1.35-5.31-1.7c-3.82-0.8-7.68-1.4-11.52-2.14c-4.13-0.79-5.71-2.36-5.8-6.59
		c-0.16-7.33-0.33-14.69,0.06-22.01c0.41-7.81,4.5-13.53,11.73-16.65c3.73-1.61,7.62-2.92,11.54-3.99
		c6.02-1.65,10.13,1.02,10.78,7.14c0.41,3.85,0.08,7.77,0.08,12.06c-3.58,1.2-7.08,2.38-10.81,3.63c-1.7-3.29,0.23-6.96-1.53-10.16
		c-2.66-1.45-5-0.22-7.24,1.07c-2.15,1.24-3.08,3.25-3.06,5.74c0.04,5.51,0.02,11.02,0.03,16.28c3.13,2.25,6.38,1.96,9.33,2.73
		c2.99,0.77,6.04,1.31,9.04,2.05c2.93,0.72,4.34,2.71,4.34,5.7c0,7.83,0.26,15.66-0.09,23.48c-0.32,7.13-4.21,12.25-10.67,15.16
		c-3.7,1.67-7.62,2.88-11.43,4.3c-0.15,0.06-0.31,0.1-0.47,0.13c-7.17,1.7-11.04-1.05-11.61-8.37
		C183.58,196.97,183.73,194.7,183.73,192.12z"/>
	<path d="M99.06,211.2c-0.43-1.66-1.18-3.2-1.19-4.75c-0.05-8.14-0.79-16.3,0.56-24.4c1.07-6.4,4.12-11.67,9.37-15.48
		c3.42-2.48,7.08-4.65,10.68-6.88c0.95-0.59,2.08-0.95,3.16-1.28c3.97-1.19,6.35-0.1,7.48,3.93c0.65,2.3,0.6,4.81,0.73,7.24
		c0.11,2.1,0.02,4.2,0.02,6.48c-3.51,2.04-6.84,3.98-10.26,5.96c-1.52-3.42,0.7-7.17-1.7-10.08c-5.38,0.97-8.71,3.56-9.21,8.04
		c-0.65,5.79-0.41,11.65-0.07,17.58c6.66,1.7,13.33-0.84,19.23,1.33c2.11,1.91,2,4.08,2.01,6.2c0.02,6.03-0.08,12.07,0.03,18.1
		c0.17,9.22-3.49,16.43-11.12,21.57c-3.11,2.09-6.31,4.04-9.52,5.98c-0.96,0.58-2.06,0.99-3.13,1.35c-4.11,1.37-6.52,0.06-7.62-4.21
		c-0.82-3.18-1.11-6.4-0.4-10.06c3.05-2.03,6.28-4.17,9.53-6.33c1.65,2.34-0.32,5.31,2.02,7.07c6.35-1.17,9.28-4.39,9.36-10.36
		c0.06-4.08,0.04-8.15-0.01-12.23c-0.01-1.1-0.26-2.2-0.4-3.39C112.23,210.15,105.53,213.58,99.06,211.2z"/>
	<path d="M607.04,249.89c-3.98-2.46-7.14-4.42-10.43-6.45c-0.12-1.37-0.32-2.64-0.33-3.92c-0.04-3.91-0.2-7.83,0.02-11.73
		c0.65-11.5-1.07-22.68-3.67-33.85c-3.18-13.63-5.92-27.36-8.84-41.04c-0.09-0.44-0.06-0.92-0.1-1.79
		c3.82,1.15,6.66,3.59,10.37,5.41c2.53,13.16,5.1,26.52,7.67,39.88c0.29,0,0.57-0.01,0.86-0.01c2.19-9.86,4.38-19.71,6.7-30.13
		c3.91,2.03,7.16,4.04,10.38,6.84c-1.52,5.62-3.01,11.25-4.56,16.86c-2.34,8.48-4.8,16.92-7.03,25.42
		c-0.65,2.49-0.94,5.13-0.99,7.71c-0.13,7.01-0.05,14.02-0.05,21.03C607.04,245.71,607.04,247.32,607.04,249.89z"/>
	<path d="M257.06,103.75c0,3.89,0,7.07,0,10.42c-3.53,0.97-6.95,1.91-10.75,2.95c0,12.53,0,24.89,0,37.25c0,12.36,0,24.72,0,37.32
		c-3.95,1.05-7.54,2-11.65,3.1c-0.06-2.06-0.16-3.8-0.16-5.54c-0.01-21.04,0-42.08-0.01-63.11c0-1.75-0.1-3.5-0.17-5.86
		c-3.62,0.93-6.7,1.72-9.95,2.55c-1.35-3.43-0.7-6.6-0.57-10.06C234.54,109.03,245.48,106.66,257.06,103.75z"/>
	<path d="M333.34,249.75c-2.67,0-4.77,0-7.15,0c-4-8-5.64-16.9-9.2-24.89c-0.49-0.03-0.65-0.07-0.79-0.03
		c-0.15,0.04-0.37,0.11-0.42,0.23c-2.99,8.08-5.96,16.16-9.04,24.53c-2.35,0-4.72,0-7.58,0c-4.39-13.04-8.79-26.12-13.33-39.6
		c2.97,0,5.64,0,8.77,0c2.71,8.61,5.42,17.24,8.23,26.17c1.81-0.9,1.99-2.41,2.41-3.71c2.28-6.97,4.52-13.95,6.78-20.92
		c0.2-0.61,0.44-1.21,0.79-2.16c2.31,0,4.65,0,7.19,0c3.35,8.79,5.74,17.87,9.6,26.58c3.73-8.38,5.46-17.31,8.81-25.96
		c2.75,0,5.43,0,8.57,0C342.41,223.32,337.93,236.37,333.34,249.75z"/>
	<path d="M525.09,198.18c0,3.71,0,6.9,0,10.41c-9.08-3.19-17.79-6.26-26.38-9.28c-0.79-3.82-1.06-77.14-0.31-85.08
		c1.86,0.52,3.67,0.98,5.45,1.55c1.84,0.59,3.65,1.28,5.88,2.07c0,12.48,0,24.83,0,37.18c0,12.37,0,24.74,0,37.35
		C514.9,194.33,519.89,196.22,525.09,198.18z"/>
	<path d="M570.55,228.42c-4.21-0.9-7.3-2.9-10.76-5.03c0-24.64,0-49.36,0-74.3c-3.53-1.79-6.84-3.47-10.4-5.27c0-3.15,0-6.35,0-9.55
		c4.44,0.75,23.46,9.85,31.64,15.2c0,3.12,0,6.44,0,10.1c-3.38-1.65-6.41-3.13-9.59-4.68c-1.11,1.93-0.65,3.74-0.65,5.45
		c-0.04,20.85-0.02,41.7-0.03,62.56C570.75,224.63,570.63,226.37,570.55,228.42z"/>
	<path d="M260.41,303.42c-35.91,0-71.58,0-107.58,0c0-3,0-5.85,0-8.71c3.55-0.86,102.69-1.01,107.98-0.12
		C261.08,297.53,261.59,300.49,260.41,303.42z"/>
	<path d="M553.51,294.62c0,2.95,0,5.68,0,8.37c-3.88,0.73-100.61,0.97-107.88,0.28c-0.92-2.74-0.41-5.62-0.3-8.37
		c0.23-0.21,0.35-0.33,0.48-0.43c0.13-0.09,0.27-0.21,0.41-0.23c0.64-0.08,1.29-0.18,1.94-0.18c34.71,0.02,69.42,0.04,104.13,0.08
		C552.59,294.13,552.88,294.36,553.51,294.62z"/>
	<path d="M476.07,107.58c3.86,1.07,7.4,2.05,11.08,3.07c0,28.45,0,56.58,0,84.95c-3.98-0.29-7.41-1.7-10.8-2.72
		c-0.2-0.24-0.32-0.36-0.41-0.5c-0.08-0.13-0.18-0.28-0.2-0.43c-0.08-0.64-0.18-1.29-0.18-1.94c0-26.72,0.01-53.44,0.03-80.16
		C475.59,109.39,475.78,108.93,476.07,107.58z"/>
	<path d="M532.27,126.23c3.48,1.42,6.9,2.82,10.16,4.15c0.82,3.96,0.94,79.66,0.16,85c-3.86-0.71-7.22-2.59-10.61-4.07
		C531.14,205.66,531.33,130.16,532.27,126.23z"/>
	<path d="M322.39,179.23c-3.79,0.38-7.29,0.74-10.74,1.09c-0.81-4.11-1.07-77.33-0.36-84.76c3.46-1.24,7.1-1.55,10.7-1.28
		c0.26,0.24,0.39,0.34,0.49,0.47c0.1,0.12,0.21,0.27,0.22,0.41c0.08,0.81,0.2,1.62,0.2,2.43c0,26.6-0.01,53.2-0.04,79.8
		C322.85,177.85,322.63,178.31,322.39,179.23z"/>
	<path d="M409.88,237.22c-2.86,0-5.08,0-7.74,0c0,4.16,0,8.02,0,12.22c-2.96,0-5.48,0-8.03,0c-0.87-3.53-0.99-34.5-0.08-39.55
		c1.36-0.07,2.79-0.21,4.22-0.21c5.38-0.01,10.77-0.07,16.15,0.05c6.18,0.14,10.18,3.04,12.11,8.13c1.68,4.44,1.1,11.41-4.32,15.32
		c-1.04,0.75-2.11,1.48-3.55,2.49c2.99,4.49,5.9,8.87,9.05,13.61c-3.33,0.87-6.2,0.46-9.28,0.36
		C415.6,245.53,412.75,241.39,409.88,237.22z M402.21,228.96c2.98,0.83,6.06,0.35,9.07,0.42c2.73,0.07,5.2-0.57,6.64-3.2
		c1.4-2.55,1.15-4.99-0.6-7.23c-4.59-2.69-9.37-3.19-15.12-1.54C402.21,221.06,402.21,224.77,402.21,228.96z"/>
	<path d="M434.77,249.28c0-13.19,0-26.04,0-39.22c1.22-0.14,2.29-0.37,3.37-0.37c5.05-0.02,10.11-0.12,15.16,0.07
		c8.2,0.3,15.95,6.03,17.73,13.7c3.44,14.85-4.78,25.39-19.42,26.29c-4.55,0.28-9.13,0.08-13.69,0.02
		C436.86,249.76,435.8,249.44,434.77,249.28z M443.29,241.55c0.88,0.3,1.33,0.58,1.78,0.59c1.95,0.06,3.9,0.11,5.84,0.06
		c5.94-0.14,10.07-3.17,11.69-8.49c1.71-5.63-0.16-11.68-4.82-14.69c-4.46-2.88-9.35-2.89-14.49-1.96
		C443.29,225.41,443.29,233.34,443.29,241.55z"/>
	<path d="M319.2,299.1c0.64-3.16,0.89-6.46,2-9.45c2.77-7.45,9.41-10.7,17.61-10.24c7.8,0.44,13.54,5.44,15.32,12.8
		c1.17,4.85,1.23,9.65-0.18,14.45c-2.1,7.17-7.63,11.58-14.9,11.94C326.53,319.2,319.66,312.34,319.2,299.1z M345.59,298.64
		c-0.2-1.5-0.23-3.65-0.8-5.64c-1.18-4.05-3.6-5.85-7.33-5.91c-3.88-0.07-6.64,1.93-7.92,5.89c-1.29,3.97-1.26,7.98-0.03,11.96
		c1.28,4.15,4.5,6.6,8.12,6.3c3.83-0.32,6.76-3.02,7.53-7.14C345.46,302.5,345.43,300.86,345.59,298.64z"/>
	<path d="M387.67,249.63c-3.41,0-5.81,0-8.56,0c-0.61-1.43-1.21-2.9-1.86-4.35c-0.6-1.32-1.26-2.61-2.07-4.27
		c-5.77-0.29-11.56-0.15-17.64-0.08c-1.33,2.9-2.59,5.67-3.94,8.62c-2.57,0-5.11,0-8.31,0c5.85-13.73,11.54-27.07,17.22-40.41
		c2.75,0,5,0,7.87,0C376.11,222.19,381.71,235.61,387.67,249.63z M366.29,220.07c-2.61,4.25-3.96,8.38-5.41,12.98
		c3.93,0.28,7.25,0.67,11.03-0.32C370.22,228.49,369.15,224.3,366.29,220.07z"/>
	<path d="M261,209.2c2.7,0,5.24,0,8.05,0c5.69,13.38,11.36,26.69,17.16,40.33c-3,0-5.68,0-8.5,0c-1.34-2.89-2.62-5.65-3.91-8.46
		c-6.15,0-11.97,0-17.9,0c-1.23,2.81-2.39,5.47-3.69,8.45c-1.36,0.09-2.79,0.21-4.22,0.26c-1.27,0.04-2.55,0.01-4.22,0.01
		C249.63,235.99,255.28,222.68,261,209.2z M264.71,219.53c-2.14,5.06-3.81,9-5.62,13.29c3.93,0.64,7.32,0.92,11.29-0.31
		C268.96,228.24,267.46,224.31,264.71,219.53z"/>
	<path d="M296.85,287.09c-0.6,1.61-0.9,2.71-1.4,3.71c-1.38,2.72-4.49,3.8-6.99,2.5c-2.8-1.45-3.85-4.84-1.99-7.49
		c1.09-1.55,2.57-3.12,4.24-3.93c4.78-2.34,9.84-3.33,15.17-1.89c7.82,2.12,11.22,8.65,8.33,16.22c-1.43,3.75-3.97,6.71-6.95,9.31
		c-1.43,1.25-2.97,2.37-5.29,4.2c3.26,0,5.51-0.01,7.76,0c2.08,0.01,4.17,0.05,6.6,0.08c0,2.82,0,5.17,0,7.5
		c-3.34,1.08-19.53,1.4-28.74,0.53c-0.52-1.75-1.1-3.72-1.81-6.09c1.84-1.32,3.69-2.59,5.48-3.94c3.51-2.64,7.16-5.13,10.4-8.08
		c1.74-1.58,3.09-3.83,3.99-6.03c1.44-3.53-0.34-6.16-4.11-6.59C300.1,286.95,298.63,287.09,296.85,287.09z"/>
	<path d="M374.5,309.77c5.36,0,9.57,0,13.74,0c1.48,2.73,1.03,5.22,0.57,7.66c-3.75,0.93-21.71,1.15-28.86,0.34
		c-0.48-1.77-1.02-3.75-1.62-5.95c1.07-0.84,2.04-1.66,3.07-2.4c3.31-2.36,6.71-4.61,9.94-7.07c2.87-2.18,5.4-4.74,6.69-8.23
		c1.5-4.06-0.26-6.8-4.51-7.04c-0.81-0.05-1.63-0.03-2.44,0.05c-0.63,0.06-1.24,0.27-1.93,0.42c-0.64,1.56-1.24,3.04-1.88,4.59
		c-0.85,0.48-1.64,1.12-2.54,1.4c-2.29,0.73-4.21,0.06-5.63-1.77c-1.34-1.73-1.61-3.76-0.45-5.47c1.14-1.69,2.65-3.45,4.42-4.35
		c4.89-2.49,10.12-3.44,15.6-1.88c7.5,2.14,10.79,8.6,8.06,15.97c-1.27,3.44-3.48,6.24-6.18,8.66
		C378.88,306.21,377.09,307.61,374.5,309.77z"/>
	<path d="M403.7,317.63c0-2.3,0-4.33,0-6.53c2.05-0.26,3.78-0.48,5.68-0.73c0.12-0.67,0.24-1.26,0.44-2.38
		c-6.06-0.94-12.06,0.11-18.25-0.64c-0.1-1.95-0.18-3.68-0.28-5.63c6.37-7.55,10.74-16.15,12.43-25.83
		c5.82-1.15,8.17,0.53,7.17,5.73c-0.78,4.07-2.69,7.96-4.36,11.81c-0.89,2.06-2.33,3.89-3.65,6.03c2.11,1.73,4.24,0.98,5.97,0.75
		c1.53-4.11,2.93-7.85,4.37-11.71c1.6,0,2.82,0,4.58,0c0,3.77,0,7.44,0,11.33c2,0.43,3.54,0.76,5.42,1.16c0,1.94,0,3.96,0,6.27
		c-1.45,0.23-2.84,0.45-4.35,0.69c-0.06,0.81-0.1,1.42-0.16,2.23c1.49,0.33,2.86,0.64,4.47,1.01c0,2.21,0,4.23,0,6.19
		C419.46,318.37,409.14,318.51,403.7,317.63z"/>
</g>
</svg>
