<svg width="520" height="508" viewBox="0 0 520 508" xmlns="http://www.w3.org/2000/svg" xmlns:xlink="http://www.w3.org/1999/xlink"><title>Stroke 7</title><g id="Mammoth-Page" stroke="none" stroke-width="1" fill="none" fill-rule="evenodd"><g id="Colossal_Mammoth_8-03-21" transform="translate(-100.000000, -789.000000)" stroke="#ff7b31" stroke-width=".807486027"><g id="Group-21" transform="translate(53.000000, 778.000000)"><path d="M282.968482 12.0272817C322.918712 12.6460471 360.35609 23.7105503 392.889575 42.6785609L392.960304 42.7050213C397.579316 44.4005201 402.567692 44.0015792 407.127763 42.1432474 412.102386 40.1159764 414.752768 42.9736958 413.330324 50.0894985 411.432423 59.5785923 413.253701 67.6347556 417.377608 67.9970591 421.50348 68.3573271 427.476171 70.1484902 430.651128 71.9783262 433.826085 73.8081622 448.445425 67.4434268 463.13353 57.8322082 477.8236 48.223025 480.798157 53.5578416 469.742785 69.6905224 458.687412 85.8232032 455.113621 98.3593097 461.799498 97.5492155 468.487341 96.7391213 478.874715 96.4684114 484.884735 96.9508042 490.89672 97.4291262 492.124659 104.168377 487.61174 111.9233 483.100787 119.678222 485.93978 125.876054 493.918431 125.692866 501.899046 125.509679 517.573431 124.699585 528.75258 123.893562 539.929764 123.087538 542.88271 129.159174 535.312717 137.384277 527.746653 145.609379 528.931368 153.378549 537.95131 154.648647 546.973217 155.918744 556.441111 160.298952 558.993258 164.379955 561.547369 168.458922 553.452801 177.96837 541.004455 185.509574 528.558074 193.052813 527.740759 200.960391 539.191036 203.087397 550.639349 205.214404 557.584567 210.921701 554.625728 215.772089 551.664923 220.620442 549.578411 228.120938 549.989033 232.433977 550.40162 236.749052 537.192935 243.616534 520.634435 247.693466 504.075935 251.770398 496.030484 258.281683 502.753691 262.16525 509.478863 266.044747 515.7718 272.435942 516.738433 276.366324 517.707031 280.298741 529.986412 288.906502 544.026166 295.499203 558.067884 302.089869 567.824589 311.017189 565.712535 315.33837 563.600482 319.659552 550.643279 323.632677 536.921807 324.167991 523.196405 324.707375 506.205671 326.33774 499.162218 327.795096 492.1168 329.250416 493.867348 336.93817 503.050361 344.88035 512.231409 352.82253 510.915059 358.562394 500.122956 357.636281 489.330854 356.710168 482.927893 360.778958 485.898521 366.679619 488.867184 372.580281 498.838042 386.296927 508.054455 397.159924 517.272832 408.024957 521.546056 419.168841 517.549855 421.926825 513.553653 424.682774 510.237237 431.73955 510.178296 437.605609 510.117391 443.471668 502.537574 446.380273 493.330985 444.074151 484.128325 441.765993 472.196696 440.210937 466.823239 440.615984 461.449782 441.025102 454.158776 442.98724 450.622314 444.981945 447.087817 446.972578 442.099441 451.169599 439.537471 454.302099 436.97943 457.436635 433.026452 463.064551 430.759187 466.805639 428.489957 470.546728 422.234349 472.649309 416.854998 471.476911 411.475646 470.302478 403.363396 468.961141 398.826901 468.492996 394.290406 468.022816 393.960337 482.510883 398.094068 500.691189 402.225834 518.86946 397.598963 523.477634 387.806893 510.933386 376.531474 496.486027 367.61959 488.993673 363.519259 490.483595 359.951362 491.782188 354.257658 494.489287 350.870514 496.500274 347.481404 498.513298 341.850571 501.845268 338.357333 503.909177 334.866059 505.973085 328.801027 507.754071 324.881449 507.866019 320.959905 507.980002 313.8025 499.722333 308.977194 489.516774 304.151888 479.311215 297.640869 474.120912 294.507171 477.986161L291.074838 483.789122C288.167081 488.704644 282.997952 491.727232 277.435884 491.674311 276.858261 491.668205 276.282604 491.662099 275.704982 491.651922 149.895352 489.512703 47.9077217 382.101941 48 251.745973 48.0943683 117.673341 154.001577 10.0325772 282.968482 12.0272817 322.918712 12.6460471 360.35609 23.7105503 392.889575 42.6785609" id="Stroke-7"/></g></g></g></svg>