<svg width="21" height="24" viewBox="0 0 21 24" xmlns="http://www.w3.org/2000/svg" xmlns:xlink="http://www.w3.org/1999/xlink"><title>Group 6 Copy 8</title><defs><path id="path-1" d="M0 0H21V24H0z"/></defs><g id="Company" stroke="none" stroke-width="1" fill="none" fill-rule="evenodd"><g id="Colossal_De-Extinction" transform="translate(-641.000000, -18481.000000)"><g id="Group-6-Copy-8" transform="translate(641.000000, 18481.000000)"><g id="Group-3"><mask id="mask-2" fill="#fff"><use xlink:href="#path-1"/></mask><g id="Clip-2"/><path d="M19.6961078 22.2735926C19.6012155 22.3578461 19.3554224 22.5760667 19.1680555 22.7423775H2.01129286C1.513864 22.5127767 1.25537828 22.1090786 1.25175183 21.5664222 1.24349157 20.3886699 1.2459092 19.2065254 1.24711802 17.9942332H1.25014007C1.24691655 16.0116803 1.24832684 4.87005237 1.24852831 2.88749947 1.24852831 2.85415744 1.25215477 2.8204161 1.2479239 2.78767303 1.11938619 1.83832368 1.68269567 1.18705605 2.79198822 1.21500745 5.07302895 1.27290678 7.3566888 1.23197794 9.63934129 1.23177829 10.4103661 1.23157864 11.1815924 1.23177829 12.0056037 1.23177829 12.1643619 2.06872308 12.0630226 2.8932894 12.0819608 3.7102689 12.100496 4.50828139 12.0861916 5.30709249 12.0861916 6.10550428V8.44902956C12.4589107 8.93997594 12.8564106 8.82437694 13.2107959 8.82617381 15.0570649 8.83535784 16.9033338 8.83036652 18.7496028 8.83036652H19.6961078V22.2735926zM13.3840599 1.8293393C15.232948 3.73382794 17.0082996 5.56264815 18.8035967 7.4120326 18.1059069 7.6390379 15.4591985 7.69593897 13.4422847 7.54659863 13.2936 6.8118761 13.2553207 3.57310739 13.3840599 1.8293393v0zM20.9887378 8.59597406C20.9887378 8.30088713 20.9635541 8.00580021 20.9520703 7.76002753 18.4159689 5.14996568 15.9274143 2.58881879 13.4453067.0342604309 13.2416208.0224809121 13.0762141.0043125018 12.9106059.0043125018 9.41913483.00331423749 5.92766372.00950347618 2.43619261-.000102479245 1.84729647-.00167708403 1.30997659.0805798946.850021106.482081798.291949844.969434431-.00803864382 1.54183918.000826026056 2.3075079.0256068078 4.48332478.0123098029 15.8182167.00707158892 17.9942332H.0106980448C.0119068634 19.2402667.0296362032 20.4864998.000624556286 21.7317347-.0162989044 22.4614659.288726327 23.0027248.80307865 23.478298 1.28136788 23.920529 1.85273615 24.0009892 2.47588215 24 7.81362223 23.9916055 13.1517653 23.9953989 18.4897068 23.9951992 18.6238857 23.9951992 18.7580645 23.9912062 18.8924449 23.9916055 19.4231163 23.994201 19.8542616 23.7821696 20.2479335 23.4357719 20.8535516 22.9032977 21.0024378 22.2412488 21.000049 21.4665957 20.9824923 15.7112027 20.9911555 14.3513671 20.9887378 8.59597406v0z" id="Fill-1" fill="#000" mask="url(#mask-2)"/></g><path id="Fill-4" fill="#000" d="M15.9122895 13.1215324 12.2891523 17.0009149V10H10.711045V17.0009149L7.08810502 13.1217271 6 14.1110397 11.5000986 20 17 14.1112344z"/></g></g></g></svg>