<svg width="78" height="78" viewBox="0 0 78 78" xmlns="http://www.w3.org/2000/svg" xmlns:xlink="http://www.w3.org/1999/xlink"><title>Oval Copy</title><defs><path id="path-1" d="M0 0H32V49H0z"/></defs><g id="Company" stroke="none" stroke-width="1" fill="none" fill-rule="evenodd"><g id="Colossal_De-Extinction" transform="translate(-1190.000000, -7738.000000)"><g id="Group" transform="translate(1191.000000, 7739.000000)"><circle id="Oval-Copy" stroke="#c265f6" stroke-width=".5" cx="38" cy="38" r="38"/><g id="Group-3" transform="translate(38.000000, 38.500000) rotate(42.000000) translate(-38.000000, -38.500000) translate(22.000000, 14.000000)"><mask id="mask-2" fill="#fff"><use xlink:href="#path-1"/></mask><g id="Clip-2"/><path d="M10.4926099 30.9539831C9.53742493 28.2263747 8.48637283 25.9313251 5.8099375 24.9876398 2.77182171 23.9169368 1.02747612 21.7013279.0522461838 18.7567854-.151253539 18.1426479.271433252 17.952776.772121008 17.9807111 3.35225347 18.1256249 6.9084874 21.083262 7.46495238 23.6956378 7.75821857 25.0723183 8.63409533 25.900771 9.77970726 26.9998457 9.00623401 24.6550366 9.81543954 22.9514271 11.0059347 21.3412259 11.2050768 21.0719133 11.3702297 20.7240331 11.7436757 20.775975 12.098384 20.8248616 12.2883752 21.1561554 12.3615828 21.4861397 12.8491977 23.6921459 12.962931 25.8462101 11.2804632 27.6663616 10.8102787 28.1748692 10.4808444 28.6401645 10.8011277 29.3935414 11.609026 31.2935701 11.8900909 33.3791058 12.9145617 35.2931021 12.6701005 33.4114059 13.7751868 32.1818215 14.9085975 30.9854101 15.1273488 30.7549449 15.2885799 30.3040537 15.7696584 30.4502769 16.2572734 30.598246 16.3008494 31.0168372 16.3283022 31.4192784 16.4651307 33.442833 16.0738186 35.2511993 14.3939654 36.623515 13.4527247 37.3934784 13.5215748 37.9238103 14.3774066 39.2345813 15.2436966 40.5615024 16.3758 41.6099446 17.7549791 42.6352529 17.6965873 41.6902582 17.6024632 40.8386717 17.5985414 39.9866487 17.5758819 35.4126996 17.9632721 30.8579559 18.3807298 26.3106325 18.4722393 25.3123863 18.1693864 24.8182828 17.4421037 24.3390199 16.1082436 23.4599347 14.7769981 22.5860874 13.9372894 21.1391324 13.1860399 19.8440749 13.0230658 18.3731131 12.6260888 16.9785366 12.4818524 16.4726479 12.9768753 16.1723448 13.5904248 16.4678466 15.5613653 17.4180792 17.2142014 18.7266677 18.4609096 20.7502223 18.4609096 18.4233091 18.4587308 16.2404368 18.4622169 14.0571279 18.4630884 13.5900866 18.2308285 13.4779094 17.784175 13.4141823 16.5867076 13.2439523 15.384447 13.0505885 14.2161755 12.744611 12.6531059 12.3347495 11.576344 11.2003193 10.5666891 10.0130742 10.4276818 9.84895501 10.3557814 9.61587086 10.1958577 9.48317876 9.84158512 9.18680396 9.26943279 8.97990904 9.54003949 8.39196081 9.79800916 7.83151127 10.4137374 7.87341404 10.9122464 7.92491953 13.6048048 8.20470781 16.227206 8.66563827 17.8944221 11.3260276 18.1584924 10.035335 18.262639 9.94018083 16.8124311 8.33914586 14.7613108 6.07508687 14.4902683 3.47362328 14.9024969.650424213 15.0253811-.19068658 15.6031983-.100333734 16.0010468.274172265 17.6512683 1.82588418 19.0243467 3.58623698 19.2078015 5.95592587 19.3041044 7.1972954 19.3254566 8.46179876 18.9145353 9.67741555 18.8456853 9.88256453 18.7585334 10.1025541 19.0517996 10.3391301 20.0257222 9.47401253 20.9870079 8.54385835 22.2724986 8.09558602 23.6386049 7.61937851 25.0439295 7.90396815 26.4265947 7.90702356 27.0261999 7.90833302 26.9359976 8.45394199 26.6300944 8.79833037 24.9210453 10.7228023 22.9779934 12.2304291 20.2039479 11.8380271 19.3180487 11.7127553 19.1250072 11.9392921 19.1990863 12.7764745 19.3258924 14.2024781 19.3585743 15.6363385 19.4348322 17.1400368 20.2706191 16.675178 20.6763113 15.8812078 21.2632794 15.2880217 22.8359358 13.6992084 24.8060048 13.4154917 26.8545106 13.3137902 27.4305848 13.2849821 27.5743854 13.7729747 27.2636888 14.1444253 25.9738405 15.6874075 25.1424112 17.6489809 23.2098175 18.614927 22.3522426 19.0439939 21.4602428 19.3115606 20.5133372 19.432031 19.9146035 19.5071068 19.3516022 19.5917853 19.3803623 20.4486097 19.5359285 25.0273602 18.9650834 29.5650809 18.5811792 34.1137138 18.5567767 34.3996129 18.5781289 34.6885674 18.5781289 35.0866437 19.3324287 34.5401617 19.4561845 33.6863928 19.902838 33.0539229 20.8249053 31.7462073 22.0310878 30.6999475 22.9976026 29.4354442 23.8896024 28.2682775 24.0887445 27.2076136 23.2651589 25.8706534 21.9469862 23.7327392 22.425886 21.4721721 23.2682093 19.31287 23.6229176 18.4041037 24.2652272 19.0649453 24.5105598 19.4595297 25.5080135 21.0640566 26.2644921 22.7659201 25.9908351 24.7410246 25.9664326 24.9186749 25.9363652 25.0958886 25.8574927 25.6096341 27.3944167 23.9876477 29.2254785 24.0670884 30.9702598 23.8414245 31.3441415 23.7929744 31.6997213 23.7340486 31.923266 24.1604966 32.1228439 24.539804 31.8918913 24.8339963 31.6992856 25.0609697 30.1000479 26.9374281 28.3278137 28.5109643 25.6117243 28.2647856 25.0247561 28.2119706 24.5057665 28.2927207 24.2451822 28.9107866 23.8604065 29.8239178 23.2682093 30.6013014 22.621542 31.366027 22.9636133 31.6933924 23.3496963 31.5550259 23.6739014 31.5070123 25.3977663 31.2486119 26.803091 31.8706061 28.0920678 32.9539673 28.6284878 33.4048586 28.5831688 33.6536563 27.9508817 33.8369809 25.8919177 34.4362778 23.8543059 34.718685 21.9644166 33.3223625 21.3526102 32.8701618 21.0170753 32.9766647 20.5377397 33.6558387 19.1228284 35.6610608 18.2935779 37.7365573 18.5114577 40.2777857 18.7350024 42.8792493 18.6570014 45.5069021 18.6966555 48.1232062 18.7018846 48.4588649 18.8565793 48.982213 18.3262599 49 17.863919 49.0149495 17.9820098 48.4920379 17.968937 48.2113766 17.9144671 47.0708357 17.8669693 45.9250568 17.9192604 44.7853888 17.9558642 43.9831253 17.6490895 43.4462461 16.9980647 43.0691212 14.0348995 41.3537266 12.7746828 38.5039018 11.8770181 35.4048428 11.6430152 34.5973415 11.5549918 33.6680603 11.0843714 33.0272972 10.4320393 32.1394822 9.55529108 33.0526134 8.79096878 33.1477676 5.62735423 33.5427885 2.98272935 32.5262099.678432698 30.4157944.430485498 30.1883846.331568074 29.9439517.380808906 29.6366648.437893411 29.2809277.741182078 29.3533846.98738624 29.3141007 1.82273735 29.1809722 2.65895998 29.0535179 3.48908198 28.8911447 5.70927703 28.4581494 7.68806128 28.9605461 9.4515803 30.3725821 9.67643224 30.5524149 9.95880445 30.6597907 10.4926099 30.9539831" id="Fill-1" fill="#c265f6" mask="url(#mask-2)"/></g></g></g></g></svg>