<svg width="90" height="43" viewBox="0 0 90 43" xmlns="http://www.w3.org/2000/svg" xmlns:xlink="http://www.w3.org/1999/xlink"><title>noun_jaguar_160346 copy</title><g id="Company" stroke="none" stroke-width="1" fill="none" fill-rule="evenodd"><g id="Colossal_BetterWorld" transform="translate(-542.000000, -5940.000000)" fill="#fff" fill-rule="nonzero"><g id="Group-23" transform="translate(487.000000, 5940.000000)"><g id="noun_jaguar_160346-copy" transform="translate(55.000000, 0.000000)"><path d="M88.9342615 12.2398704C89.163706 13.4994367 87.7870393 14.3009789 86.8692616 14.7590031 86.2956505 14.9880151 86.7545394 15.9040634 85.9514838 16.2475815 85.2631505 16.4765935 84.2306505 16.5910995 83.6570394 16.5910995 82.2803728 16.4765935 81.9362062 14.9880151 80.4448173 15.2170272 79.0681507 15.4460392 77.691484 16.0185694 76.4295396 16.4765935 74.9381508 17.6216538 73.3320397 17.1636297 72.8731508 19.3392443 72.2995397 21.743871 72.6437064 24.9500398 72.6437064 27.3546665 72.6437064 29.5302811 73.6762064 31.5913896 74.020373 33.7670042 74.4792619 35.9426188 74.5939841 37.8892214 76.6589841 39.0342817 78.1503729 39.9503299 80.2153729 39.1487877 81.4773173 40.0648359 82.2803728 40.6373661 83.3128728 42.3549566 81.8214839 42.3549566 80.1006506 42.3549566 78.2650951 42.4694626 76.5442619 42.4694626 75.6264841 42.4694626 74.2498175 40.9808842 73.6762064 40.179342 71.381762 37.4311972 68.5137065 33.9960163 66.7928732 30.7898474 66.3339843 29.9883052 65.4162066 28.8432449 64.9573177 27.8126906 64.8425955 28.0417027 64.7278733 28.1562087 64.6131511 28.3852208 63.2364844 30.5608354 61.97454 32.6219439 60.2537067 34.5685465 59.4506512 35.3700887 56.2384291 38.9197756 58.4181512 39.8358239 60.2537067 40.6373661 62.3187067 40.5228601 63.2364844 42.5839686H56.8120402C54.9764847 42.5839686 52.9114847 39.0342817 54.0587069 37.3166912 55.7795402 34.7975585 55.4353735 30.7898474 55.2059291 27.9271966 54.8617624 27.1256544 54.5175958 26.2096062 54.1734291 25.2935579 51.0759292 25.2935579 47.0606515 25.8660881 44.0778738 25.9805941 44.5367627 27.8126906 45.1103738 30.3318233 44.4220405 32.1639198 43.9631516 33.4234861 42.4717628 34.9120645 42.7012072 36.2861369 43.0453739 38.3472455 44.1925961 39.8358239 46.3723182 40.0648359 47.290096 40.179342 48.0931515 39.8358239 48.896207 40.293848 54.5175958 43.3855109 44.7662072 43.5000169 43.5042627 42.2404505 41.8981517 40.6373661 37.3092629 40.8663782 37.0798185 38.2327394 36.9650962 37.0876791 37.6534296 35.9426188 37.6534296 34.7975585 37.6534296 32.2784258 35.8178741 30.1028112 34.0970408 28.4997268 33.2939852 27.6981846 31.8025964 26.5531243 30.7700964 25.751582 29.8523187 26.6676303 28.5903743 28.0417027 27.3284298 29.072257 22.7395411 32.850956 18.0359301 32.6219439 12.5292636 33.5379922 9.43176365 33.9960163 8.16981924 35.3700887 8.05509702 38.3472455 7.9403748 40.5228601 9.89065253 40.0648359 11.3820414 40.7518721 11.6114858 40.8663782 13.1028747 42.8129807 12.4145414 42.8129807 11.1525969 42.8129807 6.33426374 43.5000169 6.1048193 42.2404505 5.76065264 40.179342 3.6956527 39.7213179 4.72815267 37.5457033 5.5312082 35.8281128 6.1048193 33.1944741 5.87537486 31.2478715 5.64593042 29.5302811 7.9403748 30.2173173 8.85815256 30.3318233 10.6937081 30.6753414 11.6114858 30.1028112 13.1028747 29.186763 14.823708 28.0417027 16.6592635 26.8966424 18.1506523 25.408064 19.7567634 23.9194855 19.6420412 21.1713408 19.9862078 19.1102322 16.6592635 24.2630036 12.0703747 29.9883052 5.07231933 27.3546665 2.43370829 26.3241122.253986122 24.0339916.0245416835 21.0568348-.204902755 18.423196 1.17176387 14.9880151 4.26926379 14.9880151 5.18704155 14.9880151 6.33426374 15.4460392 7.02259705 16.1330754 7.82565259 17.0491237 6.79315261 17.8506659 5.99009708 17.0491237 3.81037492 15.1025211 1.97481941 17.7361599 1.97481941 19.9117745 2.08954163 26.6676303 11.0378747 25.8660881 13.791208 21.4003529 16.8887079 16.3620875 17.8064857 11.0948101 22.9689855 7.43061705 28.9345409 3.30839993 34.6706519 4.79697834 41.4392628 5.36950849 44.5367627 5.59852055 47.5195404 5.48401452 50.6170403 5.14049643 53.8292625 4.79697834 56.2384291 3.42290596 59.2212068 2.62136374 62.3187067 1.81982152 65.5309288 2.04883359 68.6284287 2.73586977 69.7756509 2.96488184 71.4964842 3.88093009 72.6437064 3.53741199 73.3320397 3.42290596 74.4792619 2.8503758 75.052873 3.1938939 73.1025953 1.70531549 75.5117619-.928323226 77.3473174.331243118 79.1828729 1.47630343 78.4945396 2.39235168 80.9037062 2.73586977 85.7220394 3.42290596 87.2134282 6.62907483 89.7373171 10.4077739 90.0814837 10.751292 90.3109282 12.3543764 88.9342615 12.2398704z" id="Path"/></g></g></g></g></svg>