<svg width="163" height="109" viewBox="0 0 163 109" xmlns="http://www.w3.org/2000/svg" xmlns:xlink="http://www.w3.org/1999/xlink"><title>Group 3</title><defs><path id="path-1" d="M0 0H163V109H0z"/></defs><g id="Company" stroke="none" stroke-width="1" fill="none" fill-rule="evenodd"><g id="Colossal_BetterWorld" transform="translate(-607.000000, -11474.000000)"><g id="Group-3" transform="translate(607.000000, 11474.000000)"><mask id="mask-2" fill="#fff"><use xlink:href="#path-1"/></mask><g id="Clip-2"/><path d="M104.792462 40.7031754C104.792462 40.7031754 86.8482175 29.8858386 74.9626551 31.165251 63.0778082 32.4446633 53.9888909 41.7501296 48.5125749 57.1030777 43.0359013 72.4563829 45.2498224 78.3885283 39.1907827 84.6691824 33.1317429 90.9501936 28.4710257 95.9517925 16.3529462 94.5556155 16.3529462 94.5556155 9.24471741 91.8807403 6.04885833 89.9582295c0 0-1.2316255700000003 8.6687953 8.67253277 11.576128499999996C27.437934 105.267971 41.463012 100.34243 53.114984 91.5025941 53.114984 91.5025941 55.4748545 93.0726684 56.4274594 100.729146 56.9096643 104.600234 60.9719181 104.92339 65.5160191 104.350636 70.0604777 103.77824 77.0603177 105.187986 82.7698663 104.36242 82.7698663 104.36242 87.6634584 105.74717 90.4604611 104.002485 93.2567484 102.257799 90.4604611 100.836627 88.828906 100.022488 87.1973509 99.2083486 86.0326188 98.6270248 83.3522324 99.7900295 80.6722037 100.953034 77.7593001 98.7430753 77.2931926 97.8128857 76.8270851 96.881982 85.6130147 90.4977751 84.0515725 81.8778996 81.8129687 69.519412 83.8852333 77.8543389 94.5384546 80.2492645 99.5010865 81.3651349 110.268778 81.9943072 114.463388 81.9943072 118.658355 81.9943072 119.124105 81.9943072 118.658355 84.5531319 118.192248 87.1119566 117.72614 86.6466833 119.823803 88.5077765 121.921108 90.3685127 124.134671 95.7189773 125.532993 98.6270248 126.931316 101.534358 128.795746 102.024984 130.077452 102.955531 131.359158 103.886077 132.058498 105.066936 135.670384 104.883755 135.670384 104.883755 138.467029 104.407055 141.379933 104.90268 144.293194 105.398305 145.341668 103.886077 144.759302 102.955531 144.176578 102.024984 142.078915 98.7430753 138.233797 99.6736219 134.388678 100.604169 132.524248 97.1144401 132.640865 95.3701116 132.757481 93.6254259 131.475775 75.5968885 132.524248 73.0380638 133.57308 70.4792391 141.729782 59.4294442 142.078915 55.1259339 142.428764 50.8224236 141.962657 35.4691184 144.176578 30.2350614 146.390499 25.0006474 148.60442 23.721235 151.517324 21.5116332 154.430585 19.3013171 156.52789 15.6958953 156.178041 11.9737088 156.178041 11.9737088 157.676167 7.56200364 156.627336 6.51576358 155.578862 5.46880935 153.789553 2.26188715 145.924034 5.22742427 141.049401 7.06602158 138.000922 9.29883357 135.903617 9.64734221 133.805954 9.996565 129.611345 9.29883357 128.329638 12.0901164 128.329638 12.0901164 126.34895 13.3695287 126.581825 14.9981638 126.581825 14.9981638 121.804491 19.7665904 121.454642 22.3254151 121.105509 24.8845969 120.75566 37.3302116 118.075631 40.0050868 115.39596 42.6803191 110.50201 44.5414124 104.792462 40.7031754" id="Fill-1" fill="#ff7b31" mask="url(#mask-2)"/></g></g></g></svg>