<svg width="246" height="110" viewBox="0 0 246 110" xmlns="http://www.w3.org/2000/svg" xmlns:xlink="http://www.w3.org/1999/xlink"><title>Group 3</title><defs><path id="path-1" d="M0 0H246V110H0z"/></defs><g id="Company" stroke="none" stroke-width="1" fill="none" fill-rule="evenodd"><g id="Colossal_BetterWorld" transform="translate(-146.000000, -11473.000000)"><g id="Group-3" transform="translate(146.000000, 11473.000000)"><mask id="mask-2" fill="#fff"><use xlink:href="#path-1"/></mask><g id="Clip-2"/><path d="M214.841448 49.3369732C216.520992 49.4546081 218.222379 49.2730919 219.900363 49.3977382 223.24463 49.648589 226.403235 50.3092145 228.802027 53.0561077 229.771685 54.166239 231.2133 54.8642584 232.11743 55.5163145H236.22307C236.907993 54.3306164 237.595257 53.139465 238.319965 51.8844323 239.664069 51.4871222 241.104904 51.0602085 242.431066 50.6675726 243.585606 49.1492246 244.659797 47.736826 246 45.9730806 245.649737 44.7827082 245.42819 43.2480004 244.760429 41.937656 243.61525 39.6916851 242.191576 37.5867204 241.129087 35.8276492 241.088522 35.034587 241.07136 34.7759459 241.061999 34.5173047 240.962147 31.4946315 240.384096 28.9261382 237.353428 27.1366845 235.348584 25.9517654 233.477916 24.1498471 232.739946 21.9256893 233.252468 20.204791 233.51302 18.5423207 234.246309 17.1205737 234.781455 16.0844511 234.33056 15.7884161 233.889026 15.451092 232.472374 15.9091672 231.118909 16.2114346 229.889479 16.7816915 228.631186 17.3651921 227.494588 18.211229 226.104458 19.0642772 221.989458 18.606981 217.65759 19.4039384 213.264096 18.3732692 208.842517 17.3355886 204.17833 17.3760986 199.676402 16.6219884 196.357878 16.0657542 192.982407 15.3350151 190.053151 13.5681535 187.355582 11.939961 184.599507 10.9420114 181.518912 11.3346473 177.378948 13.7496697 173.341177 16.1062642 169.748839 18.2011014 165.658021 18.2011014 162.070365 18.6817688 158.667591 18.094373 152.837161 17.088633 147.025454 16.554991 141.127936 16.6586032 138.012237 16.713136 134.885616 16.5121438 131.781618 16.7069037 126.352157 17.048123 121.011627 16.0439411 115.619611 15.8943655 115.236585 15.884238 114.837956 15.884238 114.475212 15.7798467 110.126963 14.524035 105.731908 13.517516 101.289267 12.6083769 96.5018243 11.6283452 91.9585513 11.8075243 87.3996765 13.3165238 79.7929706 15.8328214 72.746373 19.5106668 66.0242948 23.813302 61.3187621 26.8258478 56.8043526 30.1453351 52.0215905 33.0262231 44.8899625 37.3210679 37.5531695 40.9560662 28.7217147 40.1341795 25.5209851 39.8365864 22.4107465 39.3138509 19.4627677 38.2769494 12.8023171 35.9351566 9.51187659 30.0284791 8.92056462 22.9680441 8.25280335 14.9906797 13.5597893 7.93413987 21.2304629 7.38491702 25.6957264 7.06473179 30.4683472 7.94426739 34.9554534 8.19200195 36.8284613 8.291719 36.8737068 5.69284323 36.3182792 4.5897233 35.5374042 3.03787661 32.4973742 1.66988325 30.9496658 1.16740277 16.1801282-3.62836439-.194064738 6.89256406.0 22.827817.138255709 33.9719771 7.13882776 42.4487059 17.1794298 46.5472327 22.0737455 48.5439109 27.0998973 48.5291092 32.2118594 48.7207529 36.3884878 48.8773398 40.4036365 48.1411475 44.2159605 46.8432677 49.7991 44.9439694 55.1544518 42.3879408 60.64398 40.202735 62.6105993 39.4205794 64.4680054 38.1047816 66.9697699 38.5737634 69.7437875 41.8480664 72.7752365 45.1176952 74.2683382 49.5075828V54.9670916C72.524826 58.0614365 70.4170095 60.9797185 67.6375312 63.2669785 65.2231373 65.2535292 62.797042 67.4270494 59.4192309 67.6771211 57.2443262 67.8376032 55.0608404 67.8944731 52.8828153 68.0198984 52.5146105 68.0417116 52.1534266 68.1772644 51.6845895 68.2832138 51.1455439 69.2523389 50.5986973 70.2370449 50.1641845 71.0184215 50.1641845 72.8398158 50.1610641 74.3939996 50.1641845 75.9489625 50.1673048 77.5031463 50.2289323 79.0604462 50.1665247 80.6122929 50.1204991 81.7644924 50.3389257 82.9540857 50.1712053 84.0143584L50.1267399 87.8635926C50.1267399 88.8498566 50.201629 89.9934866 50.0994366 91.1223148 50.0331285 91.8522748 49.6056365 92.5479571 49.5245066 93.2786962 49.3973511 94.4238842 49.1680032 95.6500924 49.4347957 96.7306202 50.5635931 101.289559 51.6892701 105.908485 56.4478493 108.428677H59.6002129C61.8406456 107.450204 61.8344049 105.322647 62.5879766 103.635247 62.0972969 102.490059 61.7010086 101.290338 61.0917545 100.213706 60.4154122 99.0171011 59.543266 97.930341 58.9402526 97.0609329 58.9402526 93.985285 60.0815315 83.3732089 61.0114047 82.5404157 63.9102375 79.943098 67.3410951 78.5353736 71.2041253 78.1552023 71.7166476 78.1045648 72.2603738 78.207398 72.7479332 78.0796355 75.2621792 77.418231 77.7631636 76.7054098 80.8133348 75.8593729 80.4661926 76.9562606 80.4568314 77.7321839 80.0652238 78.0983325 77.7163579 80.2913287 76.6967738 83.689499 73.9477192 85.3722243 73.6528433 86.4574263 73.4968243 87.5418493 73.4585997 88.6223771 74.4547809 90.4328649 75.2403365 92.2160863 76.3886363 93.7211906 77.6360081 95.3556155 79.3069715 96.6620647 80.7205035 98.1788546 83.3463031 100.99664 86.1257814 103.706919 88.4239411 106.773218 89.548838 108.272869 90.5848041 109.486613 92.3540595 110H102.37906C104.769271 109.125139 106.380167 107.641847 106.995662 105.222151 106.3279 103.160812 104.973655 101.754646 102.968031 100.93198 100.555198 99.9426001 98.7133935 102.013287 96.688267 102.08418 94.9720581 100.207473 93.4368313 98.3159656 91.6800574 96.6605066 89.4014001 94.5134738 88.4169203 92.2005055 89.9006609 89.2199004 90.0090941 89.0009903 90.0363974 88.7415701 90.1019254 88.5000679 90.4186439 88.127687 90.7408231 87.7669917 91.0754838 87.4281095 91.2213616 86.7885181 91.5521219 86.2385162 92.1083296 85.8684724 93.6685195 85.0894329 97.5736748 80.2056343 99.0683367 79.3494699 100.558318 77.5272965 101.940646 75.8437922 103.523459 74.381535 107.974681 70.2721016 110.554455 65.1475798 112.464127 59.5735522 112.910341 58.2694401 113.2255 56.9201436 113.693557 55.2646847 118.327321 53.3248764 122.749679 52.805257 127.462233 54.4724015 131.840125 56.0211321 136.342053 57.2302014 140.83072 58.4392707 142.165462 58.7984079 143.637501 58.6862262 145.047913 58.7251782 146.58236 58.7672463 148.118367 58.7345266 149.875921 58.7345266 148.764285 62.9701644 147.729879 66.9136624 146.66427 70.9716791 146.50513 70.9911551 145.782762 74.3550477 145.959064 74.3480363 144.323985 80.7899139 144.572055 87.3727977 141.142758 93.1408062 142.163902 95.1343683 142.683445 97.1793469 141.24183 99.1962802 143.233412 101.997706 143.640622 105.702818 146.439602 107.62315H156.757138C160.407202 106.506787 161.096026 104.112798 160.693497 100.676455 159.557679 99.9986909 158.242439 98.9882767 156.763379 98.3751726 153.529885 97.0352246 152.287194 95.0385464 153.57123 91.9418644 156.158025 85.7087693 158.983529 79.5738333 161.654574 73.5222544 161.889383 73.5222544 164.111093 70.1793959 163.660978 70.1793959 164.803037 67.8757761 165.798439 65.8674123 166.842206 63.7616685 171.291867 62.3640717 176.060588 62.2425415 180.164667 59.9942335 183.205477 63.1314256 186.069986 66.0863224 188.886909 68.9913607 189.269935 69.3871128 189.656862 69.785202 190.038329 70.1793959H189.577293C190.668646 71.1578696 191.631283 72.289814 192.486267 73.5222544H192.632925C192.84121 73.8034877 193.066657 74.1018598 193.284304 74.3908835 193.939584 75.2610706 194.615926 76.1546289 195.258724 77.0902554 197.727725 80.6769532 200.141338 84.3703795 203.661907 86.9856151 206.785407 89.3063738 209.494677 91.8997963 211.746031 95.0626966 213.146301 97.0282133 214.85783 98.7717037 216.454684 100.643736 216.990609 100.170859 217.471148 99.744724 217.872897 99.390261 220.159355 100.938992 222.428651 102.476037 224.349245 103.776253H234.872726C236.651342 102.883474 238.341808 102.035879 240.107943 101.15089 240.451965 100.28304 240.817049 99.3629947 241.113485 98.6166748 240.264742 96.0840174 238.812205 94.4402441 235.965639 93.5443486 233.413168 93.8528483 230.406682 94.2151016 227.724716 94.5391821 225.232312 92.9740917 223.061308 91.6917927 220.990936 90.2638133 220.28495 89.7769136 219.683497 89.0002112 219.286429 88.226625 216.682472 83.1519617 209.291852 69.1432734 209.136613 68.5613309 208.389282 65.7638001 207.285448 63.0293714 207.501534 60.0479872 205.570799 55.5389066 207.429766 51.9802542 210.242008 48.6568717 211.857584 48.9046062 213.341325 49.2318028 214.841448 49.3369732" id="Fill-1" fill="#ff7b31" mask="url(#mask-2)"/></g></g></g></svg>