<svg width="58" height="43" viewBox="0 0 58 43" xmlns="http://www.w3.org/2000/svg" xmlns:xlink="http://www.w3.org/1999/xlink"><title>noun_Wolf_1555 Copy</title><g id="Company" stroke="none" stroke-width="1" fill="none" fill-rule="evenodd"><g id="Colossal_BetterWorld" transform="translate(-200.000000, -5944.000000)" fill="#fff" fill-rule="nonzero"><g id="Group-20" transform="translate(143.000000, 5944.000000)"><g id="noun_Wolf_1555-Copy" transform="translate(86.000000, 21.500000) scale(-1, 1) translate(-86.000000, -21.500000) translate(57.000000, 0.000000)"><path d="M57.6639813 28.189606C57.8205588 27.1787058 58.1214902 27.5081458 57.9474506 26.6008832 57.8997206 26.3519215 57.773993 26.1116445 57.661653 25.6733562 57.5464026 25.2234883 57.1983233 24.4812351 57.0877296 24.037157 56.9521067 23.4836515 57.0906399 23.2422166 56.9672406 22.6806054 56.8426771 22.1143623 56.5411635 21.8735064 56.4387188 21.3014735 56.3746908 20.9413476 55.5295216 20.389579 55.4491956 20.0213473 55.3147369 19.404733 54.6703827 18.8975459 54.1727108 18.4528888 53.6406966 17.9752298 52.9777161 16.5399368 52.599951 15.8688983 52.3135714 15.3611323 51.2518713 14.6767772 50.6011143 14.204329 49.5021615 12.8634099 48.8432555 11.90346 46.814733 11.1195202 44.7122874 10.3060524 42.7937766 10.5486453 40.5341714 10.4948001 39.156988 10.4612193 37.8298628 10.4948001 36.4526795 10.4948001 35.2349839 10.4948001 34.5626902 9.95982203 33.3601286 10.140464 32.1855064 10.3164741 31.5487191 9.78554886 30.4165882 9.43063374 29.7693237 9.22741154 28.9544223 9.19498862 28.2472043 9.19209372 27.859544 9.1897778 27.3548872 9.28704654 27.0335832 9.07803454 27.112163 8.88754991 27.3240374 9.10698357 27.5050619 8.86439068 27.6860864 8.6217978 25.2547698 8.6038494 24.1272955 8.46547303 22.9992391 8.32709666 22.4584938 7.45688878 21.6534876 7.28666848 20.8484815 7.1158692 18.4119262 5.55725335 17.7378863 5.22607643 17.3525544 5.03674977 16.0300858 4.40855579 14.7570934 3.87878852 14.2553469 3.67035549 14.5882923 3.60666762 14.1010977 3.25985823 13.6139031 2.91362781 12.2559281 2.62819037 11.9072667 2.489814 11.5586053 2.35085865 10.5283371 2.15863708 9.62088614.959568204 9.62088614.959568204 8.43811494-.285819122 8.29841755.0609902726 8.19713695.312267864 8.20761425.908617909 8.15930224 1.12573564 8.14009385 1.20910885 8.11273644 1.23574196 8.06733479 1.16626429 7.75476189.934672037 5.79084948-.0912816319 5.64824173.152469211 5.50621605.396220055 7.38863833 2.95068258 7.23788156 3.06532074 7.08828895 3.1799589 6.9223983 3.13132453 6.80947625 3.2905442 6.80947625 3.2905442 6.00738042 4.01195406 5.87816034 4.16654189 5.66686805 4.42129336 4.97885842 5.12938667 4.97885842 5.12938667 4.97885842 5.12938667 4.59352646 6.08933655 4.533573 6.66889615L4.46314224 7.08981507 4.16221079 7.59121229C3.07897397 8.49847493 2.30423555 9.34031276 2.03531809 9.45842481 1.76698269 9.57711584.446842394 10.2666818.163955188 10.4785887-.239421014 10.7790796.186656013 11.4402755.528332536 11.602969.647075314 11.7355556.749520063 11.901723.874665638 11.9850963 1.72099897 12.5530763 1.90376971 12.231742 2.23380479 12.2786394L2.84323463 12.200477C3.06849667 12.141421 3.12088319 12.0783121 3.21750721 12.0435733 3.4945737 11.9434097 3.9189045 11.723397 4.22216425 11.5728621 4.52425984 11.4229061 5.52600651 10.5897529 5.72798565 10.4646931 5.92938272 10.3402123 6.48409775 10.0530379 6.76174631 9.97719145 7.03881279 9.90250295 7.2646569 9.95229528 7.2646569 9.95229528 7.2646569 9.95229528 6.83625158 10.2776824 6.71052393 10.3529499 6.58479628 10.4282174 6.14649574 10.8057127 5.92006956 11.0558324 5.69364338 11.305952 5.01320069 12.203372 5.01320069 12.203372 5.01320069 12.203372 4.59003403 12.4054362 4.47361954 12.5154425 4.29666952 12.6816099 4.08130272 12.9056755 4.08130272 12.9056755 4.08130272 12.9056755 4.17501638 12.9039385 3.97303724 12.7788787 3.7710581 12.6543979 3.73904412 12.6816099 3.81471354 12.9323086 3.89096503 13.1830072 3.86477177 13.0811066 3.86477177 13.0811066 3.86477177 13.0811066 3.62903243 13.3949141 3.46255971 13.6583503 3.20179126 14.0688475 3.08304848 14.5430327 3.07897397 14.5499804 3.02018466 14.9020006 3.25708814 14.922265 3.59061565 14.471818 3.60982404 14.4237627 3.81587768 14.145852 3.81587768 14.145852 3.81587768 14.145852 3.87524907 14.0526361 3.9253073 14.1782749 3.9759476 14.3039137 3.874667 14.3415474 3.99166356 14.4289735 4.40959157 14.6426173 4.75010395 14.7838886 5.01261862 14.7219377 5.59119863 14.5852982 5.91948748 14.1122711 6.38281715 13.7590929 7.27164177 13.0811066 7.47420297 12.860515 7.80423805 12.650924 8.19306244 12.4036992 8.31762594 12.3961725 8.4346225 13.4933408 8.49341182 14.0485832 8.31122315 14.3513901 8.37874355 14.7092001 8.42123484 14.9378974 8.48642695 14.2309621 8.54638041 14.4527117 8.6901523 14.9917426 9.04347028 15.5660914 9.04347028 15.5660914L9.09120022 15.280075C9.09120022 15.280075 9.31471603 15.5168781 9.46198036 15.7201003 9.87001314 16.2851854 9.74486757 15.7224162 9.81297004 15.4942978c0 0-.0977881699999994.4018125999999995.3713622599999997.9142104C10.2925977 16.1525988 10.6296177 16.7061043 11.0364863 17.2103964 11.7157649 18.0510763 12.9509226 19.5714794 12.9747875 19.2953056 13.0463825 18.4847328 13.1505734 19.255356 13.1505734 19.255356 13.9497589 19.9188678 15.139515 21.8098185 15.9712965 22.7871378 16.0690846 22.9029339 16.216349 22.901197 16.3094806 22.8311403 16.4031942 22.7587677 16.6220535 22.8068231 17.1255461 23.2839032 17.1878279 23.3811719 17.3967919 23.8987806 17.4579095 23.9954704 17.614487 24.2432741 18.1313673 24.12632 18.2477818 24.39323 18.34557 24.6155586 18.4247318 24.8315184 18.5196096 25.0272138 18.8153024 25.6397753 19.0428927 25.7451498 19.333929 26.4022928 19.6144879 27.0356976 19.7466183 28.0043322 19.7908558 28.7101096 19.9258966 30.8940245 19.7076195 32.434113 19.5539523 33.5561774 19.4206578 34.5317598 19.0813095 35.3938619 18.9980732 36.3879717 18.9375376 37.1128554 18.8857332 37.7508921 18.6552325 38.439879 18.4974909 38.9134852 18.3368389 39.2568207 18.193649 39.7286899 18.0737421 40.1258706 17.6336954 40.8044359 17.3281073 41.0273434 16.8537183 41.3753108 16.3426587 41.128665 15.7803767 41.2456191 15.6517387 41.2734102 15.6721112 41.3232025 15.4101786 41.4673687L15.0015638 41.5461101C14.7041248 41.7088036 14.4980711 42.0289799 14.4352073 42.204411 14.3129721 42.5436937 14.4352073 42.5986968 14.7070351 42.6704904 14.9136708 42.7254936 15.4515058 42.7573375 15.7058714 42.7689171 16.2541837 42.7926553 16.8071525 42.6415414 17.3106452 42.7810757 17.4026126 42.8071299 17.5364893 42.9680865 17.8042426 42.9889298 18.193649 43.0196158 18.7722291 42.9767712 19.0009835 42.9767712 19.4654773 42.9767712 19.7087836 42.9397164 20.1738595 42.9397164 20.8997038 42.9397164 20.9264792 43.0578285 21.600519 42.8905031 22.4288081 42.684386 23.5597749 42.8962929 23.8641988 42.6571739 23.9573304 42.5842223 23.9247343 42.1679353 24.098774 41.9212895 24.3892281 41.5102133 24.2786343 41.3330452 24.4253166 41.2299866 24.5714168 41.1263491 24.7064576 41.5982183 24.7955147 41.3347821 24.8839897 41.0713459 25.4899271 39.6493695 25.7832916 38.9829628 26.0766561 38.3177141 26.1709519 38.2187084 26.4544211 37.544196 26.6115807 37.1701745 26.799008 36.8372606 26.807157 36.438343 26.6371919 37.3450266 27.007972 35.2340633 26.9486006 35.33249 27.2460397 34.6429241 27.0446426 35.2809607 27.2832923 34.5607088 27.7361446 33.1931566 27.562105 31.8244464 27.8385894 30.3943642 27.9509294 29.8090148 28.2972625 29.3070386 28.413677 28.7182153 28.4707201 28.429304 28.3770064 27.9412233 28.5050623 27.6916827 28.6523267 27.4039293 29.3089044 27.1300715 29.5731653 26.8903735 30.004481 26.4995616 30.4253193 26.2291776 30.9235733 25.9327395 31.4177528 25.6380384 31.7617576 25.1650112 32.2821304 24.9195234 32.8123984 24.6694038 32.9427826 24.8072012 33.5167061 24.8865215 34.4631558 25.0185291 35.2413867 24.7035637 36.111585 24.6282962 37.0842281 24.543765 36.874682 24.7967795 37.1098392 24.7765152L37.6761957 24.7336707C38.1482565 24.7846209 38.7757306 24.4609708 39.2541941 24.6248223 39.9817847 24.8743629 39.9800384 26.1811222 40.3304461 26.7896309 41.2099575 28.3198766 43.0429036 30.0875045 43.696571 30.3822056 44.4020428 30.698908 44.7058846 31.5592732 45.3514029 32.044459 46.2664208 32.7357619 46.7931964 33.5914952 47.2734061 34.6979272 47.9253273 36.1945921 47.6651409 37.5575125 47.0848147 38.9609616 46.7798087 39.6974249 46.6005304 40.1067642 45.9934288 40.5085768 45.7064671 40.6996404 44.9841152 40.4628373 44.6703782 40.6400054 44.5068158 40.7314843 44.1895863 40.9590237 44.0545455 41.0313963 43.6837654 41.2311446 43.0039048 41.6150088 43.2961051 42.05735 43.6604825 42.6102764 44.5289346 42.1175639 45.0958731 42.2785205 45.6796918 42.444109 46.1645581 42.1870416 46.8030916 42.1870416 47.2815551 42.1881996 48.1890061 42.2449397 48.5114742 41.8865507 48.7099609 41.6653801 48.7541984 41.5339515 48.8356886 41.2728312 48.9241636 40.9833409 48.9561776 40.6156882 49.1383662 40.3481991 49.2774815 40.1449769 49.5644433 39.7779032 49.6238146 39.5937874 49.7245132 39.2788219 49.610427 38.8642718 49.7419754 38.5799923 49.948029 38.1341772 50.5522202 37.4515591 50.7571097 36.9270026 50.9020457 36.558192 50.7448862 35.4540759 51.2547816 35.3712817 51.2140366 34.7882482 51.1284719 34.5375496 51.3874941 34.1600542 51.6308004 33.8039811 50.9107768 33.4027476 50.7210212 33.0177254 50.4748046 32.5122754 50.2361549 32.1191475 49.779228 31.7265986 49.2600194 31.2802046 48.7297514 30.701224 48.0289362 30.1784045 49.3735235 30.698908 50.7931982 31.6443834 51.67562 32.7861332 52.4637461 33.806876 53.2314996 34.9885755 53.3886592 36.2721755 53.5225359 37.3519744 54.1016979 39.1132335 53.3816743 39.6846873 53.0743401 39.9290172 52.7495437 39.9660719 52.5219533 40.1970852 52.3607193 40.3615157 52.2087984 40.7471168 52.0155503 41.0655561 51.9392988 41.1911949 51.7681695 41.3226235 51.7344093 41.4337878 51.6738738 41.6271673 51.5807422 41.8506539 51.6645606 41.9878723 51.7367376 42.1077213 52.0114758 42.2246754 52.2099625 42.2883632 52.302512 42.3184702 52.5725936 42.2733097 52.6948288 42.2883632 53.2873786 42.3647887 53.9532695 42.3497352 54.5178797 42.1609875 54.8467507 42.0504022 55.2611862 41.8894456 55.5789978 41.7533851 56.0667745 41.5426362 56.0033286 41.5652164 56.3292892 41.1639828 56.143026 41.5050024 56.1802786 40.5265252 56.1564137 40.530578 56.1884276 40.0071796 56.0126418 39.8832777 56.0493123 39.366827 56.0749235 39.007859 56.2576943 38.6407853 56.2792309 38.2476574 56.3316175 37.2709171 56.5900576 35.9977387 56.4579272 35.033736 56.3659597 34.3615395 55.853736 34.1467377 55.5370886 33.5307023 55.3356915 33.1375744 55.1238171 32.7786064 54.8531535 32.4155856 54.7402314 32.2644716 54.407286 31.1088263 53.5656092 29.833332 52.623816 28.4073027 51.6843511 27.4409841 51.5859808 27.0652256 51.5126397 26.963904 50.7862133 26.2893916 50.5312656 25.589983 50.4812074 25.4527646 50.357808 24.782305 50.4812074 24.7464082 50.6080991 24.7087745 50.6517546 25.0775851 50.8205556 25.2564902 51.1249795 25.5818773 51.5964582 26.1811222 51.8030939 26.2841808 51.8007656 26.3015502 52.1354572 27.1891275 52.1441883 27.2180765 52.310079 27.4444579 53.017297 27.8375858 53.2926172 28.45999 53.8420936 29.7024824 54.7192768 30.3353082 54.9905226 31.1441441 55.0446553 31.3033638 55.5271933 31.4596886 55.9148536 31.9136094 56.5510588 32.6587575 57.3316179 33.3066368 57.3892431 32.9829866 57.4497786 32.6408091 57.3589753 31.8215515 57.4887775 31.3676307 57.5871477 31.0208213 57.9008848 30.4458935 57.8583935 30.1743516 57.7239347 29.3400405 57.5370895 29.0140744 57.6639813 28.189606zM23.1098329 35.7406713C22.9206593 36.0556368 22.8508106 37.8516347 22.7524404 38.3061345 22.6988897 38.5516223 22.1179814 39.4889919 22.0731619 39.9249643 22.0231036 40.4159399 21.0347446 41.2062484 21.0347446 41.2062484 21.0347446 41.2062484 20.7733941 41.0209746 20.7256642 40.8854932 20.6785163 40.7500117 20.8735106 40.5271042 20.9870147 40.2706157 21.0894594 40.0390235 21.150577 39.5411002 21.271066 39.3002442 21.5242676 38.79711 21.3420789 38.9343285 21.4055248 38.5574121 21.4689707 38.1804957 21.7553503 38.650049 22.0481328 38.0484881 22.1197277 37.9043219 22.1150711 37.7242589 22.1721142 37.5320374 22.2012178 37.4370846 22.1825915 37.1956496 22.2582609 37.1394885 22.3758395 37.0532204 22.5894601 37.1638057 22.5545358 37.0173236 22.5231039 36.8882109 22.6313693 36.04811 22.5877139 35.8883114 22.5428943 35.7267758 22.6098327 35.0302621 22.7291575 34.6423451 23.1208923 33.3668508 23.166876 31.8447107 23.3467364 32.1318851 23.4346293 32.2731564 23.2995885 35.4257059 23.1098329 35.7406713z" id="Shape"/></g></g></g></g></svg>