<svg width="222" height="90" viewBox="0 0 222 90" xmlns="http://www.w3.org/2000/svg" xmlns:xlink="http://www.w3.org/1999/xlink"><title>Group 53</title><g id="Mammoth-Page" stroke="none" stroke-width="1" fill="none" fill-rule="evenodd" stroke-linecap="round"><g id="Colossal_Mammoth_8-03-21" transform="translate(-379.000000, -6183.000000)" stroke-width=".77910807"><g id="Group-53" style="mix-blend-mode:screen" transform="translate(380.000000, 6183.950000)"><path d="M220 88.05H0z" id="Stroke-1" stroke="#a7a9ac"/><path d="M220 80.05H0z" id="Stroke-3" stroke="#a7a9ac"/><path d="M220 73.05H0z" id="Stroke-5" stroke="#a7a9ac"/><path d="M220 66.05H0z" id="Stroke-7" stroke="#a7a9ac"/><path d="M220 59.05H0z" id="Stroke-9" stroke="#a7a9ac"/><path d="M220 51.05H0z" id="Stroke-11" stroke="#a7a9ac"/><path d="M220 44.05H0z" id="Stroke-13" stroke="#a7a9ac"/><path d="M220 37.05H0z" id="Stroke-15" stroke="#a7a9ac"/><path d="M220 29.05H0z" id="Stroke-17" stroke="#a7a9ac"/><path d="M220 22.05H0z" id="Stroke-19" stroke="#a7a9ac"/><path d="M220 15.05H0z" id="Stroke-21" stroke="#a7a9ac"/><path d="M220 8.05H0z" id="Stroke-23" stroke="#a7a9ac"/><path d="M220 .05H0z" id="Stroke-25" stroke="#a7a9ac"/><path d="M220 88.05H140z" id="Stroke-27" stroke="#ff7b31"/><path d="M220 80.05H54z" id="Stroke-29" stroke="#ff7b31"/><path d="M220 73.05H38z" id="Stroke-31" stroke="#ff7b31"/><path d="M220 66.05H98z" id="Stroke-33" stroke="#ff7b31"/><path d="M220 59.05H56z" id="Stroke-35" stroke="#ff7b31"/><path d="M220 51.05H141z" id="Stroke-37" stroke="#ff7b31"/><path d="M220 44.05H75z" id="Stroke-39" stroke="#ff7b31"/><path d="M220 37.05H49z" id="Stroke-41" stroke="#ff7b31"/><path d="M220 29.05H123z" id="Stroke-43" stroke="#ff7b31"/><path d="M220 22.05H63z" id="Stroke-45" stroke="#ff7b31"/><path d="M220 15.05H34z" id="Stroke-47" stroke="#ff7b31"/><path d="M220 8.05H136z" id="Stroke-49" stroke="#ff7b31"/><path d="M220 .05H101z" id="Stroke-51" stroke="#ff7b31"/></g></g></g></svg>