<svg width="280" height="131" viewBox="0 0 280 131" xmlns="http://www.w3.org/2000/svg" xmlns:xlink="http://www.w3.org/1999/xlink"><title>Group 63</title><defs><path id="path-1" d="M0 0H108.26878V47.5780646H0z"/><path id="path-3" d="M0 .058595139H.616580311V.558195797H0z"/></defs><g id="Mammoth-Page" stroke="none" stroke-width="1" fill="none" fill-rule="evenodd"><g id="Colossal_Mammoth_8-03-21" transform="translate(-159.000000, -6087.000000)"><g id="Group" transform="translate(160.000000, 6088.000000)"><g id="Group-63" opacity=".289993641" transform="translate(139.000000, 67.500000) scale(-1, 1) translate(-139.000000, -67.500000) translate(20.000000, 28.000000)"><path id="Fill-1" fill="#fe8301" d="M221.9995 70.001H222.0005L221.9995 69.999z"/><g id="Group-62"><path d="M234.77929 61.608943C234.440411 61.5127177 234.106623 61.3825306 233.766613 61.2749848 232.425805 60.8448014 231.622452 59.9391521 231.379749 58.558037 231.243405 57.7599335 231.045962 56.9844713 230.78572 56.2203298 230.672572 56.1184442 230.655034 55.9769365 230.626747 55.8354288 230.429303 55.3543027 230.225636 54.8731765 230.038376 54.3920503 229.529774 53.0675382 228.657966 52.0486828 227.510077 51.2505794 227.249836 51.0694495 226.955084 50.9336021 226.76839 50.6619073 225.925435 50.1354987 225.009499 49.699655 224.251406 49.0713608 222.876088 47.9279786 221.315207 47.2430813 219.640612 46.6883711 218.112544 46.1846037 216.590699 45.8789471 214.978336 45.7714012 211.284609 45.528008 207.567687 45.3015957 204.009173 44.1299119 202.588596 43.6601064 201.203095 43.8695378 199.817028 44.2487784 199.008018 44.4751907 198.255582 44.4921716 197.412627 44.2714196 196.100106 43.9261408 194.707816 43.9487821 193.378889 43.5695414 192.133692 43.2186023 191.67035 43.3997322 191.002209 44.5091526 190.374236 45.5563095 189.396069 46.0996991 188.348881 46.5978062 187.234371 47.1242148 186.250546 47.8940167 185.084553 48.3411811 184.887109 48.4204254 184.76208 48.5902346 184.655155 48.7713645 184.032839 49.7788993 183.382236 50.7694532 182.867412 51.8392514 182.771236 52.0430225 182.691466 52.2411333 182.624143 52.4505647 182.290355 53.5033819 182.341272 54.6014817 182.431791 55.7052417 182.460078 56.0561808 182.538716 56.4071199 182.59529 56.758059 182.640549 57.052395 182.578883 57.290128 182.374651 57.5335212 180.982926 59.1863312 179.212721 60.2844309 177.220745 61.0429122 176.299152 61.3995116 175.371336 61.7730919 174.36375 61.8410156 173.566621 62.1353516 172.74573 62.0730882 171.92597 62.050447 171.671386 62.0391264 171.405488 62.0108248 171.370978 62.3504433 171.331376 62.6560999 171.56333 62.7749664 171.812822 62.8372298 172.536971 63.02402 173.28375 63.0919437 174.029963 63.1202452 175.818272 63.1315658 177.520588 62.7070427 179.161804 62.0221455 180.649705 61.3938513 181.962225 60.5108432 182.963022 59.1636899 183.189884 59.4976481 183.167255 59.8316063 183.195542 60.1542438 183.427496 60.7146143 183.450125 61.314607 183.551959 61.8976187 183.806543 63.318356 184.304395 64.6655093 184.801682 66.0126626 185.220896 67.0541592 185.860184 67.9541482 186.572453 68.8031944 186.781777 69.0579083 186.9515 69.3352634 187.104816 69.6352597 187.178362 69.7654468 187.240594 69.9012942 187.307917 70.0428019 187.387687 70.2126111 187.466325 70.393741 187.551752 70.5805311 187.737881 69.9182751 188.020751 69.4767711 188.716613 69.8220498 188.818447 69.6805421 188.739243 69.6126185 188.677011 69.5446948 188.445057 69.2899809 188.230641 69.0296067 188.032066 68.7635723 187.969835 68.6843279 187.91326 68.6050836 187.862909 68.5258393 187.806335 68.4522553 187.755419 68.3786713 187.710159 68.299427 187.545528 68.0503734 187.398436 67.7899993 187.268881 67.5296251 187.189677 67.3711365 187.115565 67.2126479 187.048242 67.0541592 186.98601 66.9069912 186.92887 66.7541629 186.872862 66.6013346 186.867204 66.5843537 186.861547 66.5730331 186.861547 66.5617125 186.804973 66.3975635 186.754056 66.2334146 186.708797 66.0636053 186.663537 65.8937961 186.623935 65.7239869 186.589991 65.5485173 186.584334 65.5315364 186.578676 65.5145555 186.578676 65.4975746 186.549823 65.3447462 186.522102 65.1862576 186.498907 65.027769V65.0164484C186.4825 64.8636201 186.464962 64.7107917 186.453647 64.5523031 186.437241 64.3032496 186.425926 64.0485357 186.431018 63.7881615 186.448556 62.3787449 186.289582 60.9749885 186.261861 59.5712321 186.256203 59.3561404 186.256203 59.146709 186.261861 58.9372776 186.261861 58.8467127 186.266953 58.7561477 186.27261 58.6655828 186.28449 58.5523767 186.289582 58.4391705 186.301463 58.3259643 186.317869 58.1335139 186.341065 57.9410634 186.368786 57.7486129 186.385758 57.6467274 186.403296 57.5505021 186.425926 57.4486166 186.464962 57.2505058 186.510221 57.052395 186.567361 56.8599446 186.595083 56.7637193 186.623935 56.6674941 186.65788 56.5712689 186.696916 56.4467421 186.742175 56.3222153 186.793092 56.2033488 186.844575 56.0844824 186.895491 55.9656159 186.9515 55.8467494 187.150075 55.433547 187.398436 55.0373254 187.703936 54.6580848 187.953428 54.3580884 188.123151 53.9958287 188.332475 53.6618706 188.484659 53.412817 188.660605 53.1864047 188.954225 53.0731985 188.524827 53.8486607 188.162187 54.6411038 187.890631 55.4844897 187.84028 55.654299 187.789363 55.8241082 187.744104 55.9995778 187.710159 56.1241045 187.676215 56.2486313 187.653585 56.3731581 187.63039 56.4467421 187.613983 56.5203261 187.602668 56.5995704 187.557409 56.8033415 187.517241 57.0184332 187.488954 57.2335249 187.969835 56.922208 188.445057 56.6278719 188.926504 56.3844787 189.113198 56.2882535 189.304985 56.1976885 189.497337 56.1241045 189.786431 55.9939175 190.091365 55.8920319 190.403089 55.8127876 190.985237 55.6656196 191.556636 55.9656159 192.122377 55.7448639 192.297757 55.6769402 192.52462 55.6826005 192.649083 55.5693944 193.209167 55.0656269 193.842798 55.2807186 194.447575 55.359963 194.912049 55.4222263 195.358985 55.563734 195.811012 55.6882608 196.558357 55.8863716 196.919866 56.463723 197.180107 57.1316394 197.36171 57.3071089 197.520118 57.4995594 197.503145 57.7599335 197.417718 59.0448235 197.786016 60.2448087 198.187693 61.4334734 198.227295 61.5580002 198.249358 61.682527 198.283869 61.8127141 198.31159 61.8749774 198.339877 61.9372408 198.374387 62.0051645 198.793036 63.2051498 199.211685 64.4107954 199.647306 65.6107807 199.759888 65.9220976 199.652397 66.1994527 199.590732 66.4824681 199.126824 68.4748965 198.583712 70.4446837 198.243701 72.4654137 198.051349 73.574834 197.893507 74.6559529 198.356849 75.7823541 198.645943 76.4842323 198.221637 77.1634693 197.655896 77.6106336 197.310793 77.8823284 197.061301 78.2106263 196.80106 78.5445844H202.408125C202.01154 77.599313 201.853698 76.62574 202.130345 75.595564 201.667003 73.5408722 202.617449 71.7069324 203.041755 69.788088 203.132274 69.3975267 203.307088 69.0465877 203.589959 68.7579119 204.608293 67.7050947 204.959053 66.5051094 204.405192 65.0956927 204.370682 65.0051278 204.393312 64.8862613 204.38822 64.7787154 205.717713 65.5598379 205.678111 66.8503882 205.446157 68.0843353 205.095397 69.9522369 204.908702 71.8314592 204.73898 73.7106814 204.688063 74.2767122 204.721442 74.8370827 204.942081 75.3691517 205.3381 76.331404 204.925674 77.3559198 203.952033 77.7747826 203.55658 77.9502521 203.22845 78.1653438 203.081357 78.5445844H209.185142C208.823068 77.7691223 208.506818 76.9879997 208.760836 76.0710299 208.880208 75.6408465 208.851355 75.1936821 208.70992 74.7408575 208.523225 74.1521855 208.760836 73.5521928 208.806096 72.9578605 208.925467 71.423917 209.338458 69.935256 209.57607 68.4182935 209.603791 68.2371636 209.632644 68.0333925 209.88157 68.005091 210.039978 67.3598159 210.447312 66.7881248 210.407144 66.074926 210.390738 65.7919106 210.684358 65.9220976 210.848988 65.9730404 212.22374 66.4315254 213.626779 66.7485026 215.058105 66.957934 215.131652 66.9692546 215.205198 66.9975562 215.278745 67.0088768 216.240505 67.1560448 216.234848 67.1560448 216.472459 68.1182971 216.523376 68.3107476 216.596922 68.5258393 216.726477 68.6730073 217.173979 69.182435 217.541711 69.7371452 217.835896 70.3371379V70.3484585C217.863618 70.4277028 217.892471 70.5126074 217.920758 70.5918517 218.92212 72.1710777 219.940455 73.7446433 219.979491 75.7031098 220.002687 76.5861179 220.014001 77.4861069 219.272314 78.1540232 219.188019 78.2276072 219.114472 78.3181721 218.989443 78.3125118 218.973037 78.3917561 218.944184 78.4710004 218.910805 78.5445844H224.183517V78.5332638C223.956654 77.5483702 223.685664 76.5634767 224.09809 75.5502815 224.22821 75.2446249 224.019452 74.9276476 223.968535 74.6163307 223.487089 73.0710666 223.006774 71.5314629 222.525328 69.9861988 222.463662 69.7994086 222.383893 69.6069581 222.429152 69.3975267 222.293374 69.3805458 222.367486 69.2616794 222.327884 69.1937557 222.2368 68.7918738 222.146281 68.3956522 222.061986 67.9937704 222.027476 67.8126405 221.852661 67.5239648 222.191541 67.5126442 222.508922 67.5069839 223.006774 67.2296288 223.136329 67.6994344 223.560635 69.2503587 224.749258 70.3654394 225.377231 71.8031576 225.942973 73.0937079 226.661465 74.3050138 226.757641 75.7540526 226.819306 76.7389462 226.76839 77.672897 225.93675 78.3691149 225.874518 78.4200577 225.817944 78.4823211 225.772685 78.5445844H230.937905C230.870016 78.1936453 230.77384 77.8483666 230.722923 77.4917672 230.655034 77.0559234 230.581488 76.6200797 230.763091 76.1898963 230.978073 75.6861289 230.886988 75.1767012 230.791378 74.6672735 230.655034 74.5314261 230.655034 74.3502962 230.626747 74.1861473 230.513599 73.8182273 230.394793 73.4503073 230.275987 73.0880476 229.727784 71.4295773 229.060209 69.8050689 228.861633 68.0503734 228.500125 66.0183229 228.867857 64.0145739 229.070958 62.0051645 229.076615 61.9429011 229.076615 61.8806378 229.082273 61.8127141 229.082273 60.8391411 229.088496 59.8655681 229.076615 58.8976554 229.076615 58.5523767 229.24068 58.2863422 229.399654 58.0146474 229.541089 57.7655939 229.631608 57.5052197 229.676867 57.1486203 230.106831 57.5788037 230.508507 57.9580443 230.666915 58.5184148 230.717831 58.631621 230.768182 58.7391668 230.824757 58.852373 231.379749 60.6014081 232.66964 61.4504543 234.383837 61.8013934H234.808143C234.808143 61.7391301 234.9773 61.665546 234.77929 61.608943" id="Fill-2" fill="#f1f2f2"/><path d="M217.920475 70.5916253C217.914817 70.5916253 217.908594 70.585965 217.908594 70.585965V70.5746444L217.920475 70.5916253z" id="Fill-4" fill="#fe0000"/><path d="M155.909374 17.317033C155.479411 17.2774109 155.049447 17.1642047 154.625141 17.1811856 153.097639 17.2377887 151.768712 16.6377961 150.444311 16.0038416 148.821199 15.2283794 147.265409 14.2944286 145.522925 13.7963215 145.285314 13.7340581 145.092962 13.751039 144.730321 13.6887756 143.141153 13.4170808 141.545197 13.1850082 139.956029 12.9359547 138.705174 12.7321836 137.539746 12.7718057 136.278709 13.21897 134.450798 13.8642452 132.498989 14.1982033 130.525117 14.0906575 129.846227 14.0510353 129.172429 13.8076421 128.494105 13.677455 128.238955 13.6265122 127.939678 13.5416076 127.59401 13.4793442 125.704433 13.1567067 124.058125 12.2567177 122.38353 11.4076715 120.856594 10.6322093 120.499611 10.6888124 119.255545 11.8548358 119.11411 12.1831337 118.938164 12.5001109 118.841988 12.8397294 118.496886 14.1019781 117.609238 14.8151769 116.460216 15.2849825 115.40228 15.7208262 114.350566 16.1736508 113.292064 16.6151548 112.647118 16.8868496 112.093257 17.2830712 111.555803 17.7415561 108.619039 20.2490726 106.678545 23.4697878 104.93097 26.8433314 104.002588 28.637649 103.754227 30.5904552 103.549994 32.5545821 103.306726 34.8583275 103.228087 37.1677331 103.228087 39.4827991 103.233745 40.4393911 103.256375 41.4016435 103.324264 42.3525752 103.352551 42.8053999 103.193577 43.0884153 102.876762 43.3714307 102.248789 43.9318011 101.530863 44.333683 100.766546 44.6563206 98.8090803 45.4940462 96.7384662 45.8053631 94.6225929 45.9185692 91.5958756 46.2298862 88.5748157 46.3317717 85.531692 46.0827182 81.6105373 45.7600806 77.9275599 44.628019 74.3011566 43.2072817 73.939082 43.065774 73.5656926 42.9412473 73.1866457 42.8223808 72.9156555 42.7431365 72.6435338 42.8053999 72.468154 43.0261519 72.3046547 43.229923 72.3606631 43.4846368 72.4738114 43.7167094 72.5134133 43.8016141 72.5586726 43.8865187 72.6095894 43.965763 72.7063312 44.1242516 72.8194795 44.2714196 72.9377194 44.4016067 73.2437856 44.7355649 73.6228325 44.9902787 74.035258 45.2053704 77.4359305 46.9600659 80.9542771 48.3751429 84.7560603 48.9864562 84.9201254 49.0147577 85.0847562 49.0600402 85.2488212 49.0996623 85.3840334 49.1279639 85.5198114 49.1619257 85.6504977 49.1958876 86.8724994 49.2694716 88.0713058 49.4958839 89.2876501 49.5751282 91.1489398 49.6939947 92.9994804 49.7053153 94.8488895 49.4449411 94.9563804 49.4279602 95.0757518 49.4392808 95.1883344 49.4336205 97.5989591 49.0770211 99.9914801 48.6355171 102.231817 47.622322 102.605206 47.4525127 102.978595 47.2713829 103.34067 47.0732721 103.629198 46.9091231 103.719717 46.9657262 103.74857 47.2940241 103.849837 48.6581583 104.008245 50.0222925 104.070477 51.3864268 104.14968 53.0958398 104.314311 54.7882719 104.630561 56.4693833 104.658848 56.6335323 104.658848 56.8033415 104.670728 56.9731507 105.247219 59.2429342 105.694155 61.5410193 106.0336 63.8560852 106.452249 65.2994638 106.831295 66.7428423 107.36875 68.1465987 108.070269 69.9861988 109.117457 71.6333484 110.129569 73.3031393 110.700968 74.2314298 111.283681 75.1483997 111.589182 76.2125376 111.640099 76.3993277 111.691015 76.699324 111.906563 76.6936637 112.189434 76.6880034 112.098915 76.3427246 112.194525 76.1559345 112.256757 76.0427283 112.26298 75.9068809 112.308239 75.7823541 112.511906 75.1823615 112.726322 75.080476 113.371833 75.2616058 113.654704 75.1710409 114.073353 75.52198 114.174621 75.2672661 114.282112 75.0012316 113.829518 74.8087812 113.637166 74.5767086 113.546648 74.4578421 113.439722 74.3559565 113.342981 74.2484107 113.094054 74.0955824 112.901702 73.886151 112.760267 73.648418 111.674609 71.7974973 110.673246 69.9069545 110.164079 67.8013199 109.942874 66.8730294 109.846698 65.927758 109.846698 64.9655056 109.86367 60.0523583 109.858578 55.1448713 109.858578 50.2373842 109.858578 48.9638149 110.045273 47.7015663 110.146541 46.4393176 110.265347 44.8883932 110.282885 43.3431291 110.21443 41.7865444 110.135226 40.0714711 110.412439 38.379039 110.836746 36.7262291 111.22145 35.2205872 111.408144 33.6696628 111.826793 32.1810018 112.234693 30.7546042 113.105369 29.5319776 114.310964 28.5697253 114.061472 29.0282102 113.823861 29.4923555 113.59813 29.9621611 113.450471 30.2791383 113.309036 30.5904552 113.173824 30.9074325 112.704258 32.0225132 112.325212 33.1658954 112.070062 34.3488997 111.922969 35.0281367 111.816044 35.7186943 111.753247 36.4262328 112.245442 35.860202 112.806092 35.4073773 113.382582 34.9658733 113.948324 34.5300296 114.581955 34.3262585 115.260844 34.1451287 116.861893 33.7092849 118.491229 33.7715483 120.109815 33.6640025 120.267657 33.6526819 120.432288 33.7432468 120.585038 33.8111705 121.993735 34.4224837 123.441467 34.9771939 124.822442 35.6281293 126.015591 36.1884998 127.255131 36.7149085 128.374733 37.4394279 129.354032 38.084703 129.789087 39.1205394 130.258653 40.1224139 130.880968 41.4469259 131.322813 42.8506823 132.171425 44.0789692 132.498989 44.5431144 132.419785 45.1883895 132.51087 45.7544203 132.906323 48.1147687 133.268398 50.4864378 133.636696 52.8524465 133.754935 53.5882866 133.896371 54.3184663 133.975575 55.0543063 134.032149 55.6033562 133.78888 56.1127839 133.670074 56.6391926 133.189194 58.7221859 132.685684 60.8051792 132.187831 62.8881726 132.165202 62.9730772 132.109193 63.0523215 132.069026 63.1315658 131.990388 64.2409862 131.633405 65.2994638 131.458025 66.3919032 131.232294 67.784339 130.932451 69.1654541 130.9432 70.5805311 130.949423 71.2427872 131.051257 71.8880623 131.32847 72.4993755 131.995479 73.9710556 131.402016 75.816316 130.010292 76.6597019 129.772681 76.8012096 129.484153 76.8747936 129.364781 77.1634693 128.725493 77.4634656 128.233298 77.8823284 128.057918 78.5445844h10.87921C138.942785 78.5615654 138.948443 78.5842066 138.948443 78.6011875 138.948443 78.5842066 138.942785 78.5615654 138.942785 78.5445844 138.937128 78.5332638 138.937128 78.5219432 138.931471 78.5049623 138.908841 78.3747752 138.898092 78.2389278 138.875462 78.1030804 138.863582 78.0351567 138.852833 77.967233 138.835295 77.9049696 138.824545 77.8370459 138.80135 77.7747826 138.779286 77.7181795 138.405897 76.8464921 137.930674 75.9861252 138.04948 74.9785904 138.094173 74.6050101 138.133775 74.2314298 138.213545 73.8691701 138.388359 73.0257842 138.439275 72.2163601 138.117369 71.3842948 137.783581 70.5295883 138.150747 69.6748818 138.309721 68.8428166 138.773629 66.4654872 139.451953 64.1447609 140.142723 61.829695 140.233242 61.5240383 140.323195 61.2127214 140.600408 61.0089503 141.217066 60.176885 141.839948 59.3391595 142.456606 58.5014339 143.248079 56.9335286 142.880912 55.3712836 142.439068 53.8033783 142.376837 53.5882866 142.280661 53.3845155 142.331577 53.1467825 142.309513 53.1354619 142.286318 53.118481 142.258031 53.1071604 142.337235 53.0165955 142.320262 53.1071604 142.337235 53.1467825 143.010467 53.6788515 143.610153 54.3014854 144.136293 54.9694017 144.49271 55.4278867 144.385785 56.0844824 144.441793 56.6561735 144.560599 57.9467237 144.476304 59.2259533 144.068404 60.4712211 143.916219 61.8127141 143.83645 62.1127104 143.780441 62.4523289 143.446654 64.5636237 143.282589 66.6918995 143.100986 68.814515 143.038754 69.6692215 142.965208 70.5182677 143.100986 71.3729742 143.185847 71.9050432 143.457403 72.3522075 143.598838 72.8503146 143.972228 73.6087959 143.695014 74.2993535 143.361227 74.9785904 143.044412 75.7031098 142.557874 76.2464994 141.873327 76.6823431 141.302493 77.0502631 140.911566 77.6445955 140.663205 78.2955309 140.628695 78.3917561 140.612289 78.4766607 140.623038 78.5445844H151.129424C151.123767 78.5219432 151.117543 78.499302 151.112452 78.4710004 151.027025 78.1427026 150.964793 77.7974238 150.806386 77.5030878 150.065264 76.1219726 149.980969 74.6899147 150.376988 73.1955934 150.529172 72.5956008 150.483913 72.0012684 150.240644 71.4295773 150.053949 70.9767527 150.071487 70.5069471 150.133719 70.0428019 150.523515 67.1673654 150.738497 64.2579671 151.54185 61.444794 151.728544 60.7938586 151.644249 60.0976407 151.858665 59.4523656 150.891813 57.4938991 150.036977 55.5014707 149.505746 53.3731949 148.786688 50.5034187 148.401984 47.5883601 148.091392 44.6563206 148.000873 43.818595 148.039909 43.8355759 147.305011 44.1808547 142.710624 46.3600733 138.196007 46.2921496 133.964826 43.3544497 131.667349 41.7639032 130.553404 39.3129898 129.965033 36.6356642 129.189401 33.1206129 130.411969 30.1715924 132.601388 27.5112477 133.540519 26.3678655 134.801557 25.8867393 136.238541 25.7282507 137.1607 25.6263651 138.077201 25.6263651 138.994268 25.586743 139.225656 25.5754224 139.423666 25.6207048 139.474583 25.8697584 139.526065 26.1301326 139.32749 26.2263578 139.123823 26.3056021 138.761748 26.4584304 138.388359 26.5716366 137.997997 26.6395603 134.241473 27.3074766 132.069026 31.1791273 132.238748 33.7206056 132.436758 36.7601909 133.879964 39.1714821 136.476152 40.8525936 138.824545 42.3752165 141.352844 42.2393691 143.926968 41.6959795 145.205544 41.429945 146.399259 40.9488188 147.435132 40.1167536 147.729317 39.8790206 147.8419 39.6243068 147.847557 39.2507264 147.898474 37.0262254 148.091392 34.8243656 148.996013 32.7526929 149.381283 31.8753452 149.850848 31.0319593 150.348135 30.2168749 151.247664 28.7395345 151.978036 27.1716292 152.803453 25.6546667 153.624344 24.1546851 154.704345 22.9830013 156.39082 22.4169705 157.380868 22.0830123 158.330748 21.6132068 159.298166 21.2113249 160.373641 20.7698209 161.06328 19.9660572 161.464956 18.896259 159.643834 18.2509838 157.861183 17.4868423 155.909374 17.317033" id="Fill-6" fill="#808285"/><path d="M174.392094 56.7238708C174.788113 56.7238708 175.179041 56.6842486 175.568836 56.6616074 175.761189 56.2427446 175.682207 55.846523 175.5298 55.4163396 174.714567 53.1182546 173.922529 50.8088489 173.131056 48.4994433 172.983963 48.0692599 172.797269 47.6730383 172.480453 47.3334198 171.936776 46.7560684 171.755738 46.0711712 171.942433 45.3013693 172.056147 44.8259034 171.959405 44.3617581 171.87511 43.9032732 171.778934 43.3598836 171.711045 42.8278147 171.869453 42.2844251 171.920369 42.1146159 171.858138 41.9561273 171.789683 41.7976386 170.941071 39.9693591 169.759237 38.5316409 167.710686 37.9599498 166.789093 37.705236 165.917851 37.2920335 165.018322 36.9637356 164.610989 36.8109073 164.265886 36.8561898 163.880616 37.1505258 163.173439 37.6995756 162.30842 37.8863658 161.430955 37.8241024 158.608471 37.614671 156.4298 38.7014502 154.823094 40.9995352 154.749548 41.1070811 154.659595 41.2033063 154.574733 41.3051918 154.552104 41.3278331 154.506845 41.3278331 154.43839 41.3561346 154.314492 40.8523672 154.478557 40.3938822 154.585483 39.9353973 155.077678 37.8750452 155.847652 35.9278993 157.001765 34.1392419 157.069654 34.0316961 157.10869 33.9071693 157.16583 33.7883028 157.1432 33.7656616 157.125662 33.7486807 157.10869 33.7260394 156.249328 34.3260321 155.716966 35.1863989 155.236651 36.0807276 155.009789 36.5001564 154.749548 36.878831 154.410668 37.2076949 152.984434 38.5995646 152.345146 40.3485998 152.152794 42.2900854 151.92084 44.5887365 152.30611 46.8636143 152.430573 49.1447184 152.509211 50.5145129 152.447545 51.8899678 152.492805 53.2597623 152.531841 54.4993697 152.605387 55.7333169 153.069861 56.9050006 153.48851 55.3206804 153.289934 53.7578694 152.83225 52.1050595 153.369138 52.3767542 153.810982 52.5805253 154.235289 52.8069376 156.322875 53.9446596 158.647507 54.3635223 160.910473 54.9465341 161.731364 55.1559655 162.483235 55.3597365 162.68181 55.4106793 162.992968 55.4955839 163.450653 55.3484159 163.546829 55.8408627 163.739181 56.7974548 163.954728 57.7489525 164.090506 58.7106389 164.220627 59.6049675 164.553849 60.3577885 165.187479 60.991743 165.414341 61.212495 165.601036 61.4672089 165.894656 61.8124876 165.894656 61.8124876 166.059287 62.0785221 166.160555 62.2992741 167.28638 64.7105653 168.599466 67.0369519 169.571976 69.5218271 169.736607 69.9406899 169.895015 70.3595527 170.03645 70.7897361 170.579562 72.4199048 170.924664 74.0557338 170.324978 75.7481659 170.149032 76.2519333 169.940274 76.7047579 169.571976 77.0217352 169.362652 77.202865 169.097319 77.3387124 168.757874 77.4066361 168.214196 77.5198423 167.86966 77.9726669 167.654112 78.4594534 167.637706 78.4934153 167.626391 78.5217168 167.609419 78.544358H170.319321C170.397959 78.3519076 170.471505 78.1424762 170.607849 78.0122891 171.088163 77.5707851 171.399887 76.9939997 171.993916 76.6311739 173.254954 75.8619381 173.742057 74.0840353 173.136148 72.7312217 172.638295 71.6167071 172.723722 70.4557779 172.865158 69.3010751 173.107861 67.2124215 173.583084 65.1690503 174.030019 63.1200188 173.283806 63.0917172 172.537028 63.0237936 171.812313 62.8370034 171.563386 62.77474 171.331432 62.6558735 171.371034 62.3502169 171.405544 62.0105984 171.670877 62.0389 171.926027 62.0502206 172.745786 62.0728618 173.566677 62.1356912 174.363807 61.8407892 174.443011 61.433247 174.522215 61.0200445 174.607642 60.606842 174.273854 59.4691201 174.109223 58.308757 174.030019 57.1257526 174.013047 56.8427372 174.087159 56.7182105 174.392094 56.7238708" id="Fill-8" fill="#808285"/><path d="M183.387611 76.7217955C182.810555 77.0500933 182.284415 77.429334 181.984572 78.0519678 181.877081 78.2840405 181.815415 78.4368688 181.820507 78.5444146H180.570218C180.519301 78.2783802 180.43444 78.0123457 180.360894 77.7519715 180.621135 77.5651814 180.887033 77.3727309 181.204414 77.3274484 181.690386 77.2595247 181.9676 76.9482078 182.182581 76.5633068 182.940675 75.2274742 183.217888 73.8010765 182.872786 72.2897743 182.403221 70.2464031 181.46409 68.3841618 180.547588 66.5219205 181.141617 64.2747782 181.391109 61.8917886 183.195259 60.154074 183.427213 60.7144445 183.449842 61.3144371 183.551676 61.8974489 183.80626 63.3181862 184.304112 64.6653395 184.801965 66.0124928 184.683159 67.4332301 184.536066 68.8539674 184.445548 70.2747047 184.400288 71.0445066 184.479492 71.8143084 184.801965 72.5331676 185.497827 74.0897523 184.898141 75.850108 183.387611 76.7217955" id="Fill-10" fill="#808285"/><path d="M114.446686 78.5445278H102.990419C102.984196 78.5388675 102.978539 78.5275469 102.978539 78.5218866 102.88802 78.1822681 103.131855 77.8879321 103.301012 77.5935961 103.39153 77.4351075 103.572568 77.3219013 103.54428 77.1068096 103.986125 77.0785081 103.928985 76.5294582 104.325004 76.3936108 104.947319 76.1785191 105.365968 75.6860723 105.665811 75.0974003 106.384869 73.9879799 106.735063 72.850258 105.920961 71.6332918 105.734266 71.0899022 105.643182 70.5295317 105.55832 69.9635009 105.620552 67.9201298 105.824785 65.8880792 106.033543 63.8560286 106.452192 65.2994072 106.831239 66.7427857 107.368693 68.1465421 108.070213 69.9861422 109.1174 71.6332918 110.129512 73.3030827 110.700911 74.2313732 111.283625 75.1483431 111.589125 76.212481 111.640042 76.3992711 111.690959 76.6992674 111.906506 76.6936071 112.189377 76.6879468 112.098858 76.342668 112.195034 76.1558779 112.2567 76.0426717 112.262923 75.9068243 112.308183 75.7822975 112.51185 75.1823049 112.726266 75.0804194 113.371777 75.2615492 113.427785 75.4766409 113.467953 75.6917326 113.535842 75.901164 113.796083 76.7162484 114.231138 77.4690693 114.401426 78.3124552 114.417833 78.4030201 114.434805 78.4822645 114.446686 78.5445278" id="Fill-12" fill="#58595b"/><path d="M93.8087171 51.8167234C91.0563845 51.4765389 88.4205946 50.7588118 85.9811171 49.4037341 85.8679687 49.3409047 85.7616093 49.2661886 85.652987 49.1965668 86.8693313 49.2701508 88.0687034 49.494299 89.2878764 49.5735433 91.1486003 49.6935418 92.9997067 49.7065606 94.84855 49.4439223 94.9594354 49.4280734 95.0731494 49.4376959 95.1862977 49.4359978 95.3068007 50.2924024 95.4284351 51.148807 95.5495038 52.0052116 95.0290216 51.9503066 94.5079736 51.8954017 93.9869257 51.8404967 93.9280885 51.8325722 93.8681199 51.8246478 93.8087171 51.8167234" id="Fill-14" fill="#414042"/><path d="M104.670502 56.9731507C104.28014 57.5222006 103.928815 58.099552 103.454158 58.5806782 102.526342 59.5202893 102.23159 60.7315952 101.988887 61.9655424 101.943628 62.0447867 101.880831 62.124031 101.853109 62.2089356 101.247766 64.3428717 100.682024 66.4824681 100.286005 68.6616867 100.172857 69.3013015 99.9352454 69.9692179 100.206801 70.6088327 100.60282 71.5427835 100.546246 72.4823946 100.31995 73.427666 100.031421 74.621991 100.104968 75.7653732 100.658829 76.8804539 100.919636 77.4068625 101.10633 77.967233 101.22457 78.5445844H89.1748412C89.4690268 77.6162939 90.2667224 77.0898853 91.0412226 76.6314003 92.1449843 75.9804649 92.7503278 75.0351935 93.0897727 73.8635097 93.2368655 73.371063 93.2821248 72.8503146 93.0331986 72.3805091 92.235503 70.8805274 92.3203642 69.3069618 92.5410034 67.7050947 92.8069019 65.7862503 93.2368655 63.9013677 93.5870595 62.0051645 93.5989401 61.9429011 93.6040318 61.8806378 93.6159123 61.8240347 93.7630051 61.518378 93.824671 61.1900802 93.8308941 60.856122 93.8818109 60.6580112 93.9327276 60.4655608 93.9836444 60.2731103 94.5318479 58.0429489 95.0698681 55.8127876 95.6299522 53.5939469 95.7713876 53.0392367 95.7029329 52.529809 95.5507484 52.0034003 95.4257195 51.1486938 95.3074796 50.2939873 95.1881081 49.4336205 97.5987328 49.0770211 99.9912538 48.6355171 102.23159 47.622322 102.605545 47.4525127 102.978935 47.2713829 103.340444 47.0732721 103.628972 46.9091231 103.719491 46.9657262 103.748343 47.2940241 103.850177 48.6581583 104.008019 50.0222925 104.07025 51.3864268 104.149454 53.0958398 104.314085 54.7882719 104.6309 56.4693833 104.658622 56.6335323 104.658622 56.8033415 104.670502 56.9731507" id="Fill-16" fill="#58595b"/><path d="M157.357956 78.5445278H151.129141C151.123484 78.5218866 151.117826 78.4992454 151.112169 78.4709438 151.027308 78.142646 150.96451 77.7973672 150.806669 77.5030312 150.064981 76.121916 149.980686 74.6898581 150.376705 73.1955368 150.529455 72.5955442 150.484196 72.0012118 150.240927 71.4295207 150.054232 70.9766961 150.071205 70.5068905 150.133436 70.0427453 150.523798 67.1673088 150.73878 64.2579105 151.542133 61.4447374 151.728827 60.793802 151.643966 60.0975841 151.858382 59.452309 152.80317 61.1334205 153.748525 62.8201923 154.421757 64.7107351 154.727257 64.4107388 154.681998 64.0937616 154.828525 63.8616889 155.580961 66.1258121 156.311334 68.3899353 156.973251 70.6766997 157.187667 71.435181 157.199548 72.1427195 156.922335 72.8785596 156.588547 73.7445867 156.577232 74.633255 156.763361 75.5389043 156.973251 76.5407788 157.159946 77.5426533 157.357956 78.5445278" id="Fill-18" fill="#58595b"/><path d="M67.2039855 68.1655607C66.1087098 65.1135227 65.5350479 61.9454483 65.1294112 58.7434121 64.8770905 56.7504176 64.8295682 54.7398762 64.7215116 52.7355612 64.6219411 50.8642633 64.68983 48.9793808 64.2819304 47.1318563 64.0731718 46.1837547 63.8638474 45.2350871 63.6403795 44.222458 62.7453764 44.9333926 61.9058159 45.6001769 61.065124 46.2675272 60.6323317 46.5528068 60.1989737 46.8386523 59.7661814 47.1239318 59.7163961 47.1584597 59.6666109 47.1924216 59.6162599 47.2269494 58.972446 47.5246816 58.3342895 47.8354325 57.6842525 48.1184479 53.8745489 49.7757861 49.9290674 50.7448308 45.7397513 50.4278536 44.7140618 50.3503074 43.6928984 50.21446 42.6706034 50.105216 42.6112005 50.0921973 42.5517977 50.0791786 42.4923948 50.0661599 39.8062539 49.3156031 37.1896993 48.3975011 34.8362145 46.8533691 34.7355125 46.7690305 34.6331133 46.6869561 34.5341085 46.6009194 32.004678 44.4018897 29.9510362 41.9294672 29.3377724 38.471019 28.8088041 35.4846405 29.5940533 32.9805203 31.6901257 30.843754 32.0216503 30.5047016 32.4057888 30.2409312 32.8640395 30.089235 33.0592203 30.0252735 33.2453493 30.0207452 33.394705 30.1560266 33.5599016 30.3054587 33.5004987 30.5007394 33.4292153 30.6790391 33.2255483 31.1873347 32.9409803 31.6486498 32.6343484 32.1009084 31.7874333 33.3473082 31.4457254 34.757857 31.5973441 36.2261409 31.8519278 38.6991294 33.0348934 40.7351422 34.8277284 42.4298384 35.8652983 43.5268061 37.0776825 44.3384943 38.5587938 44.7098105 38.7590663 44.8445258 38.9870602 44.8949026 39.2190142 44.9350907 40.2826083 45.3431989 41.3575173 45.711685 42.4816457 45.9199843 42.5517977 45.9460217 42.6225154 45.9726252 42.693233 45.9986626 43.6934641 46.2590368 44.7191535 46.3699788 45.7448429 46.4328082 48.9226132 46.6280889 52.0183509 46.2799799 54.9551153 44.9549018 55.1174831 44.8716953 55.2798509 44.7884888 55.4427845 44.7047162 57.0664627 43.9445368 58.420848 42.825494 59.6524673 41.5428682 60.5491677 40.8585369 61.4102263 40.1317534 62.0783671 39.2153495 62.384999 38.7942226 62.6435429 38.34253 62.6390169 37.7742351 62.6079012 34.5512557 62.9394257 31.3611062 63.619447 28.2134089 64.0414902 26.2572065 64.2909823 24.2370425 65.3460902 22.4766868 67.0048444 19.7093622 68.6336143 16.9273208 70.1418813 14.0722615 70.8739509 12.6860521 71.9307561 11.5975748 73.4752305 11.0298459 74.7396628 10.5651347 75.965059 9.99174546 77.1983756 9.44439367 78.1855946 9.00685187 78.9040863 8.30893589 79.2373081 7.24706212 79.3549824 6.87348179 79.5162187 6.50782589 79.7068736 6.16537726 80.28393 5.12671075 81.3356435 4.69086703 82.4580747 4.9953916 84.7776151 5.62481785 87.1073387 6.19990514 89.5326727 6.21971622 90.9956804 6.4234873 92.3970222 6.87065164 93.8017584 7.30536329 93.8594641 7.31781597 93.9177355 7.33026864 93.9760068 7.34272132 95.2647661 7.95629871 96.5405133 8.29138894 98.0114413 7.84479064 100.082621 7.21536439 102.180391 7.14461054 104.168972 8.25459694 106.255427 9.41892229 108.548943 9.70759799 110.88093 9.83099271 110.955608 9.8474076 111.030851 9.86382249 111.105529 9.87967136 112.216646 10.0891028 113.328328 10.2985341 114.44001 10.5079655 114.748339 10.5979644 115.056668 10.6885294 115.365563 10.7790943 116.662809 11.1385239 117.959488 11.4979534 119.256168 11.8568169 119.115864 12.1839827 118.935392 12.500394 118.842045 12.8400124 118.495245 14.099997 117.611557 14.8137618 116.459707 15.2846994 115.400073 15.718279 114.348926 16.1716697 113.293252 16.6131737 112.645478 16.8843025 112.092183 17.2816561 111.555294 17.740141 108.619661 20.2493556 106.680865 23.472901 104.932158 26.8441804 104.000381 28.6396301 103.751455 30.5930024 103.547788 32.5548651 103.309611 34.8557803 103.229841 37.1674501 103.230407 39.4802519 103.230973 40.4385421 103.255865 41.3985303 103.322623 42.3545563 103.353739 42.8028527 103.195331 43.0903964 102.878516 43.3739778 102.251674 43.9337823 101.529222 44.3311359 100.7683 44.6554715 98.8080054 45.492065 96.7362598 45.8073442 94.6249124 45.9171542 94.584179 45.638667 94.5496688 45.3590478 94.5021465 45.0811267 94.1530839 43.0275669 94.0999042 40.8941969 92.7947385 39.1049735 92.3562888 38.5032828 92.4207833 37.6463122 91.8657909 37.0808474 91.8386353 37.0531119 91.8375038 36.944434 91.8561733 36.9342454 92.274822 36.7123613 91.9953457 36.4084028 91.926891 36.1599153 91.7577342 35.5457719 91.5291747 34.9474773 91.3566235 34.3338999 90.9238312 32.7937301 90.1306616 31.4839349 88.7072558 30.7158311 87.1050758 29.8520681 85.3756039 29.2588678 83.641606 28.711516 83.0023181 28.510009 82.3494524 28.4868018 81.684706 28.8473634 81.0244857 29.2045288 80.251117 29.3466026 79.495852 29.2503773 77.2594757 28.9662299 75.3857397 29.8441436 73.5979964 31.0175255 72.8512176 31.5071421 72.169499 32.0799653 71.5766019 32.791466 71.902469 29.6879191 72.9015686 26.8436144 74.5031829 24.2036467 74.5246811 24.1555341 74.546745 24.1068555 74.5688089 24.0581768 74.6174627 24.0377997 74.6689451 23.9959134 74.6191599 23.9545932 74.5659802 23.9087447 74.5439163 23.9732722 74.5331672 24.0213848 74.4907366 24.0542146 74.4488717 24.0870444 74.4058753 24.1204402 73.0435697 25.2955201 72.0608766 26.7287101 71.5969686 28.472085 71.3124006 29.538487 71.2467745 30.6541337 70.935051 31.7205357 70.4926411 33.2346681 70.1922323 34.777102 70.0174182 36.3478375 69.7566113 38.6781863 70.0898331 40.9989126 70.0915303 43.3247331 70.0937933 46.5912969 70.2725676 49.8589926 70.0417451 53.1227262 69.9184134 54.8627049 69.7458622 56.5992874 69.5965065 58.3370019 69.409246 59.4922708 69.4810952 60.6532 69.527486 61.8129971 69.5303147 61.8769586 69.5325777 61.9414861 69.5354064 62.0060136 69.4505451 63.5246742 69.4816609 65.0444669 69.7554798 66.5393542 70.2137305 69.0440405 71.4329035 71.2413721 72.6843238 73.4154964 72.8602694 73.7222851 73.1256022 73.9713386 73.4220508 74.1751097 73.693041 74.5407656 74.1445027 74.7575554 74.3266715 75.2375495 73.9855294 75.3371709 73.7020928 75.2018896 73.4192221 75.1435884 72.8902537 75.0337784 72.5287449 75.2086819 72.2622806 75.6745253 72.1378175 75.8930132 72.1106619 76.1313121 72.0241034 76.3543283 71.9624376 76.5133829 72.0110914 76.7918701 71.7729142 76.7975785 71.5992315 76.8014926 71.5669843 76.5597975 71.4855175 76.4171577 71.4589276 76.3690451 71.4204572 76.3277248 71.3876442 76.2835744 71.2309338 75.6439596 70.9978483 75.0360425 70.6731126 74.4609553 69.494673 72.3751318 68.1646146 70.3719488 67.2039855 68.1655607" id="Fill-20" fill="#58595b"/><path d="M124.628959 52.5982987C123.108245 52.1420779 121.525866 51.9179297 120.035703 51.3439744 118.773534 50.857188 117.568504 50.2526671 116.243537 49.5762603 116.498687 50.4004011 116.7148 51.1215243 116.769111 51.8766094 116.903758 53.7320584 116.735167 55.5105272 115.576528 57.069376 115.20823 57.5652189 115.037942 58.135212 115.060572 58.7572798 114.970053 59.808399 114.568377 60.7904624 114.387905 61.8212045 114.386774 61.8817698 114.386774 61.9423351 114.386208 62.0029004 114.031488 63.6325031 113.810283 65.2813508 113.676202 66.9432172 113.528544 67.8981112 113.382017 68.8535712 113.233227 69.8090311 113.203808 70.0037457 113.28188 70.1701588 113.353164 70.3422322 113.645652 71.0469405 113.786522 71.773158 113.653573 72.5356015 113.553436 73.1061605 113.445946 73.6755875 113.341849 74.2461466 113.094054 74.0978465 112.901702 73.8884151 112.760267 73.6461539 111.673477 71.7963653 110.669852 69.9058224 110.165776 67.8007539 109.94344 66.8724634 109.845001 65.9249278 109.84777 64.9632415 109.862539 60.0546224 109.860841 55.1465693 109.85971 50.2385163 109.859144 48.9632489 110.047536 47.7043964 110.144844 46.4376195 110.264215 44.8895253 110.284016 43.340299 110.213864 41.7876765 110.135792 40.069207 110.412439 38.3813031 110.837877 36.7262291 111.224844 35.2205872 111.408144 33.6673987 111.829056 32.1832659 112.234127 30.7546042 113.107066 29.5302796 114.308701 28.5668951 112.971854 31.026865 111.99991 33.5960788 111.756076 36.4262328 112.246573 35.8590699 112.808355 35.4090754 113.381451 34.9664393 113.947193 34.5294636 114.580823 34.3285226 115.263673 34.1422985 116.860761 33.7070208 118.491794 33.7721144 120.112078 33.6617383 120.26596 33.6515498 120.433419 33.7449449 120.585604 33.8111705 121.995997 34.4247479 123.440336 34.9766279 124.824139 35.6269973 126.016723 36.1879338 127.255131 36.7126444 128.373036 37.441692 129.355729 38.0824389 129.78739 39.1216714 130.258087 40.1224139 130.881534 41.4469259 131.322813 42.8523804 132.172556 44.076139 132.496726 44.5436804 132.41922 45.1895216 132.513133 45.7532883 132.90802 48.1170329 133.267266 50.4858718 133.638958 52.8530126 133.75437 53.5871545 133.896371 54.3179003 133.975009 55.0554384 134.032715 55.6010921 133.791709 56.114482 133.670074 56.6380605 133.186931 58.723884 132.685684 60.8057453 132.1867 62.8881726 132.166333 62.9747753 132.108062 63.0523215 132.066763 63.1338299 131.774274 62.8077962 131.742593 62.3232738 131.398622 62.0283718 131.38165 61.9553538 131.363546 61.8823358 131.346574 61.8093179 130.995248 61.0570629 130.659763 60.3087702 130.098548 59.6623631 129.548647 59.0295406 128.878243 58.447661 128.721533 57.547106 128.588584 56.7829644 128.45224 56.0182568 128.317594 55.2541152 128.198788 54.8601578 128.211234 54.4333705 128.020579 54.0569601 128.109966 53.5690415 127.861606 53.3630063 127.41467 53.2639509 126.482328 53.0579157 125.557341 52.8218809 124.628959 52.5982987" id="Fill-22" fill="#58595b"/><path d="M143.361397 74.978364C143.044016 75.7028834 142.558044 76.246273 141.873496 76.6821167 141.302097 77.0500367 140.911736 77.6443691 140.662809 78.2953045 140.628865 78.3915297 140.612458 78.4764343 140.623208 78.544358H138.942389C138.942389 78.561339 138.948613 78.5839802 138.948613 78.6009611 138.948613 78.5839802 138.942389 78.561339 138.937298 78.544358 138.937298 78.5330374 138.93164 78.5160565 138.93164 78.5047359 138.909011 78.3745488 138.897696 78.2387014 138.875066 78.10342 138.863751 78.0349303 138.852437 77.9670066 138.835464 77.9047432 138.824149 77.8368195 138.800954 77.7745561 138.77889 77.7179531 138.405501 76.8462656 137.930278 75.9858988 138.049084 74.978364 138.093777 74.6047837 138.133945 74.2312034 138.213149 73.8689436 138.388528 73.0255578 138.439445 72.2161337 138.116973 71.3840684 137.783751 70.5293619 138.150917 69.6746554 138.309325 68.8425902 138.773798 66.4652608 139.452123 64.1445345 140.142893 61.8300346 140.233412 61.5238119 140.323365 61.212495 140.600578 61.0087239 140.691097 61.2804187 140.781049 61.5521135 140.872134 61.8238083 140.889106 61.8804113 140.900421 61.9370144 140.917393 61.9992778 141.647766 64.2690613 142.371349 66.5445051 143.101156 68.8142886 143.038924 69.6689951 142.965378 70.5180413 143.101156 71.3727478 143.185451 71.9048168 143.457573 72.3519811 143.599008 72.8500882 143.321795 73.5406458 143.163387 74.2368637 143.361397 74.978364" id="Fill-24" fill="#58595b"/><path d="M142.455305 58.5026792C143.250738 56.9342078 142.880177 55.3696987 142.438333 53.8057556 142.377233 53.5906639 142.281622 53.3817985 142.334236 53.1491599L142.338762 53.1446316C143.013126 53.6789647 143.610549 54.3032967 144.136123 54.9700809 144.494803 55.4251697 144.385049 56.0851616 144.439926 56.6534565 144.563258 57.9451388 144.477831 59.2271986 144.069366 60.4719003 143.626956 59.7366263 142.985405 59.1660673 142.455305 58.5026792" id="Fill-26" fill="#58595b"/><path d="M129.364838 77.1634693C128.72555 77.4634656 128.233355 77.8823284 128.057975 78.5445844H116.878922C117.308885 77.6502558 117.937424 76.9823394 119.040054 76.8125302 119.385157 76.7615874 119.560537 76.3936674 119.730825 76.1049917 120.641103 74.5370864 121.037122 72.8446543 120.618473 71.0673176 119.854722 67.8013199 118.287618 64.8692804 116.658283 61.9712027 116.635653 61.9145996 116.619246 61.8636568 116.596051 61.8070537 116.086884 60.7938586 115.572059 59.7750032 115.063457 58.7561477 115.040262 58.1335139 115.209984 57.5674831 115.578282 57.069376 116.737486 55.5127913 116.902117 53.7297943 116.771431 51.8788736 116.715422 51.1203923 116.499875 50.4015332 116.245857 49.5751282 117.569126 50.2543652 118.774156 50.8600181 120.03576 51.3411443 121.524226 51.9184957 123.107736 52.144908 124.630147 52.5977327 124.793646 55.7844861 125.642258 58.8240714 126.666251 61.8183744 126.689446 61.8976187 126.706418 61.9712027 126.728482 62.050447 127.118844 63.318356 127.504114 64.5919253 127.984994 65.8315327 128.030253 66.0862466 128.075513 66.3466207 128.211291 66.5730331 128.516225 67.6315107 128.787781 68.7013089 129.132884 69.7484658 129.43895 70.6597754 129.427069 71.5314629 129.076309 72.4257915 128.810977 73.0993682 128.719892 73.812567 128.838698 74.5257658 128.985791 75.4087738 129.1838 76.2861216 129.364838 77.1634693" id="Fill-28" fill="#414042"/><path d="M68.293434 78.5445278H55.3775545C55.5981937 77.5539739 56.4066384 76.9200195 57.1421024 76.416252 58.257179 75.6521105 58.9586985 74.7181596 59.3598092 73.4842125 59.5810142 72.7936549 59.5583845 72.1257386 59.2127164 71.4691429 58.992643 71.0332992 58.8229205 70.5804745 58.7324019 70.093688 58.4721607 68.6389889 58.7148639 67.2125913 58.9077817 65.774873 59.0769385 64.5126244 59.4339214 63.2786772 59.5465039 62.0051079 59.5753568 61.9315239 59.6036438 61.8636002 59.6313652 61.7900162 59.6313652 61.7390734 59.6370226 61.6881307 59.6370226 61.6428482 59.7728006 61.4390771 59.7501709 61.2070045 59.7954302 60.9862525 60.6106638 57.6183692 61.4196742 54.250486 62.2337763 50.8826027 62.284693 50.6561904 62.2399994 50.4410987 62.1772021 50.2203467 61.798721 48.901495 61.4360807 47.5826432 61.063257 46.2694517 61.9056462 45.6015354 62.7429437 44.9336191 63.6424727 44.2204203 63.8636777 45.2336154 64.0724363 46.1845471 64.2823264 47.1298186 64.6890946 48.9807393 64.6217713 50.8656218 64.7230391 52.7335235 64.83053 54.7429328 64.8757893 56.7523421 65.1309387 58.7447705 65.5320495 61.9428445 66.1096716 65.112617 67.200987 68.163523 67.0261729 68.7295538 66.9464033 69.3069052 67.1840148 69.8672757 67.5517468 70.7559441 67.5630616 71.6615933 67.3316733 72.5672426 66.9356543 74.1238273 67.0595516 75.6011677 67.8068962 77.0332256 68.0495994 77.5086915 68.2029153 78.0181192 68.293434 78.5445278" id="Fill-30" fill="#414042"/><path d="M34.8279546 42.4296686C33.034554 40.7349724 31.8515884 38.6995257 31.5970047 36.2259711 31.445386 34.7576872 31.7876596 33.3471384 32.6340089 32.1007386 32.9406409 31.64848 33.2257746 31.1877309 33.4288758 30.6788693 33.5001592 30.5005695 33.5601278 30.305855 33.3949313 30.1558568 33.2450098 30.0211415 33.0588808 30.0251037 32.8637 30.0896312 32.4060151 30.2407614 32.0218766 30.5050978 31.6897863 30.8435842 29.5942796 32.9803505 28.8084646 35.4844707 29.3379987 38.4708492 29.9512625 41.9292974 32.0049043 44.4017199 34.533769 46.6007496 34.6327738 46.6867862 34.7357388 46.7694267 34.8364408 46.8531993 34.7991018 49.237321 34.6440886 51.6152164 34.2735279 53.9699045 33.8639311 56.5730802 33.7671893 59.1887085 33.8209347 61.8156574 33.8220662 61.8767887 33.8226319 61.9379201 33.8243291 61.9990514 33.6947743 63.278281 33.7604004 64.5529824 33.9912229 65.8135329 34.3510345 67.78049 35.3444767 69.5000915 36.1817742 71.2802584 36.6994277 72.3817543 37.3562536 73.3723082 38.3259346 74.1370158 38.5652433 74.3266361 38.8147353 74.5400298 38.902991 74.8983272 38.4526607 74.9475719 38.066825 74.7721024 37.6645828 74.7200275 37.0224661 74.636821 36.7729741 74.7924795 36.5562951 75.4003966 36.4137282 75.7994483 36.4154254 76.2500088 36.1500926 76.6128345 35.8881543 76.5137791 35.8140422 76.2771783 35.7557708 76.0762373 35.2748905 74.4296537 34.3108669 73.0309916 33.4673462 71.5717642 32.5180319 69.931407 31.5376018 68.3097288 30.9000111 66.5091848 30.3789631 65.0386368 30.0429127 63.5194101 29.6514195 62.0149003 29.6423677 61.9469766 29.6333158 61.8790529 29.6242639 61.8116952 28.8028072 57.7164624 28.4978725 53.5708528 28.3575686 49.4043001 28.3077833 47.9077147 28.3485167 46.3992426 28.0401876 44.9190721L27.9853107 44.6869994C27.846704 43.5373909 27.5185739 42.4268385 27.2803967 41.297607 27.2091133 40.9591206 27.1004909 41.0077993 26.8934295 41.1934574 26.4645974 41.5789243 26.0199245 41.9462783 25.5809091 42.3209907 25.4756812 42.3758957 25.3698875 42.4308007 25.2646596 42.4862717 24.8279071 42.7472119 24.3594731 42.9407944 23.8757641 43.0834342 20.5350603 44.0660637 17.193225 44.0796484 13.8547841 43.0698494 11.9697333 42.5004225 10.1865159 41.6938286 8.47005609 40.7344064 8.41461341 40.6964823 8.35917074 40.6591243 8.30316233 40.6212002 8.19963163 40.543088 8.10006112 40.4587494 7.990873 40.3891276 5.63738817 38.8778254 3.47908418 37.1423749 1.84013092 34.84712.330732483 32.732995-.36286665 30.4032123.187599873 27.7943763.218149916 27.7377732.249831443 27.6817362.281512969 27.6251331.385609413 27.4275883.488574374 27.2289115.593802302 27.0319328.729580272 26.7794831.874975849 26.5287314 1.21555226 26.5564669 1.53632771 26.5819383 1.78072806 26.7472193 1.91650603 27.0415553 2.00193301 27.2266474 2.05850716 27.4241922 2.12752763 27.6160766 2.13035634 27.6755098 2.1326193 27.7349431 2.13544801 27.7938103 2.09528036 28.5636122 2.30856492 29.2847354 2.60953943 29.9747269 3.77100682 32.640732 5.84444958 34.4384458 8.28845305 35.8738999L8.44912365 35.9995588C9.51498072 36.8689821 10.6775796 37.5731244 11.9799166 38.0276471 13.3795612 38.5149996 14.8244651 38.833675 16.2705005 39.1381995 17.6650534 39.4319695 19.0618693 39.458573 20.4388842 39.0261254 22.4257685 38.4023595 24.2412331 37.5233137 25.3800709 35.65428 25.5050997 35.5710734 25.5797776 35.4556032 25.6035388 35.3073031 25.8796206 34.9524018 26.1364673 34.5725951 26.1279812 34.11128 26.0906422 31.998287 26.2349063 29.8960487 26.454414 27.7966404 26.4595057 27.7366412 26.4651631 27.6766419 26.4708206 27.6160766 26.7197468 26.1013782 27.0048806 24.591774 27.2611615 23.0787737 27.7850382 19.9848494 28.8520267 17.1303561 30.655045 14.5458594 31.5002629 13.3351196 32.2351611 12.0485316 32.9027362 10.7274157 32.9457325 10.6510015 32.9881631 10.5745874 33.0311595 10.4976072 33.1075346 10.3923255 33.1884357 10.2910059 33.2591533 10.182328 34.555833 8.18140915 36.0007369 6.33614875 38.2399419 5.29238796 38.7112046 5.07220198 38.9969041 4.66069759 39.2588424 4.20674089 39.7136986 3.42052411 40.0299482 2.59525121 40.2596392 1.71960156 40.5119599.756783177 41.1359729.173771455 42.1627938.0815084349 42.2725476.0718859113 42.3794728.0277355091 42.4869637.0 42.5508925.0 42.615387.0 42.6798815.0011320616 43.2167703.0758481269 43.751396.171507332 44.2911135.222450104 47.7958823.55301209 51.3017827.861498875 54.7839219 1.40715256 56.3719584 1.65564008 57.9566005 1.9720513 59.5729241 2.01054139 59.6442075 2.0088433 59.7160567 2.00771124 59.7873401 2.00657918 61.0970318 2.11469106 62.401066 2.1741243 63.7084948 1.93639136 64.4252893 1.80620428 65.1590561 1.76375197 65.8854682 1.68620575 67.7801367 1.48413275 69.5543021 2.06997463 71.3488343 2.52562942 73.0873581 2.96769947 74.8021207 3.5416547 76.6305974 3.4975043 76.7346938 3.51052301 76.839356 3.52354172 76.9434525 3.53656043 78.9178904 3.73750136 80.8849738 3.98259269 82.8271645 4.39919136 85.0952224 4.88597785 87.3446108 5.43955597 89.5323333 6.21954641 87.1069993 6.20030136 84.7778414 5.62521407 82.4577353 4.99522179 81.3358698 4.69069722 80.2841563 5.12654094 79.7065342 6.16577348 79.5158793 6.50765608 79.3546429 6.87387801 79.2375344 7.24689231 78.9037469 8.30876608 78.1858209 9.00668206 77.1986019 9.4447899 75.9652853 9.99157565 74.7398891 10.5649648 73.474891 11.0296761 71.9309824 11.597405 70.8741772 12.6858822 70.1421076 14.0720917 68.6338406 16.927151 67.0050707 19.7091924 65.3457508 22.476517 64.2906428 24.2368727 64.0417165 26.2576027 63.6196733 28.2132391 62.9390863 31.3609364 62.6081275 34.5510859 62.6386775 37.7740653 62.6437692 38.3423602 62.3852253 38.7946188 62.0785934 39.2151797 61.4098869 40.1315836 60.549394 40.8589332 59.6526936 41.5426984 59.4190424 40.2668649 58.9873816 39.0442384 58.6417135 37.7984046 58.6032431 37.6619912 58.4980151 37.5374644 58.4035363 37.4242583 57.8462809 36.7546438 57.4219747 36.0052191 57.08649 35.2054175 56.3889307 33.5390229 56.212985 31.7209319 55.5901036 30.031896 55.5521989 29.9288784 55.5216489 29.7986914 55.5505017 29.6990699 55.8073483 28.8036092 55.1986104 28.3145586 54.6719051 27.7841877 54.5938327 27.7258866 54.5157604 27.6670194 54.4371223 27.6081522 54.1101237 27.2753261 53.7429575 26.9736316 53.4629154 26.6051456 52.2776868 25.0395044 50.5804622 24.3959274 48.768392 23.9714043 48.188507 23.8355569 47.6108848 23.8525378 47.0253423 24.1423456 46.1778615 24.5617744 45.2517426 24.7134707 44.2945079 24.6212077 43.7542247 24.5685668 43.2105471 24.5402652 42.668001 24.6149813 42.6052037 24.6178115 42.5424064 24.6206416 42.479609 24.6234718 41.0052866 25.0004483 39.5898012 25.5200646 38.3259346 26.3883558 37.9038914 26.6781636 37.633467 27.0704229 37.6572281 27.6132464 37.628941 27.6715476 37.600654 27.7298488 37.5723669 27.788716 37.4009472 28.0473921 37.3324925 28.504745 37.0043624 28.4922923 36.6400248 28.4787075 36.7492129 27.9658836 36.5562951 27.7247545 36.5461117 27.7123018 36.5444145 27.6924908 36.543283 27.6760759 36.3837439 25.6553459 36.6915073 23.7212187 37.6204549 21.9036938 38.1426344 20.8808761 38.5573229 19.8031535 39.2124516 18.8448634 38.8203927 19.0678795 38.5324303 19.3684418 38.3304606 19.7595691 38.0391037 20.326732 37.734169 20.8859704 37.3545564 21.4027565 36.880465 22.0468996 36.5743988 22.7702869 36.4182541 23.5514094 36.2309937 24.4893225 36.1093592 25.4419523 35.8813654 26.3685447 35.089893 29.5943542 34.6814276 32.8575218 34.873214 36.1795565 34.9937169 38.2659461 34.9535493 40.3472413 34.8279546 42.4296686" id="Fill-32" fill="#414042"/><path d="M94.6225363 45.918456C91.595819 46.229773 88.5753249 46.3316585 85.5316354 46.082605 81.6104808 45.7599674 77.9275033 44.6279058 74.3011 43.2071685 73.9390254 43.0656608 73.565636 42.941134 73.1865892 42.8222676 72.915599 42.7430233 72.6434773 42.8052867 72.4680974 43.0260387 72.3045981 43.2298098 72.3606065 43.4845236 72.4743205 43.7165962 72.5133567 43.8015009 72.558616 43.8864055 72.6095328 43.9656498 72.7062746 44.1241384 72.8194229 44.2713064 72.9376629 44.4014935 73.243729 44.7354517 73.6227759 44.9901655 74.0352015 45.2052572 77.4358739 46.9599527 80.9542206 48.3750297 84.7565695 48.986343 84.9206345 49.0146445 85.0846996 49.059927 85.2487646 49.0995491 85.2538563 49.2467171 85.2538563 49.3995455 85.2657369 49.5467135 85.3902 51.5844243 85.1350506 53.5202497 83.8344108 55.2013611 83.4434834 55.7107888 83.3925666 56.3447433 83.3529647 56.9673772 83.3309008 57.4032209 83.2460396 57.8220837 83.1379829 58.2409465 82.8324825 59.4182906 82.5100098 60.5956346 82.4251486 61.8182612 82.4025189 61.8805245 82.3798893 61.9427879 82.3572596 61.999391 82.0466675 63.7540865 81.8650644 65.5314232 81.6557401 67.2974393 81.5488149 68.1634664 81.2602867 69.0294935 81.6500827 69.901181 81.9782128 70.637021 81.9838702 71.4124832 81.791518 72.1653041 81.3672119 73.8520759 81.4469814 75.4539431 82.2786215 77.0161881 82.5213246 77.4803333 82.6967045 78.0010817 82.7255573 78.5444712H69.820427C69.6908721 78.4369254 69.7417889 78.2388146 69.916603 77.8369327 70.216446 77.1293942 70.8048172 76.7161918 71.3880968 76.2860084 71.4214755 76.3256305 71.4616432 76.370913 71.4842728 76.4161954 71.5685683 76.5577031 71.5974212 76.8010964 71.7722353 76.7954361 72.0098467 76.7897758 71.9645874 76.5124207 72.0217273 76.353932 72.112246 76.13318 72.140533 75.8954471 72.2644304 75.6746951 72.530329 75.2105498 72.8924035 75.0350803 73.4191089 75.1426261 73.7019797 75.1992292 73.9848505 75.3350766 74.3242954 75.2388514 74.1432581 74.7577252 73.6900991 74.5426335 73.4242006 74.1747135 73.8485068 73.3766101 74.18286 72.5105829 73.747239 71.6558764 72.9546351 70.0823108 72.9829222 68.4464818 73.1362382 66.7653703 73.2827652 65.1804841 73.3959135 63.5899376 73.5203767 61.999391 73.5265998 61.9427879 73.5373489 61.8805245 73.5430063 61.8239215 73.5718591 61.7559978 73.6108953 61.6880741 73.6171185 61.6144901 73.7642113 60.2560162 73.9339337 58.8975422 74.1941748 57.5503889 74.5223049 55.897579 74.9290731 54.2504294 74.7486016 52.5410164 74.668832 51.799516 74.8051757 50.9391492 74.4034992 50.3448169 73.815128 49.4787898 72.9772648 48.7825719 72.2474582 48.01277 72.3606065 48.9580414 72.5818114 49.8410495 72.7849127 50.7297178 73.1187002 52.184417 72.9376629 53.5485512 72.0777357 54.8107999 71.6307999 55.4617353 71.2064937 56.1239913 70.6746967 56.7070031 70.233984 57.1994498 69.8713437 57.7371791 69.5946961 58.3371718 69.7468806 56.5994572 69.916603 54.8617427 70.0416319 53.1240281 70.2735859 49.8580304 70.0925486 46.5920327 70.0925486 43.326035 70.0925486 40.9996484 69.7587611 38.6789221 70.0190022 36.3468752 70.1938164 34.7789699 70.4942251 33.2337059 70.9355035 31.7224036 71.2466614 30.6526054 71.3145504 29.5375247 71.5974212 28.4733868 72.0613292 26.730012 73.0451538 25.2979541 74.4034992 24.12061 74.436878 24.1489116 74.4713882 24.1772131 74.504767 24.2055146 72.9037184 26.8432182 71.9023558 29.6903531 71.5747915 32.7922018 72.1688201 32.079003 72.8533674 31.5073119 73.5995805 31.0148651 75.3873238 29.8431814 77.260494 28.9658336 79.4951731 29.248849 80.2532668 29.3450743 81.0226753 29.2035666 81.6845929 28.8469672 82.3521679 28.4847075 83.0027707 28.5073487 83.6414929 28.7111198 85.372662 29.2601697 87.1043969 29.854502 88.7054455 30.7148688 90.1311142 31.4846707 90.9231523 32.7922018 91.3582076 34.3318056 91.52793 34.9487792 91.7598841 35.5431115 91.9296065 36.1600851 91.9974955 36.4091386 92.2752746 36.7147953 91.8560601 36.9355473 91.8390879 36.9468679 91.8390879 37.0544137 91.8679407 37.0827153 92.4218017 37.6487461 92.3539127 38.5034526 92.7957568 39.1034452 94.1020541 40.8921026 94.1529708 43.0260387 94.5042963 45.0807305 94.5495556 45.3580856 94.5835001 45.641101 94.6225363 45.918456" id="Fill-34" fill="#414042"/><path d="M106.036259 63.858972C105.826934 65.8898905 105.622702 67.921375 105.559339 69.9641802 104.712424 67.3638347 103.583769 64.8846198 102.328954 62.4603099 102.236173 62.2808781 102.192611 62.0663525 101.986681 61.965599 102.232213 60.7310858 102.52357 59.5197799 103.455346 58.5796027 103.930569 58.0996086 104.281329 57.5194271 104.670559 56.9709432 105.249878 59.2418588 105.694551 61.5399438 106.036259 63.858972" id="Fill-36" fill="#414042"/><path d="M115.057743 78.5439618C114.789582 78.5439618 114.473898 78.5966027 114.446742 78.5445278 114.416758 78.4884908 114.417889 78.4030201 114.401483 78.3124552 114.231195 77.4690693 113.79614 76.7162484 113.535898 75.901164 113.467444 75.6917326 113.427842 75.4766409 113.371833 75.2615492 113.654704 75.1709843 114.073353 75.5219234 114.174621 75.2672095 114.282112 75.001175 113.829518 74.8087246 113.637166 74.5766519 113.546648 74.4577855 113.439722 74.3558999 113.342981 74.2483541 113.444814 73.676663 113.552871 73.1049719 113.654704 72.5332808 113.784825 71.7747995 113.643389 71.0446198 113.354295 70.3427416 113.280749 70.1729323 113.201545 70.0031231 113.23549 69.8106726L113.677334 66.9408965C114.050157 67.9031488 114.253824 68.916344 114.581955 69.8842566 114.864825 70.7106616 114.825789 71.4974444 114.519723 72.2955478 114.163872 73.2294986 114.157648 74.191751 114.350566 75.165324 114.571205 76.2917253 114.78053 77.4181266 115.000603 78.5445278 115.018141 78.6464134 115.034548 78.4420763 115.057743 78.5439618" id="Fill-38" fill="#414042"/><path d="M105.66666 75.0969475C105.947268 73.9558294 106.085309 72.8045227 105.922941 71.6305748 106.734214 72.8526353 106.385152 73.9886592 105.66666 75.0969475" id="Fill-40" fill="#414042"/><path d="M197.180333 57.1315262C196.993638 57.0975643 196.813167 57.0579421 196.626472 57.0239803 196.569332 57.0126597 196.507101 57.0013391 196.444869 56.9900185 195.8961 56.8032283 195.347896 56.6277587 194.804219 56.429648 194.476089 56.3107815 194.345968 56.356064 194.334653 56.7409649 194.312589 57.6013317 194.114014 58.4277367 193.587874 59.1182943 192.982531 59.9277183 192.795836 60.8390279 192.778864 61.8126008 192.767549 61.8748642 192.761892 61.9371276 192.750577 61.999391 192.716632 62.0842956 192.671373 62.1692003 192.643086 62.2541049 191.947224 64.7446404 191.7379 67.3144202 191.404112 69.8615588 191.324908 70.4728721 191.177815 71.0898456 191.449371 71.6954986 191.709612 72.2898309 191.703955 72.9068045 191.556862 73.5181178 191.223075 74.8596107 191.251928 76.1445007 191.935909 77.3954287 192.128261 77.7463678 192.247067 78.1369291 192.297984 78.5444712H181.821016C181.815359 78.4369254 181.877024 78.2840971 181.984515 78.0520244 182.284358 77.4293906 182.811064 77.0501499 183.387554 76.7218521 184.898084 75.8501646 185.498336 74.0898089 184.801908 72.5332242 184.479436 71.814365 184.400232 71.0445632 184.445491 70.2747613 184.53601 68.854024 184.683102 67.4332867 184.801908 66.0125494 185.220557 67.054046 185.859845 67.954035 186.572679 68.8030812 186.782004 69.0577951 186.951726 69.3351502 187.104476 69.6351465 187.172365 69.7653336 187.24082 69.901181 187.308143 70.0426887 187.387347 70.2124979 187.466551 70.3936277 187.551412 70.5804179 187.738107 69.9181619 188.020978 69.4766579 188.71684 69.8219366 188.818673 69.6804289 188.739469 69.6125052 188.677238 69.5445816 188.445284 69.2898677 188.230868 69.0294935 188.032292 68.763459 187.970061 68.6842147 187.913487 68.6049704 187.86257 68.5257261 187.806562 68.4521421 187.755645 68.3785581 187.710385 68.2993138 187.545755 68.0502602 187.398662 67.7898861 187.268541 67.5295119 187.189903 67.3710233 187.115791 67.2125347 187.048468 67.054046 186.985671 66.906878 186.929096 66.7540497 186.872522 66.6012214 186.867431 66.5842405 186.861773 66.5729199 186.861773 66.5615992 186.804633 66.3974503 186.753717 66.2333014 186.708457 66.0634921 186.663198 65.8936829 186.624162 65.7238737 186.589651 65.5484041 186.58456 65.5314232 186.578902 65.5144423 186.578902 65.4974613 186.55005 65.344633 186.521763 65.1861444 186.499133 65.0276558V65.0163352C186.482726 64.8635069 186.465188 64.7106785 186.453874 64.5521899 186.437467 64.3031364 186.425586 64.0484225 186.431244 63.7880483 186.448216 62.3786316 186.289808 60.9748753 186.261521 59.5711189 186.255864 59.3560272 186.255864 59.1465958 186.261521 58.9371644 186.261521 58.8465995 186.267179 58.7560345 186.272836 58.6654696 186.284151 58.5522635 186.289808 58.4390573 186.301689 58.3258511 186.318096 58.1277404 186.341291 57.9409502 186.369012 57.7484997 186.385985 57.6466142 186.402957 57.5503889 186.425586 57.4485034 186.465188 57.2503926 186.510448 57.0522818 186.567022 56.8598314 186.595309 56.7636061 186.624162 56.6617206 186.65754 56.5711557 186.697142 56.4466289 186.742402 56.3221021 186.793318 56.2032356 186.844235 56.0843692 186.895152 55.9655027 186.951726 55.8466362 187.150301 55.4334338 187.398662 55.0372122 187.704162 54.6579716 187.953089 54.3579752 188.122811 53.9957155 188.332135 53.6617574 188.484886 53.4127038 188.660266 53.1862915 188.954451 53.0730853 188.524488 53.8485475 188.162413 54.6409906 187.890857 55.4843765 187.834283 55.6541858 187.783366 55.823995 187.743764 55.9994646 187.704162 56.1239913 187.675875 56.2485181 187.653246 56.3730449 187.630616 56.4466289 187.614209 56.5202129 187.602329 56.5994572 187.55707 56.8032283 187.517468 57.01832 187.489181 57.2334117 187.970061 56.9220948 188.445284 56.6277587 188.926164 56.3843655 189.112859 56.2881403 189.305211 56.1975753 189.497563 56.1239913 189.786657 55.9938042 190.091592 55.8919187 190.403315 55.8126744 190.985463 55.6655064 191.556862 55.9655027 192.122604 55.7447507 192.297984 55.676827 192.524846 55.6824873 192.648743 55.5692811 193.208828 55.0655137 193.843024 55.2806054 194.447802 55.3598498 194.91171 55.4221131 195.358645 55.5636208 195.811239 55.6881476 196.558018 55.8862584 196.920092 56.4636098 197.180333 57.1315262" id="Fill-42" fill="#bcbec0"/><path d="M218.989557 78.312342C218.97315 78.3915863 218.944297 78.4708306 218.910353 78.5444146H209.581275C209.841516 78.1595137 210.084785 77.7689524 210.412915 77.4180133 211.861213 75.867089 212.330779 74.0331492 211.725435 71.9671368 211.306786 70.5520598 210.593952 69.2784905 209.881118 68.0049212 210.040091 67.3596461 210.446859 66.787955 210.407257 66.0747562 210.390851 65.7917408 210.684471 65.9219278 210.848536 65.9728706 212.223853 66.4313556 213.626892 66.7483328 215.058219 66.9577642 215.131765 66.9690848 215.205311 66.9973864 215.278292 67.008707 216.240618 67.155875 216.234961 67.155875 216.472572 68.1181273 216.523489 68.3105778 216.597036 68.5256695 216.72659 68.6728375 217.174092 69.1822652 217.541258 69.7369754 217.83601 70.3369681V70.3482887C217.83601 70.4388536 217.79075 70.5350788 217.90899 70.5860216 217.920305 70.6935675 217.90899 70.8067736 217.942935 70.9086592 218.378556 72.1992094 218.582223 73.5180611 218.4125 74.8878557 218.367241 75.2274742 218.452668 75.5953942 218.514334 75.9463333 218.661427 76.7331161 218.831715 77.5198989 218.989557 78.312342" id="Fill-44" fill="#bcbec0"/><path d="M225.937032 78.3690017C225.874801 78.4199445 225.818227 78.4822079 225.772967 78.5444712H224.183234V78.5331506C223.956937 77.548257 223.685947 76.5633634 224.098372 75.5501683 224.227927 75.2445117 224.019169 74.9275344 223.968818 74.6162175 224.053113 74.2596181 223.945057 73.9143393 223.900363 73.5690605 223.713668 72.0690789 223.198843 70.6936241 222.435092 69.3974135 222.435092 69.3917532 222.429435 69.3917532 222.429435 69.3860929 222.41812 69.3125089 222.423777 69.2276043 222.327601 69.1936425 222.237083 68.7917606 222.146564 68.395539 222.061703 67.9936572 222.027758 67.8125273 221.852379 67.5238516 222.191823 67.512531 222.508639 67.5068707 223.006491 67.2295156 223.136612 67.6993211 223.560918 69.2502455 224.748975 70.3653262 225.377514 71.8030444 225.943256 73.0935947 226.661182 74.3049006 226.757358 75.7539394 226.819589 76.738833 226.768673 77.6727838 225.937032 78.3690017" id="Fill-46" fill="#bcbec0"/><path d="M231.419294 78.5445278H230.937848C230.869959 78.1935887 230.773783 77.84831 230.723432 77.4917106 230.654978 77.0558668 230.581997 76.6200231 230.763034 76.1898397 231.101913 76.9426607 231.272202 77.7407641 231.419294 78.5445278" id="Fill-48" fill="#bcbec0"/><g id="Group-52" transform="translate(129.731220, 17.130123)"><mask id="mask-2" fill="#fff"><use xlink:href="#path-1"/></mask><g id="Clip-51"/><path d="M94.5886971 13.7741393C96.6615741 15.2333667 98.1641837 17.113155 99.0427803 19.5006729 99.6368089 21.1149927 100.27836 22.7117656 100.897847 24.3164629 100.956684 24.5151397 101.050597 24.8383433 101.108868 25.0370201 101.292734 25.898519 101.53374 26.744169 101.848858 27.5688759 101.878843 27.644724 101.908261 27.7205721 101.938246 27.7964203 102.508513 29.6767746 103.628681 31.0833611 105.482051 31.8220313 106.380448 32.1803288 107.306001 32.4712686 108.268893 32.809755 107.623382 33.1125815 107.028222 32.9512627 106.455126 32.8057928 104.014517 32.184291 102.165674 30.8116663 101.088502 28.4869778 101.037019 28.3907526 100.986102 28.2939613 100.935186 28.1977361 100.926134 28.0324551 100.848062 27.8977398 100.749057 27.7720809 100.719072 27.699629 100.689654 27.627177 100.660235 27.5547251 100.116558 26.1634214 99.33244 24.9317384 98.2332041 23.9111849 98.2337699 23.9117509 98.2213236 23.9309959 98.2213236 23.9309959L98.2473477 23.9196753C98.2626227 24.6187234 98.0046445 25.2289046 97.6301236 25.7983315 97.274838 26.3388909 97.1571637 26.9252989 97.2606944 27.5603854L97.2686148 27.7941561C97.2391962 29.7079063 97.2273157 31.6227884 97.036095 33.5303122 96.1925744 33.0072998 95.2766388 32.57089 94.5208081 31.9425958 93.1460562 30.7992136 91.585741 30.1109202 89.9094488 29.5584741 88.3825124 29.0552727 86.8595361 28.7496161 85.2477385 28.6432023 81.5517489 28.398111 77.8387872 28.1728307 74.2791414 26.9994489 72.8563014 26.5307754 71.4691031 26.7368106 70.0858651 27.1205795 69.2791176 27.3441616 68.5244184 27.3634067 67.682595 27.1415226 66.3587598 26.7928476 64.9545893 26.818319 63.6205707 26.432286 62.7046351 26.1679496 61.7609782 26.560775 61.2704803 27.3786895 60.6430729 28.4252805 59.6660373 28.9692361 58.6165867 29.4656451 57.5541241 29.9677144 56.60877 30.6944979 55.5168888 31.1473226 55.3092617 31.2333593 55.0399687 31.449583 54.9222944 31.6409014 54.3033732 32.6490023 53.6516389 33.6378581 53.1373799 34.7065242 52.5552318 35.9189622 52.592005 37.2055502 52.69497 38.4949684 52.72552 38.8759071 52.8047238 39.2506195 52.8646924 39.627596 52.9122147 39.9207999 52.846023 40.1596649 52.6429218 40.4013601 51.2528948 42.0575662 49.481558 43.1539679 47.4901478 43.9147133 46.6353123 44.241313 45.7793453 44.5854598 44.8594496 44.6924396 44.7259346 44.5175361 44.7287633 44.5203662 44.595814 44.3460287 45.1389259 42.7724631 45.4795023 41.1507849 45.8404454 39.5330688 46.0288374 39.1102438 45.9485021 38.7140223 45.7974491 38.286669 44.9827812 35.9868859 44.1918746 33.6786123 43.4009679 31.3703387 43.2357714 30.8886465 43.0202238 30.4511047 42.6315594 30.089411 42.1286152 29.6207375 42.0047178 28.9007463 42.1908467 28.2390563 42.3317164 27.7386851 42.2304486 27.2541627 42.1433244 26.7724705 42.0511086 26.2590806 41.986614 25.751917 42.1150374 25.2402252 42.1569022 25.0738121 42.1189975 24.8043815 42.0465826 24.648723 41.1249897 22.6591247 39.7943655 21.1348038 37.3831751 20.6921677 36.8196965 20.5885841 36.2816763 20.3825489 35.7911784 20.0859487 35.133221 19.6880291 34.6828907 19.6104829 34.1493964 20.0225533 33.4439167 20.5670749 32.5772007 20.7549971 31.698604 20.6916017 28.8795139 20.4872646 26.6997117 21.5717796 25.09244 23.8692986 25.0171964 23.9762784 24.9289407 24.0753338 24.8412508 24.1726911 24.8203183 24.1958983 24.777322 24.1987285 24.7077358 24.2236339 24.5821411 23.7255268 24.7479034 23.2625136 24.8559601 22.8045946 25.3447608 20.7436765 26.1153007 18.7976626 27.2688477 17.0118355 27.3389997 16.9031575 27.3791673 16.7758006 27.4329128 16.6569341 27.4759091 16.6184441 27.5143796 16.5771238 27.4464906 16.5301432 27.4419647 16.5267471 27.4012313 16.5742937 27.3769044 16.5980669 26.5192402 17.1946634 25.9857459 18.0584264 25.5037341 18.9493589 25.2734773 19.374448 24.991738 19.7734997 24.6477672 20.1125522 23.2413337 21.4981956 22.6116633 23.2325139 22.4204427 25.1587167 22.1918831 27.4562357 22.5726272 29.7311135 22.7016163 32.0150478 22.7779914 33.3865404 22.7146283 34.758033 22.7610191 36.1283936 22.802884 37.366869 22.8719045 38.6030802 23.3363783 39.7758961 23.7782224 41.189275 24.4723873 42.4900137 25.1524086 43.7964128 25.3215653 44.1230126 25.4760128 44.4716876 25.7854734 44.7065903L25.9342634 44.8713053C26.2499472 45.307715 26.7958878 45.5511083 27.0459456 46.1573273 26.7070664 46.096196 26.451917 46.0509135 26.1967675 46.0028009 25.462435 45.8635573 25.2706486 45.9909142 25.1003604 46.7329806 24.9521361 46.9627891 24.994001 47.2786343 24.6930265 47.5780646 24.0163996 45.6880877 23.072177 44.0035801 22.1279543 42.3196385 21.1582733 40.3657002 20.3045693 38.3693095 19.773338 36.2432979 19.0565435 33.3757858 18.6729707 30.4556329 18.3601156 27.5241594 18.2712942 26.6869999 18.3086332 26.706811 17.5754321 27.0532218 12.9776506 29.2279121 8.46642751 29.1628186 4.23128631 26.2256848 1.93777008 24.6351382.820430533 22.1847909.232059327 19.5046351-.538480657 15.991848.678429406 13.0439596 2.86784918 10.3836148 3.81094034 9.23796848 5.07084676 8.75457818 6.50952751 8.59835368 7.42772603 8.49873226 8.3464903 8.49816623 9.26525457 8.45627995 9.49664286 8.44552536 9.69125795 8.49080783 9.74160895 8.73929535 9.79874885 9.02004662 9.56396611 9.1077814 9.35294451 9.19438411 8.98804121 9.34325021 8.60786289 9.4479659 8.22032994 9.51985182 4.49096167 10.2098434 2.34001232 14.0605509 2.50634034 16.5907085 2.70661284 19.6325581 4.14755656 22.0415851 6.74487599 23.7232626 9.09553211 25.2453194 11.6221338 25.1066419 14.1945606 24.5672145 15.4770967 24.2983499 16.6674169 23.8166577 17.7044212 22.9840264 17.9991725 22.7468595 18.1077949 22.4938437 18.116281 22.1230936 18.1671978 19.8985925 18.3623786 17.6961667 19.2675651 15.6222298 19.6517036 14.742618 20.1161774 13.9043264 20.6162929 13.0869779 21.5186507 11.6107696 22.2484573 10.0417322 23.0744399 8.5253357 23.8919365 7.02422203 24.9736343 5.85027415 26.6572811 5.28707351 27.6507233 4.95481343 28.5972089 4.48330978 29.5680214 4.08255997 30.6242608 3.64558419 31.3065451 2.86446169 31.7110504 1.82126693 31.9622396 1.44259233 32.204377 1.07750246 32.456132.699393891 32.5641886.596942317 32.672811.493924712 32.7814334.390907107 33.1746237-.0172010988 33.6130734-.0834267021 34.1618427.0892126913 34.947092.335436088 35.7611941.488830435 36.5594554.696563737 38.0405668 1.08146468 39.5731606 1.0780685 41.0729414 1.31127318 42.9919368 1.60957141 44.784206 2.35503398 46.6024993 2.99974305 46.8191783 3.07672324 47.0239767 3.17294848 47.277429 3.12200571 47.7832019 3.02068619 48.2810545 2.88993308 48.7958793 2.84748077 49.1421131 2.8186132 49.4770321 2.78578341 49.814214 2.75465172 50.906661 2.69238833 51.9346133 2.95842281 52.9354101 3.36370086 54.1772128 3.86746827 55.4416452 4.25010509 56.8062138 4.23255813 57.4042026 4.2246337 58.0038886 4.31746275 58.6035747 4.36444331 61.2993331 4.57727089 63.9786851 4.946889 66.6670889 5.23556471 66.7395038 5.2446212 66.8130502 5.25424372 66.8865966 5.26386625 69.7079497 5.65159734 72.5372232 5.96574444 75.3732855 6.22555257 76.6875031 6.3455511 78.0017208 6.41913511 79.3176356 6.40158815 80.7896951 6.38177707 82.2645833 6.55215234 83.6676223 6.99931667 88.4866088 8.53552426 93.0702468 12.7060392 94.5886971 13.7741393" id="Fill-50" fill="#bcbec0" mask="url(#mask-2)"/></g><path d="M228.861294 68.0489018C229.442311 69.6977495 230.000132 71.3528235 230.277345 73.0871419 229.72801 71.4298037 229.058738 69.8058614 228.861294 68.0489018" id="Fill-53" fill="#bcbec0"/><path d="M182.872673 72.2897177C183.217775 73.8010199 182.940562 75.2274176 182.182468 76.5632502 181.967486 76.9481512 181.690273 77.2594681 181.204301 77.3273918 180.88692 77.3726743 180.621587 77.5651248 180.361346 77.7519149 180.434327 78.0122891 180.519188 78.2783236 180.570105 78.544358H170.319434C170.398072 78.3519076 170.471618 78.1424762 170.607396 78.0122891 171.088277 77.5707851 171.4 76.9939997 171.994029 76.6311739 173.255067 75.8619381 173.741604 74.0840353 173.136261 72.7312217 172.638408 71.6167071 172.723835 70.4557779 172.865271 69.3010751 173.107974 67.2124215 173.583197 65.1690503 174.030133 63.1200188 175.817876 63.1313394 177.520758 62.7068163 179.161408 62.021919 180.649309 61.3936249 181.962395 60.5106168 182.963192 59.1640295 183.190054 59.4974217 183.167424 59.8313799 183.195146 60.1545834 181.390996 61.891732 181.141504 64.2747216 180.548041 66.5224299 181.463977 68.3841052 182.403107 70.2463465 182.872673 72.2897177" id="Fill-55" fill="#bcbec0"/><path d="M138.942616 78.5445278C138.942616 78.5615088 138.948839 78.58415 138.948839 78.6011309 138.948839 78.58415 138.942616 78.5615088 138.936958 78.5445278H138.942616z" id="Fill-57" fill="#0601fe"/><g id="Group-61" transform="translate(209.100451, 78.383209)"><mask id="mask-4" fill="#fff"><use xlink:href="#path-3"/></mask><g id="Clip-60"/><path d="M.524093264.175785417C.443937824.305311514.35761658.43483761.265129534.558195797.209637306.428669701.147979275.305311514.0924870466.175785417H.524093264z" id="Fill-59" fill="#0601fe" mask="url(#mask-4)"/></g></g></g><path id="Rectangle" stroke="#979797" stroke-width=".5" d="M0 0h278v129H0z"/></g></g></g></svg>