<svg width="46" height="41" viewBox="0 0 46 41" xmlns="http://www.w3.org/2000/svg" xmlns:xlink="http://www.w3.org/1999/xlink"><title>Group 3</title><defs><path id="path-1" d="M0 0H46V41H0z"/></defs><g id="Mammoth-Page" stroke="none" stroke-width="1" fill="none" fill-rule="evenodd"><g id="Colossal_Mammoth_8-03-21" transform="translate(-40.000000, -34.000000)"><g id="Group-3" transform="translate(40.000000, 34.000000)"><mask id="mask-2" fill="#fff"><use xlink:href="#path-1"/></mask><g id="Clip-2"/><path d="M34.9547442 27.1638888C34.6882744 27.1223895 34.4239322 27.2559033 34.3030634 27.4964137 27.1866982 41.6491395 5.07223351 36.5692518 5.12916704 20.4994697 5.07648851 4.42902462 27.187895-.650332758 34.3043931 13.5047796 34.4253948 13.7454226 34.6898701 13.8790689 34.9564728 13.837437L37.9992013 13.3613218C38.8579147 13.2270126 39.6801947 13.7464832 39.9361599 14.5748786 40.5264091 16.4862337 40.8254563 18.4724998 40.8254563 20.5 40.8254563 22.5276328 40.5264091 24.5140314 39.935894 26.4257844 39.6800617 27.2539145 38.8580477 27.7733852 37.9994672 27.6393411L34.9547442 27.1638888zM44.0934341 12.1127625 40.9259808 12.6082352C40.1665951 12.727032 39.4271548 12.3275513 39.0943335 11.6367799 37.546309 8.42316822 35.1915619 5.6717502 32.2202378 3.62409696 28.7797992 1.25319984 24.7475158.0 20.5592599.0 9.22272627.0.0 9.19627531.0 20.5.0 31.8038573 9.22272627 41 20.5592599 41 24.7476488 41 28.7800651 39.7468002 32.2206367 37.375903 35.1922267 35.3282498 37.546575 32.5772295 39.0940676 29.3644134 39.4266229 28.6737746 40.1659303 28.2742939 40.92505 28.3930907L44.0913066 28.8884308C44.3571115 28.9299301 44.6171988 28.7765285 44.7029638 28.5222291 46.4247787 23.4122444 46.4392723 17.6011467 44.7048253 12.4781686 44.6189274 12.2242671 44.3589731 12.0712632 44.0934341 12.1127625v0z" id="Fill-1" fill="#fff" mask="url(#mask-2)"/></g></g></g></svg>