<svg width="148" height="29" viewBox="0 0 148 29" xmlns="http://www.w3.org/2000/svg" xmlns:xlink="http://www.w3.org/1999/xlink"><title>Group 11</title><defs><path id="path-1" d="M0 0H29V26H0z"/><path id="path-3" d="M0 0H26V29H0z"/></defs><g id="Mammoth-Page" stroke="none" stroke-width="1" fill="none" fill-rule="evenodd"><g id="Colossal_Mammoth_8-03-21" transform="translate(-645.000000, -26197.000000)"><g id="Group-11" transform="translate(645.000000, 26197.000000)"><g id="Group-3" transform="translate(0.000000, 2.000000)"><mask id="mask-2" fill="#fff"><use xlink:href="#path-1"/></mask><g id="Clip-2"/><path d="M22.3539572 16.3795201C22.1878608 16.3576018 22.0283208 16.4518504 21.9671274 16.60747 21.2721449 18.3455885 20.1029135 19.8360306 18.5708924 20.9297521 16.8771459 22.1374485 14.8752468 22.7599273 12.792485 22.724858 7.47084269 22.6349932 3.24631106 18.3061356 3.26374082 12.9668461 3.28127873 7.62098104 7.62382625 3.27458892 12.9607669 3.27458892 14.6632553 3.27458892 16.3417035 3.7261052 17.8081601 4.57872574 19.1675283 5.36997514 20.3214614 6.48123122 21.1606855 7.81166995 21.2371773 7.93222042 21.3770479 7.99797521 21.5191041 7.97824877L23.811672 7.66481757C24.2181711 7.59687095 24.6159284 7.82262909 24.7710974 8.20400691 25.3895881 9.72294274 25.7042971 11.3339353 25.7042971 12.9997235 25.7042971 14.0035801 25.5862812 14.9942857 25.3589914 15.9608812 25.2497174 16.4123975 24.8126215 16.7039104 24.3580418 16.6293883L22.3539572 16.3795201zM27.887591 7.1146691C27.8307685 6.9743922 27.6865269 6.88891096 27.5379143 6.9086374l-2.2947533.29808842C24.8760004 7.26809696 24.5088399 7.09275083 24.3318161 6.76397685 23.2871569 4.85708772 21.7835471 3.23951969 19.9499299 2.05593334 17.8627971.712343641 15.4456569.0 12.9607669.0 5.80769289.0-.00786772574 5.84121785-.00131682596 13.0172581.00961610924 20.2590531 5.86670083 26.0652018 13.0853392 25.999447 15.8455997 25.973145 18.4725459 25.0854553 20.6886219 23.4306262 21.7704342 22.6218422 22.7189323 21.6530548 23.5035194 20.5527579 24.1416794 19.6606845 24.6618234 18.6962808 25.0530243 17.6792732 25.2038223 17.2891281 25.6059505 17.0589863 26.0168207 17.1247411L28.101768 17.3811848C28.2656789 17.4009113 28.4186625 17.2957036 28.4601866 17.1378921 28.8186052 15.7921106 29 14.4024925 29 12.9997235 29 10.9679002 28.6240975 8.99087266 27.887591 7.1146691v0z" id="Fill-1" fill="#9940dd" mask="url(#mask-2)"/></g><g id="Group-6" transform="translate(42.000000, 0.000000)"><mask id="mask-4" fill="#fff"><use xlink:href="#path-3"/></mask><g id="Clip-5"/><path d="M17.052312 6.91402069C17.0194332 7.07793773 17.1027262 7.24185477 17.2539686 7.31616383 18.9351703 8.13356346 20.3379983 9.40774524 21.317786 11.0163178 22.3984019 12.7909929 22.8740483 14.8323064 22.6877352 16.9064034 22.2120888 22.2085732 17.5871402 26.1097987 12.2651614 25.7076556 6.93222299 25.3055124 2.91224394 20.6590108 3.30021356 15.3371709 3.42296101 13.6368048 3.99505182 11.9976345 4.95292033 10.5966902 5.83845552 9.29846722 7.03524317 8.22754256 8.42053585 7.48663755 8.54766714 7.41669961 8.62219238 7.28338042 8.6134247 7.14131899L8.46656614 4.82899596C8.42930352 4.42029614 8.68137418 4.04000861 9.07153573 3.91106054 10.6343738 3.40619606 12.2629695 3.20949562 13.9244439 3.32751589 14.9261508 3.40182494 15.9081304 3.58978315 16.8528474 3.88701938 17.295615 4.02689525 17.5542614 4.4836774 17.4468574 4.93390286L17.052312 6.91402069zM8.21449548.726698872C8.06982884.770410082 7.97338441.908100394 7.98215209 1.05890407L8.11366722 3.36904154C8.14873792 3.74058682 7.94488947 4.09246207 7.60514206 4.24763686 5.63022323 5.15027336 3.90518315 6.53373316 2.59222379 8.27781045 1.0995271 10.2622994.21618383 12.6205192.034254571 15.0989448-.483038263 22.2347999 4.92004155 28.4570907 12.0766564 28.9663263 19.3012207 29.479933 25.5175024 24.0575574 25.9734215 16.8517644 26.148775 14.0957725 25.4539367 11.4119042 23.963432 9.08209672 23.2357149 7.94560526 22.3392201 6.93150518 21.3002506 6.06602321 20.45417 5.36664385 19.5313722 4.77872807 18.5450087 4.31538924 18.1658068 4.13617328 17.9663422 3.71873122 18.0627866 3.31440252L18.4682916 1.2512334C18.5011703 1.08950192 18.4069178.929956 18.2512916.875316987 16.9361403.42290596 15.5618073.143154214 14.165555.0404328695 12.1380301-.103814125 10.1368083.12566973 8.21449548.726698872v0z" id="Fill-4" fill="#9940dd" mask="url(#mask-4)"/></g><path d="M87.6462409 11.6204799C87.8123423 11.6423982 87.9697015 11.5481496 88.0330822 11.39253 88.7280854 9.65441147 89.8973517 8.16396939 91.4294184 7.07024793 93.1232154 5.86255148 95.1229887 5.24007273 97.2079981 5.27514195 102.529799 5.36500684 106.754457 9.69386435 106.737026 15.0331539 106.719488 20.3812108 102.374625 24.7254111 97.0375256 24.7254111 95.337172 24.7254111 93.6586738 24.2738948 92.1921735 23.4212743 90.8327648 22.6322167 89.6787973 21.5187688 88.8395482 20.18833 88.7630541 20.0677796 88.6209937 20.0020248 88.4789333 20.0217512L86.1862971 20.3373743C85.7797859 20.4031291 85.3820168 20.1795627 85.2290286 19.7959931 84.608334 18.2770573 84.2958011 16.6682565 84.2958011 15.0002765 84.2958011 13.9964199 84.411635 13.0057143 84.6411172 12.0391188 84.7482088 11.5876025 85.1853177 11.2960896 85.6420965 11.3728035L87.6462409 11.6204799zM82.1124422 20.8853309C82.1692663 21.0256078 82.3113267 21.111089 82.4621293 21.0913626L84.756951 20.7932742C85.1241225 20.731903 85.4891084 20.9072492 85.6683231 21.2360232 86.7108278 23.1429123 88.2144824 24.7604803 90.0503398 25.9440667 92.1375348 27.2876564 94.5525615 28 97.0375256 28 104.190813 28 110.008732 22.1587821 110 14.9827419 109.991248 7.74094686 104.133989 1.93479824 96.9129496 2.00055303 94.1526069 2.02904678 91.5255824 2.91454472 89.3116258 4.57156562 88.2297813 5.3781578 87.2812549 6.34694515 86.4966445 7.4472421 85.8584655 8.33931552 85.3383059 9.30371922 84.9470934 10.3207268 84.7962908 10.7108719 84.3941506 10.9432055 83.9832683 10.8752589L81.8960733 10.6188152C81.7321574 10.5990887 81.5813548 10.7042964 81.5398295 10.8621079 81.1814002 12.2100813 81 13.5975075 81 15.0002765 81 17.0320998 81.3737281 19.0113192 82.1124422 20.8853309v0z" id="Fill-7" fill="#9940dd"/><path d="M131.693003 22.3807551C131.712732 22.2146358 131.616282 22.0572596 131.460647 21.9960578 129.717975 21.3162802 128.21862 20.155631 127.11164 18.6321423 125.892865 16.9490916 125.252789 14.9512886 125.272518 12.8660544 125.322935 7.54586576 129.619333 3.28796619 134.956951 3.2638225 140.305529 3.23987902 144.685225 7.55023732 144.726874 12.8879122 144.740026 14.5906349 144.299426 16.269314 143.457683 17.7469013 142.679509 19.1086423 141.57472 20.2714773 140.25292 21.1217458 140.132358 21.2004338 140.066597 21.3403238 140.088517 21.4823995L140.417323 23.7752828C140.489661 24.1774663 140.268264 24.5796498 139.889042 24.737026 138.37215 25.3665307 136.763192 25.6943977 135.097242 25.7053266 134.095479 25.7118839 133.102485 25.6047807 132.133603 25.3818311 131.682043 25.2790995 131.386118 24.8441292 131.458455 24.3873012L131.693003 22.3807551zM141.000406 27.8430195C141.140696 27.788375 141.226186 27.6419277 141.204266 27.4932947L140.88642 25.2004114C140.825043 24.8353861 140.998214 24.4659893 141.322636 24.2845695 143.220943 23.2288377 144.8299 21.7097206 145.998257 19.867108 147.326634 17.7709449 148.019318 15.3469148 147.99959 12.8638687 147.944789 5.7098105 142.059161-.065020439 134.882422.000552963035 127.639921.063940585 121.877048 5.96554677 122.001994 13.1873641 122.048027 15.9480043 122.955531 18.5665689 124.628058 20.772021 125.445689 21.8474247 126.421147 22.7873102 127.525935 23.5632621 128.424672 24.1949525 129.393553 24.7042393 130.412852 25.0911224 130.805227 25.2397554 131.039775 25.6375674 130.974014 26.0506798L130.735082 28.1380998C130.717546 28.3020333 130.822763 28.4528521 130.98059 28.4943819 132.330887 28.841921 133.720641 29.0124118 135.123546 28.9992971 137.155567 28.9839967 139.130596 28.5971136 141.000406 27.8430195v0z" id="Fill-9" fill="#9940dd"/></g></g></g></svg>