<svg width="95" height="286" viewBox="0 0 95 286" xmlns="http://www.w3.org/2000/svg" xmlns:xlink="http://www.w3.org/1999/xlink"><title>Group 44</title><g id="Mammoth-Page" stroke="none" stroke-width="1" fill="none" fill-rule="evenodd"><g id="Colossal_Mammoth_8-03-21" transform="translate(-1345.000000, -15957.000000)"><g id="Group-44" transform="translate(1392.500000, 16100.000000) rotate(-270.000000) translate(-1392.500000, -16100.000000) translate(1249.500000, 16052.500000)"><path id="Fill-1" fill="#9940dd" d="M0 95H286V0H0z"/><g id="Group-20" transform="translate(245.667544, 68.402580)" fill="#000"><path d="M23.4622224 13.709505 19.7218 12.0971721C19.5674035 12.0474585 19.4076367 12.163009 19.4076367 12.3255859V12.7165766C19.4076367 12.8213783 19.4747656 12.9127438 19.5741164 12.9463341L23.3131962 14.558667C23.4689353 14.6083806 23.6287021 14.4928301 23.6287021 14.3289096V13.9379188C23.6287021 13.8344608 23.5615732 13.7404081 23.4622224 13.709505" id="Fill-2"/><path d="M.165808387 7.97819887 3.86729602 9.5891882C4.02303507 9.64024541 4.18280186 9.52335127 4.18280186 9.36077436V8.97515807C4.18280186 8.87035643 4.11567296 8.7789909 4.01632218 8.74540063L2.09509302 7.90967472C1.6010243 7.694697 1.61445008 6.98930134 2.11657427 6.79313417L6.26111265 5.17811401C6.36314858 5.14855458 6.43430522 5.05315821 6.43430522 4.94701296V3.26481227C6.43430522 3.15866702 6.50411927 3.06595787 6.60481263 3.03505482L11.6018881.979330336C11.7522568.91752424 11.9227642.918867851 12.0717904.984704779L15.4779108 2.46536386C15.6336499 2.51776468 15.7934167 2.40221415 15.7934167 2.23829363V1.85133373C15.7934167 1.7478757 15.7262878 1.65516656 15.6282796 1.62426351L11.9267919.0119305761C11.8878572-.000161920911 11.8489224-.00150553169 11.8113302.00386891142 11.7791084-.000161920911 11.7455439.00118168987 11.7106369.00924335453L5.66635058 2.32965917C5.56297207 2.35787499 5.49181544 2.45327136 5.49181544 2.56076022V4.25102258C5.49181544 4.35582422 5.42200138 4.44987697 5.32130803 4.47943641L.171178699 6.63324449C.0704853467 6.66280392.000671289016 6.75685668.000671289016 6.86300193V7.26742877C.000671289016 7.2835521.00335644508 7.29967543.00604160114 7.31579876.00335644508 7.33192209.000671289016 7.34670181.000671289016 7.36416875V7.74978504C.000671289016 7.85324307.0678001906 7.94729583.165808387 7.97819887" id="Fill-4"/><path d="M23.321923.00964643776 17.2762941 2.33006225C17.1729156 2.35827808 17.1031015 2.45233083 17.1031015 2.55981969V4.25008205C17.1031015 4.35488369 17.0332875 4.45028006 16.9312516 4.47983949L11.7824648 6.63364757H11.7797796C11.6253832 6.68201756 11.4629312 6.69411005 11.3139051 6.62961674L8.11051389 5.24838486C7.95611741 5.19732765 7.79769321 5.31422179 7.79769321 5.47679869V5.86778943C7.79769321 5.97259107 7.86347953 6.06530021 7.9628303 6.09620326L9.56049816 6.7868192C10.0585946 7.00045331 10.0438263 7.71122341 9.53901691 7.90604698L5.66567929 9.39073688C5.56230078 9.42163993 5.49114415 9.51434908 5.49114415 9.62183794V11.3121003C5.49114415 11.4182455 5.42133009 11.5122983 5.32063674 11.5432013L.17050741 13.6956658C.0698140576 13.7265689.0 13.819278.0 13.9254233V14.3285065C0 14.4883962.154396474 14.6039467.307450369 14.5596075L6.26044136 12.2405353C6.36381987 12.2109759 6.43363393 12.1169232 6.43363393 12.0094343V10.3285772C6.43363393 10.222432 6.50344798 10.1283792 6.60548391 10.0974762L11.845566 7.94098086C11.8737601 7.93291919 11.8979265 7.91948308 11.9207503 7.90201614L15.4772395 9.44985576C15.6329786 9.50091297 15.7927454 9.38670605 15.7927454 9.22144193V8.83582563C15.7927454 8.7323676 15.7256165 8.63965846 15.6276083 8.6074118L13.8742014 7.84424088C13.3801327 7.62926316 13.3935584 6.9238675 13.8956826 6.72770032L17.8710562 5.1785171C17.9744347 5.14761405 18.0442487 5.0535613 18.0442487 4.94741604V3.26521535C18.0442487 3.1590701 18.1154054 3.06501735 18.2160987 3.03545791L23.4575234.877619C23.5582167.848059563 23.6280308.755350419 23.6280308.649205168V.240747491C23.6280308.080857809 23.4749769-.0346927179 23.321923.00964643776" id="Fill-6"/><path d="M23.4622224 6.72246024 19.7218 5.11012731C19.5674035 5.06041371 19.4076367 5.17596424 19.4076367 5.33854114V5.72953188C19.4076367 5.83433352 19.4747656 5.92569905 19.5741164 5.95928932L21.3422917 6.72111663C21.8403881 6.93475074 21.8256198 7.64552085 21.3194679 7.84034441L17.2769654 9.39087125C17.1735869 9.42177429 17.1024303 9.51448344 17.1024303 9.6219723v1.6902624C17.1024303 11.4183799 17.0326162 11.5110891 16.9319228 11.5433357L12.0368833 13.5883113C11.885172 13.651461 11.7160072 13.6501174 11.5656385 13.5856241L8.11118518 12.0969034C7.95544613 12.0471898 7.79702192 12.1627403 7.79702192 12.3253172V12.7163079C7.79702192 12.8211096 7.86415082 12.9124751 7.96350159 12.9460654L11.7025814 14.5583983C11.7415162 14.5704908 11.7804509 14.573178 11.8180431 14.56646 11.850265 14.5718344 11.8838294 14.5704908 11.9187365 14.5597419L17.8717275 12.2393261C17.9737634 12.2111103 18.04492 12.1170575 18.04492 12.0095686V10.3287116C18.04492 10.2212227 18.1147341 10.1285136 18.21677 10.0976105L23.4568521 7.94111522C23.558888 7.91155578 23.6287021 7.81615941 23.6287021 7.71001416V7.34186481 7.30424371 6.95087407C23.6287021 6.84741604 23.5615732 6.75336329 23.4622224 6.72246024" id="Fill-8"/><path d="M.165808387.855986866 3.86729602 2.46563258C4.02303507 2.51668979 4.18280186 2.40113926 4.18280186 2.23721875V1.85160245C4.18280186 1.74814442 4.11567296 1.65543528 4.01632218 1.62318862L.316177126.0121992982C.160438075-.0388579113.000671289016.0766926155.000671289016.24061313V.626229423C.000671289016.731031064.0678001906.823740208.165808387.855986866" id="Fill-10"/></g><text id="Lorem-ipsum-dolor-sit-amet,-consectetuer-adipiscing-elit,-sed-diam-" font-family="Telegraf-Regular, Telegraf" font-size="7.64648893" font-weight="normal" letter-spacing="-.221748183" fill="#000"><tspan x="14.0984119" y="40.769058">L</tspan><tspan x="17.6387363" y="40.769058" letter-spacing="-.122343819">o</tspan><tspan x="21.9742955" y="40.769058" letter-spacing="-.244687637">r</tspan><tspan x="24.4288185" y="40.769058" letter-spacing="-.123108474">e</tspan><tspan x="28.5877438" y="40.769058">m</tspan><tspan x="37.3276806" y="40.769058" letter-spacing="-.0382324452">i</tspan><tspan x="38.9869687" y="40.769058" letter-spacing="-.0229394666">p</tspan><tspan x="43.66662" y="40.769058" letter-spacing="-.0451142824">s</tspan><tspan x="47.521215" y="40.769058" letter-spacing="-.0772295361">u</tspan><tspan x="51.8407166" y="40.769058">m</tspan><tspan x="58.8601935" y="40.769058" letter-spacing="-.00382324433"/><tspan x="60.5768302" y="40.769058" letter-spacing="-.129990317">d</tspan><tspan x="65.0423798" y="40.769058" letter-spacing="-.0688184023">o</tspan><tspan x="69.4849898" y="40.769058" letter-spacing="-.0680537515">l</tspan><tspan x="71.0609312" y="40.769058" letter-spacing="-.123108474">o</tspan><tspan x="75.3957258" y="40.769058">r</tspan><tspan x="80.060084" y="40.769058" letter-spacing="-.0458789332">s</tspan><tspan x="83.9139145" y="40.769058" letter-spacing="-.0986397086">i</tspan><tspan x="85.4516234" y="40.769058">t</tspan><tspan x="90.1618606" y="40.769058" letter-spacing="-.0305859546">a</tspan><tspan x="94.2909646" y="40.769058" letter-spacing="-.107815498">m</tspan><tspan x="101.095575" y="40.769058" letter-spacing="-.145283293">e</tspan><tspan x="105.209386" y="40.769058" letter-spacing=".0764648903">t</tspan><tspan x="108.352093" y="40.769058">,</tspan><tspan x="109.460834" y="40.769058" letter-spacing="-.00382324433"/><tspan x="111.177471" y="40.769058" letter-spacing="-.0909932206">c</tspan><tspan x="115.422037" y="40.769058" letter-spacing="-.123108474">o</tspan><tspan x="119.756831" y="40.769058" letter-spacing="-.0298213063">n</tspan><tspan x="124.177267" y="40.769058" letter-spacing="-.0382324452">s</tspan><tspan x="128.04639" y="40.769058" letter-spacing="-.0925225122">e</tspan><tspan x="132.266487" y="40.769058" letter-spacing="-.145283293">c</tspan><tspan x="136.403238" y="40.769058" letter-spacing="-.183515733">t</tspan><tspan x="139.025983" y="40.769058" letter-spacing="-.146047938">e</tspan><tspan x="143.13903" y="40.769058">t</tspan><tspan x="146.128807" y="40.769058" letter-spacing="-.0535254212">u</tspan><tspan x="150.494952" y="40.769058" letter-spacing="-.122343819">e</tspan><tspan x="154.654642" y="40.769058">r</tspan><tspan x="159.319" y="40.769058" letter-spacing="-.0221748183">a</tspan><tspan x="163.464162" y="40.769058" letter-spacing="-.054290072">d</tspan><tspan x="168.081877" y="40.769058" letter-spacing="-.0374677969">i</tspan><tspan x="169.741929" y="40.769058" letter-spacing="-.0764648903">p</tspan><tspan x="174.31453" y="40.769058" letter-spacing="-.0535254212">i</tspan><tspan x="175.943232" y="40.769058" letter-spacing="-.0382324452">s</tspan><tspan x="179.812355" y="40.769058" letter-spacing="-.122343819">c</tspan><tspan x="183.994985" y="40.769058" letter-spacing="-.0764648903">i</tspan><tspan x="185.577808" y="40.769058" letter-spacing="-.00688183973">n</tspan><tspan x="190.044122" y="40.769058">g</tspan><tspan x="196.474819" y="40.769058" letter-spacing="-.0695830481">e</tspan><tspan x="200.740796" y="40.769058">l</tspan><tspan x="202.453609" y="40.769058" letter-spacing="-.0986397086">i</tspan><tspan x="203.991318" y="40.769058" letter-spacing=".0757002395">t</tspan><tspan x="207.13326" y="40.769058">,</tspan><tspan x="209.962461" y="40.769058" letter-spacing="-.0382324452">s</tspan><tspan x="213.831585" y="40.769058" letter-spacing="-.0535254212">e</tspan><tspan x="218.128911" y="40.769058">d</tspan><tspan x="224.574902" y="40.769058" letter-spacing="-.0535254212">d</tspan><tspan x="229.193381" y="40.769058" letter-spacing="-.129225661">i</tspan><tspan x="230.669918" y="40.769058" letter-spacing="-.0313506054">a</tspan><tspan x="234.798257" y="40.769058">m</tspan></text><g id="Group-41" transform="translate(13.902396, 9.162216)" fill="#000"><path d="M83.4621689 3.06638852C83.4621689 2.95486882 83.3896697 2.90649883 83.2621247 2.90649883H82.9425912V3.25046319H83.2540693C83.3896697 3.25046319 83.4621689 3.19403154 83.4621689 3.06638852M83.5655474 3.45737925C83.885081 3.48962591 84.0206813 3.61726893 84.0206813 3.88061665V3.96929496C84.0206813 4.12112298 84.0287368 4.19367796 84.0690141 4.34416236H83.4863353C83.4541134 4.27160738 83.4380025 4.16008769 83.4380025 3.96123329V3.88867831C83.4380025 3.74491196 83.3655033 3.68982392 83.2312455 3.68982392H82.9425912V4.34416236H82.3518568V2.43354784H83.4138361C83.8139243 2.43354784 84.0690141 2.64315112 84.0690141 2.97099215 84.0690141 3.25046319 83.8770255 3.41841454 83.5655474 3.45737925M84.4999817 3.38482427C84.4999817 2.62702779 83.9414692 2.00359239 83.1668017 2.00359239 82.3679678 2.00359239 81.8242237 2.62702779 81.8242237 3.38482427 81.8242237 4.14530797 82.3679678 4.78352309 83.1668017 4.78352309 83.9414692 4.78352309 84.4999817 4.15336963 84.4999817 3.38482427m.7343901999999929.0C85.2343719 4.54570398 84.2932247 5.47145181 83.1587462 5.47145181 82.0162123 5.47145181 81.0898335 4.54570398 81.0898335 3.38482427 81.0898335 2.25753483 82.0081569 1.331787 83.1587462 1.331787 84.3012801 1.331787 85.2343719 2.25753483 85.2343719 3.38482427" id="Fill-21"/><path d="M0 10.4260165C0 7.45394951 2.27835492 5.19265257 5.30989611 5.19265257 7.7493604 5.19265257 9.70281143 6.78080051 10.2519258 9.00044551H8.25819747C7.83125766 7.73879499 6.69275149 6.94472102 5.30989611 6.94472102 3.33496383 6.94472102 1.95345104 8.37029206 1.95345104 10.4260165 1.95345104 12.4615869 3.39672242 13.9879287 5.30989611 13.9879287 6.7531675 13.9879287 7.89167367 13.0917403 8.29981739 11.7696273H10.2720645C9.76457002 14.069889 7.79098032 15.7386536 5.30989611 15.7386536 2.27835492 15.7386536.0 13.4598897.0 10.4260165" id="Fill-23"/><path id="Fill-25" d="M24.6973942 15.3254932V2.94411993H22.0458026V1.331787H26.6105679V15.3254932z"/><path id="Fill-27" d="M76.1362576 15.3254932V2.94411993H73.4860086V1.331787H78.0494313V15.3254932z"/><path d="M41.138739 12.4349834H42.910942C43.0707088 13.4211937 44.1595396 14.0459727 45.749152 14.0459727 47.4408003 14.0459727 48.2262084 13.582427 48.2262084 12.7372958 48.2262084 11.9109752 47.6220483 11.6489711 45.7290133 11.4071211 43.3137154 11.0645004 41.5817898 10.5808005 41.5817898 8.2227636 41.5817898 6.34977017 43.0505701 5.30175377 45.5880426 5.30175377 48.1456538 5.30175377 49.6547115 6.47069514 49.7554048 8.48611131H48.0046831C47.9241284 7.47840322 47.1387202 6.99335973 45.5880426 6.99335973 44.1380583 6.99335973 43.4546861 7.37628881 43.4546861 8.06287391 43.4546861 9.09073616 44.0387076 9.25196945 45.9102613 9.57309243 47.6623257 9.81494237 50.0977622 10.0971006 50.0977622 12.6566792 50.0977622 14.5901351 48.5282885 15.7389223 45.749152 15.7389223 42.8908033 15.7389223 41.199155 14.5310162 41.138739 12.4349834" id="Fill-29"/><path d="M51.7010689 12.4349834H53.4732719C53.6330387 13.4211937 54.7218695 14.0459727 56.3128244 14.0459727 58.0031302 14.0459727 58.7885383 13.582427 58.7885383 12.7372958 58.7885383 11.9109752 58.1843782 11.6489711 56.2913432 11.4071211 53.8760453 11.0645004 52.1441196 10.5808005 52.1441196 8.2227636 52.1441196 6.34977017 53.6142426 5.30175377 56.1503725 5.30175377 58.7079836 5.30175377 60.2183839 6.47069514 60.3177347 8.48611131H58.567013C58.4864583 7.47840322 57.7010501 6.99335973 56.1503725 6.99335973 54.7017308 6.99335973 54.017016 7.37628881 54.017016 8.06287391 54.017016 9.09073616 54.6010374 9.25196945 56.4725912 9.57309243 58.2246556 9.81494237 60.6614347 10.0971006 60.6614347 12.6566792 60.6614347 14.5901351 59.0906184 15.7389223 56.3128244 15.7389223 53.4531332 15.7389223 51.7614849 14.5310162 51.7010689 12.4349834" id="Fill-31"/><path d="M70.5863085 10.4798953C70.5863085 8.52628527 69.1766016 7.03487731 67.3050478 7.03487731 65.5328448 7.03487731 64.3043859 8.44432501 64.3043859 10.4798953 64.3043859 12.5772718 65.5328448 14.0068736 67.3050478 14.0068736 69.1766016 14.0068736 70.5863085 12.4953115 70.5863085 10.4798953m-8.215235.0C62.3710735 7.53873135 64.3648019 5.3016194 67.0419025 5.3016194 68.5724415 5.3016194 69.7203457 5.86593593 70.6064472 7.05503147V5.58243406H72.4189275V13.9464111h1.0673496V15.3249558H71.0696366L70.6064472 13.805332C69.7807617 15.1140089 68.6543387 15.7387879 67.0419025 15.7387879 64.3648019 15.7387879 62.3710735 13.4828654 62.3710735 10.4798953" id="Fill-33"/><path d="M17.0444309 7.04992575C15.1621365 7.04992575 13.6302549 8.58298564 13.6302549 10.466728 13.6302549 12.3504703 15.1621365 13.8835302 17.0444309 13.8835302 18.9267253 13.8835302 20.4586068 12.3504703 20.4586068 10.466728 20.4586068 8.58298564 18.9267253 7.04992575 17.0444309 7.04992575m0 8.68913085C14.139092 15.7390566 11.7761547 13.3743017 11.7761547 10.466728 11.7761547 7.55915423 14.139092 5.19305565 17.0444309 5.19305565 19.9497697 5.19305565 22.3127071 7.55915423 22.3127071 10.466728 22.3127071 13.3743017 19.9497697 15.7390566 17.0444309 15.7390566" id="Fill-35"/><path d="M34.0993339 7.04992575C32.2170395 7.04992575 30.6851579 8.58298564 30.6851579 10.466728 30.6851579 12.3504703 32.2170395 13.8835302 34.0993339 13.8835302 35.9816283 13.8835302 37.5135098 12.3504703 37.5135098 10.466728 37.5135098 8.58298564 35.9816283 7.04992575 34.0993339 7.04992575m0 8.68913085C31.193995 15.7390566 28.8310577 13.3743017 28.8310577 10.466728 28.8310577 7.55915423 31.193995 5.19305565 34.0993339 5.19305565 37.0046727 5.19305565 39.3676101 7.55915423 39.3676101 10.466728 39.3676101 13.3743017 37.0046727 15.7390566 34.0993339 15.7390566" id="Fill-37"/><path d="M101.32141 10.4143271C101.219374 10.3982038 101.118681 10.449261 101.071691 10.5419702 98.3543129 15.9674705 89.9068119 14.0205785 89.9282523 7.85877944 89.9081545 1.69832402 98.3543129-.249911605 101.073033 5.17827594 101.118681 5.26964147 101.219374 5.32069868 101.32141 5.30457535L102.484083 5.12318789C102.811672 5.06944346 103.125835 5.26964147 103.223843 5.58673361 103.449397 6.3203451 103.563516 7.08217241 103.563516 7.86012305 103.563516 8.63673008 103.449397 9.39721378 103.223843 10.1308253 103.125835 10.4479174 102.811672 10.6481154 102.484083 10.5970582L101.32141 10.4143271zM104.812113 4.64351885 103.60245 4.83431158C103.312454 4.87865073 103.02917 4.72682271 102.902967 4.46078778 102.31089 3.2286967 101.411363 2.17396224 100.276885 1.38794993 98.9625008.479669047 97.4225638.0 95.8222107.0 91.4923966.0 87.9694718 3.52563468 87.9694718 7.86012305 87.9694718 12.1919242 91.4923966 15.7175589 95.8222107 15.7175589 97.4225638 15.7175589 98.9625008 15.2378898 100.276885 14.3296089 101.411363 13.5435966 102.31089 12.4888622 102.902967 11.2581147 103.02917 10.9934234 103.311111 10.8389081 103.60245 10.8859345L104.812113 11.0753836C104.912807 11.091507 105.012157 11.0323881 105.044379 10.9356481 105.702242 8.97531999 105.708955 6.74761332 105.045722 4.78459798 105.0135 4.68517078 104.912807 4.62739552 104.812113 4.64351885v0z" id="Fill-39"/></g><text id="Extinction" font-family="Telegraf-Regular, Telegraf" font-size="7.3828725" font-weight="normal" letter-spacing="-.0416519334" fill="#000"><tspan x="14.0426949" y="78.273336">Extinction</tspan></text></g></g></g></svg>