<svg width="109" height="21" viewBox="0 0 109 21" fill="none" xmlns="http://www.w3.org/2000/svg">
<mask id="mask0_846_85" style="mask-type:luminance" maskUnits="userSpaceOnUse" x="0" y="1" width="21" height="19">
<path fill-rule="evenodd" clip-rule="evenodd" d="M0 1H21V20H0L0 1Z" fill="white"/>
</mask>
<g mask="url(#mask0_846_85)">
<path fill-rule="evenodd" clip-rule="evenodd" d="M16.189 12.968C16.0696 12.9533 15.956 13.024 15.9094 13.139C15.4055 14.4062 14.558 15.4936 13.4513 16.2952C12.2251 17.1764 10.7747 17.6302 9.26608 17.6037C5.4129 17.5389 2.3519 14.3797 2.36355 10.4748C2.37811 6.56704 5.52357 3.39307 9.38841 3.39307C10.6204 3.39307 11.8349 3.72314 12.8979 4.34496C13.8823 4.92553 14.7182 5.73892 15.324 6.70849C15.3822 6.79691 15.4842 6.84406 15.5861 6.82932L17.2462 6.6024C17.5404 6.5523 17.8287 6.71734 17.9423 6.99436C18.3908 8.10834 18.6151 9.28127 18.6151 10.4984C18.6151 11.2322 18.5335 11.9572 18.3646 12.6615C18.2889 12.9945 17.9714 13.2067 17.6423 13.1507L16.189 12.968ZM20.1962 6.19859C20.1554 6.09544 20.0535 6.03356 19.9428 6.04829L18.2827 6.26932C18.0177 6.31058 17.7497 6.18091 17.6216 5.9422C16.8644 4.55119 15.7751 3.36648 14.447 2.50299C12.9384 1.51868 11.188 1 9.38807 1C4.2068 1 -0.00752787 5.27027 -0.00170295 10.5131C0.00703443 15.803 4.24758 20.0468 9.47544 19.9996C11.4763 19.979 13.3781 19.3306 14.9829 18.1223C15.7664 17.53 16.4537 16.8256 17.0216 16.0182C17.4847 15.3669 17.8604 14.6625 18.1458 13.9199C18.2536 13.634 18.5448 13.466 18.8419 13.5161L20.3535 13.7018C20.4729 13.7165 20.5836 13.6399 20.6156 13.522C20.869 12.5377 21 11.5239 21 10.4983C21 9.01597 20.7321 7.56897 20.1962 6.19859Z" fill="white"/>
</g>
<path fill-rule="evenodd" clip-rule="evenodd" d="M43.4621 5.00743C43.4386 5.12684 43.5005 5.24624 43.6095 5.29866C44.8385 5.88985 45.8611 6.81304 46.5802 7.97795C47.3671 9.26226 47.7149 10.7417 47.5793 12.2444C47.2315 16.0828 43.8541 18.9077 39.9639 18.6165C36.0648 18.3252 33.1295 14.9616 33.4124 11.1057C33.5038 9.87675 33.9223 8.69145 34.6207 7.67216C35.2691 6.73441 36.1415 5.95683 37.1523 5.42098C37.2466 5.37147 37.2997 5.27536 37.2938 5.17052L37.1877 3.49597C37.1612 3.20183 37.3439 2.92516 37.6298 2.83197C38.7703 2.46502 39.9639 2.32232 41.1781 2.40969C41.909 2.46211 42.6252 2.59899 43.3148 2.81449C43.6419 2.91642 43.8305 3.24842 43.751 3.57168L43.4621 5.00743ZM37.0047 0.525545C36.8956 0.560492 36.8279 0.659509 36.8338 0.767263L36.9281 2.43891C36.9546 2.70975 36.8072 2.96603 36.5597 3.07669C35.1126 3.73195 33.8542 4.73086 32.8964 5.99479C31.8059 7.43054 31.1576 9.14004 31.0249 10.934C30.6477 16.1033 34.5939 20.6086 39.828 20.9755C45.1064 21.3483 49.6479 17.4225 49.9809 12.2037C50.1077 10.2088 49.6008 8.26345 48.5133 6.57724C47.9798 5.75307 47.3256 5.01918 46.5652 4.39304C45.9493 3.8863 45.2714 3.46111 44.5523 3.1262C44.2753 2.99806 44.1279 2.69227 44.1987 2.39813L44.4963 0.907052C44.5199 0.790561 44.4521 0.674071 44.3372 0.636211C43.3764 0.307125 42.3744 0.103266 41.3517 0.0304591C39.8693 -0.0743826 38.4075 0.0916167 37.0047 0.525545Z" fill="white"/>
<path fill-rule="evenodd" clip-rule="evenodd" d="M63.8106 8.03208C63.93 8.04682 64.0465 7.97609 64.0931 7.86116C64.594 6.59393 65.4415 5.50647 66.551 4.70487C67.7771 3.82076 69.2244 3.36691 70.7359 3.39343C74.5887 3.45827 77.6495 6.62045 77.6349 10.5253C77.6233 14.4301 74.4781 17.607 70.6136 17.607C69.3788 17.607 68.1644 17.277 67.1014 16.6551C66.12 16.0746 65.2842 15.2612 64.6756 14.2916C64.6173 14.2032 64.5183 14.156 64.4135 14.1678L62.7535 14.3977C62.4594 14.4478 62.174 14.2828 62.0575 14.0028C61.6119 12.8918 61.3848 11.7188 61.3848 10.4988C61.3848 9.7679 61.4692 9.04292 61.6352 8.33858C61.7109 8.00556 62.0284 7.79337 62.3604 7.84937L63.8106 8.03208ZM59.8038 14.8014C59.8445 14.9016 59.9494 14.9664 60.0571 14.9517L61.7171 14.7307C61.985 14.6894 62.25 14.8191 62.3782 15.0578C63.1353 16.4488 64.2245 17.6335 65.5525 18.497C67.0639 19.4784 68.8142 20 70.6139 20C75.7918 20 80.0087 15.7297 80 10.4869C79.9941 5.19404 75.754 0.953237 70.5236 1.00039C68.5229 1.02102 66.6213 1.66937 65.0166 2.87766C64.2332 3.47001 63.546 4.17436 62.9781 4.98185C62.518 5.63315 62.1423 6.33749 61.8569 7.08015C61.7462 7.36306 61.455 7.53399 61.158 7.48389L59.6465 7.29823C59.53 7.28349 59.4194 7.35717 59.3873 7.478C59.131 8.46231 59 9.4761 59 10.4987C59 11.984 59.2679 13.431 59.8038 14.8014Z" fill="white"/>
<path fill-rule="evenodd" clip-rule="evenodd" d="M97.0819 16.2063C97.0967 16.0869 97.0259 15.9733 96.911 15.9267C95.6405 15.4346 94.5439 14.5959 93.7363 13.4893C92.846 12.272 92.3773 10.8247 92.3921 9.31914C92.4275 5.46642 95.5668 2.37958 99.4696 2.36211C103.378 2.34463 106.58 5.46642 106.606 9.3337C106.618 10.5655 106.297 11.7799 105.681 12.8515C105.115 13.8387 104.304 14.6803 103.34 15.2948C103.252 15.3501 103.204 15.452 103.219 15.554L103.461 17.2168C103.514 17.508 103.352 17.7963 103.072 17.9128C101.963 18.3671 100.79 18.6029 99.5728 18.6117C98.8388 18.6175 98.1137 18.5418 97.4062 18.3787C97.0761 18.3059 96.8609 17.9885 96.911 17.6594L97.0819 16.2063ZM103.885 20.1609C103.989 20.1202 104.05 20.0182 104.033 19.9076L103.803 18.2477C103.759 17.9827 103.885 17.7177 104.121 17.5866C105.507 16.8178 106.683 15.72 107.538 14.3862C108.51 12.869 109.014 11.113 109 9.31332C108.958 4.13267 104.658 -0.0462079 99.4136 0.00038588C94.1224 0.0469797 89.9101 4.32196 90.0015 9.5492C90.0339 11.5469 90.6971 13.4456 91.9204 15.0414C92.5159 15.819 93.2292 16.5004 94.0399 17.0624C94.6943 17.5196 95.4047 17.8895 96.1505 18.169C96.4334 18.2739 96.6074 18.5651 96.5572 18.8621L96.3833 20.3764C96.3715 20.4929 96.4452 20.6036 96.5631 20.6356C97.5477 20.8831 98.5647 21.0054 99.5905 20.9996C101.073 20.988 102.521 20.7055 103.885 20.1609Z" fill="white"/>
</svg>
