<svg width="60" height="60" viewBox="0 0 60 60" fill="none" xmlns="http://www.w3.org/2000/svg">
<g clip-path="url(#clip0_845_36)">
<path d="M45.237 13.8108L32.5024 26.5454L33.4556 27.4986L46.1902 14.764L45.237 13.8108Z" fill="white"/>
<path d="M26.54 32.5081L13.8054 45.2427L14.7586 46.1959L27.4932 33.4613L26.54 32.5081Z" fill="white"/>
<path d="M33.459 32.5043L32.5059 33.4575L45.2405 46.1921L46.1936 45.2389L33.459 32.5043Z" fill="white"/>
<path d="M14.7618 13.8076L13.8086 14.7607L26.5432 27.4953L27.4964 26.5421L14.7618 13.8076Z" fill="white"/>
<path d="M30 60C13.4599 60 0 46.5468 0 30C0 13.4532 13.4599 0 30 0C46.5401 0 60 13.4599 60 30C60 46.5401 46.5401 60 30 60ZM30 1.34801C14.2013 1.34801 1.34801 14.2013 1.34801 30C1.34801 45.7987 14.2013 58.652 30 58.652C45.7987 58.652 58.652 45.7987 58.652 30C58.652 14.2013 45.7987 1.34801 30 1.34801Z" fill="white"/>
</g>
<defs>
<clipPath id="clip0_845_36">
<rect width="60" height="60" fill="white"/>
</clipPath>
</defs>
</svg>
