<svg width="15" height="40" viewBox="0 0 15 40" fill="none" xmlns="http://www.w3.org/2000/svg">
<path d="M13.56 23.795C12.765 23.795 12.215 23.2 12.215 22.465V12.76H11.695V38.09C11.695 38.12 11.695 38.155 11.695 38.185C11.695 39.185 10.82 40 9.735 40C8.65 40 7.905 39.22 7.87 38.25C7.87 38.24 7.87 38.24 7.87 38.24V23.18H7.125V38.24C7.095 39.215 6.32 40 5.26 40C4.2 40 3.3 39.19 3.3 38.185V12.76H2.78V22.465C2.78 23.2 2.23 23.795 1.435 23.795C0.64 23.795 0 23.2 0 22.465V11.045C0 7.97 3.455 7.555 3.455 7.555H11.545C11.545 7.555 15 7.97 15 11.045V22.465C15 23.2 14.355 23.795 13.565 23.795H13.56ZM7.485 6.66C5.68 6.66 4.215 5.17 4.215 3.33C4.215 1.49 5.68 0 7.485 0C9.29 0 10.755 1.49 10.755 3.33C10.755 5.17 9.29 6.66 7.485 6.66Z" fill="#FF7B31"/>
</svg>
