<svg width="197" height="34" viewBox="0 0 197 34" fill="none" xmlns="http://www.w3.org/2000/svg">
<path d="M66.6562 24H65.0645V22.3594C65.0645 22.1348 65.0742 21.9785 65.1035 21.8906C65.1328 21.8027 65.2109 21.6855 65.3184 21.5391L72.916 11.6367V9.99609H74.5176V11.6367C74.5176 11.959 74.4395 12.2324 74.2832 12.457L66.6562 22.3594V24ZM75.2578 24H73.666V22.3594C73.666 22.1348 73.6758 21.9785 73.7051 21.8906C73.7344 21.8027 73.8125 21.6855 73.9199 21.5391L81.5176 11.6367V9.99609H83.1191V11.6367C83.1191 11.959 83.041 12.2324 82.8848 12.457L75.2578 22.3594V24ZM83.8594 24H82.2676V22.3594C82.2676 22.1348 82.2773 21.9785 82.3066 21.8906C82.3359 21.8027 82.4141 21.6855 82.5215 21.5391L90.1191 11.6367V9.99609H91.7207V11.6367C91.7207 11.959 91.6426 12.2324 91.4863 12.457L83.8594 22.3594V24ZM92.4609 24H90.8691V22.3594C90.8691 22.1348 90.8789 21.9785 90.9082 21.8906C90.9375 21.8027 91.0156 21.6855 91.123 21.5391L98.7207 11.6367V9.99609H100.322V11.6367C100.322 11.959 100.244 12.2324 100.088 12.457L92.4609 22.3594V24ZM101.062 24H99.4707V22.3594C99.4707 22.1348 99.4805 21.9785 99.5098 21.8906C99.5391 21.8027 99.6172 21.6855 99.7246 21.5391L107.322 11.6367V9.99609H108.924V11.6367C108.924 11.959 108.846 12.2324 108.689 12.457L101.062 22.3594V24ZM109.664 24H108.072V22.3594C108.072 22.1348 108.082 21.9785 108.111 21.8906C108.141 21.8027 108.219 21.6855 108.326 21.5391L115.924 11.6367V9.99609H117.525V11.6367C117.525 11.959 117.447 12.2324 117.291 12.457L109.664 22.3594V24ZM118.266 24H116.674V22.3594C116.674 22.1348 116.684 21.9785 116.713 21.8906C116.742 21.8027 116.82 21.6855 116.928 21.5391L124.525 11.6367V9.99609H126.127V11.6367C126.127 11.959 126.049 12.2324 125.893 12.457L118.266 22.3594V24ZM126.867 24H125.275V22.3594C125.275 22.1348 125.285 21.9785 125.314 21.8906C125.344 21.8027 125.422 21.6855 125.529 21.5391L133.127 11.6367V9.99609H134.729V11.6367C134.729 11.959 134.65 12.2324 134.494 12.457L126.867 22.3594V24ZM135.469 24H133.877V22.3594C133.877 22.1348 133.887 21.9785 133.916 21.8906C133.945 21.8027 134.023 21.6855 134.131 21.5391L141.729 11.6367V9.99609H143.33V11.6367C143.33 11.959 143.252 12.2324 143.096 12.457L135.469 22.3594V24ZM144.07 24H142.479V22.3594C142.479 22.1348 142.488 21.9785 142.518 21.8906C142.547 21.8027 142.625 21.6855 142.732 21.5391L150.33 11.6367V9.99609H151.932V11.6367C151.932 11.959 151.854 12.2324 151.697 12.457L144.07 22.3594V24ZM152.672 24H151.08V22.3594C151.08 22.1348 151.09 21.9785 151.119 21.8906C151.148 21.8027 151.227 21.6855 151.334 21.5391L158.932 11.6367V9.99609H160.533V11.6367C160.533 11.959 160.455 12.2324 160.299 12.457L152.672 22.3594V24ZM161.273 24H159.682V22.3594C159.682 22.1348 159.691 21.9785 159.721 21.8906C159.75 21.8027 159.828 21.6855 159.936 21.5391L167.533 11.6367V9.99609H169.135V11.6367C169.135 11.959 169.057 12.2324 168.9 12.457L161.273 22.3594V24ZM169.875 24H168.283V22.3594C168.283 22.1348 168.293 21.9785 168.322 21.8906C168.352 21.8027 168.43 21.6855 168.537 21.5391L176.135 11.6367V9.99609H177.736V11.6367C177.736 11.959 177.658 12.2324 177.502 12.457L169.875 22.3594V24ZM178.477 24H176.885V22.3594C176.885 22.1348 176.895 21.9785 176.924 21.8906C176.953 21.8027 177.031 21.6855 177.139 21.5391L184.736 11.6367V9.99609H186.338V11.6367C186.338 11.959 186.26 12.2324 186.104 12.457L178.477 22.3594V24ZM187.078 24H185.486V22.3594C185.486 22.1348 185.496 21.9785 185.525 21.8906C185.555 21.8027 185.633 21.6855 185.74 21.5391L193.338 11.6367V9.99609H194.939V11.6367C194.939 11.959 194.861 12.2324 194.705 12.457L187.078 22.3594V24Z" fill="white"/>
<path d="M5.39844 18.7988H1.46289V17.1973H5.39844V13.2617H7V17.1973H10.916V18.7988H7V22.7246H5.39844V18.7988Z" fill="white"/>
</svg>
