<svg width="147" height="25" viewBox="0 0 147 25" fill="none" xmlns="http://www.w3.org/2000/svg">
<path d="M146.364 3.51715C146.364 5.50136 144.75 7.08921 142.806 7.08921C140.862 7.08921 139.26 5.50136 139.26 3.51715C139.26 1.53293 140.834 0 142.806 0C144.778 0 146.364 1.58785 146.364 3.51715ZM145.105 3.51715C145.105 2.21583 144.148 1.1485 142.82 1.1485C141.493 1.1485 140.521 2.21583 140.521 3.51715C140.521 4.81847 141.452 5.91205 142.82 5.91205C144.189 5.91205 145.105 4.8304 145.105 3.51715ZM143.503 3.64131C144.05 3.69623 144.282 3.9159 144.282 4.36718V4.51761C144.282 4.77787 144.296 4.90204 144.363 5.15991H143.365C143.31 5.03575 143.284 4.84473 143.284 4.50328V4.37912C143.284 4.13318 143.159 4.03767 142.928 4.03767H142.434V5.15991H141.421V1.8887H143.241C143.926 1.8887 144.363 2.24448 144.363 2.8056C144.363 3.28553 144.033 3.57206 143.501 3.64131H143.503ZM143.327 2.97035C143.327 2.77933 143.202 2.69576 142.985 2.69576H142.438V3.28315H142.973C143.207 3.28315 143.329 3.18764 143.329 2.96796L143.327 2.97035Z" fill="white"/>
<path d="M0 15.6659C0 10.6278 3.86337 6.79785 9.00657 6.79785C13.1469 6.79785 16.4587 9.48884 17.3899 13.2495H14.0089C13.2854 11.1101 11.3513 9.76582 9.00657 9.76582C5.65895 9.76582 3.31419 12.1822 3.31419 15.6659C3.31419 19.1496 5.76401 21.7045 9.00657 21.7045C11.4564 21.7045 13.3881 20.1859 14.0781 17.9438H17.4258C16.5638 21.843 13.2162 24.6725 9.00657 24.6725C3.86337 24.6701 0 20.8067 0 15.6659Z" fill="white"/>
<path d="M42.3227 23.961V2.76023H37.7812V0H45.6011V23.961H42.3227Z" fill="white"/>
<path d="M130.471 23.961V2.76023H125.93V0H133.75V23.961H130.471Z" fill="white"/>
<path d="M70.498 19.0141H73.5353C73.8122 20.7046 75.6747 21.7743 78.3991 21.7743C81.2978 21.7743 82.6421 20.9816 82.6421 19.5322C82.6421 18.0829 81.6082 17.6698 78.3633 17.2543C74.2229 16.6669 71.255 15.8384 71.255 11.8031C71.255 8.59398 73.774 6.80078 78.1221 6.80078C82.4702 6.80078 85.0919 8.80171 85.2638 12.252H82.2625C82.124 10.5257 80.7797 9.6995 78.1221 9.6995C75.6389 9.6995 74.4641 10.3561 74.4641 11.5285C74.4641 13.2883 75.4646 13.5629 78.6737 14.1168C81.6751 14.5299 85.8512 15.0146 85.8512 19.3961C85.8512 22.7079 83.1602 24.6754 78.3991 24.6754C73.6379 24.6754 70.6007 22.6053 70.498 19.0165V19.0141Z" fill="white"/>
<path d="M88.5972 19.0141H91.6344C91.9114 20.7046 93.7738 21.7743 96.4982 21.7743C99.3969 21.7743 100.741 20.9816 100.741 19.5322C100.741 18.0829 99.7073 17.6698 96.4624 17.2543C92.322 16.6669 89.3541 15.8384 89.3541 11.8031C89.3541 8.59398 91.8732 6.80078 96.2212 6.80078C100.569 6.80078 103.191 8.80171 103.363 12.252H100.362C100.223 10.5257 98.8788 9.6995 96.2212 9.6995C93.738 9.6995 92.5632 10.3561 92.5632 11.5285C92.5632 13.2883 93.5637 13.5629 96.7728 14.1168C99.7742 14.5299 103.95 15.0146 103.95 19.3961C103.95 22.7079 101.259 24.6754 96.4982 24.6754C91.7371 24.6754 88.6998 22.6053 88.5972 19.0165V19.0141Z" fill="white"/>
<path d="M106.885 15.6659C106.885 10.6302 110.299 6.79785 114.888 6.79785C117.51 6.79785 119.478 7.76489 120.996 9.79925V7.28018H124.103V21.5995H125.932V23.9609H121.791L120.999 21.3583C119.585 23.6004 117.651 24.6701 114.891 24.6701C110.302 24.6701 106.887 20.8067 106.887 15.6635L106.885 15.6659ZM120.961 15.6659C120.961 12.3183 118.544 9.76582 115.335 9.76582C112.3 9.76582 110.194 12.1822 110.194 15.6659C110.194 19.1496 112.3 21.7045 115.335 21.7045C118.544 21.7045 120.961 19.1162 120.961 15.6659Z" fill="white"/>
<path d="M29.2092 24.6704C24.2308 24.6704 20.1812 20.6208 20.1812 15.6423C20.1812 10.6639 24.2308 6.61426 29.2092 6.61426C34.1877 6.61426 38.2373 10.6639 38.2373 15.6423C38.2373 20.6208 34.1877 24.6704 29.2092 24.6704ZM29.2092 9.79234C25.9834 9.79234 23.3592 12.4165 23.3592 15.6423C23.3592 18.8682 25.9834 21.4923 29.2092 21.4923C32.4351 21.4923 35.0592 18.8682 35.0592 15.6423C35.0592 12.4165 32.4351 9.79234 29.2092 9.79234Z" fill="white"/>
<path d="M66.3122 11.2053C65.6532 10.0568 64.7458 9.05875 63.6666 8.29228C63.3633 8.07739 63.2081 7.70729 63.2559 7.33719L63.5806 4.77514C63.6164 4.48861 63.4612 4.20924 63.1962 4.09941C61.6824 3.47382 60.0802 3.15625 58.4303 3.15625C56.7803 3.15625 55.1734 3.47382 53.6595 4.10418C53.3945 4.21402 53.2393 4.49577 53.2751 4.77992L53.5998 7.33958C53.6476 7.70968 53.4924 8.07978 53.1892 8.29467C52.1099 9.06114 51.2049 10.0568 50.5459 11.2053C49.7651 12.5687 49.3521 14.1232 49.3521 15.7015C49.3521 20.7062 53.4232 24.7797 58.4303 24.7797C63.4373 24.7797 67.5085 20.7085 67.5085 15.7015C67.5085 14.1232 67.0954 12.5687 66.3146 11.2053H66.3122ZM53.8171 8.68626C53.7598 8.25408 53.9819 7.82906 54.3735 7.63088C55.6247 6.99813 57.0143 6.66623 58.4303 6.66623C59.8462 6.66623 61.2335 6.99813 62.487 7.63088C62.8786 7.82906 63.0983 8.25408 63.0434 8.68626L62.6518 11.7139C62.6279 11.893 62.6852 12.0721 62.7974 12.213C64.0391 13.7722 64.3996 15.9092 63.583 17.8719C62.838 19.6675 61.1594 20.9617 59.2349 21.2339C55.1901 21.8021 51.8138 18.008 53.1271 13.882C53.3205 13.2731 53.65 12.7168 54.0535 12.2201C54.1681 12.0792 54.2254 11.8978 54.2039 11.7187L53.8195 8.68626H53.8171Z" fill="white"/>
</svg>
