<svg width="88" height="55" viewBox="0 0 88 55" fill="none" xmlns="http://www.w3.org/2000/svg">
<path fill-rule="evenodd" clip-rule="evenodd" d="M0.000265668 31.1777C-0.00423433 32.2462 0.0477657 33.2242 0.207266 34.2842C0.362766 35.3187 0.508266 36.2267 0.666266 37.2652C0.745266 37.7827 0.871266 38.9392 0.948266 39.4547C0.983766 39.6912 1.16077 41.3077 1.05177 42.0152C0.975266 42.5142 0.709266 42.9962 0.688266 43.4152C0.668266 43.8212 1.03477 45.0367 1.23677 45.0462C1.36777 45.0522 2.04127 44.0692 2.13927 43.3612C2.22027 42.7747 1.92677 42.3977 2.00377 41.7242C2.06527 41.1902 1.97627 38.2357 1.85727 37.6282C1.71377 36.8947 1.63177 35.6777 1.51627 35.0487C1.30027 33.8722 1.28127 32.9032 1.27827 32.0202C1.27377 30.7347 1.31377 29.7117 1.50677 28.4572C1.69977 27.1982 1.97077 25.9687 2.17727 24.7112C2.31727 23.8602 2.40027 23.4222 2.63077 22.5922C2.66977 22.4537 2.85527 21.4057 3.08627 21.8832C3.31727 22.3607 3.09327 24.9897 3.37127 26.5127C3.54977 27.4892 3.56327 30.8527 3.48527 31.5472C3.40227 32.2847 3.33527 33.0267 3.28427 33.7672C3.23177 34.5317 3.19677 35.3012 3.27377 36.0647C3.34027 36.7257 3.49027 37.3762 3.57677 38.0357C3.64827 38.5792 3.67677 39.1382 3.57677 39.6792C3.48827 40.1582 3.47277 40.6557 3.41877 41.1412C3.28627 42.3497 2.23927 45.2822 2.13627 45.5872C1.88077 46.3442 1.54977 46.9837 1.31727 47.8727C1.08427 48.7622 0.928266 49.6457 0.977266 50.1757C1.01777 50.6152 1.00727 51.0572 0.946766 51.4932C0.851266 52.1807 0.393766 52.8117 0.377266 53.5052C0.374766 53.6152 0.377266 53.7287 0.418766 53.8277C0.473266 53.9617 0.588266 54.0597 0.709766 54.1362C1.07727 54.3622 1.51977 54.4217 1.94827 54.4772C2.32377 54.5267 2.69927 54.5752 3.07427 54.6252C3.43427 54.6717 3.79477 54.7172 4.15727 54.7342C4.90177 54.7657 5.64577 54.6662 6.39077 54.6617C6.95227 54.6602 7.51327 54.7117 8.07427 54.6902C8.63527 54.6677 9.20627 54.5682 9.69077 54.2842C9.92327 54.1477 10.1483 53.9402 10.1743 53.6727C10.1928 53.4797 10.1048 53.2922 10.0018 53.1302C9.51377 52.3542 8.66827 51.8672 8.13677 51.1192C7.39627 50.0807 7.38927 48.9467 7.66527 47.7002C7.91577 46.5727 8.15077 45.3392 8.30227 44.2752C8.40427 43.5587 9.20577 41.3052 9.46977 40.9012C9.76227 40.4522 10.0743 40.0197 10.4043 39.5972C10.8318 39.0517 11.3453 38.4972 12.0278 38.3747C12.4078 38.9777 12.7653 39.5952 13.0108 40.2607C13.1448 40.6242 13.8173 42.2687 14.0278 42.7227C14.7213 44.2222 14.9858 45.8862 15.1038 47.5342C15.2218 49.1827 15.2003 50.3397 15.3573 51.9852C15.3913 52.3387 15.2218 52.7152 15.2263 53.0722C15.2313 53.4272 15.3453 53.7967 15.6098 54.0357C15.7358 54.1507 15.8903 54.2322 16.0478 54.2967C16.3958 54.4417 16.7678 54.5257 17.1443 54.5542C17.5433 54.5827 17.9438 54.5472 18.3433 54.5327C20.4738 54.4557 22.6648 54.9987 24.7078 54.3907C24.8223 54.3567 24.9383 54.3172 25.0343 54.2457C25.1863 54.1322 25.2698 53.9517 25.3468 53.7797C25.4348 53.5837 25.5248 53.3787 25.5183 53.1642C25.5098 52.8802 25.3358 52.6297 25.1533 52.4112C24.5843 51.7352 23.8713 51.6977 23.2308 51.0867C22.5898 50.4787 21.9343 49.6862 21.6068 48.7312C21.2788 47.7772 20.6308 44.7832 20.1008 43.0112C20.0078 42.7022 19.9008 40.9297 19.9973 40.3702C20.3348 38.4022 21.0643 36.2722 22.7093 35.1392C22.8123 35.0702 22.9193 35.0002 23.0388 34.9617C23.2008 34.9107 23.3748 34.9192 23.5448 34.9282C24.2108 34.9607 24.8773 34.9932 25.5438 35.0262C26.3148 35.0642 27.0868 35.1027 27.8578 35.0747C28.5608 35.0502 29.2608 34.9702 29.9598 34.8927C30.8258 34.7927 31.6928 34.6962 32.5528 34.5522C34.2523 34.2727 35.9228 33.8157 37.5293 33.1942C38.8543 32.6812 40.2578 32.3802 41.6473 32.0832C42.5153 31.8972 43.4108 31.8982 44.2983 31.9012C44.3513 31.9012 44.4088 31.9022 44.4513 31.9352C44.4968 31.9677 44.5143 32.0262 44.5283 32.0817C44.8753 33.4187 45.1508 34.8757 46.1423 35.8372C46.3808 36.0692 46.6598 36.2707 46.8183 36.5622C46.9238 36.7552 46.9673 36.9767 47.0053 37.1957C47.0773 37.6117 47.1318 38.0322 47.1863 38.4532C47.3403 39.6472 47.4948 40.8392 47.6493 42.0327C47.8008 43.2047 47.6128 44.4507 47.5793 45.6347C47.5623 46.2502 47.4428 48.0757 47.4698 48.3107C47.5098 48.6527 47.4958 49.9757 47.4468 50.2542C47.3978 50.5317 47.3493 50.6042 47.2958 50.6607C46.4968 51.5022 46.0958 51.8107 46.0363 52.4127C45.9733 53.0522 45.8993 53.6672 46.1723 54.0582C46.4918 54.5157 46.9533 54.5072 47.5118 54.5327C49.6723 54.6312 51.8328 54.7302 53.9938 54.8267C54.3168 54.8412 54.7468 54.7722 54.7873 54.4527C54.8163 54.2227 54.7828 54.0887 54.7408 53.8622C55.3703 53.9682 55.7558 54.2202 56.3333 54.4932C57.0043 54.8082 58.5498 54.9747 58.7898 54.3352C59.1173 53.4657 58.8673 53.5507 58.6723 53.2807C58.0228 52.3807 58.1508 51.7192 58.4508 51.1877C59.2278 49.8107 60.2583 48.4072 60.7453 46.9862C61.1203 45.8917 61.3048 44.6412 61.2778 43.4877C61.2538 42.4772 60.8473 41.5212 60.4048 40.6132C59.9628 39.7067 57.4418 32.9017 57.3188 32.6107C57.0988 32.0877 56.8868 31.5542 56.8073 30.9947C56.7733 30.7547 56.7643 30.5117 56.7583 30.2682C56.7123 28.2562 56.9133 26.2387 57.3558 24.2762C58.3933 24.1382 59.4348 24.4967 60.3683 24.9697C61.3023 25.4432 62.1778 26.0342 63.1513 26.4177C63.4323 26.5287 63.7673 26.6167 64.0213 26.4547C64.1483 26.3707 64.2323 26.2387 64.3053 26.1077C64.5193 25.7172 64.6703 25.2922 64.7493 24.8547C64.9358 23.8212 64.8418 22.7942 64.8633 21.7442C65.6613 21.8367 66.4733 21.9347 67.2093 22.2572C67.7743 22.5072 68.3298 22.9007 68.8573 23.3827C69.2703 23.7607 69.1668 24.4017 69.5373 24.8562C69.8158 25.1982 70.2683 25.4927 70.6778 25.8122C71.1053 26.1482 71.4118 26.5952 71.6553 27.0227C72.5408 28.5802 73.2113 31.0117 73.7138 32.6752C73.8448 33.1087 73.9658 33.5452 74.0738 33.9842C74.4508 35.5217 74.7458 37.0327 75.3133 38.5172C76.2668 41.0122 77.4558 43.3857 79.1958 45.4302C80.0263 46.4062 80.9513 47.2972 81.8378 48.2222C82.2458 48.6502 82.6513 49.0907 82.9238 49.6147C83.2338 50.2117 83.5518 51.5762 82.5773 51.7647C82.3828 51.8017 82.1378 51.7757 82.0313 51.9437C81.9663 52.0457 81.9883 52.1852 82.0538 52.2877C82.1193 52.3897 82.2203 52.4637 82.3188 52.5352C82.5538 52.7037 82.7888 52.8712 83.0238 53.0407C83.0198 53.2867 83.0158 53.5337 83.0118 53.7812C83.0108 53.8632 83.0113 53.9542 83.0623 54.0202C83.1013 54.0682 83.1628 54.0947 83.2243 54.1107C83.6378 54.2157 84.0348 53.8987 84.3108 53.5717C85.0773 52.6652 85.6118 51.5187 85.4593 50.3137C85.3663 49.5762 85.0853 48.8762 84.7798 48.1992C84.2378 46.9977 83.6088 45.8337 82.8998 44.7222C82.3543 43.8652 81.7538 43.0247 81.4478 42.0567C81.0743 40.8787 81.1683 39.6267 81.0383 38.4132C80.9103 37.2232 80.7123 36.0532 80.6858 34.8497C80.6668 33.9577 80.5673 32.9967 80.4663 32.0762C81.8518 32.5777 83.3128 32.8717 84.7858 32.9357C85.3758 32.9622 85.9668 32.9527 86.5578 32.9417C86.7808 32.9372 87.0433 32.9132 87.1583 32.7212C87.1828 32.6812 87.1983 32.6332 87.1898 32.5857C87.1718 32.4867 87.0583 32.4382 86.9608 32.4052C86.4443 32.2437 83.7948 31.4707 83.0078 31.2052C82.1383 30.9117 81.2923 30.5512 80.4803 30.1252C80.4233 30.0967 80.3663 30.0652 80.3103 30.0337C80.2703 28.7497 80.2288 27.4567 79.9123 26.2122C79.6858 25.3222 79.7048 24.3477 79.5238 23.4482C79.4748 23.2022 79.4213 22.9562 79.3683 22.7122C79.1993 21.9347 79.0308 21.1592 78.8618 20.3817C78.6188 19.2617 77.7283 16.3772 77.5938 16.0602C76.6133 13.7487 76.1893 11.1697 74.7538 9.10774C74.3768 8.56774 74.0733 7.86724 73.8113 7.26374C73.5248 6.60274 73.2208 5.94874 72.8988 5.30424C72.6898 4.88474 72.4698 4.46574 72.1608 4.11324C71.8618 3.77324 71.4888 3.50824 71.1133 3.25524C70.1753 2.62424 69.1773 2.04874 68.0768 1.78974C67.6693 1.69474 67.2528 1.64374 66.8368 1.59224C66.0473 1.49774 65.2578 1.40024 64.4683 1.30374C63.5513 1.19174 62.7888 0.493741 61.8823 0.315241C60.9763 0.134241 60.0513 0.0732409 59.1298 0.0137409C58.9753 0.00424088 58.8198 -0.00775912 58.6658 0.00674088C58.4933 0.0197409 58.3248 0.0607409 58.1573 0.103241C57.0578 0.377241 55.9443 0.654741 54.9508 1.20024C53.8793 1.07074 53.4038 0.882241 51.7258 0.799741C50.0478 0.715741 47.9203 1.16924 47.4363 1.27874C46.5028 1.48724 39.8283 2.55774 38.5653 2.91674C37.8123 3.13124 34.4333 3.58574 33.5203 3.63274C31.1333 3.76074 28.7643 3.26524 26.4053 2.87824C24.0468 2.49224 21.6073 2.22074 19.2853 2.78724C18.4168 2.99924 17.5133 3.18924 16.6628 3.46674C14.6593 4.11574 12.8168 5.17874 11.0308 6.29624C10.5778 6.57974 10.1258 6.86824 9.70977 7.20324C8.72877 7.99524 7.68177 8.96874 6.22727 11.0332C4.77277 13.0987 4.05277 14.0582 3.61477 14.7647C3.40777 15.0972 2.43627 17.0792 2.12327 17.7172C1.71977 18.5412 1.40027 19.4212 1.25227 20.3292C1.10427 21.2367 1.07777 22.1632 0.878766 23.0632C0.753266 23.6302 0.651766 24.2022 0.569266 24.7767C0.291266 26.7132 0.133266 28.1767 0.0352657 29.0992C0.0157657 29.2822 0.00226567 30.6972 0.000265668 31.1777ZM53.3628 46.0037C53.3893 45.7087 53.5648 44.6072 53.6043 44.3487C53.6443 44.0832 53.6378 43.8157 53.6313 43.5487C53.6208 43.1067 53.6098 42.6647 53.5993 42.2247C53.6008 42.2952 53.8543 42.4757 53.9068 42.5557C54.0088 42.7087 54.7068 43.5387 54.9463 43.8132C55.1058 43.9947 55.2513 44.1897 55.3958 44.3842C55.7033 44.7967 55.9408 45.2582 55.9478 45.7712C55.9543 46.2727 55.7438 46.7117 55.4303 47.1027C55.1148 47.4947 54.7643 47.8627 54.3528 48.1542C53.9413 48.4442 53.4998 48.8987 52.9873 49.2512C52.9588 48.3372 53.2813 46.9137 53.3628 46.0037Z" fill="#FF7B31"/>
</svg>
