<svg width="916" height="7" viewBox="0 0 916 7" fill="none" xmlns="http://www.w3.org/2000/svg">
<path d="M0.804688 7H0.00878906V6.17969C0.00878906 6.06738 0.0136719 5.98926 0.0283203 5.94531C0.0429688 5.90137 0.0820312 5.84277 0.135742 5.76953L3.93457 0.818359V-0.00195312H4.73535V0.818359C4.73535 0.979492 4.69629 1.11621 4.61816 1.22852L0.804688 6.17969V7ZM6.60547 7H5.80957V6.17969C5.80957 6.06738 5.81445 5.98926 5.8291 5.94531C5.84375 5.90137 5.88281 5.84277 5.93652 5.76953L9.73535 0.818359V-0.00195312H10.5361V0.818359C10.5361 0.979492 10.4971 1.11621 10.4189 1.22852L6.60547 6.17969V7ZM12.4062 7H11.6104V6.17969C11.6104 6.06738 11.6152 5.98926 11.6299 5.94531C11.6445 5.90137 11.6836 5.84277 11.7373 5.76953L15.5361 0.818359V-0.00195312H16.3369V0.818359C16.3369 0.979492 16.2979 1.11621 16.2197 1.22852L12.4062 6.17969V7ZM18.207 7H17.4111V6.17969C17.4111 6.06738 17.416 5.98926 17.4307 5.94531C17.4453 5.90137 17.4844 5.84277 17.5381 5.76953L21.3369 0.818359V-0.00195312H22.1377V0.818359C22.1377 0.979492 22.0986 1.11621 22.0205 1.22852L18.207 6.17969V7ZM24.0078 7H23.2119V6.17969C23.2119 6.06738 23.2168 5.98926 23.2314 5.94531C23.2461 5.90137 23.2852 5.84277 23.3389 5.76953L27.1377 0.818359V-0.00195312H27.9385V0.818359C27.9385 0.979492 27.8994 1.11621 27.8213 1.22852L24.0078 6.17969V7ZM29.8086 7H29.0127V6.17969C29.0127 6.06738 29.0176 5.98926 29.0322 5.94531C29.0469 5.90137 29.0859 5.84277 29.1396 5.76953L32.9385 0.818359V-0.00195312H33.7393V0.818359C33.7393 0.979492 33.7002 1.11621 33.6221 1.22852L29.8086 6.17969V7ZM35.6094 7H34.8135V6.17969C34.8135 6.06738 34.8184 5.98926 34.833 5.94531C34.8477 5.90137 34.8867 5.84277 34.9404 5.76953L38.7393 0.818359V-0.00195312H39.54V0.818359C39.54 0.979492 39.501 1.11621 39.4229 1.22852L35.6094 6.17969V7ZM41.4102 7H40.6143V6.17969C40.6143 6.06738 40.6191 5.98926 40.6338 5.94531C40.6484 5.90137 40.6875 5.84277 40.7412 5.76953L44.54 0.818359V-0.00195312H45.3408V0.818359C45.3408 0.979492 45.3018 1.11621 45.2236 1.22852L41.4102 6.17969V7ZM47.2109 7H46.415V6.17969C46.415 6.06738 46.4199 5.98926 46.4346 5.94531C46.4492 5.90137 46.4883 5.84277 46.542 5.76953L50.3408 0.818359V-0.00195312H51.1416V0.818359C51.1416 0.979492 51.1025 1.11621 51.0244 1.22852L47.2109 6.17969V7ZM53.0117 7H52.2158V6.17969C52.2158 6.06738 52.2207 5.98926 52.2354 5.94531C52.25 5.90137 52.2891 5.84277 52.3428 5.76953L56.1416 0.818359V-0.00195312H56.9424V0.818359C56.9424 0.979492 56.9033 1.11621 56.8252 1.22852L53.0117 6.17969V7ZM58.8125 7H58.0166V6.17969C58.0166 6.06738 58.0215 5.98926 58.0361 5.94531C58.0508 5.90137 58.0898 5.84277 58.1436 5.76953L61.9424 0.818359V-0.00195312H62.7432V0.818359C62.7432 0.979492 62.7041 1.11621 62.626 1.22852L58.8125 6.17969V7ZM64.6133 7H63.8174V6.17969C63.8174 6.06738 63.8223 5.98926 63.8369 5.94531C63.8516 5.90137 63.8906 5.84277 63.9443 5.76953L67.7432 0.818359V-0.00195312H68.5439V0.818359C68.5439 0.979492 68.5049 1.11621 68.4268 1.22852L64.6133 6.17969V7ZM70.4141 7H69.6182V6.17969C69.6182 6.06738 69.623 5.98926 69.6377 5.94531C69.6523 5.90137 69.6914 5.84277 69.7451 5.76953L73.5439 0.818359V-0.00195312H74.3447V0.818359C74.3447 0.979492 74.3057 1.11621 74.2275 1.22852L70.4141 6.17969V7ZM76.2148 7H75.4189V6.17969C75.4189 6.06738 75.4238 5.98926 75.4385 5.94531C75.4531 5.90137 75.4922 5.84277 75.5459 5.76953L79.3447 0.818359V-0.00195312H80.1455V0.818359C80.1455 0.979492 80.1064 1.11621 80.0283 1.22852L76.2148 6.17969V7ZM82.0156 7H81.2197V6.17969C81.2197 6.06738 81.2246 5.98926 81.2393 5.94531C81.2539 5.90137 81.293 5.84277 81.3467 5.76953L85.1455 0.818359V-0.00195312H85.9463V0.818359C85.9463 0.979492 85.9072 1.11621 85.8291 1.22852L82.0156 6.17969V7ZM87.8164 7H87.0205V6.17969C87.0205 6.06738 87.0254 5.98926 87.04 5.94531C87.0547 5.90137 87.0938 5.84277 87.1475 5.76953L90.9463 0.818359V-0.00195312H91.7471V0.818359C91.7471 0.979492 91.708 1.11621 91.6299 1.22852L87.8164 6.17969V7ZM93.6172 7H92.8213V6.17969C92.8213 6.06738 92.8262 5.98926 92.8408 5.94531C92.8555 5.90137 92.8945 5.84277 92.9482 5.76953L96.7471 0.818359V-0.00195312H97.5479V0.818359C97.5479 0.979492 97.5088 1.11621 97.4307 1.22852L93.6172 6.17969V7ZM99.418 7H98.6221V6.17969C98.6221 6.06738 98.627 5.98926 98.6416 5.94531C98.6562 5.90137 98.6953 5.84277 98.749 5.76953L102.548 0.818359V-0.00195312H103.349V0.818359C103.349 0.979492 103.31 1.11621 103.231 1.22852L99.418 6.17969V7ZM105.219 7H104.423V6.17969C104.423 6.06738 104.428 5.98926 104.442 5.94531C104.457 5.90137 104.496 5.84277 104.55 5.76953L108.349 0.818359V-0.00195312H109.149V0.818359C109.149 0.979492 109.11 1.11621 109.032 1.22852L105.219 6.17969V7ZM111.02 7H110.224V6.17969C110.224 6.06738 110.229 5.98926 110.243 5.94531C110.258 5.90137 110.297 5.84277 110.351 5.76953L114.149 0.818359V-0.00195312H114.95V0.818359C114.95 0.979492 114.911 1.11621 114.833 1.22852L111.02 6.17969V7ZM116.82 7H116.024V6.17969C116.024 6.06738 116.029 5.98926 116.044 5.94531C116.059 5.90137 116.098 5.84277 116.151 5.76953L119.95 0.818359V-0.00195312H120.751V0.818359C120.751 0.979492 120.712 1.11621 120.634 1.22852L116.82 6.17969V7ZM122.621 7H121.825V6.17969C121.825 6.06738 121.83 5.98926 121.845 5.94531C121.859 5.90137 121.898 5.84277 121.952 5.76953L125.751 0.818359V-0.00195312H126.552V0.818359C126.552 0.979492 126.513 1.11621 126.435 1.22852L122.621 6.17969V7ZM128.422 7H127.626V6.17969C127.626 6.06738 127.631 5.98926 127.646 5.94531C127.66 5.90137 127.699 5.84277 127.753 5.76953L131.552 0.818359V-0.00195312H132.353V0.818359C132.353 0.979492 132.313 1.11621 132.235 1.22852L128.422 6.17969V7ZM134.223 7H133.427V6.17969C133.427 6.06738 133.432 5.98926 133.446 5.94531C133.461 5.90137 133.5 5.84277 133.554 5.76953L137.353 0.818359V-0.00195312H138.153V0.818359C138.153 0.979492 138.114 1.11621 138.036 1.22852L134.223 6.17969V7ZM140.023 7H139.228V6.17969C139.228 6.06738 139.232 5.98926 139.247 5.94531C139.262 5.90137 139.301 5.84277 139.354 5.76953L143.153 0.818359V-0.00195312H143.954V0.818359C143.954 0.979492 143.915 1.11621 143.837 1.22852L140.023 6.17969V7ZM145.824 7H145.028V6.17969C145.028 6.06738 145.033 5.98926 145.048 5.94531C145.062 5.90137 145.102 5.84277 145.155 5.76953L148.954 0.818359V-0.00195312H149.755V0.818359C149.755 0.979492 149.716 1.11621 149.638 1.22852L145.824 6.17969V7ZM151.625 7H150.829V6.17969C150.829 6.06738 150.834 5.98926 150.849 5.94531C150.863 5.90137 150.902 5.84277 150.956 5.76953L154.755 0.818359V-0.00195312H155.556V0.818359C155.556 0.979492 155.517 1.11621 155.438 1.22852L151.625 6.17969V7ZM157.426 7H156.63V6.17969C156.63 6.06738 156.635 5.98926 156.649 5.94531C156.664 5.90137 156.703 5.84277 156.757 5.76953L160.556 0.818359V-0.00195312H161.356V0.818359C161.356 0.979492 161.317 1.11621 161.239 1.22852L157.426 6.17969V7ZM163.227 7H162.431V6.17969C162.431 6.06738 162.436 5.98926 162.45 5.94531C162.465 5.90137 162.504 5.84277 162.558 5.76953L166.356 0.818359V-0.00195312H167.157V0.818359C167.157 0.979492 167.118 1.11621 167.04 1.22852L163.227 6.17969V7ZM169.027 7H168.231V6.17969C168.231 6.06738 168.236 5.98926 168.251 5.94531C168.266 5.90137 168.305 5.84277 168.358 5.76953L172.157 0.818359V-0.00195312H172.958V0.818359C172.958 0.979492 172.919 1.11621 172.841 1.22852L169.027 6.17969V7ZM174.828 7H174.032V6.17969C174.032 6.06738 174.037 5.98926 174.052 5.94531C174.066 5.90137 174.105 5.84277 174.159 5.76953L177.958 0.818359V-0.00195312H178.759V0.818359C178.759 0.979492 178.72 1.11621 178.642 1.22852L174.828 6.17969V7ZM180.629 7H179.833V6.17969C179.833 6.06738 179.838 5.98926 179.853 5.94531C179.867 5.90137 179.906 5.84277 179.96 5.76953L183.759 0.818359V-0.00195312H184.56V0.818359C184.56 0.979492 184.521 1.11621 184.442 1.22852L180.629 6.17969V7ZM186.43 7H185.634V6.17969C185.634 6.06738 185.639 5.98926 185.653 5.94531C185.668 5.90137 185.707 5.84277 185.761 5.76953L189.56 0.818359V-0.00195312H190.36V0.818359C190.36 0.979492 190.321 1.11621 190.243 1.22852L186.43 6.17969V7ZM192.23 7H191.435V6.17969C191.435 6.06738 191.439 5.98926 191.454 5.94531C191.469 5.90137 191.508 5.84277 191.562 5.76953L195.36 0.818359V-0.00195312H196.161V0.818359C196.161 0.979492 196.122 1.11621 196.044 1.22852L192.23 6.17969V7ZM198.031 7H197.235V6.17969C197.235 6.06738 197.24 5.98926 197.255 5.94531C197.27 5.90137 197.309 5.84277 197.362 5.76953L201.161 0.818359V-0.00195312H201.962V0.818359C201.962 0.979492 201.923 1.11621 201.845 1.22852L198.031 6.17969V7ZM203.832 7H203.036V6.17969C203.036 6.06738 203.041 5.98926 203.056 5.94531C203.07 5.90137 203.109 5.84277 203.163 5.76953L206.962 0.818359V-0.00195312H207.763V0.818359C207.763 0.979492 207.724 1.11621 207.646 1.22852L203.832 6.17969V7ZM209.633 7H208.837V6.17969C208.837 6.06738 208.842 5.98926 208.856 5.94531C208.871 5.90137 208.91 5.84277 208.964 5.76953L212.763 0.818359V-0.00195312H213.563V0.818359C213.563 0.979492 213.524 1.11621 213.446 1.22852L209.633 6.17969V7ZM215.434 7H214.638V6.17969C214.638 6.06738 214.643 5.98926 214.657 5.94531C214.672 5.90137 214.711 5.84277 214.765 5.76953L218.563 0.818359V-0.00195312H219.364V0.818359C219.364 0.979492 219.325 1.11621 219.247 1.22852L215.434 6.17969V7ZM221.234 7H220.438V6.17969C220.438 6.06738 220.443 5.98926 220.458 5.94531C220.473 5.90137 220.512 5.84277 220.565 5.76953L224.364 0.818359V-0.00195312H225.165V0.818359C225.165 0.979492 225.126 1.11621 225.048 1.22852L221.234 6.17969V7ZM227.035 7H226.239V6.17969C226.239 6.06738 226.244 5.98926 226.259 5.94531C226.273 5.90137 226.312 5.84277 226.366 5.76953L230.165 0.818359V-0.00195312H230.966V0.818359C230.966 0.979492 230.927 1.11621 230.849 1.22852L227.035 6.17969V7ZM232.836 7H232.04V6.17969C232.04 6.06738 232.045 5.98926 232.06 5.94531C232.074 5.90137 232.113 5.84277 232.167 5.76953L235.966 0.818359V-0.00195312H236.767V0.818359C236.767 0.979492 236.728 1.11621 236.649 1.22852L232.836 6.17969V7ZM238.637 7H237.841V6.17969C237.841 6.06738 237.846 5.98926 237.86 5.94531C237.875 5.90137 237.914 5.84277 237.968 5.76953L241.767 0.818359V-0.00195312H242.567V0.818359C242.567 0.979492 242.528 1.11621 242.45 1.22852L238.637 6.17969V7ZM244.438 7H243.642V6.17969C243.642 6.06738 243.646 5.98926 243.661 5.94531C243.676 5.90137 243.715 5.84277 243.769 5.76953L247.567 0.818359V-0.00195312H248.368V0.818359C248.368 0.979492 248.329 1.11621 248.251 1.22852L244.438 6.17969V7ZM250.238 7H249.442V6.17969C249.442 6.06738 249.447 5.98926 249.462 5.94531C249.477 5.90137 249.516 5.84277 249.569 5.76953L253.368 0.818359V-0.00195312H254.169V0.818359C254.169 0.979492 254.13 1.11621 254.052 1.22852L250.238 6.17969V7ZM256.039 7H255.243V6.17969C255.243 6.06738 255.248 5.98926 255.263 5.94531C255.277 5.90137 255.316 5.84277 255.37 5.76953L259.169 0.818359V-0.00195312H259.97V0.818359C259.97 0.979492 259.931 1.11621 259.853 1.22852L256.039 6.17969V7ZM261.84 7H261.044V6.17969C261.044 6.06738 261.049 5.98926 261.063 5.94531C261.078 5.90137 261.117 5.84277 261.171 5.76953L264.97 0.818359V-0.00195312H265.771V0.818359C265.771 0.979492 265.731 1.11621 265.653 1.22852L261.84 6.17969V7ZM267.641 7H266.845V6.17969C266.845 6.06738 266.85 5.98926 266.864 5.94531C266.879 5.90137 266.918 5.84277 266.972 5.76953L270.771 0.818359V-0.00195312H271.571V0.818359C271.571 0.979492 271.532 1.11621 271.454 1.22852L267.641 6.17969V7ZM273.441 7H272.646V6.17969C272.646 6.06738 272.65 5.98926 272.665 5.94531C272.68 5.90137 272.719 5.84277 272.772 5.76953L276.571 0.818359V-0.00195312H277.372V0.818359C277.372 0.979492 277.333 1.11621 277.255 1.22852L273.441 6.17969V7ZM279.242 7H278.446V6.17969C278.446 6.06738 278.451 5.98926 278.466 5.94531C278.48 5.90137 278.52 5.84277 278.573 5.76953L282.372 0.818359V-0.00195312H283.173V0.818359C283.173 0.979492 283.134 1.11621 283.056 1.22852L279.242 6.17969V7ZM285.043 7H284.247V6.17969C284.247 6.06738 284.252 5.98926 284.267 5.94531C284.281 5.90137 284.32 5.84277 284.374 5.76953L288.173 0.818359V-0.00195312H288.974V0.818359C288.974 0.979492 288.935 1.11621 288.856 1.22852L285.043 6.17969V7ZM290.844 7H290.048V6.17969C290.048 6.06738 290.053 5.98926 290.067 5.94531C290.082 5.90137 290.121 5.84277 290.175 5.76953L293.974 0.818359V-0.00195312H294.774V0.818359C294.774 0.979492 294.735 1.11621 294.657 1.22852L290.844 6.17969V7ZM296.645 7H295.849V6.17969C295.849 6.06738 295.854 5.98926 295.868 5.94531C295.883 5.90137 295.922 5.84277 295.976 5.76953L299.774 0.818359V-0.00195312H300.575V0.818359C300.575 0.979492 300.536 1.11621 300.458 1.22852L296.645 6.17969V7ZM302.445 7H301.649V6.17969C301.649 6.06738 301.654 5.98926 301.669 5.94531C301.684 5.90137 301.723 5.84277 301.776 5.76953L305.575 0.818359V-0.00195312H306.376V0.818359C306.376 0.979492 306.337 1.11621 306.259 1.22852L302.445 6.17969V7ZM308.246 7H307.45V6.17969C307.45 6.06738 307.455 5.98926 307.47 5.94531C307.484 5.90137 307.523 5.84277 307.577 5.76953L311.376 0.818359V-0.00195312H312.177V0.818359C312.177 0.979492 312.138 1.11621 312.06 1.22852L308.246 6.17969V7ZM314.047 7H313.251V6.17969C313.251 6.06738 313.256 5.98926 313.271 5.94531C313.285 5.90137 313.324 5.84277 313.378 5.76953L317.177 0.818359V-0.00195312H317.978V0.818359C317.978 0.979492 317.938 1.11621 317.86 1.22852L314.047 6.17969V7ZM319.848 7H319.052V6.17969C319.052 6.06738 319.057 5.98926 319.071 5.94531C319.086 5.90137 319.125 5.84277 319.179 5.76953L322.978 0.818359V-0.00195312H323.778V0.818359C323.778 0.979492 323.739 1.11621 323.661 1.22852L319.848 6.17969V7ZM325.648 7H324.853V6.17969C324.853 6.06738 324.857 5.98926 324.872 5.94531C324.887 5.90137 324.926 5.84277 324.979 5.76953L328.778 0.818359V-0.00195312H329.579V0.818359C329.579 0.979492 329.54 1.11621 329.462 1.22852L325.648 6.17969V7ZM331.449 7H330.653V6.17969C330.653 6.06738 330.658 5.98926 330.673 5.94531C330.688 5.90137 330.727 5.84277 330.78 5.76953L334.579 0.818359V-0.00195312H335.38V0.818359C335.38 0.979492 335.341 1.11621 335.263 1.22852L331.449 6.17969V7ZM337.25 7H336.454V6.17969C336.454 6.06738 336.459 5.98926 336.474 5.94531C336.488 5.90137 336.527 5.84277 336.581 5.76953L340.38 0.818359V-0.00195312H341.181V0.818359C341.181 0.979492 341.142 1.11621 341.063 1.22852L337.25 6.17969V7ZM343.051 7H342.255V6.17969C342.255 6.06738 342.26 5.98926 342.274 5.94531C342.289 5.90137 342.328 5.84277 342.382 5.76953L346.181 0.818359V-0.00195312H346.981V0.818359C346.981 0.979492 346.942 1.11621 346.864 1.22852L343.051 6.17969V7ZM348.852 7H348.056V6.17969C348.056 6.06738 348.061 5.98926 348.075 5.94531C348.09 5.90137 348.129 5.84277 348.183 5.76953L351.981 0.818359V-0.00195312H352.782V0.818359C352.782 0.979492 352.743 1.11621 352.665 1.22852L348.852 6.17969V7ZM354.652 7H353.856V6.17969C353.856 6.06738 353.861 5.98926 353.876 5.94531C353.891 5.90137 353.93 5.84277 353.983 5.76953L357.782 0.818359V-0.00195312H358.583V0.818359C358.583 0.979492 358.544 1.11621 358.466 1.22852L354.652 6.17969V7ZM360.453 7H359.657V6.17969C359.657 6.06738 359.662 5.98926 359.677 5.94531C359.691 5.90137 359.73 5.84277 359.784 5.76953L363.583 0.818359V-0.00195312H364.384V0.818359C364.384 0.979492 364.345 1.11621 364.267 1.22852L360.453 6.17969V7ZM366.254 7H365.458V6.17969C365.458 6.06738 365.463 5.98926 365.478 5.94531C365.492 5.90137 365.531 5.84277 365.585 5.76953L369.384 0.818359V-0.00195312H370.185V0.818359C370.185 0.979492 370.146 1.11621 370.067 1.22852L366.254 6.17969V7ZM372.055 7H371.259V6.17969C371.259 6.06738 371.264 5.98926 371.278 5.94531C371.293 5.90137 371.332 5.84277 371.386 5.76953L375.185 0.818359V-0.00195312H375.985V0.818359C375.985 0.979492 375.946 1.11621 375.868 1.22852L372.055 6.17969V7ZM377.855 7H377.06V6.17969C377.06 6.06738 377.064 5.98926 377.079 5.94531C377.094 5.90137 377.133 5.84277 377.187 5.76953L380.985 0.818359V-0.00195312H381.786V0.818359C381.786 0.979492 381.747 1.11621 381.669 1.22852L377.855 6.17969V7ZM383.656 7H382.86V6.17969C382.86 6.06738 382.865 5.98926 382.88 5.94531C382.895 5.90137 382.934 5.84277 382.987 5.76953L386.786 0.818359V-0.00195312H387.587V0.818359C387.587 0.979492 387.548 1.11621 387.47 1.22852L383.656 6.17969V7ZM389.457 7H388.661V6.17969C388.661 6.06738 388.666 5.98926 388.681 5.94531C388.695 5.90137 388.734 5.84277 388.788 5.76953L392.587 0.818359V-0.00195312H393.388V0.818359C393.388 0.979492 393.349 1.11621 393.271 1.22852L389.457 6.17969V7ZM395.258 7H394.462V6.17969C394.462 6.06738 394.467 5.98926 394.481 5.94531C394.496 5.90137 394.535 5.84277 394.589 5.76953L398.388 0.818359V-0.00195312H399.188V0.818359C399.188 0.979492 399.149 1.11621 399.071 1.22852L395.258 6.17969V7ZM401.059 7H400.263V6.17969C400.263 6.06738 400.268 5.98926 400.282 5.94531C400.297 5.90137 400.336 5.84277 400.39 5.76953L404.188 0.818359V-0.00195312H404.989V0.818359C404.989 0.979492 404.95 1.11621 404.872 1.22852L401.059 6.17969V7ZM406.859 7H406.063V6.17969C406.063 6.06738 406.068 5.98926 406.083 5.94531C406.098 5.90137 406.137 5.84277 406.19 5.76953L409.989 0.818359V-0.00195312H410.79V0.818359C410.79 0.979492 410.751 1.11621 410.673 1.22852L406.859 6.17969V7ZM412.66 7H411.864V6.17969C411.864 6.06738 411.869 5.98926 411.884 5.94531C411.898 5.90137 411.938 5.84277 411.991 5.76953L415.79 0.818359V-0.00195312H416.591V0.818359C416.591 0.979492 416.552 1.11621 416.474 1.22852L412.66 6.17969V7ZM418.461 7H417.665V6.17969C417.665 6.06738 417.67 5.98926 417.685 5.94531C417.699 5.90137 417.738 5.84277 417.792 5.76953L421.591 0.818359V-0.00195312H422.392V0.818359C422.392 0.979492 422.353 1.11621 422.274 1.22852L418.461 6.17969V7ZM424.262 7H423.466V6.17969C423.466 6.06738 423.471 5.98926 423.485 5.94531C423.5 5.90137 423.539 5.84277 423.593 5.76953L427.392 0.818359V-0.00195312H428.192V0.818359C428.192 0.979492 428.153 1.11621 428.075 1.22852L424.262 6.17969V7ZM430.062 7H429.267V6.17969C429.267 6.06738 429.271 5.98926 429.286 5.94531C429.301 5.90137 429.34 5.84277 429.394 5.76953L433.192 0.818359V-0.00195312H433.993V0.818359C433.993 0.979492 433.954 1.11621 433.876 1.22852L430.062 6.17969V7ZM435.863 7H435.067V6.17969C435.067 6.06738 435.072 5.98926 435.087 5.94531C435.102 5.90137 435.141 5.84277 435.194 5.76953L438.993 0.818359V-0.00195312H439.794V0.818359C439.794 0.979492 439.755 1.11621 439.677 1.22852L435.863 6.17969V7ZM441.664 7H440.868V6.17969C440.868 6.06738 440.873 5.98926 440.888 5.94531C440.902 5.90137 440.941 5.84277 440.995 5.76953L444.794 0.818359V-0.00195312H445.595V0.818359C445.595 0.979492 445.556 1.11621 445.478 1.22852L441.664 6.17969V7ZM447.465 7H446.669V6.17969C446.669 6.06738 446.674 5.98926 446.688 5.94531C446.703 5.90137 446.742 5.84277 446.796 5.76953L450.595 0.818359V-0.00195312H451.396V0.818359C451.396 0.979492 451.356 1.11621 451.278 1.22852L447.465 6.17969V7ZM453.266 7H452.47V6.17969C452.47 6.06738 452.475 5.98926 452.489 5.94531C452.504 5.90137 452.543 5.84277 452.597 5.76953L456.396 0.818359V-0.00195312H457.196V0.818359C457.196 0.979492 457.157 1.11621 457.079 1.22852L453.266 6.17969V7ZM459.066 7H458.271V6.17969C458.271 6.06738 458.275 5.98926 458.29 5.94531C458.305 5.90137 458.344 5.84277 458.397 5.76953L462.196 0.818359V-0.00195312H462.997V0.818359C462.997 0.979492 462.958 1.11621 462.88 1.22852L459.066 6.17969V7ZM464.867 7H464.071V6.17969C464.071 6.06738 464.076 5.98926 464.091 5.94531C464.105 5.90137 464.145 5.84277 464.198 5.76953L467.997 0.818359V-0.00195312H468.798V0.818359C468.798 0.979492 468.759 1.11621 468.681 1.22852L464.867 6.17969V7ZM470.668 7H469.872V6.17969C469.872 6.06738 469.877 5.98926 469.892 5.94531C469.906 5.90137 469.945 5.84277 469.999 5.76953L473.798 0.818359V-0.00195312H474.599V0.818359C474.599 0.979492 474.56 1.11621 474.481 1.22852L470.668 6.17969V7ZM476.469 7H475.673V6.17969C475.673 6.06738 475.678 5.98926 475.692 5.94531C475.707 5.90137 475.746 5.84277 475.8 5.76953L479.599 0.818359V-0.00195312H480.399V0.818359C480.399 0.979492 480.36 1.11621 480.282 1.22852L476.469 6.17969V7ZM482.27 7H481.474V6.17969C481.474 6.06738 481.479 5.98926 481.493 5.94531C481.508 5.90137 481.547 5.84277 481.601 5.76953L485.399 0.818359V-0.00195312H486.2V0.818359C486.2 0.979492 486.161 1.11621 486.083 1.22852L482.27 6.17969V7ZM488.07 7H487.274V6.17969C487.274 6.06738 487.279 5.98926 487.294 5.94531C487.309 5.90137 487.348 5.84277 487.401 5.76953L491.2 0.818359V-0.00195312H492.001V0.818359C492.001 0.979492 491.962 1.11621 491.884 1.22852L488.07 6.17969V7ZM493.871 7H493.075V6.17969C493.075 6.06738 493.08 5.98926 493.095 5.94531C493.109 5.90137 493.148 5.84277 493.202 5.76953L497.001 0.818359V-0.00195312H497.802V0.818359C497.802 0.979492 497.763 1.11621 497.685 1.22852L493.871 6.17969V7ZM499.672 7H498.876V6.17969C498.876 6.06738 498.881 5.98926 498.896 5.94531C498.91 5.90137 498.949 5.84277 499.003 5.76953L502.802 0.818359V-0.00195312H503.603V0.818359C503.603 0.979492 503.563 1.11621 503.485 1.22852L499.672 6.17969V7ZM505.473 7H504.677V6.17969C504.677 6.06738 504.682 5.98926 504.696 5.94531C504.711 5.90137 504.75 5.84277 504.804 5.76953L508.603 0.818359V-0.00195312H509.403V0.818359C509.403 0.979492 509.364 1.11621 509.286 1.22852L505.473 6.17969V7ZM511.273 7H510.478V6.17969C510.478 6.06738 510.482 5.98926 510.497 5.94531C510.512 5.90137 510.551 5.84277 510.604 5.76953L514.403 0.818359V-0.00195312H515.204V0.818359C515.204 0.979492 515.165 1.11621 515.087 1.22852L511.273 6.17969V7ZM517.074 7H516.278V6.17969C516.278 6.06738 516.283 5.98926 516.298 5.94531C516.312 5.90137 516.352 5.84277 516.405 5.76953L520.204 0.818359V-0.00195312H521.005V0.818359C521.005 0.979492 520.966 1.11621 520.888 1.22852L517.074 6.17969V7ZM522.875 7H522.079V6.17969C522.079 6.06738 522.084 5.98926 522.099 5.94531C522.113 5.90137 522.152 5.84277 522.206 5.76953L526.005 0.818359V-0.00195312H526.806V0.818359C526.806 0.979492 526.767 1.11621 526.688 1.22852L522.875 6.17969V7ZM528.676 7H527.88V6.17969C527.88 6.06738 527.885 5.98926 527.899 5.94531C527.914 5.90137 527.953 5.84277 528.007 5.76953L531.806 0.818359V-0.00195312H532.606V0.818359C532.606 0.979492 532.567 1.11621 532.489 1.22852L528.676 6.17969V7ZM534.477 7H533.681V6.17969C533.681 6.06738 533.686 5.98926 533.7 5.94531C533.715 5.90137 533.754 5.84277 533.808 5.76953L537.606 0.818359V-0.00195312H538.407V0.818359C538.407 0.979492 538.368 1.11621 538.29 1.22852L534.477 6.17969V7ZM540.277 7H539.481V6.17969C539.481 6.06738 539.486 5.98926 539.501 5.94531C539.516 5.90137 539.555 5.84277 539.608 5.76953L543.407 0.818359V-0.00195312H544.208V0.818359C544.208 0.979492 544.169 1.11621 544.091 1.22852L540.277 6.17969V7ZM546.078 7H545.282V6.17969C545.282 6.06738 545.287 5.98926 545.302 5.94531C545.316 5.90137 545.355 5.84277 545.409 5.76953L549.208 0.818359V-0.00195312H550.009V0.818359C550.009 0.979492 549.97 1.11621 549.892 1.22852L546.078 6.17969V7ZM551.879 7H551.083V6.17969C551.083 6.06738 551.088 5.98926 551.103 5.94531C551.117 5.90137 551.156 5.84277 551.21 5.76953L555.009 0.818359V-0.00195312H555.81V0.818359C555.81 0.979492 555.771 1.11621 555.692 1.22852L551.879 6.17969V7ZM557.68 7H556.884V6.17969C556.884 6.06738 556.889 5.98926 556.903 5.94531C556.918 5.90137 556.957 5.84277 557.011 5.76953L560.81 0.818359V-0.00195312H561.61V0.818359C561.61 0.979492 561.571 1.11621 561.493 1.22852L557.68 6.17969V7ZM563.48 7H562.685V6.17969C562.685 6.06738 562.689 5.98926 562.704 5.94531C562.719 5.90137 562.758 5.84277 562.812 5.76953L566.61 0.818359V-0.00195312H567.411V0.818359C567.411 0.979492 567.372 1.11621 567.294 1.22852L563.48 6.17969V7ZM569.281 7H568.485V6.17969C568.485 6.06738 568.49 5.98926 568.505 5.94531C568.52 5.90137 568.559 5.84277 568.612 5.76953L572.411 0.818359V-0.00195312H573.212V0.818359C573.212 0.979492 573.173 1.11621 573.095 1.22852L569.281 6.17969V7ZM575.082 7H574.286V6.17969C574.286 6.06738 574.291 5.98926 574.306 5.94531C574.32 5.90137 574.359 5.84277 574.413 5.76953L578.212 0.818359V-0.00195312H579.013V0.818359C579.013 0.979492 578.974 1.11621 578.896 1.22852L575.082 6.17969V7ZM580.883 7H580.087V6.17969C580.087 6.06738 580.092 5.98926 580.106 5.94531C580.121 5.90137 580.16 5.84277 580.214 5.76953L584.013 0.818359V-0.00195312H584.813V0.818359C584.813 0.979492 584.774 1.11621 584.696 1.22852L580.883 6.17969V7ZM586.684 7H585.888V6.17969C585.888 6.06738 585.893 5.98926 585.907 5.94531C585.922 5.90137 585.961 5.84277 586.015 5.76953L589.813 0.818359V-0.00195312H590.614V0.818359C590.614 0.979492 590.575 1.11621 590.497 1.22852L586.684 6.17969V7ZM592.484 7H591.688V6.17969C591.688 6.06738 591.693 5.98926 591.708 5.94531C591.723 5.90137 591.762 5.84277 591.815 5.76953L595.614 0.818359V-0.00195312H596.415V0.818359C596.415 0.979492 596.376 1.11621 596.298 1.22852L592.484 6.17969V7ZM598.285 7H597.489V6.17969C597.489 6.06738 597.494 5.98926 597.509 5.94531C597.523 5.90137 597.562 5.84277 597.616 5.76953L601.415 0.818359V-0.00195312H602.216V0.818359C602.216 0.979492 602.177 1.11621 602.099 1.22852L598.285 6.17969V7ZM604.086 7H603.29V6.17969C603.29 6.06738 603.295 5.98926 603.31 5.94531C603.324 5.90137 603.363 5.84277 603.417 5.76953L607.216 0.818359V-0.00195312H608.017V0.818359C608.017 0.979492 607.978 1.11621 607.899 1.22852L604.086 6.17969V7ZM609.887 7H609.091V6.17969C609.091 6.06738 609.096 5.98926 609.11 5.94531C609.125 5.90137 609.164 5.84277 609.218 5.76953L613.017 0.818359V-0.00195312H613.817V0.818359C613.817 0.979492 613.778 1.11621 613.7 1.22852L609.887 6.17969V7ZM615.688 7H614.892V6.17969C614.892 6.06738 614.896 5.98926 614.911 5.94531C614.926 5.90137 614.965 5.84277 615.019 5.76953L618.817 0.818359V-0.00195312H619.618V0.818359C619.618 0.979492 619.579 1.11621 619.501 1.22852L615.688 6.17969V7ZM621.488 7H620.692V6.17969C620.692 6.06738 620.697 5.98926 620.712 5.94531C620.727 5.90137 620.766 5.84277 620.819 5.76953L624.618 0.818359V-0.00195312H625.419V0.818359C625.419 0.979492 625.38 1.11621 625.302 1.22852L621.488 6.17969V7ZM627.289 7H626.493V6.17969C626.493 6.06738 626.498 5.98926 626.513 5.94531C626.527 5.90137 626.566 5.84277 626.62 5.76953L630.419 0.818359V-0.00195312H631.22V0.818359C631.22 0.979492 631.181 1.11621 631.103 1.22852L627.289 6.17969V7ZM633.09 7H632.294V6.17969C632.294 6.06738 632.299 5.98926 632.313 5.94531C632.328 5.90137 632.367 5.84277 632.421 5.76953L636.22 0.818359V-0.00195312H637.021V0.818359C637.021 0.979492 636.981 1.11621 636.903 1.22852L633.09 6.17969V7ZM638.891 7H638.095V6.17969C638.095 6.06738 638.1 5.98926 638.114 5.94531C638.129 5.90137 638.168 5.84277 638.222 5.76953L642.021 0.818359V-0.00195312H642.821V0.818359C642.821 0.979492 642.782 1.11621 642.704 1.22852L638.891 6.17969V7ZM644.691 7H643.896V6.17969C643.896 6.06738 643.9 5.98926 643.915 5.94531C643.93 5.90137 643.969 5.84277 644.022 5.76953L647.821 0.818359V-0.00195312H648.622V0.818359C648.622 0.979492 648.583 1.11621 648.505 1.22852L644.691 6.17969V7ZM650.492 7H649.696V6.17969C649.696 6.06738 649.701 5.98926 649.716 5.94531C649.73 5.90137 649.77 5.84277 649.823 5.76953L653.622 0.818359V-0.00195312H654.423V0.818359C654.423 0.979492 654.384 1.11621 654.306 1.22852L650.492 6.17969V7ZM656.293 7H655.497V6.17969C655.497 6.06738 655.502 5.98926 655.517 5.94531C655.531 5.90137 655.57 5.84277 655.624 5.76953L659.423 0.818359V-0.00195312H660.224V0.818359C660.224 0.979492 660.185 1.11621 660.106 1.22852L656.293 6.17969V7ZM662.094 7H661.298V6.17969C661.298 6.06738 661.303 5.98926 661.317 5.94531C661.332 5.90137 661.371 5.84277 661.425 5.76953L665.224 0.818359V-0.00195312H666.024V0.818359C666.024 0.979492 665.985 1.11621 665.907 1.22852L662.094 6.17969V7ZM667.895 7H667.099V6.17969C667.099 6.06738 667.104 5.98926 667.118 5.94531C667.133 5.90137 667.172 5.84277 667.226 5.76953L671.024 0.818359V-0.00195312H671.825V0.818359C671.825 0.979492 671.786 1.11621 671.708 1.22852L667.895 6.17969V7ZM673.695 7H672.899V6.17969C672.899 6.06738 672.904 5.98926 672.919 5.94531C672.934 5.90137 672.973 5.84277 673.026 5.76953L676.825 0.818359V-0.00195312H677.626V0.818359C677.626 0.979492 677.587 1.11621 677.509 1.22852L673.695 6.17969V7ZM679.496 7H678.7V6.17969C678.7 6.06738 678.705 5.98926 678.72 5.94531C678.734 5.90137 678.773 5.84277 678.827 5.76953L682.626 0.818359V-0.00195312H683.427V0.818359C683.427 0.979492 683.388 1.11621 683.31 1.22852L679.496 6.17969V7ZM685.297 7H684.501V6.17969C684.501 6.06738 684.506 5.98926 684.521 5.94531C684.535 5.90137 684.574 5.84277 684.628 5.76953L688.427 0.818359V-0.00195312H689.228V0.818359C689.228 0.979492 689.188 1.11621 689.11 1.22852L685.297 6.17969V7ZM691.098 7H690.302V6.17969C690.302 6.06738 690.307 5.98926 690.321 5.94531C690.336 5.90137 690.375 5.84277 690.429 5.76953L694.228 0.818359V-0.00195312H695.028V0.818359C695.028 0.979492 694.989 1.11621 694.911 1.22852L691.098 6.17969V7ZM696.898 7H696.103V6.17969C696.103 6.06738 696.107 5.98926 696.122 5.94531C696.137 5.90137 696.176 5.84277 696.229 5.76953L700.028 0.818359V-0.00195312H700.829V0.818359C700.829 0.979492 700.79 1.11621 700.712 1.22852L696.898 6.17969V7ZM702.699 7H701.903V6.17969C701.903 6.06738 701.908 5.98926 701.923 5.94531C701.938 5.90137 701.977 5.84277 702.03 5.76953L705.829 0.818359V-0.00195312H706.63V0.818359C706.63 0.979492 706.591 1.11621 706.513 1.22852L702.699 6.17969V7ZM708.5 7H707.704V6.17969C707.704 6.06738 707.709 5.98926 707.724 5.94531C707.738 5.90137 707.777 5.84277 707.831 5.76953L711.63 0.818359V-0.00195312H712.431V0.818359C712.431 0.979492 712.392 1.11621 712.313 1.22852L708.5 6.17969V7ZM714.301 7H713.505V6.17969C713.505 6.06738 713.51 5.98926 713.524 5.94531C713.539 5.90137 713.578 5.84277 713.632 5.76953L717.431 0.818359V-0.00195312H718.231V0.818359C718.231 0.979492 718.192 1.11621 718.114 1.22852L714.301 6.17969V7ZM720.102 7H719.306V6.17969C719.306 6.06738 719.311 5.98926 719.325 5.94531C719.34 5.90137 719.379 5.84277 719.433 5.76953L723.231 0.818359V-0.00195312H724.032V0.818359C724.032 0.979492 723.993 1.11621 723.915 1.22852L720.102 6.17969V7ZM725.902 7H725.106V6.17969C725.106 6.06738 725.111 5.98926 725.126 5.94531C725.141 5.90137 725.18 5.84277 725.233 5.76953L729.032 0.818359V-0.00195312H729.833V0.818359C729.833 0.979492 729.794 1.11621 729.716 1.22852L725.902 6.17969V7ZM731.703 7H730.907V6.17969C730.907 6.06738 730.912 5.98926 730.927 5.94531C730.941 5.90137 730.98 5.84277 731.034 5.76953L734.833 0.818359V-0.00195312H735.634V0.818359C735.634 0.979492 735.595 1.11621 735.517 1.22852L731.703 6.17969V7ZM737.504 7H736.708V6.17969C736.708 6.06738 736.713 5.98926 736.728 5.94531C736.742 5.90137 736.781 5.84277 736.835 5.76953L740.634 0.818359V-0.00195312H741.435V0.818359C741.435 0.979492 741.396 1.11621 741.317 1.22852L737.504 6.17969V7ZM743.305 7H742.509V6.17969C742.509 6.06738 742.514 5.98926 742.528 5.94531C742.543 5.90137 742.582 5.84277 742.636 5.76953L746.435 0.818359V-0.00195312H747.235V0.818359C747.235 0.979492 747.196 1.11621 747.118 1.22852L743.305 6.17969V7ZM749.105 7H748.31V6.17969C748.31 6.06738 748.314 5.98926 748.329 5.94531C748.344 5.90137 748.383 5.84277 748.437 5.76953L752.235 0.818359V-0.00195312H753.036V0.818359C753.036 0.979492 752.997 1.11621 752.919 1.22852L749.105 6.17969V7ZM754.906 7H754.11V6.17969C754.11 6.06738 754.115 5.98926 754.13 5.94531C754.145 5.90137 754.184 5.84277 754.237 5.76953L758.036 0.818359V-0.00195312H758.837V0.818359C758.837 0.979492 758.798 1.11621 758.72 1.22852L754.906 6.17969V7ZM760.707 7H759.911V6.17969C759.911 6.06738 759.916 5.98926 759.931 5.94531C759.945 5.90137 759.984 5.84277 760.038 5.76953L763.837 0.818359V-0.00195312H764.638V0.818359C764.638 0.979492 764.599 1.11621 764.521 1.22852L760.707 6.17969V7ZM766.508 7H765.712V6.17969C765.712 6.06738 765.717 5.98926 765.731 5.94531C765.746 5.90137 765.785 5.84277 765.839 5.76953L769.638 0.818359V-0.00195312H770.438V0.818359C770.438 0.979492 770.399 1.11621 770.321 1.22852L766.508 6.17969V7ZM772.309 7H771.513V6.17969C771.513 6.06738 771.518 5.98926 771.532 5.94531C771.547 5.90137 771.586 5.84277 771.64 5.76953L775.438 0.818359V-0.00195312H776.239V0.818359C776.239 0.979492 776.2 1.11621 776.122 1.22852L772.309 6.17969V7ZM778.109 7H777.313V6.17969C777.313 6.06738 777.318 5.98926 777.333 5.94531C777.348 5.90137 777.387 5.84277 777.44 5.76953L781.239 0.818359V-0.00195312H782.04V0.818359C782.04 0.979492 782.001 1.11621 781.923 1.22852L778.109 6.17969V7ZM783.91 7H783.114V6.17969C783.114 6.06738 783.119 5.98926 783.134 5.94531C783.148 5.90137 783.188 5.84277 783.241 5.76953L787.04 0.818359V-0.00195312H787.841V0.818359C787.841 0.979492 787.802 1.11621 787.724 1.22852L783.91 6.17969V7ZM789.711 7H788.915V6.17969C788.915 6.06738 788.92 5.98926 788.935 5.94531C788.949 5.90137 788.988 5.84277 789.042 5.76953L792.841 0.818359V-0.00195312H793.642V0.818359C793.642 0.979492 793.603 1.11621 793.524 1.22852L789.711 6.17969V7ZM795.512 7H794.716V6.17969C794.716 6.06738 794.721 5.98926 794.735 5.94531C794.75 5.90137 794.789 5.84277 794.843 5.76953L798.642 0.818359V-0.00195312H799.442V0.818359C799.442 0.979492 799.403 1.11621 799.325 1.22852L795.512 6.17969V7ZM801.312 7H800.517V6.17969C800.517 6.06738 800.521 5.98926 800.536 5.94531C800.551 5.90137 800.59 5.84277 800.644 5.76953L804.442 0.818359V-0.00195312H805.243V0.818359C805.243 0.979492 805.204 1.11621 805.126 1.22852L801.312 6.17969V7ZM807.113 7H806.317V6.17969C806.317 6.06738 806.322 5.98926 806.337 5.94531C806.352 5.90137 806.391 5.84277 806.444 5.76953L810.243 0.818359V-0.00195312H811.044V0.818359C811.044 0.979492 811.005 1.11621 810.927 1.22852L807.113 6.17969V7ZM812.914 7H812.118V6.17969C812.118 6.06738 812.123 5.98926 812.138 5.94531C812.152 5.90137 812.191 5.84277 812.245 5.76953L816.044 0.818359V-0.00195312H816.845V0.818359C816.845 0.979492 816.806 1.11621 816.728 1.22852L812.914 6.17969V7ZM818.715 7H817.919V6.17969C817.919 6.06738 817.924 5.98926 817.938 5.94531C817.953 5.90137 817.992 5.84277 818.046 5.76953L821.845 0.818359V-0.00195312H822.646V0.818359C822.646 0.979492 822.606 1.11621 822.528 1.22852L818.715 6.17969V7ZM824.516 7H823.72V6.17969C823.72 6.06738 823.725 5.98926 823.739 5.94531C823.754 5.90137 823.793 5.84277 823.847 5.76953L827.646 0.818359V-0.00195312H828.446V0.818359C828.446 0.979492 828.407 1.11621 828.329 1.22852L824.516 6.17969V7ZM830.316 7H829.521V6.17969C829.521 6.06738 829.525 5.98926 829.54 5.94531C829.555 5.90137 829.594 5.84277 829.647 5.76953L833.446 0.818359V-0.00195312H834.247V0.818359C834.247 0.979492 834.208 1.11621 834.13 1.22852L830.316 6.17969V7ZM836.117 7H835.321V6.17969C835.321 6.06738 835.326 5.98926 835.341 5.94531C835.355 5.90137 835.395 5.84277 835.448 5.76953L839.247 0.818359V-0.00195312H840.048V0.818359C840.048 0.979492 840.009 1.11621 839.931 1.22852L836.117 6.17969V7ZM841.918 7H841.122V6.17969C841.122 6.06738 841.127 5.98926 841.142 5.94531C841.156 5.90137 841.195 5.84277 841.249 5.76953L845.048 0.818359V-0.00195312H845.849V0.818359C845.849 0.979492 845.81 1.11621 845.731 1.22852L841.918 6.17969V7ZM847.719 7H846.923V6.17969C846.923 6.06738 846.928 5.98926 846.942 5.94531C846.957 5.90137 846.996 5.84277 847.05 5.76953L850.849 0.818359V-0.00195312H851.649V0.818359C851.649 0.979492 851.61 1.11621 851.532 1.22852L847.719 6.17969V7ZM853.52 7H852.724V6.17969C852.724 6.06738 852.729 5.98926 852.743 5.94531C852.758 5.90137 852.797 5.84277 852.851 5.76953L856.649 0.818359V-0.00195312H857.45V0.818359C857.45 0.979492 857.411 1.11621 857.333 1.22852L853.52 6.17969V7ZM859.32 7H858.524V6.17969C858.524 6.06738 858.529 5.98926 858.544 5.94531C858.559 5.90137 858.598 5.84277 858.651 5.76953L862.45 0.818359V-0.00195312H863.251V0.818359C863.251 0.979492 863.212 1.11621 863.134 1.22852L859.32 6.17969V7ZM865.121 7H864.325V6.17969C864.325 6.06738 864.33 5.98926 864.345 5.94531C864.359 5.90137 864.398 5.84277 864.452 5.76953L868.251 0.818359V-0.00195312H869.052V0.818359C869.052 0.979492 869.013 1.11621 868.935 1.22852L865.121 6.17969V7ZM870.922 7H870.126V6.17969C870.126 6.06738 870.131 5.98926 870.146 5.94531C870.16 5.90137 870.199 5.84277 870.253 5.76953L874.052 0.818359V-0.00195312H874.853V0.818359C874.853 0.979492 874.813 1.11621 874.735 1.22852L870.922 6.17969V7ZM876.723 7H875.927V6.17969C875.927 6.06738 875.932 5.98926 875.946 5.94531C875.961 5.90137 876 5.84277 876.054 5.76953L879.853 0.818359V-0.00195312H880.653V0.818359C880.653 0.979492 880.614 1.11621 880.536 1.22852L876.723 6.17969V7ZM882.523 7H881.728V6.17969C881.728 6.06738 881.732 5.98926 881.747 5.94531C881.762 5.90137 881.801 5.84277 881.854 5.76953L885.653 0.818359V-0.00195312H886.454V0.818359C886.454 0.979492 886.415 1.11621 886.337 1.22852L882.523 6.17969V7ZM888.324 7H887.528V6.17969C887.528 6.06738 887.533 5.98926 887.548 5.94531C887.562 5.90137 887.602 5.84277 887.655 5.76953L891.454 0.818359V-0.00195312H892.255V0.818359C892.255 0.979492 892.216 1.11621 892.138 1.22852L888.324 6.17969V7ZM894.125 7H893.329V6.17969C893.329 6.06738 893.334 5.98926 893.349 5.94531C893.363 5.90137 893.402 5.84277 893.456 5.76953L897.255 0.818359V-0.00195312H898.056V0.818359C898.056 0.979492 898.017 1.11621 897.938 1.22852L894.125 6.17969V7ZM899.926 7H899.13V6.17969C899.13 6.06738 899.135 5.98926 899.149 5.94531C899.164 5.90137 899.203 5.84277 899.257 5.76953L903.056 0.818359V-0.00195312H903.856V0.818359C903.856 0.979492 903.817 1.11621 903.739 1.22852L899.926 6.17969V7ZM905.727 7H904.931V6.17969C904.931 6.06738 904.936 5.98926 904.95 5.94531C904.965 5.90137 905.004 5.84277 905.058 5.76953L908.856 0.818359V-0.00195312H909.657V0.818359C909.657 0.979492 909.618 1.11621 909.54 1.22852L905.727 6.17969V7ZM911.527 7H910.731V6.17969C910.731 6.06738 910.736 5.98926 910.751 5.94531C910.766 5.90137 910.805 5.84277 910.858 5.76953L914.657 0.818359V-0.00195312H915.458V0.818359C915.458 0.979492 915.419 1.11621 915.341 1.22852L911.527 6.17969V7Z" fill="black"/>
</svg>
