<svg width="412" height="7" viewBox="0 0 412 7" fill="none" xmlns="http://www.w3.org/2000/svg">
<path d="M1.32812 7H0.532227V6.17969C0.532227 6.06738 0.537109 5.98926 0.551758 5.94531C0.566406 5.90137 0.605469 5.84277 0.65918 5.76953L4.45801 0.818359V-0.00195312H5.25879V0.818359C5.25879 0.979492 5.21973 1.11621 5.1416 1.22852L1.32812 6.17969V7ZM7.12891 7H6.33301V6.17969C6.33301 6.06738 6.33789 5.98926 6.35254 5.94531C6.36719 5.90137 6.40625 5.84277 6.45996 5.76953L10.2588 0.818359V-0.00195312H11.0596V0.818359C11.0596 0.979492 11.0205 1.11621 10.9424 1.22852L7.12891 6.17969V7ZM12.9297 7H12.1338V6.17969C12.1338 6.06738 12.1387 5.98926 12.1533 5.94531C12.168 5.90137 12.207 5.84277 12.2607 5.76953L16.0596 0.818359V-0.00195312H16.8604V0.818359C16.8604 0.979492 16.8213 1.11621 16.7432 1.22852L12.9297 6.17969V7ZM18.7305 7H17.9346V6.17969C17.9346 6.06738 17.9395 5.98926 17.9541 5.94531C17.9688 5.90137 18.0078 5.84277 18.0615 5.76953L21.8604 0.818359V-0.00195312H22.6611V0.818359C22.6611 0.979492 22.6221 1.11621 22.5439 1.22852L18.7305 6.17969V7ZM24.5312 7H23.7354V6.17969C23.7354 6.06738 23.7402 5.98926 23.7549 5.94531C23.7695 5.90137 23.8086 5.84277 23.8623 5.76953L27.6611 0.818359V-0.00195312H28.4619V0.818359C28.4619 0.979492 28.4229 1.11621 28.3447 1.22852L24.5312 6.17969V7ZM30.332 7H29.5361V6.17969C29.5361 6.06738 29.541 5.98926 29.5557 5.94531C29.5703 5.90137 29.6094 5.84277 29.6631 5.76953L33.4619 0.818359V-0.00195312H34.2627V0.818359C34.2627 0.979492 34.2236 1.11621 34.1455 1.22852L30.332 6.17969V7ZM36.1328 7H35.3369V6.17969C35.3369 6.06738 35.3418 5.98926 35.3564 5.94531C35.3711 5.90137 35.4102 5.84277 35.4639 5.76953L39.2627 0.818359V-0.00195312H40.0635V0.818359C40.0635 0.979492 40.0244 1.11621 39.9463 1.22852L36.1328 6.17969V7ZM41.9336 7H41.1377V6.17969C41.1377 6.06738 41.1426 5.98926 41.1572 5.94531C41.1719 5.90137 41.2109 5.84277 41.2646 5.76953L45.0635 0.818359V-0.00195312H45.8643V0.818359C45.8643 0.979492 45.8252 1.11621 45.7471 1.22852L41.9336 6.17969V7ZM47.7344 7H46.9385V6.17969C46.9385 6.06738 46.9434 5.98926 46.958 5.94531C46.9727 5.90137 47.0117 5.84277 47.0654 5.76953L50.8643 0.818359V-0.00195312H51.665V0.818359C51.665 0.979492 51.626 1.11621 51.5479 1.22852L47.7344 6.17969V7ZM53.5352 7H52.7393V6.17969C52.7393 6.06738 52.7441 5.98926 52.7588 5.94531C52.7734 5.90137 52.8125 5.84277 52.8662 5.76953L56.665 0.818359V-0.00195312H57.4658V0.818359C57.4658 0.979492 57.4268 1.11621 57.3486 1.22852L53.5352 6.17969V7ZM59.3359 7H58.54V6.17969C58.54 6.06738 58.5449 5.98926 58.5596 5.94531C58.5742 5.90137 58.6133 5.84277 58.667 5.76953L62.4658 0.818359V-0.00195312H63.2666V0.818359C63.2666 0.979492 63.2275 1.11621 63.1494 1.22852L59.3359 6.17969V7ZM65.1367 7H64.3408V6.17969C64.3408 6.06738 64.3457 5.98926 64.3604 5.94531C64.375 5.90137 64.4141 5.84277 64.4678 5.76953L68.2666 0.818359V-0.00195312H69.0674V0.818359C69.0674 0.979492 69.0283 1.11621 68.9502 1.22852L65.1367 6.17969V7ZM70.9375 7H70.1416V6.17969C70.1416 6.06738 70.1465 5.98926 70.1611 5.94531C70.1758 5.90137 70.2148 5.84277 70.2686 5.76953L74.0674 0.818359V-0.00195312H74.8682V0.818359C74.8682 0.979492 74.8291 1.11621 74.751 1.22852L70.9375 6.17969V7ZM76.7383 7H75.9424V6.17969C75.9424 6.06738 75.9473 5.98926 75.9619 5.94531C75.9766 5.90137 76.0156 5.84277 76.0693 5.76953L79.8682 0.818359V-0.00195312H80.6689V0.818359C80.6689 0.979492 80.6299 1.11621 80.5518 1.22852L76.7383 6.17969V7ZM82.5391 7H81.7432V6.17969C81.7432 6.06738 81.748 5.98926 81.7627 5.94531C81.7773 5.90137 81.8164 5.84277 81.8701 5.76953L85.6689 0.818359V-0.00195312H86.4697V0.818359C86.4697 0.979492 86.4307 1.11621 86.3525 1.22852L82.5391 6.17969V7ZM88.3398 7H87.5439V6.17969C87.5439 6.06738 87.5488 5.98926 87.5635 5.94531C87.5781 5.90137 87.6172 5.84277 87.6709 5.76953L91.4697 0.818359V-0.00195312H92.2705V0.818359C92.2705 0.979492 92.2314 1.11621 92.1533 1.22852L88.3398 6.17969V7ZM94.1406 7H93.3447V6.17969C93.3447 6.06738 93.3496 5.98926 93.3643 5.94531C93.3789 5.90137 93.418 5.84277 93.4717 5.76953L97.2705 0.818359V-0.00195312H98.0713V0.818359C98.0713 0.979492 98.0322 1.11621 97.9541 1.22852L94.1406 6.17969V7ZM99.9414 7H99.1455V6.17969C99.1455 6.06738 99.1504 5.98926 99.165 5.94531C99.1797 5.90137 99.2188 5.84277 99.2725 5.76953L103.071 0.818359V-0.00195312H103.872V0.818359C103.872 0.979492 103.833 1.11621 103.755 1.22852L99.9414 6.17969V7ZM105.742 7H104.946V6.17969C104.946 6.06738 104.951 5.98926 104.966 5.94531C104.98 5.90137 105.02 5.84277 105.073 5.76953L108.872 0.818359V-0.00195312H109.673V0.818359C109.673 0.979492 109.634 1.11621 109.556 1.22852L105.742 6.17969V7ZM111.543 7H110.747V6.17969C110.747 6.06738 110.752 5.98926 110.767 5.94531C110.781 5.90137 110.82 5.84277 110.874 5.76953L114.673 0.818359V-0.00195312H115.474V0.818359C115.474 0.979492 115.435 1.11621 115.356 1.22852L111.543 6.17969V7ZM117.344 7H116.548V6.17969C116.548 6.06738 116.553 5.98926 116.567 5.94531C116.582 5.90137 116.621 5.84277 116.675 5.76953L120.474 0.818359V-0.00195312H121.274V0.818359C121.274 0.979492 121.235 1.11621 121.157 1.22852L117.344 6.17969V7ZM123.145 7H122.349V6.17969C122.349 6.06738 122.354 5.98926 122.368 5.94531C122.383 5.90137 122.422 5.84277 122.476 5.76953L126.274 0.818359V-0.00195312H127.075V0.818359C127.075 0.979492 127.036 1.11621 126.958 1.22852L123.145 6.17969V7ZM128.945 7H128.149V6.17969C128.149 6.06738 128.154 5.98926 128.169 5.94531C128.184 5.90137 128.223 5.84277 128.276 5.76953L132.075 0.818359V-0.00195312H132.876V0.818359C132.876 0.979492 132.837 1.11621 132.759 1.22852L128.945 6.17969V7ZM134.746 7H133.95V6.17969C133.95 6.06738 133.955 5.98926 133.97 5.94531C133.984 5.90137 134.023 5.84277 134.077 5.76953L137.876 0.818359V-0.00195312H138.677V0.818359C138.677 0.979492 138.638 1.11621 138.56 1.22852L134.746 6.17969V7ZM140.547 7H139.751V6.17969C139.751 6.06738 139.756 5.98926 139.771 5.94531C139.785 5.90137 139.824 5.84277 139.878 5.76953L143.677 0.818359V-0.00195312H144.478V0.818359C144.478 0.979492 144.438 1.11621 144.36 1.22852L140.547 6.17969V7ZM146.348 7H145.552V6.17969C145.552 6.06738 145.557 5.98926 145.571 5.94531C145.586 5.90137 145.625 5.84277 145.679 5.76953L149.478 0.818359V-0.00195312H150.278V0.818359C150.278 0.979492 150.239 1.11621 150.161 1.22852L146.348 6.17969V7ZM152.148 7H151.353V6.17969C151.353 6.06738 151.357 5.98926 151.372 5.94531C151.387 5.90137 151.426 5.84277 151.479 5.76953L155.278 0.818359V-0.00195312H156.079V0.818359C156.079 0.979492 156.04 1.11621 155.962 1.22852L152.148 6.17969V7ZM157.949 7H157.153V6.17969C157.153 6.06738 157.158 5.98926 157.173 5.94531C157.188 5.90137 157.227 5.84277 157.28 5.76953L161.079 0.818359V-0.00195312H161.88V0.818359C161.88 0.979492 161.841 1.11621 161.763 1.22852L157.949 6.17969V7ZM163.75 7H162.954V6.17969C162.954 6.06738 162.959 5.98926 162.974 5.94531C162.988 5.90137 163.027 5.84277 163.081 5.76953L166.88 0.818359V-0.00195312H167.681V0.818359C167.681 0.979492 167.642 1.11621 167.563 1.22852L163.75 6.17969V7ZM169.551 7H168.755V6.17969C168.755 6.06738 168.76 5.98926 168.774 5.94531C168.789 5.90137 168.828 5.84277 168.882 5.76953L172.681 0.818359V-0.00195312H173.481V0.818359C173.481 0.979492 173.442 1.11621 173.364 1.22852L169.551 6.17969V7ZM175.352 7H174.556V6.17969C174.556 6.06738 174.561 5.98926 174.575 5.94531C174.59 5.90137 174.629 5.84277 174.683 5.76953L178.481 0.818359V-0.00195312H179.282V0.818359C179.282 0.979492 179.243 1.11621 179.165 1.22852L175.352 6.17969V7ZM181.152 7H180.356V6.17969C180.356 6.06738 180.361 5.98926 180.376 5.94531C180.391 5.90137 180.43 5.84277 180.483 5.76953L184.282 0.818359V-0.00195312H185.083V0.818359C185.083 0.979492 185.044 1.11621 184.966 1.22852L181.152 6.17969V7ZM186.953 7H186.157V6.17969C186.157 6.06738 186.162 5.98926 186.177 5.94531C186.191 5.90137 186.23 5.84277 186.284 5.76953L190.083 0.818359V-0.00195312H190.884V0.818359C190.884 0.979492 190.845 1.11621 190.767 1.22852L186.953 6.17969V7ZM192.754 7H191.958V6.17969C191.958 6.06738 191.963 5.98926 191.978 5.94531C191.992 5.90137 192.031 5.84277 192.085 5.76953L195.884 0.818359V-0.00195312H196.685V0.818359C196.685 0.979492 196.646 1.11621 196.567 1.22852L192.754 6.17969V7ZM198.555 7H197.759V6.17969C197.759 6.06738 197.764 5.98926 197.778 5.94531C197.793 5.90137 197.832 5.84277 197.886 5.76953L201.685 0.818359V-0.00195312H202.485V0.818359C202.485 0.979492 202.446 1.11621 202.368 1.22852L198.555 6.17969V7ZM204.355 7H203.56V6.17969C203.56 6.06738 203.564 5.98926 203.579 5.94531C203.594 5.90137 203.633 5.84277 203.687 5.76953L207.485 0.818359V-0.00195312H208.286V0.818359C208.286 0.979492 208.247 1.11621 208.169 1.22852L204.355 6.17969V7ZM210.156 7H209.36V6.17969C209.36 6.06738 209.365 5.98926 209.38 5.94531C209.395 5.90137 209.434 5.84277 209.487 5.76953L213.286 0.818359V-0.00195312H214.087V0.818359C214.087 0.979492 214.048 1.11621 213.97 1.22852L210.156 6.17969V7ZM215.957 7H215.161V6.17969C215.161 6.06738 215.166 5.98926 215.181 5.94531C215.195 5.90137 215.234 5.84277 215.288 5.76953L219.087 0.818359V-0.00195312H219.888V0.818359C219.888 0.979492 219.849 1.11621 219.771 1.22852L215.957 6.17969V7ZM221.758 7H220.962V6.17969C220.962 6.06738 220.967 5.98926 220.981 5.94531C220.996 5.90137 221.035 5.84277 221.089 5.76953L224.888 0.818359V-0.00195312H225.688V0.818359C225.688 0.979492 225.649 1.11621 225.571 1.22852L221.758 6.17969V7ZM227.559 7H226.763V6.17969C226.763 6.06738 226.768 5.98926 226.782 5.94531C226.797 5.90137 226.836 5.84277 226.89 5.76953L230.688 0.818359V-0.00195312H231.489V0.818359C231.489 0.979492 231.45 1.11621 231.372 1.22852L227.559 6.17969V7ZM233.359 7H232.563V6.17969C232.563 6.06738 232.568 5.98926 232.583 5.94531C232.598 5.90137 232.637 5.84277 232.69 5.76953L236.489 0.818359V-0.00195312H237.29V0.818359C237.29 0.979492 237.251 1.11621 237.173 1.22852L233.359 6.17969V7ZM239.16 7H238.364V6.17969C238.364 6.06738 238.369 5.98926 238.384 5.94531C238.398 5.90137 238.438 5.84277 238.491 5.76953L242.29 0.818359V-0.00195312H243.091V0.818359C243.091 0.979492 243.052 1.11621 242.974 1.22852L239.16 6.17969V7ZM244.961 7H244.165V6.17969C244.165 6.06738 244.17 5.98926 244.185 5.94531C244.199 5.90137 244.238 5.84277 244.292 5.76953L248.091 0.818359V-0.00195312H248.892V0.818359C248.892 0.979492 248.853 1.11621 248.774 1.22852L244.961 6.17969V7ZM250.762 7H249.966V6.17969C249.966 6.06738 249.971 5.98926 249.985 5.94531C250 5.90137 250.039 5.84277 250.093 5.76953L253.892 0.818359V-0.00195312H254.692V0.818359C254.692 0.979492 254.653 1.11621 254.575 1.22852L250.762 6.17969V7ZM256.562 7H255.767V6.17969C255.767 6.06738 255.771 5.98926 255.786 5.94531C255.801 5.90137 255.84 5.84277 255.894 5.76953L259.692 0.818359V-0.00195312H260.493V0.818359C260.493 0.979492 260.454 1.11621 260.376 1.22852L256.562 6.17969V7ZM262.363 7H261.567V6.17969C261.567 6.06738 261.572 5.98926 261.587 5.94531C261.602 5.90137 261.641 5.84277 261.694 5.76953L265.493 0.818359V-0.00195312H266.294V0.818359C266.294 0.979492 266.255 1.11621 266.177 1.22852L262.363 6.17969V7ZM268.164 7H267.368V6.17969C267.368 6.06738 267.373 5.98926 267.388 5.94531C267.402 5.90137 267.441 5.84277 267.495 5.76953L271.294 0.818359V-0.00195312H272.095V0.818359C272.095 0.979492 272.056 1.11621 271.978 1.22852L268.164 6.17969V7ZM273.965 7H273.169V6.17969C273.169 6.06738 273.174 5.98926 273.188 5.94531C273.203 5.90137 273.242 5.84277 273.296 5.76953L277.095 0.818359V-0.00195312H277.896V0.818359C277.896 0.979492 277.856 1.11621 277.778 1.22852L273.965 6.17969V7ZM279.766 7H278.97V6.17969C278.97 6.06738 278.975 5.98926 278.989 5.94531C279.004 5.90137 279.043 5.84277 279.097 5.76953L282.896 0.818359V-0.00195312H283.696V0.818359C283.696 0.979492 283.657 1.11621 283.579 1.22852L279.766 6.17969V7ZM285.566 7H284.771V6.17969C284.771 6.06738 284.775 5.98926 284.79 5.94531C284.805 5.90137 284.844 5.84277 284.897 5.76953L288.696 0.818359V-0.00195312H289.497V0.818359C289.497 0.979492 289.458 1.11621 289.38 1.22852L285.566 6.17969V7ZM291.367 7H290.571V6.17969C290.571 6.06738 290.576 5.98926 290.591 5.94531C290.605 5.90137 290.645 5.84277 290.698 5.76953L294.497 0.818359V-0.00195312H295.298V0.818359C295.298 0.979492 295.259 1.11621 295.181 1.22852L291.367 6.17969V7ZM297.168 7H296.372V6.17969C296.372 6.06738 296.377 5.98926 296.392 5.94531C296.406 5.90137 296.445 5.84277 296.499 5.76953L300.298 0.818359V-0.00195312H301.099V0.818359C301.099 0.979492 301.06 1.11621 300.981 1.22852L297.168 6.17969V7ZM302.969 7H302.173V6.17969C302.173 6.06738 302.178 5.98926 302.192 5.94531C302.207 5.90137 302.246 5.84277 302.3 5.76953L306.099 0.818359V-0.00195312H306.899V0.818359C306.899 0.979492 306.86 1.11621 306.782 1.22852L302.969 6.17969V7ZM308.77 7H307.974V6.17969C307.974 6.06738 307.979 5.98926 307.993 5.94531C308.008 5.90137 308.047 5.84277 308.101 5.76953L311.899 0.818359V-0.00195312H312.7V0.818359C312.7 0.979492 312.661 1.11621 312.583 1.22852L308.77 6.17969V7ZM314.57 7H313.774V6.17969C313.774 6.06738 313.779 5.98926 313.794 5.94531C313.809 5.90137 313.848 5.84277 313.901 5.76953L317.7 0.818359V-0.00195312H318.501V0.818359C318.501 0.979492 318.462 1.11621 318.384 1.22852L314.57 6.17969V7ZM320.371 7H319.575V6.17969C319.575 6.06738 319.58 5.98926 319.595 5.94531C319.609 5.90137 319.648 5.84277 319.702 5.76953L323.501 0.818359V-0.00195312H324.302V0.818359C324.302 0.979492 324.263 1.11621 324.185 1.22852L320.371 6.17969V7ZM326.172 7H325.376V6.17969C325.376 6.06738 325.381 5.98926 325.396 5.94531C325.41 5.90137 325.449 5.84277 325.503 5.76953L329.302 0.818359V-0.00195312H330.103V0.818359C330.103 0.979492 330.063 1.11621 329.985 1.22852L326.172 6.17969V7ZM331.973 7H331.177V6.17969C331.177 6.06738 331.182 5.98926 331.196 5.94531C331.211 5.90137 331.25 5.84277 331.304 5.76953L335.103 0.818359V-0.00195312H335.903V0.818359C335.903 0.979492 335.864 1.11621 335.786 1.22852L331.973 6.17969V7ZM337.773 7H336.978V6.17969C336.978 6.06738 336.982 5.98926 336.997 5.94531C337.012 5.90137 337.051 5.84277 337.104 5.76953L340.903 0.818359V-0.00195312H341.704V0.818359C341.704 0.979492 341.665 1.11621 341.587 1.22852L337.773 6.17969V7ZM343.574 7H342.778V6.17969C342.778 6.06738 342.783 5.98926 342.798 5.94531C342.812 5.90137 342.852 5.84277 342.905 5.76953L346.704 0.818359V-0.00195312H347.505V0.818359C347.505 0.979492 347.466 1.11621 347.388 1.22852L343.574 6.17969V7ZM349.375 7H348.579V6.17969C348.579 6.06738 348.584 5.98926 348.599 5.94531C348.613 5.90137 348.652 5.84277 348.706 5.76953L352.505 0.818359V-0.00195312H353.306V0.818359C353.306 0.979492 353.267 1.11621 353.188 1.22852L349.375 6.17969V7ZM355.176 7H354.38V6.17969C354.38 6.06738 354.385 5.98926 354.399 5.94531C354.414 5.90137 354.453 5.84277 354.507 5.76953L358.306 0.818359V-0.00195312H359.106V0.818359C359.106 0.979492 359.067 1.11621 358.989 1.22852L355.176 6.17969V7ZM360.977 7H360.181V6.17969C360.181 6.06738 360.186 5.98926 360.2 5.94531C360.215 5.90137 360.254 5.84277 360.308 5.76953L364.106 0.818359V-0.00195312H364.907V0.818359C364.907 0.979492 364.868 1.11621 364.79 1.22852L360.977 6.17969V7ZM366.777 7H365.981V6.17969C365.981 6.06738 365.986 5.98926 366.001 5.94531C366.016 5.90137 366.055 5.84277 366.108 5.76953L369.907 0.818359V-0.00195312H370.708V0.818359C370.708 0.979492 370.669 1.11621 370.591 1.22852L366.777 6.17969V7ZM372.578 7H371.782V6.17969C371.782 6.06738 371.787 5.98926 371.802 5.94531C371.816 5.90137 371.855 5.84277 371.909 5.76953L375.708 0.818359V-0.00195312H376.509V0.818359C376.509 0.979492 376.47 1.11621 376.392 1.22852L372.578 6.17969V7ZM378.379 7H377.583V6.17969C377.583 6.06738 377.588 5.98926 377.603 5.94531C377.617 5.90137 377.656 5.84277 377.71 5.76953L381.509 0.818359V-0.00195312H382.31V0.818359C382.31 0.979492 382.271 1.11621 382.192 1.22852L378.379 6.17969V7ZM384.18 7H383.384V6.17969C383.384 6.06738 383.389 5.98926 383.403 5.94531C383.418 5.90137 383.457 5.84277 383.511 5.76953L387.31 0.818359V-0.00195312H388.11V0.818359C388.11 0.979492 388.071 1.11621 387.993 1.22852L384.18 6.17969V7ZM389.98 7H389.185V6.17969C389.185 6.06738 389.189 5.98926 389.204 5.94531C389.219 5.90137 389.258 5.84277 389.312 5.76953L393.11 0.818359V-0.00195312H393.911V0.818359C393.911 0.979492 393.872 1.11621 393.794 1.22852L389.98 6.17969V7ZM395.781 7H394.985V6.17969C394.985 6.06738 394.99 5.98926 395.005 5.94531C395.02 5.90137 395.059 5.84277 395.112 5.76953L398.911 0.818359V-0.00195312H399.712V0.818359C399.712 0.979492 399.673 1.11621 399.595 1.22852L395.781 6.17969V7ZM401.582 7H400.786V6.17969C400.786 6.06738 400.791 5.98926 400.806 5.94531C400.82 5.90137 400.859 5.84277 400.913 5.76953L404.712 0.818359V-0.00195312H405.513V0.818359C405.513 0.979492 405.474 1.11621 405.396 1.22852L401.582 6.17969V7ZM407.383 7H406.587V6.17969C406.587 6.06738 406.592 5.98926 406.606 5.94531C406.621 5.90137 406.66 5.84277 406.714 5.76953L410.513 0.818359V-0.00195312H411.313V0.818359C411.313 0.979492 411.274 1.11621 411.196 1.22852L407.383 6.17969V7Z" fill="black"/>
</svg>
