<svg width="180" height="161" viewBox="0 0 180 161" fill="none" xmlns="http://www.w3.org/2000/svg">
<g id="C ring" clip-path="url(#clip0_1_415)">
<path id="Vector" d="M174.932 48.9982C174.594 47.9985 173.579 47.3998 172.539 47.5612L160.145 49.5084C157.174 49.977 154.281 48.4046 152.975 45.6921C146.919 33.0716 137.704 22.2681 126.075 14.2293C112.615 4.92012 96.8342 0 80.4498 0C36.0884 0 0 36.1121 0 80.5026C0 124.893 36.0884 161.005 80.4498 161.005C96.8394 161.005 112.62 156.085 126.081 146.776C137.709 138.737 146.919 127.934 152.975 115.313C154.276 112.601 157.169 111.033 160.14 111.497L172.528 113.444C173.569 113.605 174.589 113.007 174.922 112.007C181.66 91.9412 181.717 69.1212 174.927 49.0034L174.932 48.9982ZM156.274 103.77C155.275 107.024 152.054 109.06 148.698 108.534L137.304 106.665C136.263 106.504 135.228 107.024 134.754 107.972C133.11 111.252 131.565 113.751 130.113 115.579C119.114 131.099 101.012 141.226 80.5538 141.226C47.0149 141.226 19.8289 114.022 19.8289 80.4609C19.8289 46.9 47.0149 19.6961 80.5538 19.6961C101.319 19.6961 119.644 30.1299 130.597 46.0409C131.908 47.8007 133.292 50.1072 134.759 53.028C135.233 53.9704 136.268 54.4962 137.309 54.3348L148.693 52.4657C152.054 51.9398 155.27 53.9808 156.274 57.2296C158.584 64.7374 159.755 72.5367 159.755 80.4974C159.755 88.4581 158.584 96.2574 156.274 103.765V103.77Z" fill="#7DEA13"/>
<g id="Group">
<path id="Vector_2" d="M36.307 80.5184C36.307 76.9571 39.0386 74.2498 42.6704 74.2498C45.5945 74.2498 47.9359 76.1501 48.5966 78.8106H46.2084C45.6985 77.3008 44.3301 76.348 42.6756 76.348C40.3082 76.348 38.6536 78.0557 38.6536 80.5184C38.6536 82.981 40.3862 84.7877 42.6756 84.7877C44.4082 84.7877 45.7714 83.7151 46.2605 82.1272H48.6227C48.0139 84.8814 45.6465 86.8859 42.6756 86.8859C39.0438 86.8859 36.3122 84.1525 36.3122 80.5184H36.307Z" fill="#7DEA13"/>
<path id="Vector_3" d="M65.9072 86.386V71.5476H62.7281V69.616H68.1966V86.386H65.902H65.9072Z" fill="#7DEA13"/>
<path id="Vector_4" d="M127.553 86.386V71.5476H124.374V69.616H129.842V86.386H127.548H127.553Z" fill="#7DEA13"/>
<path id="Vector_5" d="M85.6112 82.9238H87.7341C87.9266 84.1057 89.2325 84.8554 91.1369 84.8554C93.1661 84.8554 94.1026 84.2983 94.1026 83.2882C94.1026 82.2782 93.3794 81.9866 91.1108 81.6951C88.2127 81.2838 86.1419 80.7058 86.1419 77.8787C86.1419 75.6347 87.9058 74.3748 90.9443 74.3748C93.9829 74.3748 95.8196 75.7753 95.9393 78.1911H93.8425C93.7436 76.9832 92.807 76.4053 90.9443 76.4053C89.2065 76.4053 88.3844 76.8635 88.3844 77.6861C88.3844 78.92 89.0869 79.1127 91.3294 79.4979C93.4314 79.7895 96.3503 80.1279 96.3503 83.1945C96.3503 85.5114 94.4668 86.8911 91.1369 86.8911C87.8069 86.8911 85.684 85.4437 85.6112 82.929V82.9238Z" fill="#7DEA13"/>
<path id="Vector_6" d="M98.2703 82.9238H100.393C100.586 84.1057 101.892 84.8554 103.796 84.8554C105.825 84.8554 106.762 84.2983 106.762 83.2882C106.762 82.2782 106.038 81.9866 103.77 81.6951C100.872 81.2838 98.801 80.7058 98.801 77.8787C98.801 75.6347 100.565 74.3748 103.603 74.3748C106.642 74.3748 108.479 75.7753 108.598 78.1911H106.502C106.403 76.9832 105.466 76.4053 103.603 76.4053C101.866 76.4053 101.043 76.8635 101.043 77.6861C101.043 78.92 101.746 79.1127 103.988 79.4979C106.09 79.7895 109.009 80.1279 109.009 83.1945C109.009 85.5114 107.126 86.8911 103.796 86.8911C100.466 86.8911 98.3431 85.4437 98.2703 82.929V82.9238Z" fill="#7DEA13"/>
<path id="Vector_7" d="M111.054 80.5809C111.054 77.0561 113.442 74.3748 116.653 74.3748C118.484 74.3748 119.863 75.0516 120.924 76.4782V74.7132H123.094V84.7356H124.374V86.3913H121.481L120.924 84.569C119.936 86.1362 118.583 86.8859 116.653 86.8859C113.442 86.8859 111.054 84.1838 111.054 80.5861V80.5809ZM120.898 80.5809C120.898 78.238 119.207 76.4521 116.965 76.4521C114.842 76.4521 113.37 78.1442 113.37 80.5809C113.37 83.0175 114.842 84.8085 116.965 84.8085C119.207 84.8085 120.898 82.9967 120.898 80.5809Z" fill="#7DEA13"/>
<path id="Vector_8" d="M56.7342 86.886C53.2534 86.886 50.4177 84.0536 50.4177 80.5653C50.4177 77.077 53.2482 74.2446 56.7342 74.2446C60.2203 74.2446 63.0508 77.077 63.0508 80.5653C63.0508 84.0536 60.2203 86.886 56.7342 86.886ZM56.7342 76.473C54.4761 76.473 52.6446 78.3109 52.6446 80.5653C52.6446 82.8197 54.4813 84.6576 56.7342 84.6576C58.9872 84.6576 60.8239 82.8197 60.8239 80.5653C60.8239 78.3109 58.9872 76.473 56.7342 76.473Z" fill="#7DEA13"/>
<path id="Vector_9" d="M77.1719 86.886C73.691 86.886 70.8553 84.0536 70.8553 80.5653C70.8553 77.077 73.6858 74.2446 77.1719 74.2446C80.6579 74.2446 83.4884 77.077 83.4884 80.5653C83.4884 84.0536 80.6579 86.886 77.1719 86.886ZM77.1719 76.473C74.9137 76.473 73.0823 78.3109 73.0823 80.5653C73.0823 82.8197 74.9189 84.6576 77.1719 84.6576C79.4248 84.6576 81.2615 82.8197 81.2615 80.5653C81.2615 78.3109 79.4248 76.473 77.1719 76.473Z" fill="#7DEA13"/>
</g>
</g>
<defs>
<clipPath id="clip0_1_415">
<rect width="180" height="161" fill="white"/>
</clipPath>
</defs>
</svg>
