<svg width="555" height="34" viewBox="0 0 555 34" fill="none" xmlns="http://www.w3.org/2000/svg">
<rect y="13" width="8" height="8" fill="#7DEA13"/>
<path d="M38.3281 21H37.5322V20.1797C37.5322 20.0674 37.5371 19.9893 37.5518 19.9453C37.5664 19.9014 37.6055 19.8428 37.6592 19.7695L41.458 14.8184V13.998H42.2588V14.8184C42.2588 14.9795 42.2197 15.1162 42.1416 15.2285L38.3281 20.1797V21ZM44.1289 21H43.333V20.1797C43.333 20.0674 43.3379 19.9893 43.3525 19.9453C43.3672 19.9014 43.4062 19.8428 43.46 19.7695L47.2588 14.8184V13.998H48.0596V14.8184C48.0596 14.9795 48.0205 15.1162 47.9424 15.2285L44.1289 20.1797V21ZM49.9297 21H49.1338V20.1797C49.1338 20.0674 49.1387 19.9893 49.1533 19.9453C49.168 19.9014 49.207 19.8428 49.2607 19.7695L53.0596 14.8184V13.998H53.8604V14.8184C53.8604 14.9795 53.8213 15.1162 53.7432 15.2285L49.9297 20.1797V21ZM55.7305 21H54.9346V20.1797C54.9346 20.0674 54.9395 19.9893 54.9541 19.9453C54.9688 19.9014 55.0078 19.8428 55.0615 19.7695L58.8604 14.8184V13.998H59.6611V14.8184C59.6611 14.9795 59.6221 15.1162 59.5439 15.2285L55.7305 20.1797V21ZM61.5312 21H60.7354V20.1797C60.7354 20.0674 60.7402 19.9893 60.7549 19.9453C60.7695 19.9014 60.8086 19.8428 60.8623 19.7695L64.6611 14.8184V13.998H65.4619V14.8184C65.4619 14.9795 65.4229 15.1162 65.3447 15.2285L61.5312 20.1797V21ZM67.332 21H66.5361V20.1797C66.5361 20.0674 66.541 19.9893 66.5557 19.9453C66.5703 19.9014 66.6094 19.8428 66.6631 19.7695L70.4619 14.8184V13.998H71.2627V14.8184C71.2627 14.9795 71.2236 15.1162 71.1455 15.2285L67.332 20.1797V21ZM73.1328 21H72.3369V20.1797C72.3369 20.0674 72.3418 19.9893 72.3564 19.9453C72.3711 19.9014 72.4102 19.8428 72.4639 19.7695L76.2627 14.8184V13.998H77.0635V14.8184C77.0635 14.9795 77.0244 15.1162 76.9463 15.2285L73.1328 20.1797V21ZM78.9336 21H78.1377V20.1797C78.1377 20.0674 78.1426 19.9893 78.1572 19.9453C78.1719 19.9014 78.2109 19.8428 78.2646 19.7695L82.0635 14.8184V13.998H82.8643V14.8184C82.8643 14.9795 82.8252 15.1162 82.7471 15.2285L78.9336 20.1797V21ZM84.7344 21H83.9385V20.1797C83.9385 20.0674 83.9434 19.9893 83.958 19.9453C83.9727 19.9014 84.0117 19.8428 84.0654 19.7695L87.8643 14.8184V13.998H88.665V14.8184C88.665 14.9795 88.626 15.1162 88.5479 15.2285L84.7344 20.1797V21ZM90.5352 21H89.7393V20.1797C89.7393 20.0674 89.7441 19.9893 89.7588 19.9453C89.7734 19.9014 89.8125 19.8428 89.8662 19.7695L93.665 14.8184V13.998H94.4658V14.8184C94.4658 14.9795 94.4268 15.1162 94.3486 15.2285L90.5352 20.1797V21ZM96.3359 21H95.54V20.1797C95.54 20.0674 95.5449 19.9893 95.5596 19.9453C95.5742 19.9014 95.6133 19.8428 95.667 19.7695L99.4658 14.8184V13.998H100.267V14.8184C100.267 14.9795 100.228 15.1162 100.149 15.2285L96.3359 20.1797V21ZM102.137 21H101.341V20.1797C101.341 20.0674 101.346 19.9893 101.36 19.9453C101.375 19.9014 101.414 19.8428 101.468 19.7695L105.267 14.8184V13.998H106.067V14.8184C106.067 14.9795 106.028 15.1162 105.95 15.2285L102.137 20.1797V21ZM107.938 21H107.142V20.1797C107.142 20.0674 107.146 19.9893 107.161 19.9453C107.176 19.9014 107.215 19.8428 107.269 19.7695L111.067 14.8184V13.998H111.868V14.8184C111.868 14.9795 111.829 15.1162 111.751 15.2285L107.938 20.1797V21ZM113.738 21H112.942V20.1797C112.942 20.0674 112.947 19.9893 112.962 19.9453C112.977 19.9014 113.016 19.8428 113.069 19.7695L116.868 14.8184V13.998H117.669V14.8184C117.669 14.9795 117.63 15.1162 117.552 15.2285L113.738 20.1797V21ZM119.539 21H118.743V20.1797C118.743 20.0674 118.748 19.9893 118.763 19.9453C118.777 19.9014 118.816 19.8428 118.87 19.7695L122.669 14.8184V13.998H123.47V14.8184C123.47 14.9795 123.431 15.1162 123.353 15.2285L119.539 20.1797V21ZM125.34 21H124.544V20.1797C124.544 20.0674 124.549 19.9893 124.563 19.9453C124.578 19.9014 124.617 19.8428 124.671 19.7695L128.47 14.8184V13.998H129.271V14.8184C129.271 14.9795 129.231 15.1162 129.153 15.2285L125.34 20.1797V21ZM131.141 21H130.345V20.1797C130.345 20.0674 130.35 19.9893 130.364 19.9453C130.379 19.9014 130.418 19.8428 130.472 19.7695L134.271 14.8184V13.998H135.071V14.8184C135.071 14.9795 135.032 15.1162 134.954 15.2285L131.141 20.1797V21ZM136.941 21H136.146V20.1797C136.146 20.0674 136.15 19.9893 136.165 19.9453C136.18 19.9014 136.219 19.8428 136.272 19.7695L140.071 14.8184V13.998H140.872V14.8184C140.872 14.9795 140.833 15.1162 140.755 15.2285L136.941 20.1797V21ZM142.742 21H141.946V20.1797C141.946 20.0674 141.951 19.9893 141.966 19.9453C141.98 19.9014 142.02 19.8428 142.073 19.7695L145.872 14.8184V13.998H146.673V14.8184C146.673 14.9795 146.634 15.1162 146.556 15.2285L142.742 20.1797V21ZM148.543 21H147.747V20.1797C147.747 20.0674 147.752 19.9893 147.767 19.9453C147.781 19.9014 147.82 19.8428 147.874 19.7695L151.673 14.8184V13.998H152.474V14.8184C152.474 14.9795 152.435 15.1162 152.356 15.2285L148.543 20.1797V21ZM154.344 21H153.548V20.1797C153.548 20.0674 153.553 19.9893 153.567 19.9453C153.582 19.9014 153.621 19.8428 153.675 19.7695L157.474 14.8184V13.998H158.274V14.8184C158.274 14.9795 158.235 15.1162 158.157 15.2285L154.344 20.1797V21ZM160.145 21H159.349V20.1797C159.349 20.0674 159.354 19.9893 159.368 19.9453C159.383 19.9014 159.422 19.8428 159.476 19.7695L163.274 14.8184V13.998H164.075V14.8184C164.075 14.9795 164.036 15.1162 163.958 15.2285L160.145 20.1797V21ZM165.945 21H165.149V20.1797C165.149 20.0674 165.154 19.9893 165.169 19.9453C165.184 19.9014 165.223 19.8428 165.276 19.7695L169.075 14.8184V13.998H169.876V14.8184C169.876 14.9795 169.837 15.1162 169.759 15.2285L165.945 20.1797V21ZM171.746 21H170.95V20.1797C170.95 20.0674 170.955 19.9893 170.97 19.9453C170.984 19.9014 171.023 19.8428 171.077 19.7695L174.876 14.8184V13.998H175.677V14.8184C175.677 14.9795 175.638 15.1162 175.56 15.2285L171.746 20.1797V21ZM177.547 21H176.751V20.1797C176.751 20.0674 176.756 19.9893 176.771 19.9453C176.785 19.9014 176.824 19.8428 176.878 19.7695L180.677 14.8184V13.998H181.478V14.8184C181.478 14.9795 181.438 15.1162 181.36 15.2285L177.547 20.1797V21ZM183.348 21H182.552V20.1797C182.552 20.0674 182.557 19.9893 182.571 19.9453C182.586 19.9014 182.625 19.8428 182.679 19.7695L186.478 14.8184V13.998H187.278V14.8184C187.278 14.9795 187.239 15.1162 187.161 15.2285L183.348 20.1797V21ZM189.148 21H188.353V20.1797C188.353 20.0674 188.357 19.9893 188.372 19.9453C188.387 19.9014 188.426 19.8428 188.479 19.7695L192.278 14.8184V13.998H193.079V14.8184C193.079 14.9795 193.04 15.1162 192.962 15.2285L189.148 20.1797V21ZM194.949 21H194.153V20.1797C194.153 20.0674 194.158 19.9893 194.173 19.9453C194.188 19.9014 194.227 19.8428 194.28 19.7695L198.079 14.8184V13.998H198.88V14.8184C198.88 14.9795 198.841 15.1162 198.763 15.2285L194.949 20.1797V21ZM200.75 21H199.954V20.1797C199.954 20.0674 199.959 19.9893 199.974 19.9453C199.988 19.9014 200.027 19.8428 200.081 19.7695L203.88 14.8184V13.998H204.681V14.8184C204.681 14.9795 204.642 15.1162 204.563 15.2285L200.75 20.1797V21ZM206.551 21H205.755V20.1797C205.755 20.0674 205.76 19.9893 205.774 19.9453C205.789 19.9014 205.828 19.8428 205.882 19.7695L209.681 14.8184V13.998H210.481V14.8184C210.481 14.9795 210.442 15.1162 210.364 15.2285L206.551 20.1797V21ZM212.352 21H211.556V20.1797C211.556 20.0674 211.561 19.9893 211.575 19.9453C211.59 19.9014 211.629 19.8428 211.683 19.7695L215.481 14.8184V13.998H216.282V14.8184C216.282 14.9795 216.243 15.1162 216.165 15.2285L212.352 20.1797V21ZM218.152 21H217.356V20.1797C217.356 20.0674 217.361 19.9893 217.376 19.9453C217.391 19.9014 217.43 19.8428 217.483 19.7695L221.282 14.8184V13.998H222.083V14.8184C222.083 14.9795 222.044 15.1162 221.966 15.2285L218.152 20.1797V21ZM223.953 21H223.157V20.1797C223.157 20.0674 223.162 19.9893 223.177 19.9453C223.191 19.9014 223.23 19.8428 223.284 19.7695L227.083 14.8184V13.998H227.884V14.8184C227.884 14.9795 227.845 15.1162 227.767 15.2285L223.953 20.1797V21ZM229.754 21H228.958V20.1797C228.958 20.0674 228.963 19.9893 228.978 19.9453C228.992 19.9014 229.031 19.8428 229.085 19.7695L232.884 14.8184V13.998H233.685V14.8184C233.685 14.9795 233.646 15.1162 233.567 15.2285L229.754 20.1797V21ZM235.555 21H234.759V20.1797C234.759 20.0674 234.764 19.9893 234.778 19.9453C234.793 19.9014 234.832 19.8428 234.886 19.7695L238.685 14.8184V13.998H239.485V14.8184C239.485 14.9795 239.446 15.1162 239.368 15.2285L235.555 20.1797V21ZM241.355 21H240.56V20.1797C240.56 20.0674 240.564 19.9893 240.579 19.9453C240.594 19.9014 240.633 19.8428 240.687 19.7695L244.485 14.8184V13.998H245.286V14.8184C245.286 14.9795 245.247 15.1162 245.169 15.2285L241.355 20.1797V21ZM247.156 21H246.36V20.1797C246.36 20.0674 246.365 19.9893 246.38 19.9453C246.395 19.9014 246.434 19.8428 246.487 19.7695L250.286 14.8184V13.998H251.087V14.8184C251.087 14.9795 251.048 15.1162 250.97 15.2285L247.156 20.1797V21ZM252.957 21H252.161V20.1797C252.161 20.0674 252.166 19.9893 252.181 19.9453C252.195 19.9014 252.234 19.8428 252.288 19.7695L256.087 14.8184V13.998H256.888V14.8184C256.888 14.9795 256.849 15.1162 256.771 15.2285L252.957 20.1797V21Z" fill="#7DEA13"/>
</svg>
