<svg width="139" height="14" viewBox="0 0 139 14" fill="none" xmlns="http://www.w3.org/2000/svg">
<path d="M1.65625 14H0.0644531V12.3594C0.0644531 12.1348 0.0742188 11.9785 0.103516 11.8906C0.132812 11.8027 0.210938 11.6855 0.318359 11.5391L7.91602 1.63672V-0.00390625H9.51758V1.63672C9.51758 1.95898 9.43945 2.23242 9.2832 2.45703L1.65625 12.3594V14ZM10.2578 14H8.66602V12.3594C8.66602 12.1348 8.67578 11.9785 8.70508 11.8906C8.73438 11.8027 8.8125 11.6855 8.91992 11.5391L16.5176 1.63672V-0.00390625H18.1191V1.63672C18.1191 1.95898 18.041 2.23242 17.8848 2.45703L10.2578 12.3594V14ZM18.8594 14H17.2676V12.3594C17.2676 12.1348 17.2773 11.9785 17.3066 11.8906C17.3359 11.8027 17.4141 11.6855 17.5215 11.5391L25.1191 1.63672V-0.00390625H26.7207V1.63672C26.7207 1.95898 26.6426 2.23242 26.4863 2.45703L18.8594 12.3594V14ZM27.4609 14H25.8691V12.3594C25.8691 12.1348 25.8789 11.9785 25.9082 11.8906C25.9375 11.8027 26.0156 11.6855 26.123 11.5391L33.7207 1.63672V-0.00390625H35.3223V1.63672C35.3223 1.95898 35.2441 2.23242 35.0879 2.45703L27.4609 12.3594V14ZM36.0625 14H34.4707V12.3594C34.4707 12.1348 34.4805 11.9785 34.5098 11.8906C34.5391 11.8027 34.6172 11.6855 34.7246 11.5391L42.3223 1.63672V-0.00390625H43.9238V1.63672C43.9238 1.95898 43.8457 2.23242 43.6895 2.45703L36.0625 12.3594V14ZM44.6641 14H43.0723V12.3594C43.0723 12.1348 43.082 11.9785 43.1113 11.8906C43.1406 11.8027 43.2188 11.6855 43.3262 11.5391L50.9238 1.63672V-0.00390625H52.5254V1.63672C52.5254 1.95898 52.4473 2.23242 52.291 2.45703L44.6641 12.3594V14ZM53.2656 14H51.6738V12.3594C51.6738 12.1348 51.6836 11.9785 51.7129 11.8906C51.7422 11.8027 51.8203 11.6855 51.9277 11.5391L59.5254 1.63672V-0.00390625H61.127V1.63672C61.127 1.95898 61.0488 2.23242 60.8926 2.45703L53.2656 12.3594V14ZM61.8672 14H60.2754V12.3594C60.2754 12.1348 60.2852 11.9785 60.3145 11.8906C60.3438 11.8027 60.4219 11.6855 60.5293 11.5391L68.127 1.63672V-0.00390625H69.7285V1.63672C69.7285 1.95898 69.6504 2.23242 69.4941 2.45703L61.8672 12.3594V14ZM70.4688 14H68.877V12.3594C68.877 12.1348 68.8867 11.9785 68.916 11.8906C68.9453 11.8027 69.0234 11.6855 69.1309 11.5391L76.7285 1.63672V-0.00390625H78.3301V1.63672C78.3301 1.95898 78.252 2.23242 78.0957 2.45703L70.4688 12.3594V14ZM79.0703 14H77.4785V12.3594C77.4785 12.1348 77.4883 11.9785 77.5176 11.8906C77.5469 11.8027 77.625 11.6855 77.7324 11.5391L85.3301 1.63672V-0.00390625H86.9316V1.63672C86.9316 1.95898 86.8535 2.23242 86.6973 2.45703L79.0703 12.3594V14ZM87.6719 14H86.0801V12.3594C86.0801 12.1348 86.0898 11.9785 86.1191 11.8906C86.1484 11.8027 86.2266 11.6855 86.334 11.5391L93.9316 1.63672V-0.00390625H95.5332V1.63672C95.5332 1.95898 95.4551 2.23242 95.2988 2.45703L87.6719 12.3594V14ZM96.2734 14H94.6816V12.3594C94.6816 12.1348 94.6914 11.9785 94.7207 11.8906C94.75 11.8027 94.8281 11.6855 94.9355 11.5391L102.533 1.63672V-0.00390625H104.135V1.63672C104.135 1.95898 104.057 2.23242 103.9 2.45703L96.2734 12.3594V14ZM104.875 14H103.283V12.3594C103.283 12.1348 103.293 11.9785 103.322 11.8906C103.352 11.8027 103.43 11.6855 103.537 11.5391L111.135 1.63672V-0.00390625H112.736V1.63672C112.736 1.95898 112.658 2.23242 112.502 2.45703L104.875 12.3594V14ZM113.477 14H111.885V12.3594C111.885 12.1348 111.895 11.9785 111.924 11.8906C111.953 11.8027 112.031 11.6855 112.139 11.5391L119.736 1.63672V-0.00390625H121.338V1.63672C121.338 1.95898 121.26 2.23242 121.104 2.45703L113.477 12.3594V14ZM122.078 14H120.486V12.3594C120.486 12.1348 120.496 11.9785 120.525 11.8906C120.555 11.8027 120.633 11.6855 120.74 11.5391L128.338 1.63672V-0.00390625H129.939V1.63672C129.939 1.95898 129.861 2.23242 129.705 2.45703L122.078 12.3594V14ZM130.68 14H129.088V12.3594C129.088 12.1348 129.098 11.9785 129.127 11.8906C129.156 11.8027 129.234 11.6855 129.342 11.5391L136.939 1.63672V-0.00390625H138.541V1.63672C138.541 1.95898 138.463 2.23242 138.307 2.45703L130.68 12.3594V14Z" fill="#7DEA13"/>
</svg>
