<svg width="102" height="257" viewBox="0 0 102 257" fill="none" xmlns="http://www.w3.org/2000/svg">
<path fill-rule="evenodd" clip-rule="evenodd" d="M75.8342 149.57C64.1755 149.57 54.724 140.146 54.724 128.522C54.724 116.897 64.1755 107.473 75.8342 107.473C87.4933 107.473 96.9444 116.897 96.9444 128.522C96.9444 140.146 87.4933 149.57 75.8342 149.57ZM75.8342 112.741C67.1075 112.741 60.0077 119.82 60.0077 128.522C60.0077 137.222 67.1075 144.301 75.8342 144.301C84.5614 144.301 91.6608 137.222 91.6608 128.522C91.6608 119.82 84.5614 112.741 75.8342 112.741ZM75.8342 95.8337C64.1755 95.8337 54.724 86.41 54.724 74.785C54.724 63.16 64.1755 53.7367 75.8342 53.7367C87.4933 53.7367 96.9444 63.16 96.9444 74.785C96.9444 86.41 87.4933 95.8337 75.8342 95.8337ZM75.8342 59.0048C67.1075 59.0048 60.0077 66.0839 60.0077 74.785C60.0077 83.486 67.1075 90.5652 75.8342 90.5652C84.5614 90.5652 91.6608 83.486 91.6608 74.785C91.6608 66.0839 84.5614 59.0048 75.8342 59.0048ZM75.8342 42.097C64.1755 42.097 54.724 32.6737 54.724 21.0487C54.724 9.42455 64.1755 0 75.8342 0C87.4933 0 96.9444 9.42455 96.9444 21.0487C96.9444 32.6737 87.4933 42.097 75.8342 42.097ZM75.8342 5.26849C67.1075 5.26849 60.0077 12.3476 60.0077 21.0487C60.0077 29.7506 67.1075 36.8289 75.8342 36.8289C84.5614 36.8289 91.6608 29.7506 91.6608 21.0487C91.6608 12.3476 84.5614 5.26849 75.8342 5.26849ZM21.9408 256.662C10.2821 256.662 0.830566 247.617 0.830566 235.992C0.830566 224.368 10.2821 214.944 21.9408 214.944C33.5999 214.944 43.051 224.368 43.051 235.992C43.051 247.617 33.5999 256.662 21.9408 256.662ZM21.9408 220.212C13.214 220.212 6.11423 227.291 6.11423 235.992C6.11423 244.694 13.214 251.773 21.9408 251.773C30.6679 251.773 37.7673 244.694 37.7673 235.992C37.7673 227.291 30.6679 220.212 21.9408 220.212ZM21.9408 203.305C10.2821 203.305 0.830566 193.881 0.830566 182.256C0.830566 170.632 10.2821 161.208 21.9408 161.208C33.5999 161.208 43.051 170.632 43.051 182.256C43.051 193.881 33.5999 203.305 21.9408 203.305ZM21.9408 166.476C13.214 166.476 6.11423 173.555 6.11423 182.256C6.11423 190.958 13.214 198.037 21.9408 198.037C30.6679 198.037 37.7673 190.958 37.7673 182.256C37.7673 173.555 30.6679 166.476 21.9408 166.476ZM21.9408 149.57C10.2821 149.57 0.830566 140.146 0.830566 128.522C0.830566 116.897 10.2821 107.473 21.9408 107.473C33.5999 107.473 43.051 116.897 43.051 128.522C43.051 140.146 33.5999 149.57 21.9408 149.57ZM21.9408 112.741C13.214 112.741 6.11423 119.82 6.11423 128.522C6.11423 137.222 13.214 144.301 21.9408 144.301C30.6679 144.301 37.7673 137.222 37.7673 128.522C37.7673 119.82 30.6679 112.741 21.9408 112.741ZM21.9408 95.8337C10.2821 95.8337 0.830566 86.41 0.830566 74.785C0.830566 63.16 10.2821 53.7367 21.9408 53.7367C33.5999 53.7367 43.051 63.16 43.051 74.785C43.051 86.41 33.5999 95.8337 21.9408 95.8337ZM21.9408 59.0048C13.214 59.0048 6.11423 66.0839 6.11423 74.785C6.11423 83.486 13.214 90.5652 21.9408 90.5652C30.6679 90.5652 37.7673 83.486 37.7673 74.785C37.7673 66.0839 30.6679 59.0048 21.9408 59.0048ZM21.9408 42.097C10.2821 42.097 0.830566 32.6737 0.830566 21.0487C0.830566 9.42455 10.2821 0 21.9408 0C33.5999 0 43.051 9.42455 43.051 21.0487C43.051 32.6737 33.5999 42.097 21.9408 42.097ZM21.9408 5.26849C13.214 5.26849 6.11423 12.3476 6.11423 21.0487C6.11423 29.7506 13.214 36.8289 21.9408 36.8289C30.6679 36.8289 37.7673 29.7506 37.7673 21.0487C37.7673 12.3476 30.6679 5.26849 21.9408 5.26849ZM75.8342 161.208C87.4933 161.208 96.9444 170.632 96.9444 182.256C96.9444 193.881 87.4933 203.305 75.8342 203.305C64.1755 203.305 54.724 193.881 54.724 182.256C54.724 170.632 64.1755 161.208 75.8342 161.208ZM75.8342 198.037C84.5614 198.037 91.6608 190.958 91.6608 182.256C91.6608 173.555 84.5614 166.476 75.8342 166.476C67.1075 166.476 60.0077 173.555 60.0077 182.256C60.0077 190.958 67.1075 198.037 75.8342 198.037Z" fill="#FFE828"/>
<path fill-rule="evenodd" clip-rule="evenodd" d="M100.042 227.34L96.7899 227.848C96.0103 227.971 95.251 227.56 94.9093 226.851C93.3198 223.552 90.902 220.727 87.8508 218.624C84.3184 216.19 80.1779 214.903 75.8773 214.903C64.2371 214.903 54.7671 224.345 54.7671 235.952C54.7671 247.557 64.2371 257 75.8773 257C80.1779 257 84.3188 255.713 87.8512 253.279C90.9024 251.176 93.3198 248.351 94.9089 245.053C95.2506 244.344 96.0095 243.934 96.789 244.056L100.04 244.564C100.313 244.607 100.58 244.45 100.668 244.188C102.436 238.942 102.451 232.975 100.67 227.715C100.582 227.454 100.315 227.297 100.042 227.34ZM90.6588 242.794C90.3849 242.751 90.1136 242.889 89.9897 243.135C82.6826 257.666 59.9753 252.45 60.0339 235.951C59.98 219.451 82.6838 214.235 89.9909 228.77C90.1153 229.016 90.3866 229.154 90.6605 229.111L93.7846 228.622C94.6666 228.484 95.5106 229.017 95.7735 229.869C96.3799 231.83 96.6866 233.87 96.6866 235.952C96.6866 238.033 96.3795 240.073 95.7735 242.036C95.5106 242.886 94.6666 243.42 93.785 243.281L90.6588 242.794Z" fill="white"/>
</svg>
