<svg width="280" height="20" viewBox="0 0 280 20" fill="none" xmlns="http://www.w3.org/2000/svg">
<path fill-rule="evenodd" clip-rule="evenodd" d="M279.933 3.01686C279.888 3.14436 279.767 3.30986 279.601 3.52086L267.852 17.6559V19.9999H265.375V17.6559C265.375 17.1979 265.496 16.8094 265.738 16.4884L277.532 2.34886V0.00585938H279.993V2.34886C279.993 2.66636 279.978 2.89136 279.933 3.01686ZM266.314 3.52086L254.566 17.6559V19.9999H252.089V17.6559C252.089 17.1979 252.21 16.8094 252.451 16.4884L264.246 2.34886V0.00585938H266.707V2.34886C266.707 2.66636 266.692 2.89136 266.647 3.01686C266.601 3.14436 266.481 3.30986 266.314 3.52086ZM253.028 3.52086L241.279 17.6559V19.9999H238.803V17.6559C238.803 17.1979 238.924 16.8094 239.165 16.4884L250.96 2.34886V0.00585938H253.421V2.34886C253.421 2.66636 253.406 2.89136 253.361 3.01686C253.315 3.14436 253.195 3.30986 253.028 3.52086ZM239.742 3.52086L227.993 17.6559V19.9999H225.517V17.6559C225.517 17.1979 225.638 16.8094 225.879 16.4884L237.673 2.34886V0.00585938H240.135V2.34886C240.135 2.66636 240.12 2.89136 240.074 3.01686C240.029 3.14436 239.908 3.30986 239.742 3.52086ZM226.456 3.52086L214.707 17.6559V19.9999H212.23V17.6559C212.23 17.1979 212.351 16.8094 212.593 16.4884L224.387 2.34886V0.00585938H226.849V2.34886C226.849 2.66636 226.834 2.89136 226.788 3.01686C226.743 3.14436 226.622 3.30986 226.456 3.52086ZM213.17 3.52086L201.421 17.6559V19.9999H198.944V17.6559C198.944 17.1979 199.065 16.8094 199.307 16.4884L211.101 2.34886V0.00585938H213.562V2.34886C213.562 2.66636 213.547 2.89136 213.502 3.01686C213.457 3.14436 213.336 3.30986 213.17 3.52086ZM200.227 3.52086L188.478 17.6559V19.9999H186.002V17.6559C186.002 17.1979 186.123 16.8094 186.364 16.4884L198.158 2.34886V0.00585938H200.62V2.34886C200.62 2.66636 200.605 2.89136 200.559 3.01686C200.514 3.14436 200.393 3.30986 200.227 3.52086ZM186.941 3.52086L175.192 17.6559V19.9999H172.716V17.6559C172.716 17.1979 172.836 16.8094 173.078 16.4884L184.872 2.34886V0.00585938H187.334V2.34886C187.334 2.66636 187.319 2.89136 187.273 3.01686C187.228 3.14436 187.107 3.30986 186.941 3.52086ZM173.655 3.52086L161.906 17.6559V19.9999H159.429V17.6559C159.429 17.1979 159.55 16.8094 159.792 16.4884L171.586 2.34886V0.00585938H174.048V2.34886C174.048 2.66636 174.032 2.89136 173.987 3.01686C173.942 3.14436 173.821 3.30986 173.655 3.52086ZM160.369 3.52086L148.62 17.6559V19.9999H146.143V17.6559C146.143 17.1979 146.264 16.8094 146.506 16.4884L158.3 2.34886V0.00585938H160.761V2.34886C160.761 2.66636 160.746 2.89136 160.701 3.01686C160.656 3.14436 160.535 3.30986 160.369 3.52086ZM147.082 3.52086L135.334 17.6559V19.9999H132.857V17.6559C132.857 17.1979 132.978 16.8094 133.219 16.4884L145.014 2.34886V0.00585938H147.475V2.34886C147.475 2.66636 147.46 2.89136 147.415 3.01686C147.369 3.14436 147.248 3.30986 147.082 3.52086ZM133.796 3.52086L122.047 17.6559V19.9999H119.571V17.6559C119.571 17.1979 119.692 16.8094 119.933 16.4884L131.727 2.34886V0.00585938H134.189V2.34886C134.189 2.66636 134.174 2.89136 134.129 3.01686C134.083 3.14436 133.962 3.30986 133.796 3.52086ZM120.51 3.52086L108.761 17.6559V19.9999H106.285V17.6559C106.285 17.1979 106.405 16.8094 106.647 16.4884L118.441 2.34886V0.00585938H120.903V2.34886C120.903 2.66636 120.888 2.89136 120.842 3.01686C120.797 3.14436 120.676 3.30986 120.51 3.52086ZM107.224 3.52086L95.4751 17.6559V19.9999H92.9981V17.6559C92.9981 17.1979 93.1191 16.8094 93.3606 16.4884L105.155 2.34886V0.00585938H107.617V2.34886C107.617 2.66636 107.601 2.89136 107.556 3.01686C107.511 3.14436 107.39 3.30986 107.224 3.52086ZM93.9376 3.52086L82.1886 17.6559V19.9999H79.7121V17.6559C79.7121 17.1979 79.8326 16.8094 80.0746 16.4884L91.8686 2.34886V0.00585938H94.3301V2.34886C94.3301 2.66636 94.3151 2.89136 94.2701 3.01686C94.2246 3.14436 94.1036 3.30986 93.9376 3.52086ZM80.6511 3.52086L68.9026 17.6559V19.9999H66.4261V17.6559C66.4261 17.1979 66.5466 16.8094 66.7881 16.4884L78.5826 2.34886V0.00585938H81.0441V2.34886C81.0441 2.66636 81.0291 2.89136 80.9836 3.01686C80.9381 3.14436 80.8176 3.30986 80.6511 3.52086ZM67.3651 3.52086L55.6161 17.6559V19.9999H53.1396V17.6559C53.1396 17.1979 53.2606 16.8094 53.5021 16.4884L65.2966 2.34886V0.00585938H67.7581V2.34886C67.7581 2.66636 67.7426 2.89136 67.6976 3.01686C67.6521 3.14436 67.5316 3.30986 67.3651 3.52086ZM54.0791 3.52086L42.3301 17.6559V19.9999H39.8536V17.6559C39.8536 17.1979 39.9746 16.8094 40.2161 16.4884L52.0101 2.34886V0.00585938H54.4716V2.34886C54.4716 2.66636 54.4566 2.89136 54.4111 3.01686C54.3661 3.14436 54.2451 3.30986 54.0791 3.52086ZM40.7931 3.52086L29.0441 17.6559V19.9999H26.5671V17.6559C26.5671 17.1979 26.6881 16.8094 26.9296 16.4884L38.7241 2.34886V0.00585938H41.1856V2.34886C41.1856 2.66636 41.1706 2.89136 41.1251 3.01686C41.0796 3.14436 40.9591 3.30986 40.7931 3.52086ZM27.5066 3.52086L15.7576 17.6559V19.9999H13.2811V17.6559C13.2811 17.1979 13.4021 16.8094 13.6436 16.4884L25.4376 2.34886V0.00585938H27.8991V2.34886C27.8991 2.66636 27.8841 2.89136 27.8386 3.01686C27.7936 3.14436 27.6726 3.30986 27.5066 3.52086ZM14.2206 3.52086L2.47162 17.6559V19.9999H-0.00488281V17.6559C-0.00488281 17.1979 0.115617 16.8094 0.357617 16.4884L12.1516 2.34886V0.00585938H14.6131V2.34886C14.6131 2.66636 14.5981 2.89136 14.5526 3.01686C14.5076 3.14436 14.3866 3.30986 14.2206 3.52086Z" fill="#FFE828"/>
</svg>
